solid OpenSCAD_Model
  facet normal -1 0 0
    outer loop
      vertex -63 -10 0
      vertex -63 -10 5
      vertex -63 10 0
    endloop
  endfacet
  facet normal -1 0 0
    outer loop
      vertex -63 10 0
      vertex -63 -10 5
      vertex -63 10 5
    endloop
  endfacet
  facet normal 0 -1 0
    outer loop
      vertex -63 -10 5
      vertex -63 -10 0
      vertex 63 -10 0
    endloop
  endfacet
  facet normal 0 -1 0
    outer loop
      vertex 63 -10 5
      vertex -63 -10 5
      vertex 63 -10 0
    endloop
  endfacet
  facet normal 0 0 -1
    outer loop
      vertex 2.94439 -1.89224 0
      vertex 63 -10 0
      vertex 1.45395 -3.18371 0
    endloop
  endfacet
  facet normal 0 0 -1
    outer loop
      vertex -0.498102 3.46437 0
      vertex -63 10 0
      vertex 63 10 0
    endloop
  endfacet
  facet normal 0 0 -1
    outer loop
      vertex -63 -10 0
      vertex -63 10 0
      vertex -3.35823 -0.986064 0
    endloop
  endfacet
  facet normal 0 0 -1
    outer loop
      vertex -63 -10 0
      vertex -3.35823 -0.986064 0
      vertex -2.29201 -2.64512 0
    endloop
  endfacet
  facet normal 0 0 -1
    outer loop
      vertex -63 -10 0
      vertex -2.29201 -2.64512 0
      vertex -0.498102 -3.46437 0
    endloop
  endfacet
  facet normal 0 0 -1
    outer loop
      vertex -63 -10 0
      vertex -0.498102 -3.46437 0
      vertex 63 -10 0
    endloop
  endfacet
  facet normal 0 0 -1
    outer loop
      vertex -0.498102 -3.46437 0
      vertex 1.45395 -3.18371 0
      vertex 63 -10 0
    endloop
  endfacet
  facet normal 0 0 -1
    outer loop
      vertex 3.5 0 0
      vertex 63 -10 0
      vertex 2.94439 -1.89224 0
    endloop
  endfacet
  facet normal 0 0 -1
    outer loop
      vertex 2.94439 1.89224 0
      vertex 63 10 0
      vertex 3.5 0 0
    endloop
  endfacet
  facet normal 0 0 -1
    outer loop
      vertex 63 -10 0
      vertex 3.5 0 0
      vertex 63 10 0
    endloop
  endfacet
  facet normal 0 0 -1
    outer loop
      vertex -3.35823 -0.986064 0
      vertex -63 10 0
      vertex -3.35823 0.986064 0
    endloop
  endfacet
  facet normal 0 0 -1
    outer loop
      vertex -2.29201 2.64512 0
      vertex -63 10 0
      vertex -0.498102 3.46437 0
    endloop
  endfacet
  facet normal 0 0 -1
    outer loop
      vertex 2.94439 1.89224 0
      vertex 1.45395 3.18371 0
      vertex 63 10 0
    endloop
  endfacet
  facet normal 0 0 -1
    outer loop
      vertex 1.45395 3.18371 0
      vertex -0.498102 3.46437 0
      vertex 63 10 0
    endloop
  endfacet
  facet normal 0 0 -1
    outer loop
      vertex -3.35823 0.986064 0
      vertex -63 10 0
      vertex -2.29201 2.64512 0
    endloop
  endfacet
  facet normal 0 1 0
    outer loop
      vertex -63 10 0
      vertex -63 10 5
      vertex 63 10 0
    endloop
  endfacet
  facet normal 0 1 0
    outer loop
      vertex 63 10 0
      vertex -63 10 5
      vertex 63 10 5
    endloop
  endfacet
  facet normal 0 0 1
    outer loop
      vertex -37.5038 -6.92875 5
      vertex -63 -10 5
      vertex 63 -10 5
    endloop
  endfacet
  facet normal 0 0 1
    outer loop
      vertex 2.94439 -1.89224 5
      vertex 1.45395 -3.18371 5
      vertex 37.5038 -6.92875 5
    endloop
  endfacet
  facet normal 0 0 1
    outer loop
      vertex -44.3888 -3.78449 5
      vertex -45.2165 -1.97213 5
      vertex -47.2835 -1.97213 5
    endloop
  endfacet
  facet normal 0 0 1
    outer loop
      vertex -63 10 5
      vertex -63 -10 5
      vertex -60.7165 -1.97213 5
    endloop
  endfacet
  facet normal 0 0 1
    outer loop
      vertex -45.2165 -1.97213 5
      vertex -45.5 5.57196e-015 5
      vertex -47 5.75565e-015 5
    endloop
  endfacet
  facet normal 0 0 1
    outer loop
      vertex -63 10 5
      vertex -60.7165 -1.97213 5
      vertex -61 7.4701e-015 5
    endloop
  endfacet
  facet normal 0 0 1
    outer loop
      vertex -45.5 5.57196e-015 5
      vertex -45.2165 1.97213 5
      vertex -47.2835 1.97213 5
    endloop
  endfacet
  facet normal 0 0 1
    outer loop
      vertex -63 10 5
      vertex -61 7.4701e-015 5
      vertex -60.7165 1.97213 5
    endloop
  endfacet
  facet normal 0 0 1
    outer loop
      vertex -2.29201 -2.64512 5
      vertex -3.35823 -0.986064 5
      vertex -31.7835 1.97213 5
    endloop
  endfacet
  facet normal 0 0 1
    outer loop
      vertex -63 10 5
      vertex -60.7165 1.97213 5
      vertex -59.8888 3.78449 5
    endloop
  endfacet
  facet normal 0 0 1
    outer loop
      vertex 32.6112 -3.78449 5
      vertex 31.7835 -1.97213 5
      vertex 2.94439 1.89224 5
    endloop
  endfacet
  facet normal 0 0 1
    outer loop
      vertex -63 10 5
      vertex -59.8888 3.78449 5
      vertex -58.584 5.29025 5
    endloop
  endfacet
  facet normal 0 0 1
    outer loop
      vertex -31.7835 1.97213 5
      vertex -31.5 3.85751e-015 5
      vertex -2.29201 -2.64512 5
    endloop
  endfacet
  facet normal 0 0 1
    outer loop
      vertex -63 10 5
      vertex -58.584 5.29025 5
      vertex -56.9079 6.36742 5
    endloop
  endfacet
  facet normal 0 0 1
    outer loop
      vertex -63 10 5
      vertex -56.9079 6.36742 5
      vertex -54.9962 6.92875 5
    endloop
  endfacet
  facet normal 0 0 1
    outer loop
      vertex -63 10 5
      vertex -54.9962 6.92875 5
      vertex -53.0038 6.92875 5
    endloop
  endfacet
  facet normal 0 0 1
    outer loop
      vertex -3.35823 -0.986064 5
      vertex -35.5921 6.36742 5
      vertex -33.916 5.29025 5
    endloop
  endfacet
  facet normal 0 0 1
    outer loop
      vertex 39.4962 -6.92875 5
      vertex 37.5038 -6.92875 5
      vertex 63 -10 5
    endloop
  endfacet
  facet normal 0 0 1
    outer loop
      vertex -35.5921 -6.36742 5
      vertex -37.5038 -6.92875 5
      vertex 63 -10 5
    endloop
  endfacet
  facet normal 0 0 1
    outer loop
      vertex 53.0038 6.92875 5
      vertex 54.9962 6.92875 5
      vertex 63 10 5
    endloop
  endfacet
  facet normal 0 0 1
    outer loop
      vertex -53.0038 -6.92875 5
      vertex -63 -10 5
      vertex -51.0921 -6.36742 5
    endloop
  endfacet
  facet normal 0 0 1
    outer loop
      vertex -54.9962 -6.92875 5
      vertex -56.9079 -6.36742 5
      vertex -63 -10 5
    endloop
  endfacet
  facet normal 0 0 1
    outer loop
      vertex -58.584 -5.29025 5
      vertex -63 -10 5
      vertex -56.9079 -6.36742 5
    endloop
  endfacet
  facet normal 0 0 1
    outer loop
      vertex -59.8888 -3.78449 5
      vertex -63 -10 5
      vertex -58.584 -5.29025 5
    endloop
  endfacet
  facet normal 0 0 1
    outer loop
      vertex -60.7165 -1.97213 5
      vertex -63 -10 5
      vertex -59.8888 -3.78449 5
    endloop
  endfacet
  facet normal 0 0 1
    outer loop
      vertex -33.916 -5.29025 5
      vertex -35.5921 -6.36742 5
      vertex 63 -10 5
    endloop
  endfacet
  facet normal 0 0 1
    outer loop
      vertex -0.498102 -3.46437 5
      vertex -31.7835 -1.97213 5
      vertex 63 -10 5
    endloop
  endfacet
  facet normal 0 0 1
    outer loop
      vertex -3.35823 0.986064 5
      vertex -2.29201 2.64512 5
      vertex -37.5038 6.92875 5
    endloop
  endfacet
  facet normal 0 0 1
    outer loop
      vertex -63 10 5
      vertex -53.0038 6.92875 5
      vertex -41.4079 6.36742 5
    endloop
  endfacet
  facet normal 0 0 1
    outer loop
      vertex -3.35823 0.986064 5
      vertex -37.5038 6.92875 5
      vertex -35.5921 6.36742 5
    endloop
  endfacet
  facet normal 0 0 1
    outer loop
      vertex 63 10 5
      vertex -63 10 5
      vertex -39.4962 6.92875 5
    endloop
  endfacet
  facet normal 0 0 1
    outer loop
      vertex 63 10 5
      vertex -39.4962 6.92875 5
      vertex -37.5038 6.92875 5
    endloop
  endfacet
  facet normal 0 0 1
    outer loop
      vertex 3.5 0 5
      vertex 2.94439 -1.89224 5
      vertex 33.916 -5.29025 5
    endloop
  endfacet
  facet normal 0 0 1
    outer loop
      vertex 37.5038 -6.92875 5
      vertex 1.45395 -3.18371 5
      vertex 63 -10 5
    endloop
  endfacet
  facet normal 0 0 1
    outer loop
      vertex -3.35823 -0.986064 5
      vertex -3.35823 0.986064 5
      vertex -35.5921 6.36742 5
    endloop
  endfacet
  facet normal 0 0 1
    outer loop
      vertex 39.4962 6.92875 5
      vertex 41.4079 6.36742 5
      vertex 63 10 5
    endloop
  endfacet
  facet normal 0 0 1
    outer loop
      vertex -47.2835 -1.97213 5
      vertex -48.1112 -3.78449 5
      vertex -44.3888 -3.78449 5
    endloop
  endfacet
  facet normal 0 0 1
    outer loop
      vertex -31.5 3.85751e-015 5
      vertex -31.7835 -1.97213 5
      vertex -0.498102 -3.46437 5
    endloop
  endfacet
  facet normal 0 0 1
    outer loop
      vertex -39.4962 -6.92875 5
      vertex -41.4079 -6.36742 5
      vertex -51.0921 -6.36742 5
    endloop
  endfacet
  facet normal 0 0 1
    outer loop
      vertex -39.4962 -6.92875 5
      vertex -63 -10 5
      vertex -37.5038 -6.92875 5
    endloop
  endfacet
  facet normal 0 0 1
    outer loop
      vertex -41.4079 -6.36742 5
      vertex -43.084 -5.29025 5
      vertex -49.416 -5.29025 5
    endloop
  endfacet
  facet normal 0 0 1
    outer loop
      vertex -51.0921 -6.36742 5
      vertex -63 -10 5
      vertex -39.4962 -6.92875 5
    endloop
  endfacet
  facet normal 0 0 1
    outer loop
      vertex -43.084 -5.29025 5
      vertex -44.3888 -3.78449 5
      vertex -48.1112 -3.78449 5
    endloop
  endfacet
  facet normal 0 0 1
    outer loop
      vertex -49.416 -5.29025 5
      vertex -51.0921 -6.36742 5
      vertex -41.4079 -6.36742 5
    endloop
  endfacet
  facet normal 0 0 1
    outer loop
      vertex 33.916 -5.29025 5
      vertex 2.94439 1.89224 5
      vertex 3.5 0 5
    endloop
  endfacet
  facet normal 0 0 1
    outer loop
      vertex -48.1112 -3.78449 5
      vertex -49.416 -5.29025 5
      vertex -43.084 -5.29025 5
    endloop
  endfacet
  facet normal 0 0 1
    outer loop
      vertex -53.0038 -6.92875 5
      vertex -54.9962 -6.92875 5
      vertex -63 -10 5
    endloop
  endfacet
  facet normal 0 0 1
    outer loop
      vertex -43.084 5.29025 5
      vertex -41.4079 6.36742 5
      vertex -53.0038 6.92875 5
    endloop
  endfacet
  facet normal 0 0 1
    outer loop
      vertex -41.4079 6.36742 5
      vertex -39.4962 6.92875 5
      vertex -63 10 5
    endloop
  endfacet
  facet normal 0 0 1
    outer loop
      vertex 43.084 5.29025 5
      vertex 44.3888 3.78449 5
      vertex 51.0921 6.36742 5
    endloop
  endfacet
  facet normal 0 0 1
    outer loop
      vertex -3.35823 -0.986064 5
      vertex -33.916 5.29025 5
      vertex -32.6112 3.78449 5
    endloop
  endfacet
  facet normal 0 0 1
    outer loop
      vertex -0.498102 3.46437 5
      vertex -37.5038 6.92875 5
      vertex -2.29201 2.64512 5
    endloop
  endfacet
  facet normal 0 0 1
    outer loop
      vertex 63 10 5
      vertex -37.5038 6.92875 5
      vertex -0.498102 3.46437 5
    endloop
  endfacet
  facet normal 0 0 1
    outer loop
      vertex 33.916 -5.29025 5
      vertex 32.6112 -3.78449 5
      vertex 2.94439 1.89224 5
    endloop
  endfacet
  facet normal 0 0 1
    outer loop
      vertex 63 10 5
      vertex -0.498102 3.46437 5
      vertex 1.45395 3.18371 5
    endloop
  endfacet
  facet normal 0 0 1
    outer loop
      vertex 1.45395 3.18371 5
      vertex 2.94439 1.89224 5
      vertex 35.5921 6.36742 5
    endloop
  endfacet
  facet normal 0 0 1
    outer loop
      vertex -32.6112 -3.78449 5
      vertex -33.916 -5.29025 5
      vertex 63 -10 5
    endloop
  endfacet
  facet normal 0 0 1
    outer loop
      vertex -31.7835 -1.97213 5
      vertex -32.6112 -3.78449 5
      vertex 63 -10 5
    endloop
  endfacet
  facet normal 0 0 1
    outer loop
      vertex -47 5.75565e-015 5
      vertex -47.2835 -1.97213 5
      vertex -45.2165 -1.97213 5
    endloop
  endfacet
  facet normal 0 0 1
    outer loop
      vertex 1.45395 -3.18371 5
      vertex -0.498102 -3.46437 5
      vertex 63 -10 5
    endloop
  endfacet
  facet normal 0 0 1
    outer loop
      vertex -47.2835 1.97213 5
      vertex -47 5.75565e-015 5
      vertex -45.5 5.57196e-015 5
    endloop
  endfacet
  facet normal 0 0 1
    outer loop
      vertex 31.5 0 5
      vertex 2.94439 1.89224 5
      vertex 31.7835 -1.97213 5
    endloop
  endfacet
  facet normal 0 0 1
    outer loop
      vertex 31.7835 1.97213 5
      vertex 2.94439 1.89224 5
      vertex 31.5 0 5
    endloop
  endfacet
  facet normal 0 0 1
    outer loop
      vertex 32.6112 3.78449 5
      vertex 2.94439 1.89224 5
      vertex 31.7835 1.97213 5
    endloop
  endfacet
  facet normal 0 0 1
    outer loop
      vertex 33.916 5.29025 5
      vertex 2.94439 1.89224 5
      vertex 32.6112 3.78449 5
    endloop
  endfacet
  facet normal 0 0 1
    outer loop
      vertex 35.5921 -6.36742 5
      vertex 33.916 -5.29025 5
      vertex 2.94439 -1.89224 5
    endloop
  endfacet
  facet normal 0 0 1
    outer loop
      vertex 43.084 5.29025 5
      vertex 51.0921 6.36742 5
      vertex 63 10 5
    endloop
  endfacet
  facet normal 0 0 1
    outer loop
      vertex 63 10 5
      vertex 37.5038 6.92875 5
      vertex 39.4962 6.92875 5
    endloop
  endfacet
  facet normal 0 0 1
    outer loop
      vertex 41.4079 -6.36742 5
      vertex 39.4962 -6.92875 5
      vertex 63 -10 5
    endloop
  endfacet
  facet normal 0 0 1
    outer loop
      vertex 61 0 5
      vertex 60.7165 -1.97213 5
      vertex 63 -10 5
    endloop
  endfacet
  facet normal 0 0 1
    outer loop
      vertex 47 0 5
      vertex 47.2835 1.97213 5
      vertex 45.2165 1.97213 5
    endloop
  endfacet
  facet normal 0 0 1
    outer loop
      vertex 51.0921 -6.36742 5
      vertex 49.416 -5.29025 5
      vertex 44.3888 -3.78449 5
    endloop
  endfacet
  facet normal 0 0 1
    outer loop
      vertex 41.4079 6.36742 5
      vertex 43.084 5.29025 5
      vertex 63 10 5
    endloop
  endfacet
  facet normal 0 0 1
    outer loop
      vertex 1.45395 3.18371 5
      vertex 37.5038 6.92875 5
      vertex 63 10 5
    endloop
  endfacet
  facet normal 0 0 1
    outer loop
      vertex 1.45395 3.18371 5
      vertex 35.5921 6.36742 5
      vertex 37.5038 6.92875 5
    endloop
  endfacet
  facet normal 0 0 1
    outer loop
      vertex -0.498102 -3.46437 5
      vertex -2.29201 -2.64512 5
      vertex -31.5 3.85751e-015 5
    endloop
  endfacet
  facet normal 0 0 1
    outer loop
      vertex -44.3888 3.78449 5
      vertex -51.0921 6.36742 5
      vertex -49.416 5.29025 5
    endloop
  endfacet
  facet normal 0 0 1
    outer loop
      vertex -44.3888 3.78449 5
      vertex -43.084 5.29025 5
      vertex -51.0921 6.36742 5
    endloop
  endfacet
  facet normal 0 0 1
    outer loop
      vertex 37.5038 -6.92875 5
      vertex 35.5921 -6.36742 5
      vertex 2.94439 -1.89224 5
    endloop
  endfacet
  facet normal 0 0 1
    outer loop
      vertex 48.1112 -3.78449 5
      vertex 47.2835 -1.97213 5
      vertex 45.2165 -1.97213 5
    endloop
  endfacet
  facet normal 0 0 1
    outer loop
      vertex 33.916 5.29025 5
      vertex 35.5921 6.36742 5
      vertex 2.94439 1.89224 5
    endloop
  endfacet
  facet normal 0 0 1
    outer loop
      vertex 49.416 5.29025 5
      vertex 51.0921 6.36742 5
      vertex 44.3888 3.78449 5
    endloop
  endfacet
  facet normal 0 0 1
    outer loop
      vertex 45.5 0 5
      vertex 45.2165 -1.97213 5
      vertex 47.2835 -1.97213 5
    endloop
  endfacet
  facet normal 0 0 1
    outer loop
      vertex 47.2835 1.97213 5
      vertex 48.1112 3.78449 5
      vertex 45.2165 1.97213 5
    endloop
  endfacet
  facet normal 0 0 1
    outer loop
      vertex 45.2165 1.97213 5
      vertex 45.5 0 5
      vertex 47 0 5
    endloop
  endfacet
  facet normal 0 0 1
    outer loop
      vertex 54.9962 -6.92875 5
      vertex 53.0038 -6.92875 5
      vertex 63 -10 5
    endloop
  endfacet
  facet normal 0 0 1
    outer loop
      vertex 48.1112 3.78449 5
      vertex 49.416 5.29025 5
      vertex 44.3888 3.78449 5
    endloop
  endfacet
  facet normal 0 0 1
    outer loop
      vertex 51.0921 -6.36742 5
      vertex 63 -10 5
      vertex 53.0038 -6.92875 5
    endloop
  endfacet
  facet normal 0 0 1
    outer loop
      vertex 44.3888 -3.78449 5
      vertex 43.084 -5.29025 5
      vertex 51.0921 -6.36742 5
    endloop
  endfacet
  facet normal 0 0 1
    outer loop
      vertex 54.9962 6.92875 5
      vertex 56.9079 6.36742 5
      vertex 63 10 5
    endloop
  endfacet
  facet normal 0 0 1
    outer loop
      vertex 44.3888 3.78449 5
      vertex 45.2165 1.97213 5
      vertex 48.1112 3.78449 5
    endloop
  endfacet
  facet normal 0 0 1
    outer loop
      vertex 63 10 5
      vertex 51.0921 6.36742 5
      vertex 53.0038 6.92875 5
    endloop
  endfacet
  facet normal 0 0 1
    outer loop
      vertex 60.7165 -1.97213 5
      vertex 59.8888 -3.78449 5
      vertex 63 -10 5
    endloop
  endfacet
  facet normal 0 0 1
    outer loop
      vertex 51.0921 -6.36742 5
      vertex 43.084 -5.29025 5
      vertex 63 -10 5
    endloop
  endfacet
  facet normal 0 0 1
    outer loop
      vertex 58.584 -5.29025 5
      vertex 56.9079 -6.36742 5
      vertex 63 -10 5
    endloop
  endfacet
  facet normal 0 0 1
    outer loop
      vertex 63 10 5
      vertex 56.9079 6.36742 5
      vertex 58.584 5.29025 5
    endloop
  endfacet
  facet normal 0 0 1
    outer loop
      vertex 63 10 5
      vertex 58.584 5.29025 5
      vertex 59.8888 3.78449 5
    endloop
  endfacet
  facet normal 0 0 1
    outer loop
      vertex 63 10 5
      vertex 60.7165 1.97213 5
      vertex 63 -10 5
    endloop
  endfacet
  facet normal 0 0 1
    outer loop
      vertex 63 10 5
      vertex 59.8888 3.78449 5
      vertex 60.7165 1.97213 5
    endloop
  endfacet
  facet normal 0 0 1
    outer loop
      vertex 60.7165 1.97213 5
      vertex 61 0 5
      vertex 63 -10 5
    endloop
  endfacet
  facet normal 0 0 1
    outer loop
      vertex 59.8888 -3.78449 5
      vertex 58.584 -5.29025 5
      vertex 63 -10 5
    endloop
  endfacet
  facet normal 0 0 1
    outer loop
      vertex 56.9079 -6.36742 5
      vertex 54.9962 -6.92875 5
      vertex 63 -10 5
    endloop
  endfacet
  facet normal 0 0 1
    outer loop
      vertex 43.084 -5.29025 5
      vertex 41.4079 -6.36742 5
      vertex 63 -10 5
    endloop
  endfacet
  facet normal 0 0 1
    outer loop
      vertex 49.416 -5.29025 5
      vertex 48.1112 -3.78449 5
      vertex 44.3888 -3.78449 5
    endloop
  endfacet
  facet normal 0 0 1
    outer loop
      vertex 47.2835 -1.97213 5
      vertex 47 0 5
      vertex 45.5 0 5
    endloop
  endfacet
  facet normal 0 0 1
    outer loop
      vertex 45.2165 -1.97213 5
      vertex 44.3888 -3.78449 5
      vertex 48.1112 -3.78449 5
    endloop
  endfacet
  facet normal 0 0 1
    outer loop
      vertex -53.0038 6.92875 5
      vertex -51.0921 6.36742 5
      vertex -43.084 5.29025 5
    endloop
  endfacet
  facet normal 0 0 1
    outer loop
      vertex -49.416 5.29025 5
      vertex -48.1112 3.78449 5
      vertex -44.3888 3.78449 5
    endloop
  endfacet
  facet normal 0 0 1
    outer loop
      vertex -48.1112 3.78449 5
      vertex -47.2835 1.97213 5
      vertex -45.2165 1.97213 5
    endloop
  endfacet
  facet normal 0 0 1
    outer loop
      vertex -45.2165 1.97213 5
      vertex -44.3888 3.78449 5
      vertex -48.1112 3.78449 5
    endloop
  endfacet
  facet normal 0 0 1
    outer loop
      vertex -32.6112 3.78449 5
      vertex -31.7835 1.97213 5
      vertex -3.35823 -0.986064 5
    endloop
  endfacet
  facet normal 1 0 0
    outer loop
      vertex 63 -10 5
      vertex 63 -10 0
      vertex 63 10 0
    endloop
  endfacet
  facet normal 1 0 0
    outer loop
      vertex 63 10 5
      vertex 63 -10 5
      vertex 63 10 0
    endloop
  endfacet
  facet normal 1 0 0
    outer loop
      vertex -3.35823 0.986064 0
      vertex -3.35823 0.986064 5
      vertex -3.35823 -0.986064 5
    endloop
  endfacet
  facet normal 1 0 0
    outer loop
      vertex -3.35823 -0.986064 0
      vertex -3.35823 0.986064 0
      vertex -3.35823 -0.986064 5
    endloop
  endfacet
  facet normal 0.841254 -0.54064 0
    outer loop
      vertex -2.29201 2.64512 0
      vertex -2.29201 2.64512 5
      vertex -3.35823 0.986064 5
    endloop
  endfacet
  facet normal 0.841254 -0.54064 0
    outer loop
      vertex -3.35823 0.986064 0
      vertex -2.29201 2.64512 0
      vertex -3.35823 0.986064 5
    endloop
  endfacet
  facet normal 0.415415 -0.909632 0
    outer loop
      vertex -0.498102 3.46437 0
      vertex -0.498102 3.46437 5
      vertex -2.29201 2.64512 5
    endloop
  endfacet
  facet normal 0.415415 -0.909632 0
    outer loop
      vertex -2.29201 2.64512 0
      vertex -0.498102 3.46437 0
      vertex -2.29201 2.64512 5
    endloop
  endfacet
  facet normal -0.142315 -0.989821 0
    outer loop
      vertex 1.45395 3.18371 0
      vertex 1.45395 3.18371 5
      vertex -0.498102 3.46437 5
    endloop
  endfacet
  facet normal -0.142315 -0.989821 0
    outer loop
      vertex -0.498102 3.46437 0
      vertex 1.45395 3.18371 0
      vertex -0.498102 3.46437 5
    endloop
  endfacet
  facet normal -0.654861 -0.755749 0
    outer loop
      vertex 2.94439 1.89224 0
      vertex 2.94439 1.89224 5
      vertex 1.45395 3.18371 5
    endloop
  endfacet
  facet normal -0.654861 -0.755749 0
    outer loop
      vertex 1.45395 3.18371 0
      vertex 2.94439 1.89224 0
      vertex 1.45395 3.18371 5
    endloop
  endfacet
  facet normal -0.959493 -0.281733 0
    outer loop
      vertex 3.5 0 5
      vertex 2.94439 1.89224 5
      vertex 3.5 0 0
    endloop
  endfacet
  facet normal -0.959493 -0.281733 0
    outer loop
      vertex 3.5 0 0
      vertex 2.94439 1.89224 5
      vertex 2.94439 1.89224 0
    endloop
  endfacet
  facet normal -0.959493 0.281733 0
    outer loop
      vertex 3.5 0 5
      vertex 3.5 0 0
      vertex 2.94439 -1.89224 5
    endloop
  endfacet
  facet normal -0.959493 0.281733 0
    outer loop
      vertex 2.94439 -1.89224 5
      vertex 3.5 0 0
      vertex 2.94439 -1.89224 0
    endloop
  endfacet
  facet normal -0.654861 0.755749 0
    outer loop
      vertex 2.94439 -1.89224 5
      vertex 2.94439 -1.89224 0
      vertex 1.45395 -3.18371 5
    endloop
  endfacet
  facet normal -0.654861 0.755749 0
    outer loop
      vertex 1.45395 -3.18371 5
      vertex 2.94439 -1.89224 0
      vertex 1.45395 -3.18371 0
    endloop
  endfacet
  facet normal -0.142315 0.989821 0
    outer loop
      vertex 1.45395 -3.18371 5
      vertex 1.45395 -3.18371 0
      vertex -0.498102 -3.46437 5
    endloop
  endfacet
  facet normal -0.142315 0.989821 0
    outer loop
      vertex -0.498102 -3.46437 5
      vertex 1.45395 -3.18371 0
      vertex -0.498102 -3.46437 0
    endloop
  endfacet
  facet normal 0.415415 0.909632 0
    outer loop
      vertex -0.498102 -3.46437 5
      vertex -0.498102 -3.46437 0
      vertex -2.29201 -2.64512 5
    endloop
  endfacet
  facet normal 0.415415 0.909632 0
    outer loop
      vertex -2.29201 -2.64512 5
      vertex -0.498102 -3.46437 0
      vertex -2.29201 -2.64512 0
    endloop
  endfacet
  facet normal 0.841254 0.54064 0
    outer loop
      vertex -3.35823 -0.986064 5
      vertex -2.29201 -2.64512 5
      vertex -2.29201 -2.64512 0
    endloop
  endfacet
  facet normal 0.841254 0.54064 0
    outer loop
      vertex -3.35823 -0.986064 0
      vertex -3.35823 -0.986064 5
      vertex -2.29201 -2.64512 0
    endloop
  endfacet
  facet normal 0.989821 0.142315 0
    outer loop
      vertex -61 7.4701e-015 5
      vertex -60.7165 -1.97213 5
      vertex -60.7165 -1.97213 2
    endloop
  endfacet
  facet normal 0.989821 0.142315 0
    outer loop
      vertex -61 7.4701e-015 2
      vertex -61 7.4701e-015 5
      vertex -60.7165 -1.97213 2
    endloop
  endfacet
  facet normal 0.909632 0.415415 0
    outer loop
      vertex -60.7165 -1.97213 5
      vertex -59.8888 -3.78449 5
      vertex -59.8888 -3.78449 2
    endloop
  endfacet
  facet normal 0.909632 0.415415 0
    outer loop
      vertex -60.7165 -1.97213 2
      vertex -60.7165 -1.97213 5
      vertex -59.8888 -3.78449 2
    endloop
  endfacet
  facet normal 0.755749 0.654861 0
    outer loop
      vertex -59.8888 -3.78449 5
      vertex -58.584 -5.29025 5
      vertex -58.584 -5.29025 2
    endloop
  endfacet
  facet normal 0.755749 0.654861 0
    outer loop
      vertex -59.8888 -3.78449 2
      vertex -59.8888 -3.78449 5
      vertex -58.584 -5.29025 2
    endloop
  endfacet
  facet normal 0.540641 0.841254 0
    outer loop
      vertex -56.9079 -6.36742 5
      vertex -56.9079 -6.36742 2
      vertex -58.584 -5.29025 5
    endloop
  endfacet
  facet normal 0.540641 0.841254 0
    outer loop
      vertex -58.584 -5.29025 5
      vertex -56.9079 -6.36742 2
      vertex -58.584 -5.29025 2
    endloop
  endfacet
  facet normal 0.281733 0.959493 0
    outer loop
      vertex -54.9962 -6.92875 5
      vertex -54.9962 -6.92875 2
      vertex -56.9079 -6.36742 5
    endloop
  endfacet
  facet normal 0.281733 0.959493 0
    outer loop
      vertex -56.9079 -6.36742 5
      vertex -54.9962 -6.92875 2
      vertex -56.9079 -6.36742 2
    endloop
  endfacet
  facet normal 1.22461e-016 1 0
    outer loop
      vertex -53.0038 -6.92875 5
      vertex -53.0038 -6.92875 2
      vertex -54.9962 -6.92875 5
    endloop
  endfacet
  facet normal 1.22461e-016 1 0
    outer loop
      vertex -54.9962 -6.92875 5
      vertex -53.0038 -6.92875 2
      vertex -54.9962 -6.92875 2
    endloop
  endfacet
  facet normal -0.281733 0.959493 0
    outer loop
      vertex -51.0921 -6.36742 5
      vertex -51.0921 -6.36742 2
      vertex -53.0038 -6.92875 5
    endloop
  endfacet
  facet normal -0.281733 0.959493 0
    outer loop
      vertex -53.0038 -6.92875 5
      vertex -51.0921 -6.36742 2
      vertex -53.0038 -6.92875 2
    endloop
  endfacet
  facet normal -0.540641 0.841254 0
    outer loop
      vertex -49.416 -5.29025 5
      vertex -49.416 -5.29025 2
      vertex -51.0921 -6.36742 5
    endloop
  endfacet
  facet normal -0.540641 0.841254 0
    outer loop
      vertex -51.0921 -6.36742 5
      vertex -49.416 -5.29025 2
      vertex -51.0921 -6.36742 2
    endloop
  endfacet
  facet normal -0.755749 0.654861 0
    outer loop
      vertex -48.1112 -3.78449 5
      vertex -48.1112 -3.78449 2
      vertex -49.416 -5.29025 5
    endloop
  endfacet
  facet normal -0.755749 0.654861 0
    outer loop
      vertex -49.416 -5.29025 5
      vertex -48.1112 -3.78449 2
      vertex -49.416 -5.29025 2
    endloop
  endfacet
  facet normal -0.909632 0.415415 0
    outer loop
      vertex -47.2835 -1.97213 5
      vertex -47.2835 -1.97213 2
      vertex -48.1112 -3.78449 5
    endloop
  endfacet
  facet normal -0.909632 0.415415 0
    outer loop
      vertex -48.1112 -3.78449 5
      vertex -47.2835 -1.97213 2
      vertex -48.1112 -3.78449 2
    endloop
  endfacet
  facet normal -0.989821 0.142315 0
    outer loop
      vertex -47 5.75565e-015 5
      vertex -47 5.75565e-015 2
      vertex -47.2835 -1.97213 5
    endloop
  endfacet
  facet normal -0.989821 0.142315 0
    outer loop
      vertex -47.2835 -1.97213 5
      vertex -47 5.75565e-015 2
      vertex -47.2835 -1.97213 2
    endloop
  endfacet
  facet normal -0.989821 -0.142315 0
    outer loop
      vertex -47 5.75565e-015 5
      vertex -47.2835 1.97213 5
      vertex -47 5.75565e-015 2
    endloop
  endfacet
  facet normal -0.989821 -0.142315 0
    outer loop
      vertex -47 5.75565e-015 2
      vertex -47.2835 1.97213 5
      vertex -47.2835 1.97213 2
    endloop
  endfacet
  facet normal -0.909632 -0.415415 0
    outer loop
      vertex -47.2835 1.97213 5
      vertex -48.1112 3.78449 5
      vertex -47.2835 1.97213 2
    endloop
  endfacet
  facet normal -0.909632 -0.415415 0
    outer loop
      vertex -47.2835 1.97213 2
      vertex -48.1112 3.78449 5
      vertex -48.1112 3.78449 2
    endloop
  endfacet
  facet normal -0.755749 -0.654861 0
    outer loop
      vertex -48.1112 3.78449 5
      vertex -49.416 5.29025 5
      vertex -48.1112 3.78449 2
    endloop
  endfacet
  facet normal -0.755749 -0.654861 0
    outer loop
      vertex -48.1112 3.78449 2
      vertex -49.416 5.29025 5
      vertex -49.416 5.29025 2
    endloop
  endfacet
  facet normal -0.540641 -0.841254 0
    outer loop
      vertex -49.416 5.29025 2
      vertex -49.416 5.29025 5
      vertex -51.0921 6.36742 5
    endloop
  endfacet
  facet normal -0.540641 -0.841254 0
    outer loop
      vertex -51.0921 6.36742 2
      vertex -49.416 5.29025 2
      vertex -51.0921 6.36742 5
    endloop
  endfacet
  facet normal -0.281733 -0.959493 0
    outer loop
      vertex -51.0921 6.36742 2
      vertex -51.0921 6.36742 5
      vertex -53.0038 6.92875 5
    endloop
  endfacet
  facet normal -0.281733 -0.959493 0
    outer loop
      vertex -53.0038 6.92875 2
      vertex -51.0921 6.36742 2
      vertex -53.0038 6.92875 5
    endloop
  endfacet
  facet normal -1.22461e-016 -1 0
    outer loop
      vertex -53.0038 6.92875 2
      vertex -53.0038 6.92875 5
      vertex -54.9962 6.92875 5
    endloop
  endfacet
  facet normal -1.22461e-016 -1 0
    outer loop
      vertex -54.9962 6.92875 2
      vertex -53.0038 6.92875 2
      vertex -54.9962 6.92875 5
    endloop
  endfacet
  facet normal 0.281733 -0.959493 0
    outer loop
      vertex -54.9962 6.92875 2
      vertex -54.9962 6.92875 5
      vertex -56.9079 6.36742 5
    endloop
  endfacet
  facet normal 0.281733 -0.959493 0
    outer loop
      vertex -56.9079 6.36742 2
      vertex -54.9962 6.92875 2
      vertex -56.9079 6.36742 5
    endloop
  endfacet
  facet normal 0.540641 -0.841254 0
    outer loop
      vertex -56.9079 6.36742 2
      vertex -56.9079 6.36742 5
      vertex -58.584 5.29025 5
    endloop
  endfacet
  facet normal 0.540641 -0.841254 0
    outer loop
      vertex -58.584 5.29025 2
      vertex -56.9079 6.36742 2
      vertex -58.584 5.29025 5
    endloop
  endfacet
  facet normal 0.755749 -0.654861 0
    outer loop
      vertex -58.584 5.29025 2
      vertex -58.584 5.29025 5
      vertex -59.8888 3.78449 5
    endloop
  endfacet
  facet normal 0.755749 -0.654861 0
    outer loop
      vertex -59.8888 3.78449 2
      vertex -58.584 5.29025 2
      vertex -59.8888 3.78449 5
    endloop
  endfacet
  facet normal 0.909632 -0.415415 0
    outer loop
      vertex -59.8888 3.78449 2
      vertex -59.8888 3.78449 5
      vertex -60.7165 1.97213 5
    endloop
  endfacet
  facet normal 0.909632 -0.415415 0
    outer loop
      vertex -60.7165 1.97213 2
      vertex -59.8888 3.78449 2
      vertex -60.7165 1.97213 5
    endloop
  endfacet
  facet normal 0.989821 -0.142315 0
    outer loop
      vertex -60.7165 1.97213 2
      vertex -60.7165 1.97213 5
      vertex -61 7.4701e-015 5
    endloop
  endfacet
  facet normal 0.989821 -0.142315 0
    outer loop
      vertex -61 7.4701e-015 2
      vertex -60.7165 1.97213 2
      vertex -61 7.4701e-015 5
    endloop
  endfacet
  facet normal 0.989821 0.142315 0
    outer loop
      vertex -45.5 5.57196e-015 5
      vertex -45.2165 -1.97213 5
      vertex -45.2165 -1.97213 2
    endloop
  endfacet
  facet normal 0.989821 0.142315 0
    outer loop
      vertex -45.5 5.57196e-015 2
      vertex -45.5 5.57196e-015 5
      vertex -45.2165 -1.97213 2
    endloop
  endfacet
  facet normal 0.909632 0.415415 0
    outer loop
      vertex -45.2165 -1.97213 5
      vertex -44.3888 -3.78449 5
      vertex -44.3888 -3.78449 2
    endloop
  endfacet
  facet normal 0.909632 0.415415 0
    outer loop
      vertex -45.2165 -1.97213 2
      vertex -45.2165 -1.97213 5
      vertex -44.3888 -3.78449 2
    endloop
  endfacet
  facet normal 0.755749 0.654861 0
    outer loop
      vertex -44.3888 -3.78449 5
      vertex -43.084 -5.29025 5
      vertex -43.084 -5.29025 2
    endloop
  endfacet
  facet normal 0.755749 0.654861 0
    outer loop
      vertex -44.3888 -3.78449 2
      vertex -44.3888 -3.78449 5
      vertex -43.084 -5.29025 2
    endloop
  endfacet
  facet normal 0.540641 0.841254 0
    outer loop
      vertex -41.4079 -6.36742 5
      vertex -41.4079 -6.36742 2
      vertex -43.084 -5.29025 5
    endloop
  endfacet
  facet normal 0.540641 0.841254 0
    outer loop
      vertex -43.084 -5.29025 5
      vertex -41.4079 -6.36742 2
      vertex -43.084 -5.29025 2
    endloop
  endfacet
  facet normal 0.281733 0.959493 0
    outer loop
      vertex -39.4962 -6.92875 5
      vertex -39.4962 -6.92875 2
      vertex -41.4079 -6.36742 5
    endloop
  endfacet
  facet normal 0.281733 0.959493 0
    outer loop
      vertex -41.4079 -6.36742 5
      vertex -39.4962 -6.92875 2
      vertex -41.4079 -6.36742 2
    endloop
  endfacet
  facet normal 1.22461e-016 1 0
    outer loop
      vertex -37.5038 -6.92875 5
      vertex -37.5038 -6.92875 2
      vertex -39.4962 -6.92875 5
    endloop
  endfacet
  facet normal 1.22461e-016 1 0
    outer loop
      vertex -39.4962 -6.92875 5
      vertex -37.5038 -6.92875 2
      vertex -39.4962 -6.92875 2
    endloop
  endfacet
  facet normal -0.281733 0.959493 0
    outer loop
      vertex -35.5921 -6.36742 5
      vertex -35.5921 -6.36742 2
      vertex -37.5038 -6.92875 5
    endloop
  endfacet
  facet normal -0.281733 0.959493 0
    outer loop
      vertex -37.5038 -6.92875 5
      vertex -35.5921 -6.36742 2
      vertex -37.5038 -6.92875 2
    endloop
  endfacet
  facet normal -0.540641 0.841254 0
    outer loop
      vertex -33.916 -5.29025 5
      vertex -33.916 -5.29025 2
      vertex -35.5921 -6.36742 5
    endloop
  endfacet
  facet normal -0.540641 0.841254 0
    outer loop
      vertex -35.5921 -6.36742 5
      vertex -33.916 -5.29025 2
      vertex -35.5921 -6.36742 2
    endloop
  endfacet
  facet normal -0.755749 0.654861 0
    outer loop
      vertex -32.6112 -3.78449 5
      vertex -32.6112 -3.78449 2
      vertex -33.916 -5.29025 5
    endloop
  endfacet
  facet normal -0.755749 0.654861 0
    outer loop
      vertex -33.916 -5.29025 5
      vertex -32.6112 -3.78449 2
      vertex -33.916 -5.29025 2
    endloop
  endfacet
  facet normal -0.909632 0.415415 0
    outer loop
      vertex -31.7835 -1.97213 5
      vertex -31.7835 -1.97213 2
      vertex -32.6112 -3.78449 5
    endloop
  endfacet
  facet normal -0.909632 0.415415 0
    outer loop
      vertex -32.6112 -3.78449 5
      vertex -31.7835 -1.97213 2
      vertex -32.6112 -3.78449 2
    endloop
  endfacet
  facet normal -0.989821 0.142315 0
    outer loop
      vertex -31.5 3.85751e-015 5
      vertex -31.5 3.85751e-015 2
      vertex -31.7835 -1.97213 5
    endloop
  endfacet
  facet normal -0.989821 0.142315 0
    outer loop
      vertex -31.7835 -1.97213 5
      vertex -31.5 3.85751e-015 2
      vertex -31.7835 -1.97213 2
    endloop
  endfacet
  facet normal -0.989821 -0.142315 0
    outer loop
      vertex -31.5 3.85751e-015 5
      vertex -31.7835 1.97213 5
      vertex -31.5 3.85751e-015 2
    endloop
  endfacet
  facet normal -0.989821 -0.142315 0
    outer loop
      vertex -31.5 3.85751e-015 2
      vertex -31.7835 1.97213 5
      vertex -31.7835 1.97213 2
    endloop
  endfacet
  facet normal -0.909632 -0.415415 0
    outer loop
      vertex -31.7835 1.97213 5
      vertex -32.6112 3.78449 5
      vertex -31.7835 1.97213 2
    endloop
  endfacet
  facet normal -0.909632 -0.415415 0
    outer loop
      vertex -31.7835 1.97213 2
      vertex -32.6112 3.78449 5
      vertex -32.6112 3.78449 2
    endloop
  endfacet
  facet normal -0.755749 -0.654861 0
    outer loop
      vertex -32.6112 3.78449 5
      vertex -33.916 5.29025 5
      vertex -32.6112 3.78449 2
    endloop
  endfacet
  facet normal -0.755749 -0.654861 0
    outer loop
      vertex -32.6112 3.78449 2
      vertex -33.916 5.29025 5
      vertex -33.916 5.29025 2
    endloop
  endfacet
  facet normal -0.540641 -0.841254 0
    outer loop
      vertex -33.916 5.29025 2
      vertex -33.916 5.29025 5
      vertex -35.5921 6.36742 5
    endloop
  endfacet
  facet normal -0.540641 -0.841254 0
    outer loop
      vertex -35.5921 6.36742 2
      vertex -33.916 5.29025 2
      vertex -35.5921 6.36742 5
    endloop
  endfacet
  facet normal -0.281733 -0.959493 0
    outer loop
      vertex -35.5921 6.36742 2
      vertex -35.5921 6.36742 5
      vertex -37.5038 6.92875 5
    endloop
  endfacet
  facet normal -0.281733 -0.959493 0
    outer loop
      vertex -37.5038 6.92875 2
      vertex -35.5921 6.36742 2
      vertex -37.5038 6.92875 5
    endloop
  endfacet
  facet normal -1.22461e-016 -1 0
    outer loop
      vertex -37.5038 6.92875 2
      vertex -37.5038 6.92875 5
      vertex -39.4962 6.92875 5
    endloop
  endfacet
  facet normal -1.22461e-016 -1 0
    outer loop
      vertex -39.4962 6.92875 2
      vertex -37.5038 6.92875 2
      vertex -39.4962 6.92875 5
    endloop
  endfacet
  facet normal 0.281733 -0.959493 0
    outer loop
      vertex -39.4962 6.92875 2
      vertex -39.4962 6.92875 5
      vertex -41.4079 6.36742 5
    endloop
  endfacet
  facet normal 0.281733 -0.959493 0
    outer loop
      vertex -41.4079 6.36742 2
      vertex -39.4962 6.92875 2
      vertex -41.4079 6.36742 5
    endloop
  endfacet
  facet normal 0.540641 -0.841254 0
    outer loop
      vertex -41.4079 6.36742 2
      vertex -41.4079 6.36742 5
      vertex -43.084 5.29025 5
    endloop
  endfacet
  facet normal 0.540641 -0.841254 0
    outer loop
      vertex -43.084 5.29025 2
      vertex -41.4079 6.36742 2
      vertex -43.084 5.29025 5
    endloop
  endfacet
  facet normal 0.755749 -0.654861 0
    outer loop
      vertex -43.084 5.29025 2
      vertex -43.084 5.29025 5
      vertex -44.3888 3.78449 5
    endloop
  endfacet
  facet normal 0.755749 -0.654861 0
    outer loop
      vertex -44.3888 3.78449 2
      vertex -43.084 5.29025 2
      vertex -44.3888 3.78449 5
    endloop
  endfacet
  facet normal 0.909632 -0.415415 0
    outer loop
      vertex -44.3888 3.78449 2
      vertex -44.3888 3.78449 5
      vertex -45.2165 1.97213 5
    endloop
  endfacet
  facet normal 0.909632 -0.415415 0
    outer loop
      vertex -45.2165 1.97213 2
      vertex -44.3888 3.78449 2
      vertex -45.2165 1.97213 5
    endloop
  endfacet
  facet normal 0.989821 -0.142315 0
    outer loop
      vertex -45.2165 1.97213 2
      vertex -45.2165 1.97213 5
      vertex -45.5 5.57196e-015 5
    endloop
  endfacet
  facet normal 0.989821 -0.142315 0
    outer loop
      vertex -45.5 5.57196e-015 2
      vertex -45.2165 1.97213 2
      vertex -45.5 5.57196e-015 5
    endloop
  endfacet
  facet normal 0.989821 0.142315 0
    outer loop
      vertex 31.5 0 5
      vertex 31.7835 -1.97213 5
      vertex 31.7835 -1.97213 2
    endloop
  endfacet
  facet normal 0.989821 0.142315 0
    outer loop
      vertex 31.5 0 2
      vertex 31.5 0 5
      vertex 31.7835 -1.97213 2
    endloop
  endfacet
  facet normal 0.909632 0.415415 0
    outer loop
      vertex 31.7835 -1.97213 5
      vertex 32.6112 -3.78449 5
      vertex 32.6112 -3.78449 2
    endloop
  endfacet
  facet normal 0.909632 0.415415 0
    outer loop
      vertex 31.7835 -1.97213 2
      vertex 31.7835 -1.97213 5
      vertex 32.6112 -3.78449 2
    endloop
  endfacet
  facet normal 0.755749 0.654861 0
    outer loop
      vertex 32.6112 -3.78449 5
      vertex 33.916 -5.29025 5
      vertex 33.916 -5.29025 2
    endloop
  endfacet
  facet normal 0.755749 0.654861 0
    outer loop
      vertex 32.6112 -3.78449 2
      vertex 32.6112 -3.78449 5
      vertex 33.916 -5.29025 2
    endloop
  endfacet
  facet normal 0.540641 0.841254 0
    outer loop
      vertex 35.5921 -6.36742 5
      vertex 35.5921 -6.36742 2
      vertex 33.916 -5.29025 5
    endloop
  endfacet
  facet normal 0.540641 0.841254 0
    outer loop
      vertex 33.916 -5.29025 5
      vertex 35.5921 -6.36742 2
      vertex 33.916 -5.29025 2
    endloop
  endfacet
  facet normal 0.281733 0.959493 0
    outer loop
      vertex 37.5038 -6.92875 5
      vertex 37.5038 -6.92875 2
      vertex 35.5921 -6.36742 5
    endloop
  endfacet
  facet normal 0.281733 0.959493 0
    outer loop
      vertex 35.5921 -6.36742 5
      vertex 37.5038 -6.92875 2
      vertex 35.5921 -6.36742 2
    endloop
  endfacet
  facet normal 0 1 0
    outer loop
      vertex 39.4962 -6.92875 5
      vertex 39.4962 -6.92875 2
      vertex 37.5038 -6.92875 5
    endloop
  endfacet
  facet normal 0 1 0
    outer loop
      vertex 37.5038 -6.92875 5
      vertex 39.4962 -6.92875 2
      vertex 37.5038 -6.92875 2
    endloop
  endfacet
  facet normal -0.281733 0.959493 0
    outer loop
      vertex 41.4079 -6.36742 5
      vertex 41.4079 -6.36742 2
      vertex 39.4962 -6.92875 5
    endloop
  endfacet
  facet normal -0.281733 0.959493 0
    outer loop
      vertex 39.4962 -6.92875 5
      vertex 41.4079 -6.36742 2
      vertex 39.4962 -6.92875 2
    endloop
  endfacet
  facet normal -0.540641 0.841254 0
    outer loop
      vertex 43.084 -5.29025 5
      vertex 43.084 -5.29025 2
      vertex 41.4079 -6.36742 5
    endloop
  endfacet
  facet normal -0.540641 0.841254 0
    outer loop
      vertex 41.4079 -6.36742 5
      vertex 43.084 -5.29025 2
      vertex 41.4079 -6.36742 2
    endloop
  endfacet
  facet normal -0.755749 0.654861 0
    outer loop
      vertex 44.3888 -3.78449 5
      vertex 44.3888 -3.78449 2
      vertex 43.084 -5.29025 5
    endloop
  endfacet
  facet normal -0.755749 0.654861 0
    outer loop
      vertex 43.084 -5.29025 5
      vertex 44.3888 -3.78449 2
      vertex 43.084 -5.29025 2
    endloop
  endfacet
  facet normal -0.909632 0.415415 0
    outer loop
      vertex 45.2165 -1.97213 5
      vertex 45.2165 -1.97213 2
      vertex 44.3888 -3.78449 5
    endloop
  endfacet
  facet normal -0.909632 0.415415 0
    outer loop
      vertex 44.3888 -3.78449 5
      vertex 45.2165 -1.97213 2
      vertex 44.3888 -3.78449 2
    endloop
  endfacet
  facet normal -0.989821 0.142315 0
    outer loop
      vertex 45.5 0 5
      vertex 45.5 0 2
      vertex 45.2165 -1.97213 5
    endloop
  endfacet
  facet normal -0.989821 0.142315 0
    outer loop
      vertex 45.2165 -1.97213 5
      vertex 45.5 0 2
      vertex 45.2165 -1.97213 2
    endloop
  endfacet
  facet normal -0.989821 -0.142315 0
    outer loop
      vertex 45.5 0 5
      vertex 45.2165 1.97213 5
      vertex 45.5 0 2
    endloop
  endfacet
  facet normal -0.989821 -0.142315 0
    outer loop
      vertex 45.5 0 2
      vertex 45.2165 1.97213 5
      vertex 45.2165 1.97213 2
    endloop
  endfacet
  facet normal -0.909632 -0.415415 0
    outer loop
      vertex 45.2165 1.97213 5
      vertex 44.3888 3.78449 5
      vertex 45.2165 1.97213 2
    endloop
  endfacet
  facet normal -0.909632 -0.415415 0
    outer loop
      vertex 45.2165 1.97213 2
      vertex 44.3888 3.78449 5
      vertex 44.3888 3.78449 2
    endloop
  endfacet
  facet normal -0.755749 -0.654861 0
    outer loop
      vertex 44.3888 3.78449 5
      vertex 43.084 5.29025 5
      vertex 44.3888 3.78449 2
    endloop
  endfacet
  facet normal -0.755749 -0.654861 0
    outer loop
      vertex 44.3888 3.78449 2
      vertex 43.084 5.29025 5
      vertex 43.084 5.29025 2
    endloop
  endfacet
  facet normal -0.540641 -0.841254 0
    outer loop
      vertex 43.084 5.29025 2
      vertex 43.084 5.29025 5
      vertex 41.4079 6.36742 5
    endloop
  endfacet
  facet normal -0.540641 -0.841254 0
    outer loop
      vertex 41.4079 6.36742 2
      vertex 43.084 5.29025 2
      vertex 41.4079 6.36742 5
    endloop
  endfacet
  facet normal -0.281733 -0.959493 0
    outer loop
      vertex 41.4079 6.36742 2
      vertex 41.4079 6.36742 5
      vertex 39.4962 6.92875 5
    endloop
  endfacet
  facet normal -0.281733 -0.959493 0
    outer loop
      vertex 39.4962 6.92875 2
      vertex 41.4079 6.36742 2
      vertex 39.4962 6.92875 5
    endloop
  endfacet
  facet normal 0 -1 0
    outer loop
      vertex 39.4962 6.92875 2
      vertex 39.4962 6.92875 5
      vertex 37.5038 6.92875 5
    endloop
  endfacet
  facet normal 0 -1 0
    outer loop
      vertex 37.5038 6.92875 2
      vertex 39.4962 6.92875 2
      vertex 37.5038 6.92875 5
    endloop
  endfacet
  facet normal 0.281733 -0.959493 0
    outer loop
      vertex 37.5038 6.92875 2
      vertex 37.5038 6.92875 5
      vertex 35.5921 6.36742 5
    endloop
  endfacet
  facet normal 0.281733 -0.959493 0
    outer loop
      vertex 35.5921 6.36742 2
      vertex 37.5038 6.92875 2
      vertex 35.5921 6.36742 5
    endloop
  endfacet
  facet normal 0.540641 -0.841254 0
    outer loop
      vertex 35.5921 6.36742 2
      vertex 35.5921 6.36742 5
      vertex 33.916 5.29025 5
    endloop
  endfacet
  facet normal 0.540641 -0.841254 0
    outer loop
      vertex 33.916 5.29025 2
      vertex 35.5921 6.36742 2
      vertex 33.916 5.29025 5
    endloop
  endfacet
  facet normal 0.755749 -0.654861 0
    outer loop
      vertex 33.916 5.29025 2
      vertex 33.916 5.29025 5
      vertex 32.6112 3.78449 5
    endloop
  endfacet
  facet normal 0.755749 -0.654861 0
    outer loop
      vertex 32.6112 3.78449 2
      vertex 33.916 5.29025 2
      vertex 32.6112 3.78449 5
    endloop
  endfacet
  facet normal 0.909632 -0.415415 0
    outer loop
      vertex 32.6112 3.78449 2
      vertex 32.6112 3.78449 5
      vertex 31.7835 1.97213 5
    endloop
  endfacet
  facet normal 0.909632 -0.415415 0
    outer loop
      vertex 31.7835 1.97213 2
      vertex 32.6112 3.78449 2
      vertex 31.7835 1.97213 5
    endloop
  endfacet
  facet normal 0.989821 -0.142315 0
    outer loop
      vertex 31.7835 1.97213 2
      vertex 31.7835 1.97213 5
      vertex 31.5 0 5
    endloop
  endfacet
  facet normal 0.989821 -0.142315 0
    outer loop
      vertex 31.5 0 2
      vertex 31.7835 1.97213 2
      vertex 31.5 0 5
    endloop
  endfacet
  facet normal 0.989821 0.142315 0
    outer loop
      vertex 47 0 5
      vertex 47.2835 -1.97213 5
      vertex 47.2835 -1.97213 2
    endloop
  endfacet
  facet normal 0.989821 0.142315 0
    outer loop
      vertex 47 0 2
      vertex 47 0 5
      vertex 47.2835 -1.97213 2
    endloop
  endfacet
  facet normal 0.909632 0.415415 0
    outer loop
      vertex 47.2835 -1.97213 5
      vertex 48.1112 -3.78449 5
      vertex 48.1112 -3.78449 2
    endloop
  endfacet
  facet normal 0.909632 0.415415 0
    outer loop
      vertex 47.2835 -1.97213 2
      vertex 47.2835 -1.97213 5
      vertex 48.1112 -3.78449 2
    endloop
  endfacet
  facet normal 0.755749 0.654861 0
    outer loop
      vertex 48.1112 -3.78449 5
      vertex 49.416 -5.29025 5
      vertex 49.416 -5.29025 2
    endloop
  endfacet
  facet normal 0.755749 0.654861 0
    outer loop
      vertex 48.1112 -3.78449 2
      vertex 48.1112 -3.78449 5
      vertex 49.416 -5.29025 2
    endloop
  endfacet
  facet normal 0.540641 0.841254 0
    outer loop
      vertex 51.0921 -6.36742 5
      vertex 51.0921 -6.36742 2
      vertex 49.416 -5.29025 5
    endloop
  endfacet
  facet normal 0.540641 0.841254 0
    outer loop
      vertex 49.416 -5.29025 5
      vertex 51.0921 -6.36742 2
      vertex 49.416 -5.29025 2
    endloop
  endfacet
  facet normal 0.281733 0.959493 0
    outer loop
      vertex 53.0038 -6.92875 5
      vertex 53.0038 -6.92875 2
      vertex 51.0921 -6.36742 5
    endloop
  endfacet
  facet normal 0.281733 0.959493 0
    outer loop
      vertex 51.0921 -6.36742 5
      vertex 53.0038 -6.92875 2
      vertex 51.0921 -6.36742 2
    endloop
  endfacet
  facet normal 0 1 0
    outer loop
      vertex 54.9962 -6.92875 5
      vertex 54.9962 -6.92875 2
      vertex 53.0038 -6.92875 5
    endloop
  endfacet
  facet normal 0 1 0
    outer loop
      vertex 53.0038 -6.92875 5
      vertex 54.9962 -6.92875 2
      vertex 53.0038 -6.92875 2
    endloop
  endfacet
  facet normal -0.281733 0.959493 0
    outer loop
      vertex 56.9079 -6.36742 5
      vertex 56.9079 -6.36742 2
      vertex 54.9962 -6.92875 5
    endloop
  endfacet
  facet normal -0.281733 0.959493 0
    outer loop
      vertex 54.9962 -6.92875 5
      vertex 56.9079 -6.36742 2
      vertex 54.9962 -6.92875 2
    endloop
  endfacet
  facet normal -0.540641 0.841254 0
    outer loop
      vertex 58.584 -5.29025 5
      vertex 58.584 -5.29025 2
      vertex 56.9079 -6.36742 5
    endloop
  endfacet
  facet normal -0.540641 0.841254 0
    outer loop
      vertex 56.9079 -6.36742 5
      vertex 58.584 -5.29025 2
      vertex 56.9079 -6.36742 2
    endloop
  endfacet
  facet normal -0.755749 0.654861 0
    outer loop
      vertex 59.8888 -3.78449 5
      vertex 59.8888 -3.78449 2
      vertex 58.584 -5.29025 5
    endloop
  endfacet
  facet normal -0.755749 0.654861 0
    outer loop
      vertex 58.584 -5.29025 5
      vertex 59.8888 -3.78449 2
      vertex 58.584 -5.29025 2
    endloop
  endfacet
  facet normal -0.909632 0.415415 0
    outer loop
      vertex 60.7165 -1.97213 5
      vertex 60.7165 -1.97213 2
      vertex 59.8888 -3.78449 5
    endloop
  endfacet
  facet normal -0.909632 0.415415 0
    outer loop
      vertex 59.8888 -3.78449 5
      vertex 60.7165 -1.97213 2
      vertex 59.8888 -3.78449 2
    endloop
  endfacet
  facet normal -0.989821 0.142315 0
    outer loop
      vertex 61 0 5
      vertex 61 0 2
      vertex 60.7165 -1.97213 5
    endloop
  endfacet
  facet normal -0.989821 0.142315 0
    outer loop
      vertex 60.7165 -1.97213 5
      vertex 61 0 2
      vertex 60.7165 -1.97213 2
    endloop
  endfacet
  facet normal -0.989821 -0.142315 0
    outer loop
      vertex 61 0 5
      vertex 60.7165 1.97213 5
      vertex 61 0 2
    endloop
  endfacet
  facet normal -0.989821 -0.142315 0
    outer loop
      vertex 61 0 2
      vertex 60.7165 1.97213 5
      vertex 60.7165 1.97213 2
    endloop
  endfacet
  facet normal -0.909632 -0.415415 0
    outer loop
      vertex 60.7165 1.97213 5
      vertex 59.8888 3.78449 5
      vertex 60.7165 1.97213 2
    endloop
  endfacet
  facet normal -0.909632 -0.415415 0
    outer loop
      vertex 60.7165 1.97213 2
      vertex 59.8888 3.78449 5
      vertex 59.8888 3.78449 2
    endloop
  endfacet
  facet normal -0.755749 -0.654861 0
    outer loop
      vertex 59.8888 3.78449 5
      vertex 58.584 5.29025 5
      vertex 59.8888 3.78449 2
    endloop
  endfacet
  facet normal -0.755749 -0.654861 0
    outer loop
      vertex 59.8888 3.78449 2
      vertex 58.584 5.29025 5
      vertex 58.584 5.29025 2
    endloop
  endfacet
  facet normal -0.540641 -0.841254 0
    outer loop
      vertex 58.584 5.29025 2
      vertex 58.584 5.29025 5
      vertex 56.9079 6.36742 5
    endloop
  endfacet
  facet normal -0.540641 -0.841254 0
    outer loop
      vertex 56.9079 6.36742 2
      vertex 58.584 5.29025 2
      vertex 56.9079 6.36742 5
    endloop
  endfacet
  facet normal -0.281733 -0.959493 0
    outer loop
      vertex 56.9079 6.36742 2
      vertex 56.9079 6.36742 5
      vertex 54.9962 6.92875 5
    endloop
  endfacet
  facet normal -0.281733 -0.959493 0
    outer loop
      vertex 54.9962 6.92875 2
      vertex 56.9079 6.36742 2
      vertex 54.9962 6.92875 5
    endloop
  endfacet
  facet normal 0 -1 0
    outer loop
      vertex 54.9962 6.92875 2
      vertex 54.9962 6.92875 5
      vertex 53.0038 6.92875 5
    endloop
  endfacet
  facet normal 0 -1 0
    outer loop
      vertex 53.0038 6.92875 2
      vertex 54.9962 6.92875 2
      vertex 53.0038 6.92875 5
    endloop
  endfacet
  facet normal 0.281733 -0.959493 0
    outer loop
      vertex 53.0038 6.92875 2
      vertex 53.0038 6.92875 5
      vertex 51.0921 6.36742 5
    endloop
  endfacet
  facet normal 0.281733 -0.959493 0
    outer loop
      vertex 51.0921 6.36742 2
      vertex 53.0038 6.92875 2
      vertex 51.0921 6.36742 5
    endloop
  endfacet
  facet normal 0.540641 -0.841254 0
    outer loop
      vertex 51.0921 6.36742 2
      vertex 51.0921 6.36742 5
      vertex 49.416 5.29025 5
    endloop
  endfacet
  facet normal 0.540641 -0.841254 0
    outer loop
      vertex 49.416 5.29025 2
      vertex 51.0921 6.36742 2
      vertex 49.416 5.29025 5
    endloop
  endfacet
  facet normal 0.755749 -0.654861 0
    outer loop
      vertex 49.416 5.29025 2
      vertex 49.416 5.29025 5
      vertex 48.1112 3.78449 5
    endloop
  endfacet
  facet normal 0.755749 -0.654861 0
    outer loop
      vertex 48.1112 3.78449 2
      vertex 49.416 5.29025 2
      vertex 48.1112 3.78449 5
    endloop
  endfacet
  facet normal 0.909632 -0.415415 0
    outer loop
      vertex 48.1112 3.78449 2
      vertex 48.1112 3.78449 5
      vertex 47.2835 1.97213 5
    endloop
  endfacet
  facet normal 0.909632 -0.415415 0
    outer loop
      vertex 47.2835 1.97213 2
      vertex 48.1112 3.78449 2
      vertex 47.2835 1.97213 5
    endloop
  endfacet
  facet normal 0.989821 -0.142315 0
    outer loop
      vertex 47.2835 1.97213 2
      vertex 47.2835 1.97213 5
      vertex 47 0 5
    endloop
  endfacet
  facet normal 0.989821 -0.142315 0
    outer loop
      vertex 47 0 2
      vertex 47.2835 1.97213 2
      vertex 47 0 5
    endloop
  endfacet
  facet normal 0 0 1
    outer loop
      vertex -60.7165 -1.97213 2
      vertex -59.8888 -3.78449 2
      vertex -58.584 -5.29025 2
    endloop
  endfacet
  facet normal 0 0 1
    outer loop
      vertex -54.9962 -6.92875 2
      vertex -60.7165 -1.97213 2
      vertex -56.9079 -6.36742 2
    endloop
  endfacet
  facet normal 0 0 1
    outer loop
      vertex -56.9079 -6.36742 2
      vertex -60.7165 -1.97213 2
      vertex -58.584 -5.29025 2
    endloop
  endfacet
  facet normal 0 0 1
    outer loop
      vertex -53.0038 -6.92875 2
      vertex -60.7165 -1.97213 2
      vertex -54.9962 -6.92875 2
    endloop
  endfacet
  facet normal 0 0 1
    outer loop
      vertex -51.0921 -6.36742 2
      vertex -60.7165 -1.97213 2
      vertex -53.0038 -6.92875 2
    endloop
  endfacet
  facet normal 0 0 1
    outer loop
      vertex -49.416 -5.29025 2
      vertex -60.7165 -1.97213 2
      vertex -51.0921 -6.36742 2
    endloop
  endfacet
  facet normal 0 0 1
    outer loop
      vertex -48.1112 -3.78449 2
      vertex -60.7165 -1.97213 2
      vertex -49.416 -5.29025 2
    endloop
  endfacet
  facet normal 0 0 1
    outer loop
      vertex -47.2835 -1.97213 2
      vertex -60.7165 -1.97213 2
      vertex -48.1112 -3.78449 2
    endloop
  endfacet
  facet normal 0 0 1
    outer loop
      vertex -47 5.75565e-015 2
      vertex -60.7165 -1.97213 2
      vertex -47.2835 -1.97213 2
    endloop
  endfacet
  facet normal 0 0 1
    outer loop
      vertex -47.2835 1.97213 2
      vertex -60.7165 -1.97213 2
      vertex -47 5.75565e-015 2
    endloop
  endfacet
  facet normal 0 0 1
    outer loop
      vertex -48.1112 3.78449 2
      vertex -60.7165 -1.97213 2
      vertex -47.2835 1.97213 2
    endloop
  endfacet
  facet normal 0 0 1
    outer loop
      vertex -49.416 5.29025 2
      vertex -60.7165 -1.97213 2
      vertex -48.1112 3.78449 2
    endloop
  endfacet
  facet normal 0 0 1
    outer loop
      vertex -51.0921 6.36742 2
      vertex -60.7165 -1.97213 2
      vertex -49.416 5.29025 2
    endloop
  endfacet
  facet normal 0 0 1
    outer loop
      vertex -53.0038 6.92875 2
      vertex -60.7165 -1.97213 2
      vertex -51.0921 6.36742 2
    endloop
  endfacet
  facet normal 0 0 1
    outer loop
      vertex -54.9962 6.92875 2
      vertex -60.7165 -1.97213 2
      vertex -53.0038 6.92875 2
    endloop
  endfacet
  facet normal 0 0 1
    outer loop
      vertex -56.9079 6.36742 2
      vertex -60.7165 -1.97213 2
      vertex -54.9962 6.92875 2
    endloop
  endfacet
  facet normal 0 0 1
    outer loop
      vertex -58.584 5.29025 2
      vertex -60.7165 -1.97213 2
      vertex -56.9079 6.36742 2
    endloop
  endfacet
  facet normal 0 0 1
    outer loop
      vertex -59.8888 3.78449 2
      vertex -60.7165 -1.97213 2
      vertex -58.584 5.29025 2
    endloop
  endfacet
  facet normal 0 0 1
    outer loop
      vertex -60.7165 1.97213 2
      vertex -60.7165 -1.97213 2
      vertex -59.8888 3.78449 2
    endloop
  endfacet
  facet normal 0 0 1
    outer loop
      vertex -61 7.4701e-015 2
      vertex -60.7165 -1.97213 2
      vertex -60.7165 1.97213 2
    endloop
  endfacet
  facet normal 0 0 1
    outer loop
      vertex -45.2165 -1.97213 2
      vertex -44.3888 -3.78449 2
      vertex -43.084 -5.29025 2
    endloop
  endfacet
  facet normal 0 0 1
    outer loop
      vertex -39.4962 -6.92875 2
      vertex -45.2165 -1.97213 2
      vertex -41.4079 -6.36742 2
    endloop
  endfacet
  facet normal 0 0 1
    outer loop
      vertex -41.4079 -6.36742 2
      vertex -45.2165 -1.97213 2
      vertex -43.084 -5.29025 2
    endloop
  endfacet
  facet normal 0 0 1
    outer loop
      vertex -37.5038 -6.92875 2
      vertex -45.2165 -1.97213 2
      vertex -39.4962 -6.92875 2
    endloop
  endfacet
  facet normal 0 0 1
    outer loop
      vertex -35.5921 -6.36742 2
      vertex -45.2165 -1.97213 2
      vertex -37.5038 -6.92875 2
    endloop
  endfacet
  facet normal 0 0 1
    outer loop
      vertex -33.916 -5.29025 2
      vertex -45.2165 -1.97213 2
      vertex -35.5921 -6.36742 2
    endloop
  endfacet
  facet normal 0 0 1
    outer loop
      vertex -32.6112 -3.78449 2
      vertex -45.2165 -1.97213 2
      vertex -33.916 -5.29025 2
    endloop
  endfacet
  facet normal 0 0 1
    outer loop
      vertex -31.7835 -1.97213 2
      vertex -45.2165 -1.97213 2
      vertex -32.6112 -3.78449 2
    endloop
  endfacet
  facet normal 0 0 1
    outer loop
      vertex -31.5 3.85751e-015 2
      vertex -45.2165 -1.97213 2
      vertex -31.7835 -1.97213 2
    endloop
  endfacet
  facet normal 0 0 1
    outer loop
      vertex -31.7835 1.97213 2
      vertex -45.2165 -1.97213 2
      vertex -31.5 3.85751e-015 2
    endloop
  endfacet
  facet normal 0 0 1
    outer loop
      vertex -32.6112 3.78449 2
      vertex -45.2165 -1.97213 2
      vertex -31.7835 1.97213 2
    endloop
  endfacet
  facet normal 0 0 1
    outer loop
      vertex -33.916 5.29025 2
      vertex -45.2165 -1.97213 2
      vertex -32.6112 3.78449 2
    endloop
  endfacet
  facet normal 0 0 1
    outer loop
      vertex -35.5921 6.36742 2
      vertex -45.2165 -1.97213 2
      vertex -33.916 5.29025 2
    endloop
  endfacet
  facet normal 0 0 1
    outer loop
      vertex -37.5038 6.92875 2
      vertex -45.2165 -1.97213 2
      vertex -35.5921 6.36742 2
    endloop
  endfacet
  facet normal 0 0 1
    outer loop
      vertex -39.4962 6.92875 2
      vertex -45.2165 -1.97213 2
      vertex -37.5038 6.92875 2
    endloop
  endfacet
  facet normal 0 0 1
    outer loop
      vertex -41.4079 6.36742 2
      vertex -45.2165 -1.97213 2
      vertex -39.4962 6.92875 2
    endloop
  endfacet
  facet normal 0 0 1
    outer loop
      vertex -43.084 5.29025 2
      vertex -45.2165 -1.97213 2
      vertex -41.4079 6.36742 2
    endloop
  endfacet
  facet normal 0 0 1
    outer loop
      vertex -44.3888 3.78449 2
      vertex -45.2165 -1.97213 2
      vertex -43.084 5.29025 2
    endloop
  endfacet
  facet normal 0 0 1
    outer loop
      vertex -45.2165 1.97213 2
      vertex -45.2165 -1.97213 2
      vertex -44.3888 3.78449 2
    endloop
  endfacet
  facet normal 0 0 1
    outer loop
      vertex -45.5 5.57196e-015 2
      vertex -45.2165 -1.97213 2
      vertex -45.2165 1.97213 2
    endloop
  endfacet
  facet normal 0 0 1
    outer loop
      vertex 31.7835 -1.97213 2
      vertex 32.6112 -3.78449 2
      vertex 33.916 -5.29025 2
    endloop
  endfacet
  facet normal 0 0 1
    outer loop
      vertex 37.5038 -6.92875 2
      vertex 31.7835 -1.97213 2
      vertex 35.5921 -6.36742 2
    endloop
  endfacet
  facet normal 0 0 1
    outer loop
      vertex 35.5921 -6.36742 2
      vertex 31.7835 -1.97213 2
      vertex 33.916 -5.29025 2
    endloop
  endfacet
  facet normal 0 0 1
    outer loop
      vertex 39.4962 -6.92875 2
      vertex 31.7835 -1.97213 2
      vertex 37.5038 -6.92875 2
    endloop
  endfacet
  facet normal 0 0 1
    outer loop
      vertex 41.4079 -6.36742 2
      vertex 31.7835 -1.97213 2
      vertex 39.4962 -6.92875 2
    endloop
  endfacet
  facet normal 0 0 1
    outer loop
      vertex 43.084 -5.29025 2
      vertex 31.7835 -1.97213 2
      vertex 41.4079 -6.36742 2
    endloop
  endfacet
  facet normal 0 0 1
    outer loop
      vertex 44.3888 -3.78449 2
      vertex 31.7835 -1.97213 2
      vertex 43.084 -5.29025 2
    endloop
  endfacet
  facet normal 0 0 1
    outer loop
      vertex 45.2165 -1.97213 2
      vertex 31.7835 -1.97213 2
      vertex 44.3888 -3.78449 2
    endloop
  endfacet
  facet normal 0 0 1
    outer loop
      vertex 45.5 0 2
      vertex 31.7835 -1.97213 2
      vertex 45.2165 -1.97213 2
    endloop
  endfacet
  facet normal 0 0 1
    outer loop
      vertex 45.2165 1.97213 2
      vertex 31.7835 -1.97213 2
      vertex 45.5 0 2
    endloop
  endfacet
  facet normal 0 0 1
    outer loop
      vertex 44.3888 3.78449 2
      vertex 31.7835 -1.97213 2
      vertex 45.2165 1.97213 2
    endloop
  endfacet
  facet normal 0 0 1
    outer loop
      vertex 43.084 5.29025 2
      vertex 31.7835 -1.97213 2
      vertex 44.3888 3.78449 2
    endloop
  endfacet
  facet normal 0 0 1
    outer loop
      vertex 41.4079 6.36742 2
      vertex 31.7835 -1.97213 2
      vertex 43.084 5.29025 2
    endloop
  endfacet
  facet normal 0 0 1
    outer loop
      vertex 39.4962 6.92875 2
      vertex 31.7835 -1.97213 2
      vertex 41.4079 6.36742 2
    endloop
  endfacet
  facet normal 0 0 1
    outer loop
      vertex 37.5038 6.92875 2
      vertex 31.7835 -1.97213 2
      vertex 39.4962 6.92875 2
    endloop
  endfacet
  facet normal 0 0 1
    outer loop
      vertex 35.5921 6.36742 2
      vertex 31.7835 -1.97213 2
      vertex 37.5038 6.92875 2
    endloop
  endfacet
  facet normal 0 0 1
    outer loop
      vertex 33.916 5.29025 2
      vertex 31.7835 -1.97213 2
      vertex 35.5921 6.36742 2
    endloop
  endfacet
  facet normal 0 0 1
    outer loop
      vertex 32.6112 3.78449 2
      vertex 31.7835 -1.97213 2
      vertex 33.916 5.29025 2
    endloop
  endfacet
  facet normal 0 0 1
    outer loop
      vertex 31.7835 1.97213 2
      vertex 31.7835 -1.97213 2
      vertex 32.6112 3.78449 2
    endloop
  endfacet
  facet normal 0 0 1
    outer loop
      vertex 31.5 0 2
      vertex 31.7835 -1.97213 2
      vertex 31.7835 1.97213 2
    endloop
  endfacet
  facet normal 0 0 1
    outer loop
      vertex 47.2835 -1.97213 2
      vertex 48.1112 -3.78449 2
      vertex 49.416 -5.29025 2
    endloop
  endfacet
  facet normal 0 0 1
    outer loop
      vertex 53.0038 -6.92875 2
      vertex 47.2835 -1.97213 2
      vertex 51.0921 -6.36742 2
    endloop
  endfacet
  facet normal 0 0 1
    outer loop
      vertex 51.0921 -6.36742 2
      vertex 47.2835 -1.97213 2
      vertex 49.416 -5.29025 2
    endloop
  endfacet
  facet normal 0 0 1
    outer loop
      vertex 54.9962 -6.92875 2
      vertex 47.2835 -1.97213 2
      vertex 53.0038 -6.92875 2
    endloop
  endfacet
  facet normal 0 0 1
    outer loop
      vertex 56.9079 -6.36742 2
      vertex 47.2835 -1.97213 2
      vertex 54.9962 -6.92875 2
    endloop
  endfacet
  facet normal 0 0 1
    outer loop
      vertex 58.584 -5.29025 2
      vertex 47.2835 -1.97213 2
      vertex 56.9079 -6.36742 2
    endloop
  endfacet
  facet normal 0 0 1
    outer loop
      vertex 59.8888 -3.78449 2
      vertex 47.2835 -1.97213 2
      vertex 58.584 -5.29025 2
    endloop
  endfacet
  facet normal 0 0 1
    outer loop
      vertex 60.7165 -1.97213 2
      vertex 47.2835 -1.97213 2
      vertex 59.8888 -3.78449 2
    endloop
  endfacet
  facet normal 0 0 1
    outer loop
      vertex 61 0 2
      vertex 47.2835 -1.97213 2
      vertex 60.7165 -1.97213 2
    endloop
  endfacet
  facet normal 0 0 1
    outer loop
      vertex 60.7165 1.97213 2
      vertex 47.2835 -1.97213 2
      vertex 61 0 2
    endloop
  endfacet
  facet normal 0 0 1
    outer loop
      vertex 59.8888 3.78449 2
      vertex 47.2835 -1.97213 2
      vertex 60.7165 1.97213 2
    endloop
  endfacet
  facet normal 0 0 1
    outer loop
      vertex 58.584 5.29025 2
      vertex 47.2835 -1.97213 2
      vertex 59.8888 3.78449 2
    endloop
  endfacet
  facet normal 0 0 1
    outer loop
      vertex 56.9079 6.36742 2
      vertex 47.2835 -1.97213 2
      vertex 58.584 5.29025 2
    endloop
  endfacet
  facet normal 0 0 1
    outer loop
      vertex 54.9962 6.92875 2
      vertex 47.2835 -1.97213 2
      vertex 56.9079 6.36742 2
    endloop
  endfacet
  facet normal 0 0 1
    outer loop
      vertex 53.0038 6.92875 2
      vertex 47.2835 -1.97213 2
      vertex 54.9962 6.92875 2
    endloop
  endfacet
  facet normal 0 0 1
    outer loop
      vertex 51.0921 6.36742 2
      vertex 47.2835 -1.97213 2
      vertex 53.0038 6.92875 2
    endloop
  endfacet
  facet normal 0 0 1
    outer loop
      vertex 49.416 5.29025 2
      vertex 47.2835 -1.97213 2
      vertex 51.0921 6.36742 2
    endloop
  endfacet
  facet normal 0 0 1
    outer loop
      vertex 48.1112 3.78449 2
      vertex 47.2835 -1.97213 2
      vertex 49.416 5.29025 2
    endloop
  endfacet
  facet normal 0 0 1
    outer loop
      vertex 47.2835 1.97213 2
      vertex 47.2835 -1.97213 2
      vertex 48.1112 3.78449 2
    endloop
  endfacet
  facet normal 0 0 1
    outer loop
      vertex 47 0 2
      vertex 47.2835 -1.97213 2
      vertex 47.2835 1.97213 2
    endloop
  endfacet
endsolid OpenSCAD_Model
