solid OpenSCAD_Model
  facet normal -1 0 0
    outer loop
      vertex -70 -70 0
      vertex -70 -70 100
      vertex -70 70 0
    endloop
  endfacet
  facet normal -1 0 0
    outer loop
      vertex -70 70 0
      vertex -70 -70 100
      vertex -70 70 100
    endloop
  endfacet
  facet normal 0 -1 0
    outer loop
      vertex -70 -70 100
      vertex -70 -70 0
      vertex 70 -70 0
    endloop
  endfacet
  facet normal 0 -1 0
    outer loop
      vertex 70 -70 100
      vertex -70 -70 100
      vertex 70 -70 0
    endloop
  endfacet
  facet normal 0 0 -1
    outer loop
      vertex -65 -65 0
      vertex 65 -65 0
      vertex 70 -70 0
    endloop
  endfacet
  facet normal 0 0 -1
    outer loop
      vertex -65 65 0
      vertex -70 70 0
      vertex 70 70 0
    endloop
  endfacet
  facet normal 0 0 -1
    outer loop
      vertex -70 -70 0
      vertex -70 70 0
      vertex -65 65 0
    endloop
  endfacet
  facet normal 0 0 -1
    outer loop
      vertex 65 65 0
      vertex -65 65 0
      vertex 70 70 0
    endloop
  endfacet
  facet normal 0 0 -1
    outer loop
      vertex -70 -70 0
      vertex -65 65 0
      vertex -65 -65 0
    endloop
  endfacet
  facet normal 0 0 -1
    outer loop
      vertex -70 -70 0
      vertex -65 -65 0
      vertex 70 -70 0
    endloop
  endfacet
  facet normal 0 0 -1
    outer loop
      vertex 70 -70 0
      vertex 65 -65 0
      vertex 70 70 0
    endloop
  endfacet
  facet normal 0 0 -1
    outer loop
      vertex 65 -65 0
      vertex 65 65 0
      vertex 70 70 0
    endloop
  endfacet
  facet normal 0 1 0
    outer loop
      vertex -70 70 0
      vertex -70 70 100
      vertex 70 70 0
    endloop
  endfacet
  facet normal 0 1 0
    outer loop
      vertex 70 70 0
      vertex -70 70 100
      vertex 70 70 100
    endloop
  endfacet
  facet normal 0 0 1
    outer loop
      vertex -65 -65 100
      vertex -70 -70 100
      vertex 70 -70 100
    endloop
  endfacet
  facet normal 0 0 1
    outer loop
      vertex -65 65 100
      vertex -70 70 100
      vertex -65 -65 100
    endloop
  endfacet
  facet normal 0 0 1
    outer loop
      vertex 65 -65 100
      vertex -65 -65 100
      vertex 70 -70 100
    endloop
  endfacet
  facet normal 0 0 1
    outer loop
      vertex -70 70 100
      vertex -70 -70 100
      vertex -65 -65 100
    endloop
  endfacet
  facet normal 0 0 1
    outer loop
      vertex 70 70 100
      vertex -70 70 100
      vertex -65 65 100
    endloop
  endfacet
  facet normal 0 0 1
    outer loop
      vertex 70 70 100
      vertex 65 65 100
      vertex 70 -70 100
    endloop
  endfacet
  facet normal 0 0 1
    outer loop
      vertex 70 70 100
      vertex -65 65 100
      vertex 65 65 100
    endloop
  endfacet
  facet normal 0 0 1
    outer loop
      vertex 65 65 100
      vertex 65 -65 100
      vertex 70 -70 100
    endloop
  endfacet
  facet normal 1 0 0
    outer loop
      vertex 70 -70 100
      vertex 70 -70 0
      vertex 70 70 0
    endloop
  endfacet
  facet normal 1 0 0
    outer loop
      vertex 70 70 100
      vertex 70 -70 100
      vertex 70 70 0
    endloop
  endfacet
  facet normal 1 0 0
    outer loop
      vertex -65 65 0
      vertex -65 65 100
      vertex -65 -65 100
    endloop
  endfacet
  facet normal 1 0 0
    outer loop
      vertex -65 -65 0
      vertex -65 65 0
      vertex -65 -65 100
    endloop
  endfacet
  facet normal 0 -1 0
    outer loop
      vertex 65 65 0
      vertex 65 65 100
      vertex -65 65 100
    endloop
  endfacet
  facet normal 0 -1 0
    outer loop
      vertex -65 65 0
      vertex 65 65 0
      vertex -65 65 100
    endloop
  endfacet
  facet normal -1 0 0
    outer loop
      vertex 65 65 100
      vertex 65 65 0
      vertex 65 -65 100
    endloop
  endfacet
  facet normal -1 0 0
    outer loop
      vertex 65 -65 100
      vertex 65 65 0
      vertex 65 -65 0
    endloop
  endfacet
  facet normal 0 1 0
    outer loop
      vertex 65 -65 100
      vertex 65 -65 0
      vertex -65 -65 100
    endloop
  endfacet
  facet normal 0 1 0
    outer loop
      vertex -65 -65 100
      vertex 65 -65 0
      vertex -65 -65 0
    endloop
  endfacet
  facet normal -1 0 0
    outer loop
      vertex -62.5 -62.5 0
      vertex -62.5 -62.5 7
      vertex -62.5 62.5 0
    endloop
  endfacet
  facet normal -1 0 0
    outer loop
      vertex -62.5 62.5 0
      vertex -62.5 -62.5 7
      vertex -62.5 62.5 7
    endloop
  endfacet
  facet normal 0 -1 0
    outer loop
      vertex -62.5 -62.5 7
      vertex -62.5 -62.5 0
      vertex 62.5 -62.5 0
    endloop
  endfacet
  facet normal 0 -1 0
    outer loop
      vertex 62.5 -62.5 7
      vertex -62.5 -62.5 7
      vertex 62.5 -62.5 0
    endloop
  endfacet
  facet normal 0 0 -1
    outer loop
      vertex -62.5 -62.5 0
      vertex -62.5 62.5 0
      vertex 62.5 -62.5 0
    endloop
  endfacet
  facet normal 0 0 -1
    outer loop
      vertex 62.5 -62.5 0
      vertex -62.5 62.5 0
      vertex 62.5 62.5 0
    endloop
  endfacet
  facet normal 0 1 0
    outer loop
      vertex -62.5 62.5 0
      vertex -62.5 62.5 7
      vertex 62.5 62.5 0
    endloop
  endfacet
  facet normal 0 1 0
    outer loop
      vertex 62.5 62.5 0
      vertex -62.5 62.5 7
      vertex 62.5 62.5 7
    endloop
  endfacet
  facet normal 0 0 1
    outer loop
      vertex 2.09057 -19.8904 7
      vertex -62.5 -62.5 7
      vertex 62.5 -62.5 7
    endloop
  endfacet
  facet normal 0 0 1
    outer loop
      vertex -62.5 62.5 7
      vertex -62.5 -62.5 7
      vertex -19.563 -4.15823 7
    endloop
  endfacet
  facet normal 0 0 1
    outer loop
      vertex -62.5 62.5 7
      vertex -19.563 -4.15823 7
      vertex -20 0 7
    endloop
  endfacet
  facet normal 0 0 1
    outer loop
      vertex -62.5 62.5 7
      vertex -20 0 7
      vertex -19.563 4.15823 7
    endloop
  endfacet
  facet normal 0 0 1
    outer loop
      vertex 10 -17.3205 7
      vertex 6.18034 -19.0211 7
      vertex 62.5 -62.5 7
    endloop
  endfacet
  facet normal 0 0 1
    outer loop
      vertex -62.5 62.5 7
      vertex -19.563 4.15823 7
      vertex -18.2709 8.13473 7
    endloop
  endfacet
  facet normal 0 0 1
    outer loop
      vertex 6.18034 -19.0211 7
      vertex 2.09057 -19.8904 7
      vertex 62.5 -62.5 7
    endloop
  endfacet
  facet normal 0 0 1
    outer loop
      vertex -62.5 62.5 7
      vertex -18.2709 8.13473 7
      vertex -16.1803 11.7557 7
    endloop
  endfacet
  facet normal 0 0 1
    outer loop
      vertex -10 17.3205 7
      vertex -62.5 62.5 7
      vertex -13.3826 14.8629 7
    endloop
  endfacet
  facet normal 0 0 1
    outer loop
      vertex 18.2709 8.13473 7
      vertex 19.563 4.15823 7
      vertex 62.5 -62.5 7
    endloop
  endfacet
  facet normal 0 0 1
    outer loop
      vertex 62.5 62.5 7
      vertex -62.5 62.5 7
      vertex -10 17.3205 7
    endloop
  endfacet
  facet normal 0 0 1
    outer loop
      vertex 16.1803 -11.7557 7
      vertex 13.3826 -14.8629 7
      vertex 62.5 -62.5 7
    endloop
  endfacet
  facet normal 0 0 1
    outer loop
      vertex 18.2709 -8.13473 7
      vertex 16.1803 -11.7557 7
      vertex 62.5 -62.5 7
    endloop
  endfacet
  facet normal 0 0 1
    outer loop
      vertex 62.5 62.5 7
      vertex -6.18034 19.0211 7
      vertex -2.09057 19.8904 7
    endloop
  endfacet
  facet normal 0 0 1
    outer loop
      vertex 19.563 -4.15823 7
      vertex 18.2709 -8.13473 7
      vertex 62.5 -62.5 7
    endloop
  endfacet
  facet normal 0 0 1
    outer loop
      vertex 62.5 62.5 7
      vertex -2.09057 19.8904 7
      vertex 2.09057 19.8904 7
    endloop
  endfacet
  facet normal 0 0 1
    outer loop
      vertex 13.3826 -14.8629 7
      vertex 10 -17.3205 7
      vertex 62.5 -62.5 7
    endloop
  endfacet
  facet normal 0 0 1
    outer loop
      vertex 62.5 62.5 7
      vertex 2.09057 19.8904 7
      vertex 6.18034 19.0211 7
    endloop
  endfacet
  facet normal 0 0 1
    outer loop
      vertex 62.5 62.5 7
      vertex 6.18034 19.0211 7
      vertex 10 17.3205 7
    endloop
  endfacet
  facet normal 0 0 1
    outer loop
      vertex 19.563 4.15823 7
      vertex 20 0 7
      vertex 62.5 -62.5 7
    endloop
  endfacet
  facet normal 0 0 1
    outer loop
      vertex 62.5 62.5 7
      vertex 10 17.3205 7
      vertex 13.3826 14.8629 7
    endloop
  endfacet
  facet normal 0 0 1
    outer loop
      vertex 62.5 62.5 7
      vertex 16.1803 11.7557 7
      vertex 62.5 -62.5 7
    endloop
  endfacet
  facet normal 0 0 1
    outer loop
      vertex 62.5 62.5 7
      vertex 13.3826 14.8629 7
      vertex 16.1803 11.7557 7
    endloop
  endfacet
  facet normal 0 0 1
    outer loop
      vertex 16.1803 11.7557 7
      vertex 18.2709 8.13473 7
      vertex 62.5 -62.5 7
    endloop
  endfacet
  facet normal 0 0 1
    outer loop
      vertex -10 17.3205 7
      vertex -6.18034 19.0211 7
      vertex 62.5 62.5 7
    endloop
  endfacet
  facet normal 0 0 1
    outer loop
      vertex 20 0 7
      vertex 19.563 -4.15823 7
      vertex 62.5 -62.5 7
    endloop
  endfacet
  facet normal 0 0 1
    outer loop
      vertex -2.09057 -19.8904 7
      vertex -62.5 -62.5 7
      vertex 2.09057 -19.8904 7
    endloop
  endfacet
  facet normal 0 0 1
    outer loop
      vertex -6.18034 -19.0211 7
      vertex -62.5 -62.5 7
      vertex -2.09057 -19.8904 7
    endloop
  endfacet
  facet normal 0 0 1
    outer loop
      vertex -10 -17.3205 7
      vertex -62.5 -62.5 7
      vertex -6.18034 -19.0211 7
    endloop
  endfacet
  facet normal 0 0 1
    outer loop
      vertex -13.3826 -14.8629 7
      vertex -62.5 -62.5 7
      vertex -10 -17.3205 7
    endloop
  endfacet
  facet normal 0 0 1
    outer loop
      vertex -16.1803 -11.7557 7
      vertex -62.5 -62.5 7
      vertex -13.3826 -14.8629 7
    endloop
  endfacet
  facet normal 0 0 1
    outer loop
      vertex -18.2709 -8.13473 7
      vertex -62.5 -62.5 7
      vertex -16.1803 -11.7557 7
    endloop
  endfacet
  facet normal 0 0 1
    outer loop
      vertex -19.563 -4.15823 7
      vertex -62.5 -62.5 7
      vertex -18.2709 -8.13473 7
    endloop
  endfacet
  facet normal 0 0 1
    outer loop
      vertex -16.1803 11.7557 7
      vertex -13.3826 14.8629 7
      vertex -62.5 62.5 7
    endloop
  endfacet
  facet normal 1 0 0
    outer loop
      vertex 62.5 -62.5 7
      vertex 62.5 -62.5 0
      vertex 62.5 62.5 0
    endloop
  endfacet
  facet normal 1 0 0
    outer loop
      vertex 62.5 62.5 7
      vertex 62.5 -62.5 7
      vertex 62.5 62.5 0
    endloop
  endfacet
  facet normal -0.994522 -0.104528 0
    outer loop
      vertex -20 0 7
      vertex -19.563 -4.15823 7
      vertex -20 0 30
    endloop
  endfacet
  facet normal -0.994522 -0.104528 0
    outer loop
      vertex -20 0 30
      vertex -19.563 -4.15823 7
      vertex -19.563 -4.15823 30
    endloop
  endfacet
  facet normal -0.951057 -0.309017 0
    outer loop
      vertex -19.563 -4.15823 7
      vertex -18.2709 -8.13473 7
      vertex -19.563 -4.15823 30
    endloop
  endfacet
  facet normal -0.951057 -0.309017 0
    outer loop
      vertex -19.563 -4.15823 30
      vertex -18.2709 -8.13473 7
      vertex -18.2709 -8.13473 30
    endloop
  endfacet
  facet normal -0.866025 -0.5 0
    outer loop
      vertex -18.2709 -8.13473 7
      vertex -16.1803 -11.7557 7
      vertex -18.2709 -8.13473 30
    endloop
  endfacet
  facet normal -0.866025 -0.5 0
    outer loop
      vertex -18.2709 -8.13473 30
      vertex -16.1803 -11.7557 7
      vertex -16.1803 -11.7557 30
    endloop
  endfacet
  facet normal -0.743145 -0.669131 0
    outer loop
      vertex -16.1803 -11.7557 7
      vertex -13.3826 -14.8629 7
      vertex -16.1803 -11.7557 30
    endloop
  endfacet
  facet normal -0.743145 -0.669131 0
    outer loop
      vertex -16.1803 -11.7557 30
      vertex -13.3826 -14.8629 7
      vertex -13.3826 -14.8629 30
    endloop
  endfacet
  facet normal -0.587785 -0.809017 0
    outer loop
      vertex -13.3826 -14.8629 30
      vertex -13.3826 -14.8629 7
      vertex -10 -17.3205 7
    endloop
  endfacet
  facet normal -0.587785 -0.809017 0
    outer loop
      vertex -10 -17.3205 30
      vertex -13.3826 -14.8629 30
      vertex -10 -17.3205 7
    endloop
  endfacet
  facet normal -0.406737 -0.913545 0
    outer loop
      vertex -10 -17.3205 30
      vertex -10 -17.3205 7
      vertex -6.18034 -19.0211 7
    endloop
  endfacet
  facet normal -0.406737 -0.913545 0
    outer loop
      vertex -6.18034 -19.0211 30
      vertex -10 -17.3205 30
      vertex -6.18034 -19.0211 7
    endloop
  endfacet
  facet normal -0.207912 -0.978148 0
    outer loop
      vertex -6.18034 -19.0211 30
      vertex -6.18034 -19.0211 7
      vertex -2.09057 -19.8904 7
    endloop
  endfacet
  facet normal -0.207912 -0.978148 0
    outer loop
      vertex -2.09057 -19.8904 30
      vertex -6.18034 -19.0211 30
      vertex -2.09057 -19.8904 7
    endloop
  endfacet
  facet normal 0 -1 0
    outer loop
      vertex -2.09057 -19.8904 30
      vertex -2.09057 -19.8904 7
      vertex 2.09057 -19.8904 7
    endloop
  endfacet
  facet normal 0 -1 0
    outer loop
      vertex 2.09057 -19.8904 30
      vertex -2.09057 -19.8904 30
      vertex 2.09057 -19.8904 7
    endloop
  endfacet
  facet normal 0.207912 -0.978148 0
    outer loop
      vertex 2.09057 -19.8904 30
      vertex 2.09057 -19.8904 7
      vertex 6.18034 -19.0211 7
    endloop
  endfacet
  facet normal 0.207912 -0.978148 0
    outer loop
      vertex 6.18034 -19.0211 30
      vertex 2.09057 -19.8904 30
      vertex 6.18034 -19.0211 7
    endloop
  endfacet
  facet normal 0.406737 -0.913545 0
    outer loop
      vertex 6.18034 -19.0211 30
      vertex 6.18034 -19.0211 7
      vertex 10 -17.3205 7
    endloop
  endfacet
  facet normal 0.406737 -0.913545 0
    outer loop
      vertex 10 -17.3205 30
      vertex 6.18034 -19.0211 30
      vertex 10 -17.3205 7
    endloop
  endfacet
  facet normal 0.587785 -0.809017 0
    outer loop
      vertex 10 -17.3205 30
      vertex 10 -17.3205 7
      vertex 13.3826 -14.8629 7
    endloop
  endfacet
  facet normal 0.587785 -0.809017 0
    outer loop
      vertex 13.3826 -14.8629 30
      vertex 10 -17.3205 30
      vertex 13.3826 -14.8629 7
    endloop
  endfacet
  facet normal 0.743145 -0.669131 0
    outer loop
      vertex 13.3826 -14.8629 30
      vertex 13.3826 -14.8629 7
      vertex 16.1803 -11.7557 7
    endloop
  endfacet
  facet normal 0.743145 -0.669131 0
    outer loop
      vertex 16.1803 -11.7557 30
      vertex 13.3826 -14.8629 30
      vertex 16.1803 -11.7557 7
    endloop
  endfacet
  facet normal 0.866025 -0.5 0
    outer loop
      vertex 16.1803 -11.7557 30
      vertex 16.1803 -11.7557 7
      vertex 18.2709 -8.13473 7
    endloop
  endfacet
  facet normal 0.866025 -0.5 0
    outer loop
      vertex 18.2709 -8.13473 30
      vertex 16.1803 -11.7557 30
      vertex 18.2709 -8.13473 7
    endloop
  endfacet
  facet normal 0.951057 -0.309017 0
    outer loop
      vertex 18.2709 -8.13473 30
      vertex 18.2709 -8.13473 7
      vertex 19.563 -4.15823 7
    endloop
  endfacet
  facet normal 0.951057 -0.309017 0
    outer loop
      vertex 19.563 -4.15823 30
      vertex 18.2709 -8.13473 30
      vertex 19.563 -4.15823 7
    endloop
  endfacet
  facet normal 0.994522 -0.104528 0
    outer loop
      vertex 19.563 -4.15823 30
      vertex 19.563 -4.15823 7
      vertex 20 0 7
    endloop
  endfacet
  facet normal 0.994522 -0.104528 0
    outer loop
      vertex 20 0 30
      vertex 19.563 -4.15823 30
      vertex 20 0 7
    endloop
  endfacet
  facet normal 0.994522 0.104528 0
    outer loop
      vertex 20 0 7
      vertex 19.563 4.15823 7
      vertex 19.563 4.15823 30
    endloop
  endfacet
  facet normal 0.994522 0.104528 0
    outer loop
      vertex 20 0 30
      vertex 20 0 7
      vertex 19.563 4.15823 30
    endloop
  endfacet
  facet normal 0.951057 0.309017 0
    outer loop
      vertex 19.563 4.15823 7
      vertex 18.2709 8.13473 7
      vertex 18.2709 8.13473 30
    endloop
  endfacet
  facet normal 0.951057 0.309017 0
    outer loop
      vertex 19.563 4.15823 30
      vertex 19.563 4.15823 7
      vertex 18.2709 8.13473 30
    endloop
  endfacet
  facet normal 0.866025 0.5 0
    outer loop
      vertex 18.2709 8.13473 7
      vertex 16.1803 11.7557 7
      vertex 16.1803 11.7557 30
    endloop
  endfacet
  facet normal 0.866025 0.5 0
    outer loop
      vertex 18.2709 8.13473 30
      vertex 18.2709 8.13473 7
      vertex 16.1803 11.7557 30
    endloop
  endfacet
  facet normal 0.743145 0.669131 0
    outer loop
      vertex 16.1803 11.7557 7
      vertex 13.3826 14.8629 7
      vertex 13.3826 14.8629 30
    endloop
  endfacet
  facet normal 0.743145 0.669131 0
    outer loop
      vertex 16.1803 11.7557 30
      vertex 16.1803 11.7557 7
      vertex 13.3826 14.8629 30
    endloop
  endfacet
  facet normal 0.587785 0.809017 0
    outer loop
      vertex 10 17.3205 7
      vertex 10 17.3205 30
      vertex 13.3826 14.8629 7
    endloop
  endfacet
  facet normal 0.587785 0.809017 0
    outer loop
      vertex 13.3826 14.8629 7
      vertex 10 17.3205 30
      vertex 13.3826 14.8629 30
    endloop
  endfacet
  facet normal 0.406737 0.913545 0
    outer loop
      vertex 6.18034 19.0211 7
      vertex 6.18034 19.0211 30
      vertex 10 17.3205 7
    endloop
  endfacet
  facet normal 0.406737 0.913545 0
    outer loop
      vertex 10 17.3205 7
      vertex 6.18034 19.0211 30
      vertex 10 17.3205 30
    endloop
  endfacet
  facet normal 0.207912 0.978148 0
    outer loop
      vertex 2.09057 19.8904 7
      vertex 2.09057 19.8904 30
      vertex 6.18034 19.0211 7
    endloop
  endfacet
  facet normal 0.207912 0.978148 0
    outer loop
      vertex 6.18034 19.0211 7
      vertex 2.09057 19.8904 30
      vertex 6.18034 19.0211 30
    endloop
  endfacet
  facet normal 0 1 0
    outer loop
      vertex -2.09057 19.8904 7
      vertex -2.09057 19.8904 30
      vertex 2.09057 19.8904 7
    endloop
  endfacet
  facet normal 0 1 0
    outer loop
      vertex 2.09057 19.8904 7
      vertex -2.09057 19.8904 30
      vertex 2.09057 19.8904 30
    endloop
  endfacet
  facet normal -0.207912 0.978148 0
    outer loop
      vertex -6.18034 19.0211 7
      vertex -6.18034 19.0211 30
      vertex -2.09057 19.8904 7
    endloop
  endfacet
  facet normal -0.207912 0.978148 0
    outer loop
      vertex -2.09057 19.8904 7
      vertex -6.18034 19.0211 30
      vertex -2.09057 19.8904 30
    endloop
  endfacet
  facet normal -0.406737 0.913545 0
    outer loop
      vertex -10 17.3205 7
      vertex -10 17.3205 30
      vertex -6.18034 19.0211 7
    endloop
  endfacet
  facet normal -0.406737 0.913545 0
    outer loop
      vertex -6.18034 19.0211 7
      vertex -10 17.3205 30
      vertex -6.18034 19.0211 30
    endloop
  endfacet
  facet normal -0.587785 0.809017 0
    outer loop
      vertex -13.3826 14.8629 7
      vertex -13.3826 14.8629 30
      vertex -10 17.3205 7
    endloop
  endfacet
  facet normal -0.587785 0.809017 0
    outer loop
      vertex -10 17.3205 7
      vertex -13.3826 14.8629 30
      vertex -10 17.3205 30
    endloop
  endfacet
  facet normal -0.743145 0.669131 0
    outer loop
      vertex -16.1803 11.7557 7
      vertex -16.1803 11.7557 30
      vertex -13.3826 14.8629 7
    endloop
  endfacet
  facet normal -0.743145 0.669131 0
    outer loop
      vertex -13.3826 14.8629 7
      vertex -16.1803 11.7557 30
      vertex -13.3826 14.8629 30
    endloop
  endfacet
  facet normal -0.866025 0.5 0
    outer loop
      vertex -18.2709 8.13473 7
      vertex -18.2709 8.13473 30
      vertex -16.1803 11.7557 7
    endloop
  endfacet
  facet normal -0.866025 0.5 0
    outer loop
      vertex -16.1803 11.7557 7
      vertex -18.2709 8.13473 30
      vertex -16.1803 11.7557 30
    endloop
  endfacet
  facet normal -0.951057 0.309017 0
    outer loop
      vertex -19.563 4.15823 7
      vertex -19.563 4.15823 30
      vertex -18.2709 8.13473 7
    endloop
  endfacet
  facet normal -0.951057 0.309017 0
    outer loop
      vertex -18.2709 8.13473 7
      vertex -19.563 4.15823 30
      vertex -18.2709 8.13473 30
    endloop
  endfacet
  facet normal -0.994522 0.104528 0
    outer loop
      vertex -20 0 7
      vertex -20 0 30
      vertex -19.563 4.15823 7
    endloop
  endfacet
  facet normal -0.994522 0.104528 0
    outer loop
      vertex -19.563 4.15823 7
      vertex -20 0 30
      vertex -19.563 4.15823 30
    endloop
  endfacet
  facet normal 0 0 1
    outer loop
      vertex -19.563 4.15823 30
      vertex -20 0 30
      vertex -19.563 -4.15823 30
    endloop
  endfacet
  facet normal 0 0 1
    outer loop
      vertex -16.1803 -11.7557 30
      vertex -19.563 4.15823 30
      vertex -18.2709 -8.13473 30
    endloop
  endfacet
  facet normal 0 0 1
    outer loop
      vertex -18.2709 -8.13473 30
      vertex -19.563 4.15823 30
      vertex -19.563 -4.15823 30
    endloop
  endfacet
  facet normal 0 0 1
    outer loop
      vertex -13.3826 -14.8629 30
      vertex -19.563 4.15823 30
      vertex -16.1803 -11.7557 30
    endloop
  endfacet
  facet normal 0 0 1
    outer loop
      vertex -10 -17.3205 30
      vertex -19.563 4.15823 30
      vertex -13.3826 -14.8629 30
    endloop
  endfacet
  facet normal 0 0 1
    outer loop
      vertex -6.18034 -19.0211 30
      vertex -19.563 4.15823 30
      vertex -10 -17.3205 30
    endloop
  endfacet
  facet normal 0 0 1
    outer loop
      vertex -2.09057 -19.8904 30
      vertex -19.563 4.15823 30
      vertex -6.18034 -19.0211 30
    endloop
  endfacet
  facet normal 0 0 1
    outer loop
      vertex 2.09057 -19.8904 30
      vertex -19.563 4.15823 30
      vertex -2.09057 -19.8904 30
    endloop
  endfacet
  facet normal 0 0 1
    outer loop
      vertex 6.18034 -19.0211 30
      vertex -19.563 4.15823 30
      vertex 2.09057 -19.8904 30
    endloop
  endfacet
  facet normal 0 0 1
    outer loop
      vertex 10 -17.3205 30
      vertex -19.563 4.15823 30
      vertex 6.18034 -19.0211 30
    endloop
  endfacet
  facet normal 0 0 1
    outer loop
      vertex 13.3826 -14.8629 30
      vertex -19.563 4.15823 30
      vertex 10 -17.3205 30
    endloop
  endfacet
  facet normal 0 0 1
    outer loop
      vertex 16.1803 -11.7557 30
      vertex -19.563 4.15823 30
      vertex 13.3826 -14.8629 30
    endloop
  endfacet
  facet normal 0 0 1
    outer loop
      vertex 18.2709 -8.13473 30
      vertex -19.563 4.15823 30
      vertex 16.1803 -11.7557 30
    endloop
  endfacet
  facet normal 0 0 1
    outer loop
      vertex 19.563 -4.15823 30
      vertex -19.563 4.15823 30
      vertex 18.2709 -8.13473 30
    endloop
  endfacet
  facet normal 0 0 1
    outer loop
      vertex 20 0 30
      vertex -19.563 4.15823 30
      vertex 19.563 -4.15823 30
    endloop
  endfacet
  facet normal 0 0 1
    outer loop
      vertex 19.563 4.15823 30
      vertex -19.563 4.15823 30
      vertex 20 0 30
    endloop
  endfacet
  facet normal 0 0 1
    outer loop
      vertex 18.2709 8.13473 30
      vertex -19.563 4.15823 30
      vertex 19.563 4.15823 30
    endloop
  endfacet
  facet normal 0 0 1
    outer loop
      vertex 16.1803 11.7557 30
      vertex -19.563 4.15823 30
      vertex 18.2709 8.13473 30
    endloop
  endfacet
  facet normal 0 0 1
    outer loop
      vertex 13.3826 14.8629 30
      vertex -19.563 4.15823 30
      vertex 16.1803 11.7557 30
    endloop
  endfacet
  facet normal 0 0 1
    outer loop
      vertex 10 17.3205 30
      vertex -19.563 4.15823 30
      vertex 13.3826 14.8629 30
    endloop
  endfacet
  facet normal 0 0 1
    outer loop
      vertex 6.18034 19.0211 30
      vertex -19.563 4.15823 30
      vertex 10 17.3205 30
    endloop
  endfacet
  facet normal 0 0 1
    outer loop
      vertex 2.09057 19.8904 30
      vertex -19.563 4.15823 30
      vertex 6.18034 19.0211 30
    endloop
  endfacet
  facet normal 0 0 1
    outer loop
      vertex -2.09057 19.8904 30
      vertex -19.563 4.15823 30
      vertex 2.09057 19.8904 30
    endloop
  endfacet
  facet normal 0 0 1
    outer loop
      vertex -6.18034 19.0211 30
      vertex -19.563 4.15823 30
      vertex -2.09057 19.8904 30
    endloop
  endfacet
  facet normal 0 0 1
    outer loop
      vertex -10 17.3205 30
      vertex -19.563 4.15823 30
      vertex -6.18034 19.0211 30
    endloop
  endfacet
  facet normal 0 0 1
    outer loop
      vertex -13.3826 14.8629 30
      vertex -19.563 4.15823 30
      vertex -10 17.3205 30
    endloop
  endfacet
  facet normal 0 0 1
    outer loop
      vertex -16.1803 11.7557 30
      vertex -19.563 4.15823 30
      vertex -13.3826 14.8629 30
    endloop
  endfacet
  facet normal 0 0 1
    outer loop
      vertex -18.2709 8.13473 30
      vertex -19.563 4.15823 30
      vertex -16.1803 11.7557 30
    endloop
  endfacet
endsolid OpenSCAD_Model
