solid OpenSCAD_Model
  facet normal -1 0 0
    outer loop
      vertex -50 -7 0
      vertex -50 -7 7
      vertex -50 -4.6194 5.08658
    endloop
  endfacet
  facet normal -1 0 0
    outer loop
      vertex -50 -7 0
      vertex -50 -4.6194 5.08658
      vertex -50 -3.53553 3.46447
    endloop
  endfacet
  facet normal -1 0 0
    outer loop
      vertex -50 -7 0
      vertex -50 -3.53553 3.46447
      vertex -50 -1.91342 2.3806
    endloop
  endfacet
  facet normal -1 0 0
    outer loop
      vertex -50 -7 0
      vertex -50 -1.91342 2.3806
      vertex -50 7 0
    endloop
  endfacet
  facet normal -1 0 0
    outer loop
      vertex -50 -1.91342 2.3806
      vertex -50 0 2
      vertex -50 7 0
    endloop
  endfacet
  facet normal -1 0 0
    outer loop
      vertex -50 1.91342 2.3806
      vertex -50 7 0
      vertex -50 0 2
    endloop
  endfacet
  facet normal -1 0 0
    outer loop
      vertex -50 3.53553 3.46447
      vertex -50 7 0
      vertex -50 1.91342 2.3806
    endloop
  endfacet
  facet normal -1 0 0
    outer loop
      vertex -50 7 0
      vertex -50 3.53553 3.46447
      vertex -50 4.6194 5.08658
    endloop
  endfacet
  facet normal -1 0 0
    outer loop
      vertex -50 4.6194 5.08658
      vertex -50 5 7
      vertex -50 7 0
    endloop
  endfacet
  facet normal -1 0 0
    outer loop
      vertex -50 7 0
      vertex -50 5 7
      vertex -50 7 7
    endloop
  endfacet
  facet normal -1 0 0
    outer loop
      vertex -50 -4.6194 5.08658
      vertex -50 -7 7
      vertex -50 -5 7
    endloop
  endfacet
  facet normal 0 -1 0
    outer loop
      vertex -50 -7 7
      vertex -50 -7 0
      vertex 54 -7 0
    endloop
  endfacet
  facet normal 0 -1 0
    outer loop
      vertex 54 -7 7
      vertex -50 -7 7
      vertex 54 -7 0
    endloop
  endfacet
  facet normal 0 0 -1
    outer loop
      vertex -50 -7 0
      vertex -50 7 0
      vertex 54 -7 0
    endloop
  endfacet
  facet normal 0 0 -1
    outer loop
      vertex 54 -7 0
      vertex -50 7 0
      vertex 54 7 0
    endloop
  endfacet
  facet normal 0 1 0
    outer loop
      vertex -50 7 0
      vertex -50 7 7
      vertex 54 7 0
    endloop
  endfacet
  facet normal 0 1 0
    outer loop
      vertex 54 7 0
      vertex -50 7 7
      vertex 54 7 7
    endloop
  endfacet
  facet normal 0 0 1
    outer loop
      vertex -50 7 7
      vertex -50 5 7
      vertex 54 5 7
    endloop
  endfacet
  facet normal 0 0 1
    outer loop
      vertex 54 7 7
      vertex -50 7 7
      vertex 54 5 7
    endloop
  endfacet
  facet normal -4.33187e-017 -0.980785 0.19509
    outer loop
      vertex 54 4.6194 5.08658
      vertex 54 5 7
      vertex -50 5 7
    endloop
  endfacet
  facet normal -4.33187e-017 -0.980785 0.19509
    outer loop
      vertex -50 4.6194 5.08658
      vertex 54 4.6194 5.08658
      vertex -50 5 7
    endloop
  endfacet
  facet normal -1.23361e-016 -0.83147 0.55557
    outer loop
      vertex 54 3.53553 3.46447
      vertex 54 4.6194 5.08658
      vertex -50 4.6194 5.08658
    endloop
  endfacet
  facet normal -1.23361e-016 -0.83147 0.55557
    outer loop
      vertex -50 3.53553 3.46447
      vertex 54 3.53553 3.46447
      vertex -50 4.6194 5.08658
    endloop
  endfacet
  facet normal -1.84623e-016 -0.55557 0.83147
    outer loop
      vertex -50 3.53553 3.46447
      vertex -47.6724 1.94881 2.40425
      vertex -46.6762 2.03597 2.46249
    endloop
  endfacet
  facet normal -1.84623e-016 -0.55557 0.83147
    outer loop
      vertex -41.7832 2.05012 2.47195
      vertex 54 3.53553 3.46447
      vertex -46.6762 2.03597 2.46249
    endloop
  endfacet
  facet normal -1.84623e-016 -0.55557 0.83147
    outer loop
      vertex -47.6693 1.91342 2.3806
      vertex -47.6724 1.94881 2.40425
      vertex -50 3.53553 3.46447
    endloop
  endfacet
  facet normal -1.84623e-016 -0.55557 0.83147
    outer loop
      vertex -46.6655 1.91342 2.3806
      vertex -42.7559 1.91342 2.3806
      vertex -46.6762 2.03597 2.46249
    endloop
  endfacet
  facet normal -1.84623e-016 -0.55557 0.83147
    outer loop
      vertex -42.7559 1.91342 2.3806
      vertex -41.7832 2.05012 2.47195
      vertex -46.6762 2.03597 2.46249
    endloop
  endfacet
  facet normal -1.84623e-016 -0.55557 0.83147
    outer loop
      vertex -36.8908 2.05866 2.47765
      vertex 54 3.53553 3.46447
      vertex -41.7832 2.05012 2.47195
    endloop
  endfacet
  facet normal -1.84623e-016 -0.55557 0.83147
    outer loop
      vertex -41.764 1.91342 2.3806
      vertex -37.638 1.91342 2.3806
      vertex -41.7832 2.05012 2.47195
    endloop
  endfacet
  facet normal -1.84623e-016 -0.55557 0.83147
    outer loop
      vertex -37.638 1.91342 2.3806
      vertex -36.8908 2.05866 2.47765
      vertex -41.7832 2.05012 2.47195
    endloop
  endfacet
  facet normal -1.84623e-016 -0.55557 0.83147
    outer loop
      vertex -31.9987 2.06155 2.47958
      vertex 54 3.53553 3.46447
      vertex -36.8908 2.05866 2.47765
    endloop
  endfacet
  facet normal -1.84623e-016 -0.55557 0.83147
    outer loop
      vertex -36.8626 1.91342 2.3806
      vertex -32.5928 1.91342 2.3806
      vertex -36.8908 2.05866 2.47765
    endloop
  endfacet
  facet normal -1.84623e-016 -0.55557 0.83147
    outer loop
      vertex -32.5928 1.91342 2.3806
      vertex -31.9987 2.06155 2.47958
      vertex -36.8908 2.05866 2.47765
    endloop
  endfacet
  facet normal -1.84623e-016 -0.55557 0.83147
    outer loop
      vertex -27.1066 2.0588 2.47774
      vertex 54 3.53553 3.46447
      vertex -31.9987 2.06155 2.47958
    endloop
  endfacet
  facet normal -1.84623e-016 -0.55557 0.83147
    outer loop
      vertex -31.9618 1.91342 2.3806
      vertex -27.5821 1.91342 2.3806
      vertex -31.9987 2.06155 2.47958
    endloop
  endfacet
  facet normal -1.84623e-016 -0.55557 0.83147
    outer loop
      vertex -27.5821 1.91342 2.3806
      vertex -27.1066 2.0588 2.47774
      vertex -31.9987 2.06155 2.47958
    endloop
  endfacet
  facet normal -1.84623e-016 -0.55557 0.83147
    outer loop
      vertex -22.2142 2.0504 2.47213
      vertex 54 3.53553 3.46447
      vertex -27.1066 2.0588 2.47774
    endloop
  endfacet
  facet normal -1.84623e-016 -0.55557 0.83147
    outer loop
      vertex -27.0621 1.91342 2.3806
      vertex -22.5905 1.91342 2.3806
      vertex -27.1066 2.0588 2.47774
    endloop
  endfacet
  facet normal -1.84623e-016 -0.55557 0.83147
    outer loop
      vertex -22.5905 1.91342 2.3806
      vertex -22.2142 2.0504 2.47213
      vertex -27.1066 2.0588 2.47774
    endloop
  endfacet
  facet normal -1.84623e-016 -0.55557 0.83147
    outer loop
      vertex -17.3212 2.03638 2.46276
      vertex 54 1.91342 2.3806
      vertex -22.2142 2.0504 2.47213
    endloop
  endfacet
  facet normal -1.84623e-016 -0.55557 0.83147
    outer loop
      vertex -22.1643 1.91342 2.3806
      vertex -17.6109 1.91342 2.3806
      vertex -22.2142 2.0504 2.47213
    endloop
  endfacet
  facet normal -1.84623e-016 -0.55557 0.83147
    outer loop
      vertex -17.6109 1.91342 2.3806
      vertex -17.3212 2.03638 2.46276
      vertex -22.2142 2.0504 2.47213
    endloop
  endfacet
  facet normal -1.84623e-016 -0.55557 0.83147
    outer loop
      vertex -12.4273 2.01677 2.44966
      vertex 54 1.91342 2.3806
      vertex -17.3212 2.03638 2.46276
    endloop
  endfacet
  facet normal -1.84623e-016 -0.55557 0.83147
    outer loop
      vertex -17.269 1.91342 2.3806
      vertex -12.6393 1.91342 2.3806
      vertex -17.3212 2.03638 2.46276
    endloop
  endfacet
  facet normal -1.84623e-016 -0.55557 0.83147
    outer loop
      vertex -12.6393 1.91342 2.3806
      vertex -12.4273 2.01677 2.44966
      vertex -17.3212 2.03638 2.46276
    endloop
  endfacet
  facet normal -1.84623e-016 -0.55557 0.83147
    outer loop
      vertex -7.53231 1.99164 2.43287
      vertex 54 1.91342 2.3806
      vertex -12.4273 2.01677 2.44966
    endloop
  endfacet
  facet normal -1.84623e-016 -0.55557 0.83147
    outer loop
      vertex -12.3769 1.91342 2.3806
      vertex -7.67344 1.91342 2.3806
      vertex -12.4273 2.01677 2.44966
    endloop
  endfacet
  facet normal -1.84623e-016 -0.55557 0.83147
    outer loop
      vertex -7.67344 1.91342 2.3806
      vertex -7.53231 1.99164 2.43287
      vertex -12.4273 2.01677 2.44966
    endloop
  endfacet
  facet normal -1.84623e-016 -0.55557 0.83147
    outer loop
      vertex -2.63581 1.96106 2.41243
      vertex 54 1.91342 2.3806
      vertex -7.53231 1.99164 2.43287
    endloop
  endfacet
  facet normal -1.84623e-016 -0.55557 0.83147
    outer loop
      vertex -7.48895 1.91342 2.3806
      vertex -2.71205 1.91342 2.3806
      vertex -7.53231 1.99164 2.43287
    endloop
  endfacet
  facet normal -1.84623e-016 -0.55557 0.83147
    outer loop
      vertex -2.71205 1.91342 2.3806
      vertex -2.63581 1.96106 2.41243
      vertex -7.53231 1.99164 2.43287
    endloop
  endfacet
  facet normal -1.84623e-016 -0.55557 0.83147
    outer loop
      vertex 2.26242 1.92509 2.3884
      vertex 54 1.91342 2.3806
      vertex -2.63581 1.96106 2.41243
    endloop
  endfacet
  facet normal -1.84623e-016 -0.55557 0.83147
    outer loop
      vertex -2.60605 1.91342 2.3806
      vertex 2.24575 1.91342 2.3806
      vertex -2.63581 1.96106 2.41243
    endloop
  endfacet
  facet normal -1.84623e-016 -0.55557 0.83147
    outer loop
      vertex 2.24575 1.91342 2.3806
      vertex 2.26242 1.92509 2.3884
      vertex -2.63581 1.96106 2.41243
    endloop
  endfacet
  facet normal -1.84623e-016 -0.55557 0.83147
    outer loop
      vertex 2.2706 1.91342 2.3806
      vertex 54 1.91342 2.3806
      vertex 2.26242 1.92509 2.3884
    endloop
  endfacet
  facet normal -1.84623e-016 -0.55557 0.83147
    outer loop
      vertex 54 1.91342 2.3806
      vertex 54 3.53553 3.46447
      vertex -22.2142 2.0504 2.47213
    endloop
  endfacet
  facet normal -1.84623e-016 -0.55557 0.83147
    outer loop
      vertex 54 3.53553 3.46447
      vertex -50 3.53553 3.46447
      vertex -46.6762 2.03597 2.46249
    endloop
  endfacet
  facet normal -1.84623e-016 -0.55557 0.83147
    outer loop
      vertex -50 3.53553 3.46447
      vertex -50 1.91342 2.3806
      vertex -47.6693 1.91342 2.3806
    endloop
  endfacet
  facet normal -2.17778e-016 -0.19509 0.980785
    outer loop
      vertex -47.5019 0 2
      vertex -47.6693 1.91342 2.3806
      vertex -50 1.91342 2.3806
    endloop
  endfacet
  facet normal -2.17778e-016 -0.19509 0.980785
    outer loop
      vertex -50 0 2
      vertex -47.5019 0 2
      vertex -50 1.91342 2.3806
    endloop
  endfacet
  facet normal -2.17778e-016 0.19509 0.980785
    outer loop
      vertex -47.3345 -1.91342 2.3806
      vertex -47.5019 0 2
      vertex -50 0 2
    endloop
  endfacet
  facet normal -2.17778e-016 0.19509 0.980785
    outer loop
      vertex -50 -1.91342 2.3806
      vertex -47.3345 -1.91342 2.3806
      vertex -50 0 2
    endloop
  endfacet
  facet normal -1.84623e-016 0.55557 0.83147
    outer loop
      vertex 54 -3.53553 3.46447
      vertex 54 -1.91342 2.3806
      vertex 3.75425 -1.91342 2.3806
    endloop
  endfacet
  facet normal -1.84623e-016 0.55557 0.83147
    outer loop
      vertex -1.28795 -1.91342 2.3806
      vertex 54 -3.53553 3.46447
      vertex 3.73758 -1.92509 2.3884
    endloop
  endfacet
  facet normal -1.84623e-016 0.55557 0.83147
    outer loop
      vertex 3.73758 -1.92509 2.3884
      vertex 54 -3.53553 3.46447
      vertex 3.75425 -1.91342 2.3806
    endloop
  endfacet
  facet normal -1.84623e-016 0.55557 0.83147
    outer loop
      vertex -1.28795 -1.91342 2.3806
      vertex 3.73758 -1.92509 2.3884
      vertex 3.7294 -1.91342 2.3806
    endloop
  endfacet
  facet normal -1.84623e-016 0.55557 0.83147
    outer loop
      vertex -1.36419 -1.96106 2.41243
      vertex 54 -3.53553 3.46447
      vertex -1.28795 -1.91342 2.3806
    endloop
  endfacet
  facet normal -1.84623e-016 0.55557 0.83147
    outer loop
      vertex -6.32656 -1.91342 2.3806
      vertex 54 -3.53553 3.46447
      vertex -1.36419 -1.96106 2.41243
    endloop
  endfacet
  facet normal -1.84623e-016 0.55557 0.83147
    outer loop
      vertex -6.32656 -1.91342 2.3806
      vertex -1.36419 -1.96106 2.41243
      vertex -1.39395 -1.91342 2.3806
    endloop
  endfacet
  facet normal -1.84623e-016 0.55557 0.83147
    outer loop
      vertex -6.46769 -1.99164 2.43287
      vertex 54 -3.53553 3.46447
      vertex -6.32656 -1.91342 2.3806
    endloop
  endfacet
  facet normal -1.84623e-016 0.55557 0.83147
    outer loop
      vertex -11.3607 -1.91342 2.3806
      vertex 54 -3.53553 3.46447
      vertex -6.46769 -1.99164 2.43287
    endloop
  endfacet
  facet normal -1.84623e-016 0.55557 0.83147
    outer loop
      vertex -11.3607 -1.91342 2.3806
      vertex -6.46769 -1.99164 2.43287
      vertex -6.51105 -1.91342 2.3806
    endloop
  endfacet
  facet normal -1.84623e-016 0.55557 0.83147
    outer loop
      vertex -11.5727 -2.01677 2.44966
      vertex 54 -3.53553 3.46447
      vertex -11.3607 -1.91342 2.3806
    endloop
  endfacet
  facet normal -1.84623e-016 0.55557 0.83147
    outer loop
      vertex -16.3891 -1.91342 2.3806
      vertex 54 -3.53553 3.46447
      vertex -11.5727 -2.01677 2.44966
    endloop
  endfacet
  facet normal -1.84623e-016 0.55557 0.83147
    outer loop
      vertex -16.3891 -1.91342 2.3806
      vertex -11.5727 -2.01677 2.44966
      vertex -11.6231 -1.91342 2.3806
    endloop
  endfacet
  facet normal -1.84623e-016 0.55557 0.83147
    outer loop
      vertex -16.6788 -2.03638 2.46276
      vertex 54 -3.53553 3.46447
      vertex -16.3891 -1.91342 2.3806
    endloop
  endfacet
  facet normal -1.84623e-016 0.55557 0.83147
    outer loop
      vertex -21.7858 -2.0504 2.47213
      vertex 54 -3.53553 3.46447
      vertex -16.6788 -2.03638 2.46276
    endloop
  endfacet
  facet normal -1.84623e-016 0.55557 0.83147
    outer loop
      vertex -21.4095 -1.91342 2.3806
      vertex -16.6788 -2.03638 2.46276
      vertex -16.731 -1.91342 2.3806
    endloop
  endfacet
  facet normal -1.84623e-016 0.55557 0.83147
    outer loop
      vertex -21.7858 -2.0504 2.47213
      vertex -16.6788 -2.03638 2.46276
      vertex -21.4095 -1.91342 2.3806
    endloop
  endfacet
  facet normal -1.84623e-016 0.55557 0.83147
    outer loop
      vertex -26.8934 -2.0588 2.47774
      vertex 54 -3.53553 3.46447
      vertex -21.7858 -2.0504 2.47213
    endloop
  endfacet
  facet normal -1.84623e-016 0.55557 0.83147
    outer loop
      vertex -26.4179 -1.91342 2.3806
      vertex -21.7858 -2.0504 2.47213
      vertex -21.8357 -1.91342 2.3806
    endloop
  endfacet
  facet normal -1.84623e-016 0.55557 0.83147
    outer loop
      vertex -26.8934 -2.0588 2.47774
      vertex -21.7858 -2.0504 2.47213
      vertex -26.4179 -1.91342 2.3806
    endloop
  endfacet
  facet normal -1.84623e-016 0.55557 0.83147
    outer loop
      vertex -32.0013 -2.06155 2.47958
      vertex 54 -3.53553 3.46447
      vertex -26.8934 -2.0588 2.47774
    endloop
  endfacet
  facet normal -1.84623e-016 0.55557 0.83147
    outer loop
      vertex -31.4072 -1.91342 2.3806
      vertex -26.8934 -2.0588 2.47774
      vertex -26.9379 -1.91342 2.3806
    endloop
  endfacet
  facet normal -1.84623e-016 0.55557 0.83147
    outer loop
      vertex -32.0013 -2.06155 2.47958
      vertex -26.8934 -2.0588 2.47774
      vertex -31.4072 -1.91342 2.3806
    endloop
  endfacet
  facet normal -1.84623e-016 0.55557 0.83147
    outer loop
      vertex -37.1092 -2.05866 2.47765
      vertex 54 -3.53553 3.46447
      vertex -32.0013 -2.06155 2.47958
    endloop
  endfacet
  facet normal -1.84623e-016 0.55557 0.83147
    outer loop
      vertex -36.362 -1.91342 2.3806
      vertex -32.0013 -2.06155 2.47958
      vertex -32.0382 -1.91342 2.3806
    endloop
  endfacet
  facet normal -1.84623e-016 0.55557 0.83147
    outer loop
      vertex -37.1092 -2.05866 2.47765
      vertex -32.0013 -2.06155 2.47958
      vertex -36.362 -1.91342 2.3806
    endloop
  endfacet
  facet normal -1.84623e-016 0.55557 0.83147
    outer loop
      vertex -42.2168 -2.05012 2.47195
      vertex 54 -3.53553 3.46447
      vertex -37.1092 -2.05866 2.47765
    endloop
  endfacet
  facet normal -1.84623e-016 0.55557 0.83147
    outer loop
      vertex -41.2441 -1.91342 2.3806
      vertex -37.1092 -2.05866 2.47765
      vertex -37.1374 -1.91342 2.3806
    endloop
  endfacet
  facet normal -1.84623e-016 0.55557 0.83147
    outer loop
      vertex -42.2168 -2.05012 2.47195
      vertex -37.1092 -2.05866 2.47765
      vertex -41.2441 -1.91342 2.3806
    endloop
  endfacet
  facet normal -1.84623e-016 0.55557 0.83147
    outer loop
      vertex -47.3238 -2.03597 2.46249
      vertex 54 -3.53553 3.46447
      vertex -42.2168 -2.05012 2.47195
    endloop
  endfacet
  facet normal -1.84623e-016 0.55557 0.83147
    outer loop
      vertex -46.3307 -1.91342 2.3806
      vertex -42.2168 -2.05012 2.47195
      vertex -42.236 -1.91342 2.3806
    endloop
  endfacet
  facet normal -1.84623e-016 0.55557 0.83147
    outer loop
      vertex -46.3276 -1.94881 2.40425
      vertex -42.2168 -2.05012 2.47195
      vertex -46.3307 -1.91342 2.3806
    endloop
  endfacet
  facet normal -1.84623e-016 0.55557 0.83147
    outer loop
      vertex -47.3238 -2.03597 2.46249
      vertex -42.2168 -2.05012 2.47195
      vertex -46.3276 -1.94881 2.40425
    endloop
  endfacet
  facet normal -1.84623e-016 0.55557 0.83147
    outer loop
      vertex -50 -3.53553 3.46447
      vertex 54 -3.53553 3.46447
      vertex -47.3238 -2.03597 2.46249
    endloop
  endfacet
  facet normal -1.84623e-016 0.55557 0.83147
    outer loop
      vertex -50 -1.91342 2.3806
      vertex -47.3238 -2.03597 2.46249
      vertex -47.3345 -1.91342 2.3806
    endloop
  endfacet
  facet normal -1.84623e-016 0.55557 0.83147
    outer loop
      vertex -50 -3.53553 3.46447
      vertex -47.3238 -2.03597 2.46249
      vertex -50 -1.91342 2.3806
    endloop
  endfacet
  facet normal -1.23361e-016 0.83147 0.55557
    outer loop
      vertex 54 -3.53553 3.46447
      vertex -50 -3.53553 3.46447
      vertex 54 -4.6194 5.08658
    endloop
  endfacet
  facet normal -1.23361e-016 0.83147 0.55557
    outer loop
      vertex 54 -4.6194 5.08658
      vertex -50 -3.53553 3.46447
      vertex -50 -4.6194 5.08658
    endloop
  endfacet
  facet normal -4.33187e-017 0.980785 0.19509
    outer loop
      vertex 54 -4.6194 5.08658
      vertex -50 -4.6194 5.08658
      vertex 54 -5 7
    endloop
  endfacet
  facet normal -4.33187e-017 0.980785 0.19509
    outer loop
      vertex 54 -5 7
      vertex -50 -4.6194 5.08658
      vertex -50 -5 7
    endloop
  endfacet
  facet normal 0 0 1
    outer loop
      vertex -50 -5 7
      vertex -50 -7 7
      vertex 54 -7 7
    endloop
  endfacet
  facet normal 0 0 1
    outer loop
      vertex 54 -5 7
      vertex -50 -5 7
      vertex 54 -7 7
    endloop
  endfacet
  facet normal 1 0 0
    outer loop
      vertex 54 1.91342 2.3806
      vertex 54 -7 0
      vertex 54 7 0
    endloop
  endfacet
  facet normal 1 0 0
    outer loop
      vertex 54 -3.53553 3.46447
      vertex 54 -4.6194 5.08658
      vertex 54 -7 7
    endloop
  endfacet
  facet normal 1 0 0
    outer loop
      vertex 54 7 7
      vertex 54 5 7
      vertex 54 7 0
    endloop
  endfacet
  facet normal 1 0 0
    outer loop
      vertex 54 5 7
      vertex 54 4.6194 5.08658
      vertex 54 7 0
    endloop
  endfacet
  facet normal 1 0 0
    outer loop
      vertex 54 4.6194 5.08658
      vertex 54 3.53553 3.46447
      vertex 54 7 0
    endloop
  endfacet
  facet normal 1 0 0
    outer loop
      vertex 54 0 2
      vertex 54 -7 0
      vertex 54 1.91342 2.3806
    endloop
  endfacet
  facet normal 1 0 0
    outer loop
      vertex 54 -1.91342 2.3806
      vertex 54 -7 0
      vertex 54 0 2
    endloop
  endfacet
  facet normal 1 0 0
    outer loop
      vertex 54 -3.53553 3.46447
      vertex 54 -7 0
      vertex 54 -1.91342 2.3806
    endloop
  endfacet
  facet normal 1 0 0
    outer loop
      vertex 54 -7 7
      vertex 54 -7 0
      vertex 54 -3.53553 3.46447
    endloop
  endfacet
  facet normal 1 0 0
    outer loop
      vertex 54 3.53553 3.46447
      vertex 54 1.91342 2.3806
      vertex 54 7 0
    endloop
  endfacet
  facet normal 1 0 0
    outer loop
      vertex 54 -4.6194 5.08658
      vertex 54 -5 7
      vertex 54 -7 7
    endloop
  endfacet
  facet normal -0.996195 -0.0871557 0
    outer loop
      vertex -47.6724 1.94881 2.40425
      vertex -47.6693 1.91342 2.3806
      vertex -47.6724 1.94881 7
    endloop
  endfacet
  facet normal -0.996195 -0.0871557 0
    outer loop
      vertex -47.6724 1.94881 7
      vertex -47.6693 1.91342 2.3806
      vertex -47.5019 0 2
    endloop
  endfacet
  facet normal -0.996195 -0.0871557 0
    outer loop
      vertex -47.6724 1.94881 7
      vertex -47.5019 0 2
      vertex -47.3345 -1.91342 2.3806
    endloop
  endfacet
  facet normal -0.996195 -0.0871557 0
    outer loop
      vertex -47.6724 1.94881 7
      vertex -47.3345 -1.91342 2.3806
      vertex -47.3238 -2.03597 2.46249
    endloop
  endfacet
  facet normal -0.996195 -0.0871557 0
    outer loop
      vertex -47.6724 1.94881 7
      vertex -47.3238 -2.03597 2.46249
      vertex -47.3238 -2.03597 7
    endloop
  endfacet
  facet normal -2.17778e-016 -0.19509 0.980785
    outer loop
      vertex 7.16268 1.88385 2.37472
      vertex 2.2706 1.91342 2.3806
      vertex 3.61039 0 2
    endloop
  endfacet
  facet normal -2.17778e-016 -0.19509 0.980785
    outer loop
      vertex 3.61039 0 2
      vertex 7.36549 0 2
      vertex 6.37467 1.26819 2.25226
    endloop
  endfacet
  facet normal -2.17778e-016 -0.19509 0.980785
    outer loop
      vertex 11.3105 1.18139 2.23499
      vertex 12.0652 1.83745 2.36549
      vertex 7.16268 1.88385 2.37472
    endloop
  endfacet
  facet normal -2.17778e-016 -0.19509 0.980785
    outer loop
      vertex 7.16268 1.88385 2.37472
      vertex 3.61039 0 2
      vertex 6.37467 1.26819 2.25226
    endloop
  endfacet
  facet normal -2.17778e-016 -0.19509 0.980785
    outer loop
      vertex 8.63451 0 2
      vertex 12.3375 0 2
      vertex 7.16268 1.88385 2.37472
    endloop
  endfacet
  facet normal -2.17778e-016 -0.19509 0.980785
    outer loop
      vertex 12.3375 0 2
      vertex 11.3105 1.18139 2.23499
      vertex 7.16268 1.88385 2.37472
    endloop
  endfacet
  facet normal -2.17778e-016 -0.19509 0.980785
    outer loop
      vertex 12.0652 1.83745 2.36549
      vertex 54 1.91342 2.3806
      vertex 7.16268 1.88385 2.37472
    endloop
  endfacet
  facet normal -2.17778e-016 -0.19509 0.980785
    outer loop
      vertex 16.251 1.09135 2.21708
      vertex 16.9704 1.78601 2.35526
      vertex 12.0652 1.83745 2.36549
    endloop
  endfacet
  facet normal -2.17778e-016 -0.19509 0.980785
    outer loop
      vertex 13.6625 0 2
      vertex 17.3049 0 2
      vertex 12.0652 1.83745 2.36549
    endloop
  endfacet
  facet normal -2.17778e-016 -0.19509 0.980785
    outer loop
      vertex 17.3049 0 2
      vertex 16.251 1.09135 2.21708
      vertex 12.0652 1.83745 2.36549
    endloop
  endfacet
  facet normal -2.17778e-016 -0.19509 0.980785
    outer loop
      vertex 16.9704 1.78601 2.35526
      vertex 54 1.91342 2.3806
      vertex 12.0652 1.83745 2.36549
    endloop
  endfacet
  facet normal -2.17778e-016 -0.19509 0.980785
    outer loop
      vertex 21.1963 0.99832 2.19858
      vertex 21.8783 1.72967 2.34405
      vertex 16.9704 1.78601 2.35526
    endloop
  endfacet
  facet normal -2.17778e-016 -0.19509 0.980785
    outer loop
      vertex 18.6951 0 2
      vertex 22.2669 0 2
      vertex 16.9704 1.78601 2.35526
    endloop
  endfacet
  facet normal -2.17778e-016 -0.19509 0.980785
    outer loop
      vertex 22.2669 0 2
      vertex 21.1963 0.99832 2.19858
      vertex 16.9704 1.78601 2.35526
    endloop
  endfacet
  facet normal -2.17778e-016 -0.19509 0.980785
    outer loop
      vertex 21.8783 1.72967 2.34405
      vertex 54 1.91342 2.3806
      vertex 16.9704 1.78601 2.35526
    endloop
  endfacet
  facet normal -2.17778e-016 -0.19509 0.980785
    outer loop
      vertex 26.1465 0.902553 2.17953
      vertex 26.7893 1.6686 2.3319
      vertex 21.8783 1.72967 2.34405
    endloop
  endfacet
  facet normal -2.17778e-016 -0.19509 0.980785
    outer loop
      vertex 23.7331 0 2
      vertex 27.2221 0 2
      vertex 21.8783 1.72967 2.34405
    endloop
  endfacet
  facet normal -2.17778e-016 -0.19509 0.980785
    outer loop
      vertex 27.2221 0 2
      vertex 26.1465 0.902553 2.17953
      vertex 21.8783 1.72967 2.34405
    endloop
  endfacet
  facet normal -2.17778e-016 -0.19509 0.980785
    outer loop
      vertex 26.7893 1.6686 2.3319
      vertex 54 1.91342 2.3806
      vertex 21.8783 1.72967 2.34405
    endloop
  endfacet
  facet normal -2.17778e-016 -0.19509 0.980785
    outer loop
      vertex 31.1018 0.804312 2.15999
      vertex 31.7036 1.60295 2.31885
      vertex 26.7893 1.6686 2.3319
    endloop
  endfacet
  facet normal -2.17778e-016 -0.19509 0.980785
    outer loop
      vertex 28.7779 0 2
      vertex 32.1692 0 2
      vertex 26.7893 1.6686 2.3319
    endloop
  endfacet
  facet normal -2.17778e-016 -0.19509 0.980785
    outer loop
      vertex 32.1692 0 2
      vertex 31.1018 0.804312 2.15999
      vertex 26.7893 1.6686 2.3319
    endloop
  endfacet
  facet normal -2.17778e-016 -0.19509 0.980785
    outer loop
      vertex 31.7036 1.60295 2.31885
      vertex 54 1.91342 2.3806
      vertex 26.7893 1.6686 2.3319
    endloop
  endfacet
  facet normal -2.17778e-016 -0.19509 0.980785
    outer loop
      vertex 36.0623 0.703867 2.14001
      vertex 36.6215 1.5329 2.30491
      vertex 31.7036 1.60295 2.31885
    endloop
  endfacet
  facet normal -2.17778e-016 -0.19509 0.980785
    outer loop
      vertex 33.8308 0 2
      vertex 37.1059 0 2
      vertex 31.7036 1.60295 2.31885
    endloop
  endfacet
  facet normal -2.17778e-016 -0.19509 0.980785
    outer loop
      vertex 37.1059 0 2
      vertex 36.0623 0.703867 2.14001
      vertex 31.7036 1.60295 2.31885
    endloop
  endfacet
  facet normal -2.17778e-016 -0.19509 0.980785
    outer loop
      vertex 36.6215 1.5329 2.30491
      vertex 54 1.91342 2.3806
      vertex 31.7036 1.60295 2.31885
    endloop
  endfacet
  facet normal -2.17778e-016 -0.19509 0.980785
    outer loop
      vertex 41.0281 0.601492 2.11964
      vertex 41.5432 1.45866 2.29015
      vertex 36.6215 1.5329 2.30491
    endloop
  endfacet
  facet normal -2.17778e-016 -0.19509 0.980785
    outer loop
      vertex 38.8941 0 2
      vertex 42.0292 0 2
      vertex 36.6215 1.5329 2.30491
    endloop
  endfacet
  facet normal -2.17778e-016 -0.19509 0.980785
    outer loop
      vertex 42.0292 0 2
      vertex 41.0281 0.601492 2.11964
      vertex 36.6215 1.5329 2.30491
    endloop
  endfacet
  facet normal -2.17778e-016 -0.19509 0.980785
    outer loop
      vertex 41.5432 1.45866 2.29015
      vertex 54 1.91342 2.3806
      vertex 36.6215 1.5329 2.30491
    endloop
  endfacet
  facet normal -2.17778e-016 -0.19509 0.980785
    outer loop
      vertex 45.9994 0.497469 2.09895
      vertex 46.4688 1.38042 2.27458
      vertex 41.5432 1.45866 2.29015
    endloop
  endfacet
  facet normal -2.17778e-016 -0.19509 0.980785
    outer loop
      vertex 43.9708 0 2
      vertex 46.935 0 2
      vertex 41.5432 1.45866 2.29015
    endloop
  endfacet
  facet normal -2.17778e-016 -0.19509 0.980785
    outer loop
      vertex 46.935 0 2
      vertex 45.9994 0.497469 2.09895
      vertex 41.5432 1.45866 2.29015
    endloop
  endfacet
  facet normal -2.17778e-016 -0.19509 0.980785
    outer loop
      vertex 46.4688 1.38042 2.27458
      vertex 54 1.91342 2.3806
      vertex 41.5432 1.45866 2.29015
    endloop
  endfacet
  facet normal -2.17778e-016 -0.19509 0.980785
    outer loop
      vertex 49.065 0 2
      vertex 54 0 2
      vertex 46.4688 1.38042 2.27458
    endloop
  endfacet
  facet normal -2.17778e-016 -0.19509 0.980785
    outer loop
      vertex 54 0 2
      vertex 54 1.91342 2.3806
      vertex 46.4688 1.38042 2.27458
    endloop
  endfacet
  facet normal -2.17778e-016 -0.19509 0.980785
    outer loop
      vertex 54 1.91342 2.3806
      vertex 2.2706 1.91342 2.3806
      vertex 7.16268 1.88385 2.37472
    endloop
  endfacet
  facet normal 0.819152 0.573576 0
    outer loop
      vertex 2.2706 1.91342 2.3806
      vertex 2.26242 1.92509 2.3884
      vertex 2.26242 1.92509 7
    endloop
  endfacet
  facet normal 0.819152 0.573576 0
    outer loop
      vertex 4.55673 -1.35152 2.26883
      vertex 2.2706 1.91342 2.3806
      vertex 4.55673 -1.35152 7
    endloop
  endfacet
  facet normal 0.819152 0.573576 0
    outer loop
      vertex 4.55673 -1.35152 7
      vertex 2.2706 1.91342 2.3806
      vertex 2.26242 1.92509 7
    endloop
  endfacet
  facet normal 0.819152 0.573576 0
    outer loop
      vertex 3.61039 0 2
      vertex 2.2706 1.91342 2.3806
      vertex 4.55673 -1.35152 2.26883
    endloop
  endfacet
  facet normal -0.573576 0.819152 0
    outer loop
      vertex 1.44327 1.35152 2.26883
      vertex 1.44327 1.35152 7
      vertex 2.24575 1.91342 2.3806
    endloop
  endfacet
  facet normal -0.573576 0.819152 0
    outer loop
      vertex 2.24575 1.91342 2.3806
      vertex 1.44327 1.35152 7
      vertex 2.26242 1.92509 7
    endloop
  endfacet
  facet normal -0.573576 0.819152 0
    outer loop
      vertex 2.24575 1.91342 2.3806
      vertex 2.26242 1.92509 7
      vertex 2.26242 1.92509 2.3884
    endloop
  endfacet
  facet normal -2.17778e-016 -0.19509 0.980785
    outer loop
      vertex -1.41041 0 2
      vertex 2.38961 0 2
      vertex 1.44327 1.35152 2.26883
    endloop
  endfacet
  facet normal -2.17778e-016 -0.19509 0.980785
    outer loop
      vertex 2.24575 1.91342 2.3806
      vertex -1.41041 0 2
      vertex 1.44327 1.35152 2.26883
    endloop
  endfacet
  facet normal -2.17778e-016 -0.19509 0.980785
    outer loop
      vertex 2.24575 1.91342 2.3806
      vertex -2.60605 1.91342 2.3806
      vertex -1.41041 0 2
    endloop
  endfacet
  facet normal 0.848048 0.529919 0
    outer loop
      vertex -2.60605 1.91342 2.3806
      vertex -2.63581 1.96106 2.41243
      vertex -2.63581 1.96106 7
    endloop
  endfacet
  facet normal 0.848048 0.529919 0
    outer loop
      vertex -0.516137 -1.43114 2.28467
      vertex -2.60605 1.91342 2.3806
      vertex -0.516137 -1.43114 7
    endloop
  endfacet
  facet normal 0.848048 0.529919 0
    outer loop
      vertex -0.516137 -1.43114 7
      vertex -2.60605 1.91342 2.3806
      vertex -2.63581 1.96106 7
    endloop
  endfacet
  facet normal 0.848048 0.529919 0
    outer loop
      vertex -1.41041 0 2
      vertex -2.60605 1.91342 2.3806
      vertex -0.516137 -1.43114 2.28467
    endloop
  endfacet
  facet normal -0.529919 0.848048 0
    outer loop
      vertex -3.48386 1.43114 2.28467
      vertex -3.48386 1.43114 7
      vertex -2.71205 1.91342 2.3806
    endloop
  endfacet
  facet normal -0.529919 0.848048 0
    outer loop
      vertex -2.71205 1.91342 2.3806
      vertex -3.48386 1.43114 7
      vertex -2.63581 1.96106 7
    endloop
  endfacet
  facet normal -0.529919 0.848048 0
    outer loop
      vertex -2.71205 1.91342 2.3806
      vertex -2.63581 1.96106 7
      vertex -2.63581 1.96106 2.41243
    endloop
  endfacet
  facet normal -2.17778e-016 -0.19509 0.980785
    outer loop
      vertex -6.42832 0 2
      vertex -2.58959 0 2
      vertex -3.48386 1.43114 2.28467
    endloop
  endfacet
  facet normal -2.17778e-016 -0.19509 0.980785
    outer loop
      vertex -2.71205 1.91342 2.3806
      vertex -6.42832 0 2
      vertex -3.48386 1.43114 2.28467
    endloop
  endfacet
  facet normal -2.17778e-016 -0.19509 0.980785
    outer loop
      vertex -2.71205 1.91342 2.3806
      vertex -7.48895 1.91342 2.3806
      vertex -6.42832 0 2
    endloop
  endfacet
  facet normal 0.87462 0.48481 0
    outer loop
      vertex -7.48895 1.91342 2.3806
      vertex -7.53231 1.99164 2.43287
      vertex -7.53231 1.99164 7
    endloop
  endfacet
  facet normal 0.87462 0.48481 0
    outer loop
      vertex -5.59307 -1.50683 2.29973
      vertex -7.48895 1.91342 2.3806
      vertex -5.59307 -1.50683 7
    endloop
  endfacet
  facet normal 0.87462 0.48481 0
    outer loop
      vertex -5.59307 -1.50683 7
      vertex -7.48895 1.91342 2.3806
      vertex -7.53231 1.99164 7
    endloop
  endfacet
  facet normal 0.87462 0.48481 0
    outer loop
      vertex -6.42832 0 2
      vertex -7.48895 1.91342 2.3806
      vertex -5.59307 -1.50683 2.29973
    endloop
  endfacet
  facet normal -0.48481 0.87462 0
    outer loop
      vertex -8.40693 1.50683 2.29973
      vertex -8.40693 1.50683 7
      vertex -7.67344 1.91342 2.3806
    endloop
  endfacet
  facet normal -0.48481 0.87462 0
    outer loop
      vertex -7.67344 1.91342 2.3806
      vertex -8.40693 1.50683 7
      vertex -7.53231 1.99164 7
    endloop
  endfacet
  facet normal -0.48481 0.87462 0
    outer loop
      vertex -7.67344 1.91342 2.3806
      vertex -7.53231 1.99164 7
      vertex -7.53231 1.99164 2.43287
    endloop
  endfacet
  facet normal -2.17778e-016 -0.19509 0.980785
    outer loop
      vertex -11.4437 0 2
      vertex -7.57168 0 2
      vertex -8.40693 1.50683 2.29973
    endloop
  endfacet
  facet normal -2.17778e-016 -0.19509 0.980785
    outer loop
      vertex -7.67344 1.91342 2.3806
      vertex -11.4437 0 2
      vertex -8.40693 1.50683 2.29973
    endloop
  endfacet
  facet normal -2.17778e-016 -0.19509 0.980785
    outer loop
      vertex -7.67344 1.91342 2.3806
      vertex -12.3769 1.91342 2.3806
      vertex -11.4437 0 2
    endloop
  endfacet
  facet normal 0.898794 0.438371 0
    outer loop
      vertex -12.3769 1.91342 2.3806
      vertex -12.4273 2.01677 2.44966
      vertex -12.4273 2.01677 7
    endloop
  endfacet
  facet normal 0.898794 0.438371 0
    outer loop
      vertex -10.6739 -1.5784 2.31396
      vertex -12.3769 1.91342 2.3806
      vertex -10.6739 -1.5784 7
    endloop
  endfacet
  facet normal 0.898794 0.438371 0
    outer loop
      vertex -10.6739 -1.5784 7
      vertex -12.3769 1.91342 2.3806
      vertex -12.4273 2.01677 7
    endloop
  endfacet
  facet normal 0.898794 0.438371 0
    outer loop
      vertex -11.4437 0 2
      vertex -12.3769 1.91342 2.3806
      vertex -10.6739 -1.5784 2.31396
    endloop
  endfacet
  facet normal -0.438371 0.898794 0
    outer loop
      vertex -13.3261 1.5784 2.31396
      vertex -13.3261 1.5784 7
      vertex -12.6393 1.91342 2.3806
    endloop
  endfacet
  facet normal -0.438371 0.898794 0
    outer loop
      vertex -12.6393 1.91342 2.3806
      vertex -13.3261 1.5784 7
      vertex -12.4273 2.01677 7
    endloop
  endfacet
  facet normal -0.438371 0.898794 0
    outer loop
      vertex -12.6393 1.91342 2.3806
      vertex -12.4273 2.01677 7
      vertex -12.4273 2.01677 2.44966
    endloop
  endfacet
  facet normal -2.17778e-016 -0.19509 0.980785
    outer loop
      vertex -16.4568 0 2
      vertex -12.5563 0 2
      vertex -13.3261 1.5784 2.31396
    endloop
  endfacet
  facet normal -2.17778e-016 -0.19509 0.980785
    outer loop
      vertex -17.269 1.91342 2.3806
      vertex -16.4568 0 2
      vertex -13.3261 1.5784 2.31396
    endloop
  endfacet
  facet normal -2.17778e-016 -0.19509 0.980785
    outer loop
      vertex -12.6393 1.91342 2.3806
      vertex -17.269 1.91342 2.3806
      vertex -13.3261 1.5784 2.31396
    endloop
  endfacet
  facet normal 0.920505 0.390731 0
    outer loop
      vertex -17.269 1.91342 2.3806
      vertex -17.3212 2.03638 2.46276
      vertex -17.3212 2.03638 7
    endloop
  endfacet
  facet normal 0.920505 0.390731 0
    outer loop
      vertex -15.7583 -1.64564 2.32734
      vertex -17.269 1.91342 2.3806
      vertex -15.7583 -1.64564 7
    endloop
  endfacet
  facet normal 0.920505 0.390731 0
    outer loop
      vertex -15.7583 -1.64564 7
      vertex -17.269 1.91342 2.3806
      vertex -17.3212 2.03638 7
    endloop
  endfacet
  facet normal 0.920505 0.390731 0
    outer loop
      vertex -16.4568 0 2
      vertex -17.269 1.91342 2.3806
      vertex -15.7583 -1.64564 2.32734
    endloop
  endfacet
  facet normal -0.390731 0.920505 0
    outer loop
      vertex -18.2417 1.64564 2.32734
      vertex -18.2417 1.64564 7
      vertex -17.6109 1.91342 2.3806
    endloop
  endfacet
  facet normal -0.390731 0.920505 0
    outer loop
      vertex -17.6109 1.91342 2.3806
      vertex -18.2417 1.64564 7
      vertex -17.3212 2.03638 7
    endloop
  endfacet
  facet normal -0.390731 0.920505 0
    outer loop
      vertex -17.6109 1.91342 2.3806
      vertex -17.3212 2.03638 7
      vertex -17.3212 2.03638 2.46276
    endloop
  endfacet
  facet normal -2.17778e-016 -0.19509 0.980785
    outer loop
      vertex -21.4679 0 2
      vertex -17.5432 0 2
      vertex -18.2417 1.64564 2.32734
    endloop
  endfacet
  facet normal -2.17778e-016 -0.19509 0.980785
    outer loop
      vertex -22.1643 1.91342 2.3806
      vertex -21.4679 0 2
      vertex -18.2417 1.64564 2.32734
    endloop
  endfacet
  facet normal -2.17778e-016 -0.19509 0.980785
    outer loop
      vertex -17.6109 1.91342 2.3806
      vertex -22.1643 1.91342 2.3806
      vertex -18.2417 1.64564 2.32734
    endloop
  endfacet
  facet normal 0.939693 0.34202 0
    outer loop
      vertex -22.1643 1.91342 2.3806
      vertex -22.2142 2.0504 2.47213
      vertex -22.2142 2.0504 7
    endloop
  endfacet
  facet normal 0.939693 0.34202 0
    outer loop
      vertex -20.8461 -1.70838 2.33982
      vertex -22.1643 1.91342 2.3806
      vertex -20.8461 -1.70838 7
    endloop
  endfacet
  facet normal 0.939693 0.34202 0
    outer loop
      vertex -20.8461 -1.70838 7
      vertex -22.1643 1.91342 2.3806
      vertex -22.2142 2.0504 7
    endloop
  endfacet
  facet normal 0.939693 0.34202 0
    outer loop
      vertex -21.4679 0 2
      vertex -22.1643 1.91342 2.3806
      vertex -20.8461 -1.70838 2.33982
    endloop
  endfacet
  facet normal -0.34202 0.939693 0
    outer loop
      vertex -23.1539 1.70838 2.33982
      vertex -23.1539 1.70838 7
      vertex -22.5905 1.91342 2.3806
    endloop
  endfacet
  facet normal -0.34202 0.939693 0
    outer loop
      vertex -22.5905 1.91342 2.3806
      vertex -23.1539 1.70838 7
      vertex -22.2142 2.0504 7
    endloop
  endfacet
  facet normal -0.34202 0.939693 0
    outer loop
      vertex -22.5905 1.91342 2.3806
      vertex -22.2142 2.0504 7
      vertex -22.2142 2.0504 2.47213
    endloop
  endfacet
  facet normal -2.17778e-016 -0.19509 0.980785
    outer loop
      vertex -26.4772 0 2
      vertex -22.5321 0 2
      vertex -23.1539 1.70838 2.33982
    endloop
  endfacet
  facet normal -2.17778e-016 -0.19509 0.980785
    outer loop
      vertex -27.0621 1.91342 2.3806
      vertex -26.4772 0 2
      vertex -23.1539 1.70838 2.33982
    endloop
  endfacet
  facet normal -2.17778e-016 -0.19509 0.980785
    outer loop
      vertex -22.5905 1.91342 2.3806
      vertex -27.0621 1.91342 2.3806
      vertex -23.1539 1.70838 2.33982
    endloop
  endfacet
  facet normal 0.956305 0.292372 0
    outer loop
      vertex -27.0621 1.91342 2.3806
      vertex -27.1066 2.0588 2.47774
      vertex -27.1066 2.0588 7
    endloop
  endfacet
  facet normal 0.956305 0.292372 0
    outer loop
      vertex -25.9371 -1.76642 2.35136
      vertex -27.0621 1.91342 2.3806
      vertex -25.9371 -1.76642 7
    endloop
  endfacet
  facet normal 0.956305 0.292372 0
    outer loop
      vertex -25.9371 -1.76642 7
      vertex -27.0621 1.91342 2.3806
      vertex -27.1066 2.0588 7
    endloop
  endfacet
  facet normal 0.956305 0.292372 0
    outer loop
      vertex -26.4772 0 2
      vertex -27.0621 1.91342 2.3806
      vertex -25.9371 -1.76642 2.35136
    endloop
  endfacet
  facet normal -0.292372 0.956305 0
    outer loop
      vertex -28.0629 1.76642 2.35136
      vertex -28.0629 1.76642 7
      vertex -27.5821 1.91342 2.3806
    endloop
  endfacet
  facet normal -0.292372 0.956305 0
    outer loop
      vertex -27.5821 1.91342 2.3806
      vertex -28.0629 1.76642 7
      vertex -27.1066 2.0588 7
    endloop
  endfacet
  facet normal -0.292372 0.956305 0
    outer loop
      vertex -27.5821 1.91342 2.3806
      vertex -27.1066 2.0588 7
      vertex -27.1066 2.0588 2.47774
    endloop
  endfacet
  facet normal -2.17778e-016 -0.19509 0.980785
    outer loop
      vertex -31.4847 0 2
      vertex -27.5228 0 2
      vertex -28.0629 1.76642 2.35136
    endloop
  endfacet
  facet normal -2.17778e-016 -0.19509 0.980785
    outer loop
      vertex -31.9618 1.91342 2.3806
      vertex -31.4847 0 2
      vertex -28.0629 1.76642 2.35136
    endloop
  endfacet
  facet normal -2.17778e-016 -0.19509 0.980785
    outer loop
      vertex -27.5821 1.91342 2.3806
      vertex -31.9618 1.91342 2.3806
      vertex -28.0629 1.76642 2.35136
    endloop
  endfacet
  facet normal 0.970296 0.241922 0
    outer loop
      vertex -31.9618 1.91342 2.3806
      vertex -31.9987 2.06155 2.47958
      vertex -31.9987 2.06155 7
    endloop
  endfacet
  facet normal 0.970296 0.241922 0
    outer loop
      vertex -31.031 -1.81963 2.36195
      vertex -31.9618 1.91342 2.3806
      vertex -31.031 -1.81963 7
    endloop
  endfacet
  facet normal 0.970296 0.241922 0
    outer loop
      vertex -31.031 -1.81963 7
      vertex -31.9618 1.91342 2.3806
      vertex -31.9987 2.06155 7
    endloop
  endfacet
  facet normal 0.970296 0.241922 0
    outer loop
      vertex -31.4847 0 2
      vertex -31.9618 1.91342 2.3806
      vertex -31.031 -1.81963 2.36195
    endloop
  endfacet
  facet normal -0.241922 0.970296 0
    outer loop
      vertex -32.969 1.81963 2.36195
      vertex -32.969 1.81963 7
      vertex -32.5928 1.91342 2.3806
    endloop
  endfacet
  facet normal -0.241922 0.970296 0
    outer loop
      vertex -32.5928 1.91342 2.3806
      vertex -32.969 1.81963 7
      vertex -31.9987 2.06155 7
    endloop
  endfacet
  facet normal -0.241922 0.970296 0
    outer loop
      vertex -32.5928 1.91342 2.3806
      vertex -31.9987 2.06155 7
      vertex -31.9987 2.06155 2.47958
    endloop
  endfacet
  facet normal -2.17778e-016 -0.19509 0.980785
    outer loop
      vertex -36.4906 0 2
      vertex -32.5153 0 2
      vertex -32.969 1.81963 2.36195
    endloop
  endfacet
  facet normal -2.17778e-016 -0.19509 0.980785
    outer loop
      vertex -36.8626 1.91342 2.3806
      vertex -36.4906 0 2
      vertex -32.969 1.81963 2.36195
    endloop
  endfacet
  facet normal -2.17778e-016 -0.19509 0.980785
    outer loop
      vertex -32.5928 1.91342 2.3806
      vertex -36.8626 1.91342 2.3806
      vertex -32.969 1.81963 2.36195
    endloop
  endfacet
  facet normal 0.981627 0.190809 0
    outer loop
      vertex -36.8626 1.91342 2.3806
      vertex -36.8908 2.05866 2.47765
      vertex -36.8908 2.05866 7
    endloop
  endfacet
  facet normal 0.981627 0.190809 0
    outer loop
      vertex -36.1276 -1.86785 2.37154
      vertex -36.8626 1.91342 2.3806
      vertex -36.1276 -1.86785 7
    endloop
  endfacet
  facet normal 0.981627 0.190809 0
    outer loop
      vertex -36.1276 -1.86785 7
      vertex -36.8626 1.91342 2.3806
      vertex -36.8908 2.05866 7
    endloop
  endfacet
  facet normal 0.981627 0.190809 0
    outer loop
      vertex -36.4906 0 2
      vertex -36.8626 1.91342 2.3806
      vertex -36.1276 -1.86785 2.37154
    endloop
  endfacet
  facet normal -0.190809 0.981627 0
    outer loop
      vertex -37.8724 1.86785 2.37154
      vertex -37.8724 1.86785 7
      vertex -37.638 1.91342 2.3806
    endloop
  endfacet
  facet normal -0.190809 0.981627 0
    outer loop
      vertex -37.638 1.91342 2.3806
      vertex -37.8724 1.86785 7
      vertex -36.8908 2.05866 7
    endloop
  endfacet
  facet normal -0.190809 0.981627 0
    outer loop
      vertex -37.638 1.91342 2.3806
      vertex -36.8908 2.05866 7
      vertex -36.8908 2.05866 2.47765
    endloop
  endfacet
  facet normal -2.17778e-016 -0.19509 0.980785
    outer loop
      vertex -41.4951 0 2
      vertex -37.5094 0 2
      vertex -37.8724 1.86785 2.37154
    endloop
  endfacet
  facet normal -2.17778e-016 -0.19509 0.980785
    outer loop
      vertex -41.764 1.91342 2.3806
      vertex -41.4951 0 2
      vertex -37.8724 1.86785 2.37154
    endloop
  endfacet
  facet normal -2.17778e-016 -0.19509 0.980785
    outer loop
      vertex -37.638 1.91342 2.3806
      vertex -41.764 1.91342 2.3806
      vertex -37.8724 1.86785 2.37154
    endloop
  endfacet
  facet normal 0.990268 0.139173 0
    outer loop
      vertex -41.764 1.91342 2.3806
      vertex -41.7832 2.05012 2.47195
      vertex -41.7832 2.05012 7
    endloop
  endfacet
  facet normal 0.990268 0.139173 0
    outer loop
      vertex -41.2265 -1.91095 2.38011
      vertex -41.764 1.91342 2.3806
      vertex -41.2265 -1.91095 7
    endloop
  endfacet
  facet normal 0.990268 0.139173 0
    outer loop
      vertex -41.2265 -1.91095 7
      vertex -41.764 1.91342 2.3806
      vertex -41.7832 2.05012 7
    endloop
  endfacet
  facet normal 0.990268 0.139173 0
    outer loop
      vertex -41.4951 0 2
      vertex -41.764 1.91342 2.3806
      vertex -41.2265 -1.91095 2.38011
    endloop
  endfacet
  facet normal -0.139173 0.990268 0
    outer loop
      vertex -42.7735 1.91095 2.38011
      vertex -42.7735 1.91095 7
      vertex -42.7559 1.91342 2.3806
    endloop
  endfacet
  facet normal -0.139173 0.990268 0
    outer loop
      vertex -42.7559 1.91342 2.3806
      vertex -42.7735 1.91095 7
      vertex -41.7832 2.05012 7
    endloop
  endfacet
  facet normal -0.139173 0.990268 0
    outer loop
      vertex -42.7559 1.91342 2.3806
      vertex -41.7832 2.05012 7
      vertex -41.7832 2.05012 2.47195
    endloop
  endfacet
  facet normal -2.17778e-016 -0.19509 0.980785
    outer loop
      vertex -46.4981 0 2
      vertex -42.5049 0 2
      vertex -42.7735 1.91095 2.38011
    endloop
  endfacet
  facet normal -2.17778e-016 -0.19509 0.980785
    outer loop
      vertex -46.6655 1.91342 2.3806
      vertex -46.4981 0 2
      vertex -42.7735 1.91095 2.38011
    endloop
  endfacet
  facet normal -2.17778e-016 -0.19509 0.980785
    outer loop
      vertex -42.7559 1.91342 2.3806
      vertex -46.6655 1.91342 2.3806
      vertex -42.7735 1.91095 2.38011
    endloop
  endfacet
  facet normal 0.996195 0.0871557 0
    outer loop
      vertex -46.6655 1.91342 2.3806
      vertex -46.6762 2.03597 2.46249
      vertex -46.6762 2.03597 7
    endloop
  endfacet
  facet normal 0.996195 0.0871557 0
    outer loop
      vertex -46.3276 -1.94881 2.40425
      vertex -46.6655 1.91342 2.3806
      vertex -46.3276 -1.94881 7
    endloop
  endfacet
  facet normal 0.996195 0.0871557 0
    outer loop
      vertex -46.3276 -1.94881 7
      vertex -46.6655 1.91342 2.3806
      vertex -46.6762 2.03597 7
    endloop
  endfacet
  facet normal 0.996195 0.0871557 0
    outer loop
      vertex -46.3307 -1.91342 2.3806
      vertex -46.6655 1.91342 2.3806
      vertex -46.3276 -1.94881 2.40425
    endloop
  endfacet
  facet normal 0.996195 0.0871557 0
    outer loop
      vertex -46.4981 0 2
      vertex -46.6655 1.91342 2.3806
      vertex -46.3307 -1.91342 2.3806
    endloop
  endfacet
  facet normal -0.0871557 0.996195 0
    outer loop
      vertex -47.6724 1.94881 2.40425
      vertex -47.6724 1.94881 7
      vertex -46.6762 2.03597 2.46249
    endloop
  endfacet
  facet normal -0.0871557 0.996195 0
    outer loop
      vertex -46.6762 2.03597 2.46249
      vertex -47.6724 1.94881 7
      vertex -46.6762 2.03597 7
    endloop
  endfacet
  facet normal 0.0871557 -0.996195 0
    outer loop
      vertex -47.3238 -2.03597 7
      vertex -47.3238 -2.03597 2.46249
      vertex -46.3276 -1.94881 2.40425
    endloop
  endfacet
  facet normal 0.0871557 -0.996195 0
    outer loop
      vertex -46.3276 -1.94881 7
      vertex -47.3238 -2.03597 7
      vertex -46.3276 -1.94881 2.40425
    endloop
  endfacet
  facet normal -2.17778e-016 0.19509 0.980785
    outer loop
      vertex -46.3307 -1.91342 2.3806
      vertex -42.236 -1.91342 2.3806
      vertex -42.5049 0 2
    endloop
  endfacet
  facet normal -2.17778e-016 0.19509 0.980785
    outer loop
      vertex -46.4981 0 2
      vertex -46.3307 -1.91342 2.3806
      vertex -42.5049 0 2
    endloop
  endfacet
  facet normal -0.990268 -0.139173 0
    outer loop
      vertex -42.7735 1.91095 2.38011
      vertex -42.5049 0 2
      vertex -42.7735 1.91095 7
    endloop
  endfacet
  facet normal -0.990268 -0.139173 0
    outer loop
      vertex -42.7735 1.91095 7
      vertex -42.5049 0 2
      vertex -42.236 -1.91342 2.3806
    endloop
  endfacet
  facet normal -0.990268 -0.139173 0
    outer loop
      vertex -42.7735 1.91095 7
      vertex -42.236 -1.91342 2.3806
      vertex -42.2168 -2.05012 2.47195
    endloop
  endfacet
  facet normal -0.990268 -0.139173 0
    outer loop
      vertex -42.7735 1.91095 7
      vertex -42.2168 -2.05012 2.47195
      vertex -42.2168 -2.05012 7
    endloop
  endfacet
  facet normal 0.139173 -0.990268 0
    outer loop
      vertex -42.2168 -2.05012 7
      vertex -42.2168 -2.05012 2.47195
      vertex -41.2441 -1.91342 2.3806
    endloop
  endfacet
  facet normal 0.139173 -0.990268 0
    outer loop
      vertex -41.2265 -1.91095 7
      vertex -42.2168 -2.05012 7
      vertex -41.2265 -1.91095 2.38011
    endloop
  endfacet
  facet normal 0.139173 -0.990268 0
    outer loop
      vertex -41.2265 -1.91095 2.38011
      vertex -42.2168 -2.05012 7
      vertex -41.2441 -1.91342 2.3806
    endloop
  endfacet
  facet normal -2.17778e-016 0.19509 0.980785
    outer loop
      vertex -41.2265 -1.91095 2.38011
      vertex -41.2441 -1.91342 2.3806
      vertex -37.1374 -1.91342 2.3806
    endloop
  endfacet
  facet normal -2.17778e-016 0.19509 0.980785
    outer loop
      vertex -37.5094 0 2
      vertex -41.2265 -1.91095 2.38011
      vertex -37.1374 -1.91342 2.3806
    endloop
  endfacet
  facet normal -2.17778e-016 0.19509 0.980785
    outer loop
      vertex -41.4951 0 2
      vertex -41.2265 -1.91095 2.38011
      vertex -37.5094 0 2
    endloop
  endfacet
  facet normal -0.981627 -0.190809 0
    outer loop
      vertex -37.8724 1.86785 2.37154
      vertex -37.5094 0 2
      vertex -37.8724 1.86785 7
    endloop
  endfacet
  facet normal -0.981627 -0.190809 0
    outer loop
      vertex -37.8724 1.86785 7
      vertex -37.5094 0 2
      vertex -37.1374 -1.91342 2.3806
    endloop
  endfacet
  facet normal -0.981627 -0.190809 0
    outer loop
      vertex -37.8724 1.86785 7
      vertex -37.1374 -1.91342 2.3806
      vertex -37.1092 -2.05866 2.47765
    endloop
  endfacet
  facet normal -0.981627 -0.190809 0
    outer loop
      vertex -37.8724 1.86785 7
      vertex -37.1092 -2.05866 2.47765
      vertex -37.1092 -2.05866 7
    endloop
  endfacet
  facet normal 0.190809 -0.981627 0
    outer loop
      vertex -37.1092 -2.05866 7
      vertex -37.1092 -2.05866 2.47765
      vertex -36.362 -1.91342 2.3806
    endloop
  endfacet
  facet normal 0.190809 -0.981627 0
    outer loop
      vertex -36.1276 -1.86785 7
      vertex -37.1092 -2.05866 7
      vertex -36.1276 -1.86785 2.37154
    endloop
  endfacet
  facet normal 0.190809 -0.981627 0
    outer loop
      vertex -36.1276 -1.86785 2.37154
      vertex -37.1092 -2.05866 7
      vertex -36.362 -1.91342 2.3806
    endloop
  endfacet
  facet normal -2.17778e-016 0.19509 0.980785
    outer loop
      vertex -36.1276 -1.86785 2.37154
      vertex -36.362 -1.91342 2.3806
      vertex -32.0382 -1.91342 2.3806
    endloop
  endfacet
  facet normal -2.17778e-016 0.19509 0.980785
    outer loop
      vertex -32.5153 0 2
      vertex -36.1276 -1.86785 2.37154
      vertex -32.0382 -1.91342 2.3806
    endloop
  endfacet
  facet normal -2.17778e-016 0.19509 0.980785
    outer loop
      vertex -36.4906 0 2
      vertex -36.1276 -1.86785 2.37154
      vertex -32.5153 0 2
    endloop
  endfacet
  facet normal -0.970296 -0.241922 0
    outer loop
      vertex -32.969 1.81963 2.36195
      vertex -32.5153 0 2
      vertex -32.969 1.81963 7
    endloop
  endfacet
  facet normal -0.970296 -0.241922 0
    outer loop
      vertex -32.969 1.81963 7
      vertex -32.5153 0 2
      vertex -32.0382 -1.91342 2.3806
    endloop
  endfacet
  facet normal -0.970296 -0.241922 0
    outer loop
      vertex -32.969 1.81963 7
      vertex -32.0382 -1.91342 2.3806
      vertex -32.0013 -2.06155 2.47958
    endloop
  endfacet
  facet normal -0.970296 -0.241922 0
    outer loop
      vertex -32.969 1.81963 7
      vertex -32.0013 -2.06155 2.47958
      vertex -32.0013 -2.06155 7
    endloop
  endfacet
  facet normal 0.241922 -0.970296 0
    outer loop
      vertex -32.0013 -2.06155 7
      vertex -32.0013 -2.06155 2.47958
      vertex -31.4072 -1.91342 2.3806
    endloop
  endfacet
  facet normal 0.241922 -0.970296 0
    outer loop
      vertex -31.031 -1.81963 7
      vertex -32.0013 -2.06155 7
      vertex -31.031 -1.81963 2.36195
    endloop
  endfacet
  facet normal 0.241922 -0.970296 0
    outer loop
      vertex -31.031 -1.81963 2.36195
      vertex -32.0013 -2.06155 7
      vertex -31.4072 -1.91342 2.3806
    endloop
  endfacet
  facet normal -2.17778e-016 0.19509 0.980785
    outer loop
      vertex -31.031 -1.81963 2.36195
      vertex -31.4072 -1.91342 2.3806
      vertex -26.9379 -1.91342 2.3806
    endloop
  endfacet
  facet normal -2.17778e-016 0.19509 0.980785
    outer loop
      vertex -27.5228 0 2
      vertex -31.031 -1.81963 2.36195
      vertex -26.9379 -1.91342 2.3806
    endloop
  endfacet
  facet normal -2.17778e-016 0.19509 0.980785
    outer loop
      vertex -31.4847 0 2
      vertex -31.031 -1.81963 2.36195
      vertex -27.5228 0 2
    endloop
  endfacet
  facet normal -0.956305 -0.292372 0
    outer loop
      vertex -28.0629 1.76642 2.35136
      vertex -27.5228 0 2
      vertex -28.0629 1.76642 7
    endloop
  endfacet
  facet normal -0.956305 -0.292372 0
    outer loop
      vertex -28.0629 1.76642 7
      vertex -27.5228 0 2
      vertex -26.9379 -1.91342 2.3806
    endloop
  endfacet
  facet normal -0.956305 -0.292372 0
    outer loop
      vertex -28.0629 1.76642 7
      vertex -26.9379 -1.91342 2.3806
      vertex -26.8934 -2.0588 2.47774
    endloop
  endfacet
  facet normal -0.956305 -0.292372 0
    outer loop
      vertex -28.0629 1.76642 7
      vertex -26.8934 -2.0588 2.47774
      vertex -26.8934 -2.0588 7
    endloop
  endfacet
  facet normal 0.292372 -0.956305 0
    outer loop
      vertex -26.8934 -2.0588 7
      vertex -26.8934 -2.0588 2.47774
      vertex -26.4179 -1.91342 2.3806
    endloop
  endfacet
  facet normal 0.292372 -0.956305 0
    outer loop
      vertex -25.9371 -1.76642 7
      vertex -26.8934 -2.0588 7
      vertex -25.9371 -1.76642 2.35136
    endloop
  endfacet
  facet normal 0.292372 -0.956305 0
    outer loop
      vertex -25.9371 -1.76642 2.35136
      vertex -26.8934 -2.0588 7
      vertex -26.4179 -1.91342 2.3806
    endloop
  endfacet
  facet normal -2.17778e-016 0.19509 0.980785
    outer loop
      vertex -25.9371 -1.76642 2.35136
      vertex -26.4179 -1.91342 2.3806
      vertex -21.8357 -1.91342 2.3806
    endloop
  endfacet
  facet normal -2.17778e-016 0.19509 0.980785
    outer loop
      vertex -22.5321 0 2
      vertex -25.9371 -1.76642 2.35136
      vertex -21.8357 -1.91342 2.3806
    endloop
  endfacet
  facet normal -2.17778e-016 0.19509 0.980785
    outer loop
      vertex -26.4772 0 2
      vertex -25.9371 -1.76642 2.35136
      vertex -22.5321 0 2
    endloop
  endfacet
  facet normal -0.939693 -0.34202 0
    outer loop
      vertex -23.1539 1.70838 2.33982
      vertex -22.5321 0 2
      vertex -23.1539 1.70838 7
    endloop
  endfacet
  facet normal -0.939693 -0.34202 0
    outer loop
      vertex -23.1539 1.70838 7
      vertex -22.5321 0 2
      vertex -21.8357 -1.91342 2.3806
    endloop
  endfacet
  facet normal -0.939693 -0.34202 0
    outer loop
      vertex -23.1539 1.70838 7
      vertex -21.8357 -1.91342 2.3806
      vertex -21.7858 -2.0504 2.47213
    endloop
  endfacet
  facet normal -0.939693 -0.34202 0
    outer loop
      vertex -23.1539 1.70838 7
      vertex -21.7858 -2.0504 2.47213
      vertex -21.7858 -2.0504 7
    endloop
  endfacet
  facet normal 0.34202 -0.939693 0
    outer loop
      vertex -21.7858 -2.0504 7
      vertex -21.7858 -2.0504 2.47213
      vertex -21.4095 -1.91342 2.3806
    endloop
  endfacet
  facet normal 0.34202 -0.939693 0
    outer loop
      vertex -20.8461 -1.70838 7
      vertex -21.7858 -2.0504 7
      vertex -20.8461 -1.70838 2.33982
    endloop
  endfacet
  facet normal 0.34202 -0.939693 0
    outer loop
      vertex -20.8461 -1.70838 2.33982
      vertex -21.7858 -2.0504 7
      vertex -21.4095 -1.91342 2.3806
    endloop
  endfacet
  facet normal -2.17778e-016 0.19509 0.980785
    outer loop
      vertex -20.8461 -1.70838 2.33982
      vertex -21.4095 -1.91342 2.3806
      vertex -16.731 -1.91342 2.3806
    endloop
  endfacet
  facet normal -2.17778e-016 0.19509 0.980785
    outer loop
      vertex -17.5432 0 2
      vertex -20.8461 -1.70838 2.33982
      vertex -16.731 -1.91342 2.3806
    endloop
  endfacet
  facet normal -2.17778e-016 0.19509 0.980785
    outer loop
      vertex -21.4679 0 2
      vertex -20.8461 -1.70838 2.33982
      vertex -17.5432 0 2
    endloop
  endfacet
  facet normal -0.920505 -0.390731 0
    outer loop
      vertex -18.2417 1.64564 2.32734
      vertex -17.5432 0 2
      vertex -18.2417 1.64564 7
    endloop
  endfacet
  facet normal -0.920505 -0.390731 0
    outer loop
      vertex -18.2417 1.64564 7
      vertex -17.5432 0 2
      vertex -16.731 -1.91342 2.3806
    endloop
  endfacet
  facet normal -0.920505 -0.390731 0
    outer loop
      vertex -18.2417 1.64564 7
      vertex -16.731 -1.91342 2.3806
      vertex -16.6788 -2.03638 2.46276
    endloop
  endfacet
  facet normal -0.920505 -0.390731 0
    outer loop
      vertex -18.2417 1.64564 7
      vertex -16.6788 -2.03638 2.46276
      vertex -16.6788 -2.03638 7
    endloop
  endfacet
  facet normal 0.390731 -0.920505 0
    outer loop
      vertex -16.6788 -2.03638 7
      vertex -16.6788 -2.03638 2.46276
      vertex -16.3891 -1.91342 2.3806
    endloop
  endfacet
  facet normal 0.390731 -0.920505 0
    outer loop
      vertex -15.7583 -1.64564 7
      vertex -16.6788 -2.03638 7
      vertex -15.7583 -1.64564 2.32734
    endloop
  endfacet
  facet normal 0.390731 -0.920505 0
    outer loop
      vertex -15.7583 -1.64564 2.32734
      vertex -16.6788 -2.03638 7
      vertex -16.3891 -1.91342 2.3806
    endloop
  endfacet
  facet normal -2.17778e-016 0.19509 0.980785
    outer loop
      vertex -15.7583 -1.64564 2.32734
      vertex -16.3891 -1.91342 2.3806
      vertex -11.6231 -1.91342 2.3806
    endloop
  endfacet
  facet normal -2.17778e-016 0.19509 0.980785
    outer loop
      vertex -12.5563 0 2
      vertex -15.7583 -1.64564 2.32734
      vertex -11.6231 -1.91342 2.3806
    endloop
  endfacet
  facet normal -2.17778e-016 0.19509 0.980785
    outer loop
      vertex -16.4568 0 2
      vertex -15.7583 -1.64564 2.32734
      vertex -12.5563 0 2
    endloop
  endfacet
  facet normal -0.898794 -0.438371 0
    outer loop
      vertex -13.3261 1.5784 2.31396
      vertex -12.5563 0 2
      vertex -13.3261 1.5784 7
    endloop
  endfacet
  facet normal -0.898794 -0.438371 0
    outer loop
      vertex -13.3261 1.5784 7
      vertex -12.5563 0 2
      vertex -11.6231 -1.91342 2.3806
    endloop
  endfacet
  facet normal -0.898794 -0.438371 0
    outer loop
      vertex -13.3261 1.5784 7
      vertex -11.6231 -1.91342 2.3806
      vertex -11.5727 -2.01677 2.44966
    endloop
  endfacet
  facet normal -0.898794 -0.438371 0
    outer loop
      vertex -13.3261 1.5784 7
      vertex -11.5727 -2.01677 2.44966
      vertex -11.5727 -2.01677 7
    endloop
  endfacet
  facet normal 0.438371 -0.898794 0
    outer loop
      vertex -11.5727 -2.01677 7
      vertex -11.5727 -2.01677 2.44966
      vertex -11.3607 -1.91342 2.3806
    endloop
  endfacet
  facet normal 0.438371 -0.898794 0
    outer loop
      vertex -10.6739 -1.5784 7
      vertex -11.5727 -2.01677 7
      vertex -10.6739 -1.5784 2.31396
    endloop
  endfacet
  facet normal 0.438371 -0.898794 0
    outer loop
      vertex -10.6739 -1.5784 2.31396
      vertex -11.5727 -2.01677 7
      vertex -11.3607 -1.91342 2.3806
    endloop
  endfacet
  facet normal -2.17778e-016 0.19509 0.980785
    outer loop
      vertex -10.6739 -1.5784 2.31396
      vertex -11.3607 -1.91342 2.3806
      vertex -6.51105 -1.91342 2.3806
    endloop
  endfacet
  facet normal -2.17778e-016 0.19509 0.980785
    outer loop
      vertex -7.57168 0 2
      vertex -10.6739 -1.5784 2.31396
      vertex -6.51105 -1.91342 2.3806
    endloop
  endfacet
  facet normal -2.17778e-016 0.19509 0.980785
    outer loop
      vertex -11.4437 0 2
      vertex -10.6739 -1.5784 2.31396
      vertex -7.57168 0 2
    endloop
  endfacet
  facet normal -0.87462 -0.48481 0
    outer loop
      vertex -8.40693 1.50683 2.29973
      vertex -7.57168 0 2
      vertex -8.40693 1.50683 7
    endloop
  endfacet
  facet normal -0.87462 -0.48481 0
    outer loop
      vertex -8.40693 1.50683 7
      vertex -7.57168 0 2
      vertex -6.51105 -1.91342 2.3806
    endloop
  endfacet
  facet normal -0.87462 -0.48481 0
    outer loop
      vertex -8.40693 1.50683 7
      vertex -6.51105 -1.91342 2.3806
      vertex -6.46769 -1.99164 2.43287
    endloop
  endfacet
  facet normal -0.87462 -0.48481 0
    outer loop
      vertex -8.40693 1.50683 7
      vertex -6.46769 -1.99164 2.43287
      vertex -6.46769 -1.99164 7
    endloop
  endfacet
  facet normal 0.48481 -0.87462 0
    outer loop
      vertex -6.46769 -1.99164 7
      vertex -6.46769 -1.99164 2.43287
      vertex -6.32656 -1.91342 2.3806
    endloop
  endfacet
  facet normal 0.48481 -0.87462 0
    outer loop
      vertex -5.59307 -1.50683 7
      vertex -6.46769 -1.99164 7
      vertex -5.59307 -1.50683 2.29973
    endloop
  endfacet
  facet normal 0.48481 -0.87462 0
    outer loop
      vertex -5.59307 -1.50683 2.29973
      vertex -6.46769 -1.99164 7
      vertex -6.32656 -1.91342 2.3806
    endloop
  endfacet
  facet normal -2.17778e-016 0.19509 0.980785
    outer loop
      vertex -5.59307 -1.50683 2.29973
      vertex -6.32656 -1.91342 2.3806
      vertex -1.39395 -1.91342 2.3806
    endloop
  endfacet
  facet normal -2.17778e-016 0.19509 0.980785
    outer loop
      vertex -6.42832 0 2
      vertex -5.59307 -1.50683 2.29973
      vertex -2.58959 0 2
    endloop
  endfacet
  facet normal -2.17778e-016 0.19509 0.980785
    outer loop
      vertex -2.58959 0 2
      vertex -5.59307 -1.50683 2.29973
      vertex -1.39395 -1.91342 2.3806
    endloop
  endfacet
  facet normal -0.848048 -0.529919 0
    outer loop
      vertex -3.48386 1.43114 2.28467
      vertex -2.58959 0 2
      vertex -3.48386 1.43114 7
    endloop
  endfacet
  facet normal -0.848048 -0.529919 0
    outer loop
      vertex -3.48386 1.43114 7
      vertex -2.58959 0 2
      vertex -1.39395 -1.91342 2.3806
    endloop
  endfacet
  facet normal -0.848048 -0.529919 0
    outer loop
      vertex -3.48386 1.43114 7
      vertex -1.39395 -1.91342 2.3806
      vertex -1.36419 -1.96106 2.41243
    endloop
  endfacet
  facet normal -0.848048 -0.529919 0
    outer loop
      vertex -3.48386 1.43114 7
      vertex -1.36419 -1.96106 2.41243
      vertex -1.36419 -1.96106 7
    endloop
  endfacet
  facet normal 0.529919 -0.848048 0
    outer loop
      vertex -1.36419 -1.96106 7
      vertex -1.36419 -1.96106 2.41243
      vertex -1.28795 -1.91342 2.3806
    endloop
  endfacet
  facet normal 0.529919 -0.848048 0
    outer loop
      vertex -0.516137 -1.43114 7
      vertex -1.36419 -1.96106 7
      vertex -0.516137 -1.43114 2.28467
    endloop
  endfacet
  facet normal 0.529919 -0.848048 0
    outer loop
      vertex -0.516137 -1.43114 2.28467
      vertex -1.36419 -1.96106 7
      vertex -1.28795 -1.91342 2.3806
    endloop
  endfacet
  facet normal -2.17778e-016 0.19509 0.980785
    outer loop
      vertex -0.516137 -1.43114 2.28467
      vertex -1.28795 -1.91342 2.3806
      vertex 3.7294 -1.91342 2.3806
    endloop
  endfacet
  facet normal -2.17778e-016 0.19509 0.980785
    outer loop
      vertex -1.41041 0 2
      vertex -0.516137 -1.43114 2.28467
      vertex 2.38961 0 2
    endloop
  endfacet
  facet normal -2.17778e-016 0.19509 0.980785
    outer loop
      vertex 2.38961 0 2
      vertex -0.516137 -1.43114 2.28467
      vertex 3.7294 -1.91342 2.3806
    endloop
  endfacet
  facet normal -0.819152 -0.573576 0
    outer loop
      vertex 1.44327 1.35152 2.26883
      vertex 2.38961 0 2
      vertex 1.44327 1.35152 7
    endloop
  endfacet
  facet normal -0.819152 -0.573576 0
    outer loop
      vertex 1.44327 1.35152 7
      vertex 2.38961 0 2
      vertex 3.7294 -1.91342 2.3806
    endloop
  endfacet
  facet normal -0.819152 -0.573576 0
    outer loop
      vertex 1.44327 1.35152 7
      vertex 3.7294 -1.91342 2.3806
      vertex 3.73758 -1.92509 2.3884
    endloop
  endfacet
  facet normal -0.819152 -0.573576 0
    outer loop
      vertex 1.44327 1.35152 7
      vertex 3.73758 -1.92509 2.3884
      vertex 3.73758 -1.92509 7
    endloop
  endfacet
  facet normal 0.573576 -0.819152 0
    outer loop
      vertex 3.73758 -1.92509 7
      vertex 3.73758 -1.92509 2.3884
      vertex 3.75425 -1.91342 2.3806
    endloop
  endfacet
  facet normal 0.573576 -0.819152 0
    outer loop
      vertex 4.55673 -1.35152 7
      vertex 3.73758 -1.92509 7
      vertex 4.55673 -1.35152 2.26883
    endloop
  endfacet
  facet normal 0.573576 -0.819152 0
    outer loop
      vertex 4.55673 -1.35152 2.26883
      vertex 3.73758 -1.92509 7
      vertex 3.75425 -1.91342 2.3806
    endloop
  endfacet
  facet normal -2.17778e-016 0.19509 0.980785
    outer loop
      vertex 8.83732 -1.88385 2.37472
      vertex 3.75425 -1.91342 2.3806
      vertex 54 -1.91342 2.3806
    endloop
  endfacet
  facet normal -2.17778e-016 0.19509 0.980785
    outer loop
      vertex 38.8941 0 2
      vertex 39.9377 -0.703867 2.14001
      vertex 42.0292 0 2
    endloop
  endfacet
  facet normal -2.17778e-016 0.19509 0.980785
    outer loop
      vertex 54 0 2
      vertex 50.0006 -0.497469 2.09895
      vertex 54 -1.91342 2.3806
    endloop
  endfacet
  facet normal -2.17778e-016 0.19509 0.980785
    outer loop
      vertex 50.0006 -0.497469 2.09895
      vertex 49.5312 -1.38042 2.27458
      vertex 54 -1.91342 2.3806
    endloop
  endfacet
  facet normal -2.17778e-016 0.19509 0.980785
    outer loop
      vertex 33.8308 0 2
      vertex 34.8982 -0.804312 2.15999
      vertex 37.1059 0 2
    endloop
  endfacet
  facet normal -2.17778e-016 0.19509 0.980785
    outer loop
      vertex 39.3785 -1.5329 2.30491
      vertex 37.1059 0 2
      vertex 34.8982 -0.804312 2.15999
    endloop
  endfacet
  facet normal -2.17778e-016 0.19509 0.980785
    outer loop
      vertex 49.5312 -1.38042 2.27458
      vertex 44.4568 -1.45866 2.29015
      vertex 54 -1.91342 2.3806
    endloop
  endfacet
  facet normal -2.17778e-016 0.19509 0.980785
    outer loop
      vertex 28.7779 0 2
      vertex 29.8535 -0.902553 2.17953
      vertex 32.1692 0 2
    endloop
  endfacet
  facet normal -2.17778e-016 0.19509 0.980785
    outer loop
      vertex 34.2964 -1.60295 2.31885
      vertex 32.1692 0 2
      vertex 29.8535 -0.902553 2.17953
    endloop
  endfacet
  facet normal -2.17778e-016 0.19509 0.980785
    outer loop
      vertex 44.4568 -1.45866 2.29015
      vertex 39.3785 -1.5329 2.30491
      vertex 54 -1.91342 2.3806
    endloop
  endfacet
  facet normal -2.17778e-016 0.19509 0.980785
    outer loop
      vertex 29.2107 -1.6686 2.3319
      vertex 27.2221 0 2
      vertex 24.8037 -0.99832 2.19858
    endloop
  endfacet
  facet normal -2.17778e-016 0.19509 0.980785
    outer loop
      vertex 23.7331 0 2
      vertex 24.8037 -0.99832 2.19858
      vertex 27.2221 0 2
    endloop
  endfacet
  facet normal -2.17778e-016 0.19509 0.980785
    outer loop
      vertex 39.9377 -0.703867 2.14001
      vertex 39.3785 -1.5329 2.30491
      vertex 44.4568 -1.45866 2.29015
    endloop
  endfacet
  facet normal -2.17778e-016 0.19509 0.980785
    outer loop
      vertex 14.6895 -1.18139 2.23499
      vertex 13.9348 -1.83745 2.36549
      vertex 19.0296 -1.78601 2.35526
    endloop
  endfacet
  facet normal -2.17778e-016 0.19509 0.980785
    outer loop
      vertex 39.3785 -1.5329 2.30491
      vertex 34.2964 -1.60295 2.31885
      vertex 54 -1.91342 2.3806
    endloop
  endfacet
  facet normal -2.17778e-016 0.19509 0.980785
    outer loop
      vertex 24.1217 -1.72967 2.34405
      vertex 22.2669 0 2
      vertex 19.749 -1.09135 2.21708
    endloop
  endfacet
  facet normal -2.17778e-016 0.19509 0.980785
    outer loop
      vertex 18.6951 0 2
      vertex 19.749 -1.09135 2.21708
      vertex 22.2669 0 2
    endloop
  endfacet
  facet normal -2.17778e-016 0.19509 0.980785
    outer loop
      vertex 24.8037 -0.99832 2.19858
      vertex 24.1217 -1.72967 2.34405
      vertex 29.2107 -1.6686 2.3319
    endloop
  endfacet
  facet normal -2.17778e-016 0.19509 0.980785
    outer loop
      vertex 19.749 -1.09135 2.21708
      vertex 19.0296 -1.78601 2.35526
      vertex 24.1217 -1.72967 2.34405
    endloop
  endfacet
  facet normal -2.17778e-016 0.19509 0.980785
    outer loop
      vertex 13.6625 0 2
      vertex 14.6895 -1.18139 2.23499
      vertex 17.3049 0 2
    endloop
  endfacet
  facet normal -2.17778e-016 0.19509 0.980785
    outer loop
      vertex 29.8535 -0.902553 2.17953
      vertex 29.2107 -1.6686 2.3319
      vertex 34.2964 -1.60295 2.31885
    endloop
  endfacet
  facet normal -2.17778e-016 0.19509 0.980785
    outer loop
      vertex 19.0296 -1.78601 2.35526
      vertex 17.3049 0 2
      vertex 14.6895 -1.18139 2.23499
    endloop
  endfacet
  facet normal -2.17778e-016 0.19509 0.980785
    outer loop
      vertex 29.2107 -1.6686 2.3319
      vertex 24.1217 -1.72967 2.34405
      vertex 54 -1.91342 2.3806
    endloop
  endfacet
  facet normal -2.17778e-016 0.19509 0.980785
    outer loop
      vertex 8.83732 -1.88385 2.37472
      vertex 4.55673 -1.35152 2.26883
      vertex 3.75425 -1.91342 2.3806
    endloop
  endfacet
  facet normal -2.17778e-016 0.19509 0.980785
    outer loop
      vertex 8.63451 0 2
      vertex 9.62533 -1.26819 2.25226
      vertex 12.3375 0 2
    endloop
  endfacet
  facet normal -2.17778e-016 0.19509 0.980785
    outer loop
      vertex 34.2964 -1.60295 2.31885
      vertex 29.2107 -1.6686 2.3319
      vertex 54 -1.91342 2.3806
    endloop
  endfacet
  facet normal -2.17778e-016 0.19509 0.980785
    outer loop
      vertex 13.9348 -1.83745 2.36549
      vertex 12.3375 0 2
      vertex 9.62533 -1.26819 2.25226
    endloop
  endfacet
  facet normal -2.17778e-016 0.19509 0.980785
    outer loop
      vertex 24.1217 -1.72967 2.34405
      vertex 19.0296 -1.78601 2.35526
      vertex 54 -1.91342 2.3806
    endloop
  endfacet
  facet normal -2.17778e-016 0.19509 0.980785
    outer loop
      vertex 8.83732 -1.88385 2.37472
      vertex 7.36549 0 2
      vertex 4.55673 -1.35152 2.26883
    endloop
  endfacet
  facet normal -2.17778e-016 0.19509 0.980785
    outer loop
      vertex 44.4568 -1.45866 2.29015
      vertex 42.0292 0 2
      vertex 39.9377 -0.703867 2.14001
    endloop
  endfacet
  facet normal -2.17778e-016 0.19509 0.980785
    outer loop
      vertex 19.0296 -1.78601 2.35526
      vertex 13.9348 -1.83745 2.36549
      vertex 54 -1.91342 2.3806
    endloop
  endfacet
  facet normal -2.17778e-016 0.19509 0.980785
    outer loop
      vertex 9.62533 -1.26819 2.25226
      vertex 8.83732 -1.88385 2.37472
      vertex 13.9348 -1.83745 2.36549
    endloop
  endfacet
  facet normal -2.17778e-016 0.19509 0.980785
    outer loop
      vertex 13.9348 -1.83745 2.36549
      vertex 8.83732 -1.88385 2.37472
      vertex 54 -1.91342 2.3806
    endloop
  endfacet
  facet normal -2.17778e-016 0.19509 0.980785
    outer loop
      vertex 3.61039 0 2
      vertex 4.55673 -1.35152 2.26883
      vertex 7.36549 0 2
    endloop
  endfacet
  facet normal -2.17778e-016 0.19509 0.980785
    outer loop
      vertex 43.9708 0 2
      vertex 44.9719 -0.601492 2.11964
      vertex 46.935 0 2
    endloop
  endfacet
  facet normal -2.17778e-016 0.19509 0.980785
    outer loop
      vertex 49.065 0 2
      vertex 50.0006 -0.497469 2.09895
      vertex 54 0 2
    endloop
  endfacet
  facet normal -2.17778e-016 0.19509 0.980785
    outer loop
      vertex 49.5312 -1.38042 2.27458
      vertex 46.935 0 2
      vertex 44.9719 -0.601492 2.11964
    endloop
  endfacet
  facet normal -2.17778e-016 0.19509 0.980785
    outer loop
      vertex 34.8982 -0.804312 2.15999
      vertex 34.2964 -1.60295 2.31885
      vertex 39.3785 -1.5329 2.30491
    endloop
  endfacet
  facet normal -2.17778e-016 0.19509 0.980785
    outer loop
      vertex 44.9719 -0.601492 2.11964
      vertex 44.4568 -1.45866 2.29015
      vertex 49.5312 -1.38042 2.27458
    endloop
  endfacet
  facet normal 0 0 1
    outer loop
      vertex -46.6762 2.03597 7
      vertex -47.6724 1.94881 7
      vertex -47.3238 -2.03597 7
    endloop
  endfacet
  facet normal 0 0 1
    outer loop
      vertex -46.3276 -1.94881 7
      vertex -46.6762 2.03597 7
      vertex -47.3238 -2.03597 7
    endloop
  endfacet
  facet normal 0.469472 0.882948 0
    outer loop
      vertex 46.4688 1.38042 2.27458
      vertex 46.4688 1.38042 7
      vertex 49.065 0 2
    endloop
  endfacet
  facet normal 0.469472 0.882948 0
    outer loop
      vertex 49.065 0 2
      vertex 46.4688 1.38042 7
      vertex 50.0006 -0.497469 7
    endloop
  endfacet
  facet normal 0.469472 0.882948 0
    outer loop
      vertex 49.065 0 2
      vertex 50.0006 -0.497469 7
      vertex 50.0006 -0.497469 2.09895
    endloop
  endfacet
  facet normal -0.882948 0.469472 0
    outer loop
      vertex 45.9994 0.497469 2.09895
      vertex 45.9994 0.497469 7
      vertex 46.4688 1.38042 2.27458
    endloop
  endfacet
  facet normal -0.882948 0.469472 0
    outer loop
      vertex 46.4688 1.38042 2.27458
      vertex 45.9994 0.497469 7
      vertex 46.4688 1.38042 7
    endloop
  endfacet
  facet normal -0.469472 -0.882948 0
    outer loop
      vertex 45.9994 0.497469 7
      vertex 45.9994 0.497469 2.09895
      vertex 46.935 0 2
    endloop
  endfacet
  facet normal -0.469472 -0.882948 0
    outer loop
      vertex 49.5312 -1.38042 7
      vertex 45.9994 0.497469 7
      vertex 49.5312 -1.38042 2.27458
    endloop
  endfacet
  facet normal -0.469472 -0.882948 0
    outer loop
      vertex 49.5312 -1.38042 2.27458
      vertex 45.9994 0.497469 7
      vertex 46.935 0 2
    endloop
  endfacet
  facet normal 0.515038 0.857167 0
    outer loop
      vertex 41.5432 1.45866 2.29015
      vertex 41.5432 1.45866 7
      vertex 43.9708 0 2
    endloop
  endfacet
  facet normal 0.515038 0.857167 0
    outer loop
      vertex 43.9708 0 2
      vertex 41.5432 1.45866 7
      vertex 44.9719 -0.601492 7
    endloop
  endfacet
  facet normal 0.515038 0.857167 0
    outer loop
      vertex 43.9708 0 2
      vertex 44.9719 -0.601492 7
      vertex 44.9719 -0.601492 2.11964
    endloop
  endfacet
  facet normal -0.857167 0.515038 0
    outer loop
      vertex 41.0281 0.601492 2.11964
      vertex 41.0281 0.601492 7
      vertex 41.5432 1.45866 2.29015
    endloop
  endfacet
  facet normal -0.857167 0.515038 0
    outer loop
      vertex 41.5432 1.45866 2.29015
      vertex 41.0281 0.601492 7
      vertex 41.5432 1.45866 7
    endloop
  endfacet
  facet normal -0.515038 -0.857167 0
    outer loop
      vertex 41.0281 0.601492 7
      vertex 41.0281 0.601492 2.11964
      vertex 42.0292 0 2
    endloop
  endfacet
  facet normal -0.515038 -0.857167 0
    outer loop
      vertex 44.4568 -1.45866 7
      vertex 41.0281 0.601492 7
      vertex 44.4568 -1.45866 2.29015
    endloop
  endfacet
  facet normal -0.515038 -0.857167 0
    outer loop
      vertex 44.4568 -1.45866 2.29015
      vertex 41.0281 0.601492 7
      vertex 42.0292 0 2
    endloop
  endfacet
  facet normal 0.559193 0.829038 0
    outer loop
      vertex 36.6215 1.5329 2.30491
      vertex 36.6215 1.5329 7
      vertex 38.8941 0 2
    endloop
  endfacet
  facet normal 0.559193 0.829038 0
    outer loop
      vertex 38.8941 0 2
      vertex 36.6215 1.5329 7
      vertex 39.9377 -0.703867 7
    endloop
  endfacet
  facet normal 0.559193 0.829038 0
    outer loop
      vertex 38.8941 0 2
      vertex 39.9377 -0.703867 7
      vertex 39.9377 -0.703867 2.14001
    endloop
  endfacet
  facet normal -0.829038 0.559193 0
    outer loop
      vertex 36.0623 0.703867 2.14001
      vertex 36.0623 0.703867 7
      vertex 36.6215 1.5329 2.30491
    endloop
  endfacet
  facet normal -0.829038 0.559193 0
    outer loop
      vertex 36.6215 1.5329 2.30491
      vertex 36.0623 0.703867 7
      vertex 36.6215 1.5329 7
    endloop
  endfacet
  facet normal -0.559193 -0.829038 0
    outer loop
      vertex 36.0623 0.703867 7
      vertex 36.0623 0.703867 2.14001
      vertex 37.1059 0 2
    endloop
  endfacet
  facet normal -0.559193 -0.829038 0
    outer loop
      vertex 39.3785 -1.5329 7
      vertex 36.0623 0.703867 7
      vertex 39.3785 -1.5329 2.30491
    endloop
  endfacet
  facet normal -0.559193 -0.829038 0
    outer loop
      vertex 39.3785 -1.5329 2.30491
      vertex 36.0623 0.703867 7
      vertex 37.1059 0 2
    endloop
  endfacet
  facet normal 0.601815 0.798636 0
    outer loop
      vertex 31.7036 1.60295 2.31885
      vertex 31.7036 1.60295 7
      vertex 33.8308 0 2
    endloop
  endfacet
  facet normal 0.601815 0.798636 0
    outer loop
      vertex 33.8308 0 2
      vertex 31.7036 1.60295 7
      vertex 34.8982 -0.804312 7
    endloop
  endfacet
  facet normal 0.601815 0.798636 0
    outer loop
      vertex 33.8308 0 2
      vertex 34.8982 -0.804312 7
      vertex 34.8982 -0.804312 2.15999
    endloop
  endfacet
  facet normal -0.798636 0.601815 0
    outer loop
      vertex 31.1018 0.804312 2.15999
      vertex 31.1018 0.804312 7
      vertex 31.7036 1.60295 2.31885
    endloop
  endfacet
  facet normal -0.798636 0.601815 0
    outer loop
      vertex 31.7036 1.60295 2.31885
      vertex 31.1018 0.804312 7
      vertex 31.7036 1.60295 7
    endloop
  endfacet
  facet normal -0.601815 -0.798636 0
    outer loop
      vertex 31.1018 0.804312 7
      vertex 31.1018 0.804312 2.15999
      vertex 32.1692 0 2
    endloop
  endfacet
  facet normal -0.601815 -0.798636 0
    outer loop
      vertex 34.2964 -1.60295 7
      vertex 31.1018 0.804312 7
      vertex 34.2964 -1.60295 2.31885
    endloop
  endfacet
  facet normal -0.601815 -0.798636 0
    outer loop
      vertex 34.2964 -1.60295 2.31885
      vertex 31.1018 0.804312 7
      vertex 32.1692 0 2
    endloop
  endfacet
  facet normal 0.642788 0.766044 0
    outer loop
      vertex 26.7893 1.6686 2.3319
      vertex 26.7893 1.6686 7
      vertex 28.7779 0 2
    endloop
  endfacet
  facet normal 0.642788 0.766044 0
    outer loop
      vertex 28.7779 0 2
      vertex 26.7893 1.6686 7
      vertex 29.8535 -0.902553 7
    endloop
  endfacet
  facet normal 0.642788 0.766044 0
    outer loop
      vertex 28.7779 0 2
      vertex 29.8535 -0.902553 7
      vertex 29.8535 -0.902553 2.17953
    endloop
  endfacet
  facet normal -0.766044 0.642788 0
    outer loop
      vertex 26.1465 0.902553 2.17953
      vertex 26.1465 0.902553 7
      vertex 26.7893 1.6686 2.3319
    endloop
  endfacet
  facet normal -0.766044 0.642788 0
    outer loop
      vertex 26.7893 1.6686 2.3319
      vertex 26.1465 0.902553 7
      vertex 26.7893 1.6686 7
    endloop
  endfacet
  facet normal -0.642788 -0.766044 0
    outer loop
      vertex 26.1465 0.902553 7
      vertex 26.1465 0.902553 2.17953
      vertex 27.2221 0 2
    endloop
  endfacet
  facet normal -0.642788 -0.766044 0
    outer loop
      vertex 29.2107 -1.6686 7
      vertex 26.1465 0.902553 7
      vertex 29.2107 -1.6686 2.3319
    endloop
  endfacet
  facet normal -0.642788 -0.766044 0
    outer loop
      vertex 29.2107 -1.6686 2.3319
      vertex 26.1465 0.902553 7
      vertex 27.2221 0 2
    endloop
  endfacet
  facet normal 0.681998 0.731354 0
    outer loop
      vertex 21.8783 1.72967 2.34405
      vertex 21.8783 1.72967 7
      vertex 23.7331 0 2
    endloop
  endfacet
  facet normal 0.681998 0.731354 0
    outer loop
      vertex 23.7331 0 2
      vertex 21.8783 1.72967 7
      vertex 24.8037 -0.99832 7
    endloop
  endfacet
  facet normal 0.681998 0.731354 0
    outer loop
      vertex 23.7331 0 2
      vertex 24.8037 -0.99832 7
      vertex 24.8037 -0.99832 2.19858
    endloop
  endfacet
  facet normal -0.731354 0.681998 0
    outer loop
      vertex 21.1963 0.99832 2.19858
      vertex 21.1963 0.99832 7
      vertex 21.8783 1.72967 2.34405
    endloop
  endfacet
  facet normal -0.731354 0.681998 0
    outer loop
      vertex 21.8783 1.72967 2.34405
      vertex 21.1963 0.99832 7
      vertex 21.8783 1.72967 7
    endloop
  endfacet
  facet normal -0.681998 -0.731354 0
    outer loop
      vertex 21.1963 0.99832 7
      vertex 21.1963 0.99832 2.19858
      vertex 22.2669 0 2
    endloop
  endfacet
  facet normal -0.681998 -0.731354 0
    outer loop
      vertex 24.1217 -1.72967 7
      vertex 21.1963 0.99832 7
      vertex 24.1217 -1.72967 2.34405
    endloop
  endfacet
  facet normal -0.681998 -0.731354 0
    outer loop
      vertex 24.1217 -1.72967 2.34405
      vertex 21.1963 0.99832 7
      vertex 22.2669 0 2
    endloop
  endfacet
  facet normal 0.71934 0.694658 0
    outer loop
      vertex 18.6951 0 2
      vertex 16.9704 1.78601 2.35526
      vertex 16.9704 1.78601 7
    endloop
  endfacet
  facet normal 0.71934 0.694658 0
    outer loop
      vertex 19.749 -1.09135 2.21708
      vertex 18.6951 0 2
      vertex 19.749 -1.09135 7
    endloop
  endfacet
  facet normal 0.71934 0.694658 0
    outer loop
      vertex 19.749 -1.09135 7
      vertex 18.6951 0 2
      vertex 16.9704 1.78601 7
    endloop
  endfacet
  facet normal -0.694658 0.71934 0
    outer loop
      vertex 16.251 1.09135 2.21708
      vertex 16.251 1.09135 7
      vertex 16.9704 1.78601 2.35526
    endloop
  endfacet
  facet normal -0.694658 0.71934 0
    outer loop
      vertex 16.9704 1.78601 2.35526
      vertex 16.251 1.09135 7
      vertex 16.9704 1.78601 7
    endloop
  endfacet
  facet normal -0.71934 -0.694658 0
    outer loop
      vertex 16.251 1.09135 2.21708
      vertex 17.3049 0 2
      vertex 16.251 1.09135 7
    endloop
  endfacet
  facet normal -0.71934 -0.694658 0
    outer loop
      vertex 16.251 1.09135 7
      vertex 17.3049 0 2
      vertex 19.0296 -1.78601 2.35526
    endloop
  endfacet
  facet normal -0.71934 -0.694658 0
    outer loop
      vertex 16.251 1.09135 7
      vertex 19.0296 -1.78601 2.35526
      vertex 19.0296 -1.78601 7
    endloop
  endfacet
  facet normal 0.75471 0.656059 0
    outer loop
      vertex 13.6625 0 2
      vertex 12.0652 1.83745 2.36549
      vertex 12.0652 1.83745 7
    endloop
  endfacet
  facet normal 0.75471 0.656059 0
    outer loop
      vertex 14.6895 -1.18139 2.23499
      vertex 13.6625 0 2
      vertex 14.6895 -1.18139 7
    endloop
  endfacet
  facet normal 0.75471 0.656059 0
    outer loop
      vertex 14.6895 -1.18139 7
      vertex 13.6625 0 2
      vertex 12.0652 1.83745 7
    endloop
  endfacet
  facet normal -0.656059 0.75471 0
    outer loop
      vertex 11.3105 1.18139 2.23499
      vertex 11.3105 1.18139 7
      vertex 12.0652 1.83745 2.36549
    endloop
  endfacet
  facet normal -0.656059 0.75471 0
    outer loop
      vertex 12.0652 1.83745 2.36549
      vertex 11.3105 1.18139 7
      vertex 12.0652 1.83745 7
    endloop
  endfacet
  facet normal -0.75471 -0.656059 0
    outer loop
      vertex 11.3105 1.18139 2.23499
      vertex 12.3375 0 2
      vertex 11.3105 1.18139 7
    endloop
  endfacet
  facet normal -0.75471 -0.656059 0
    outer loop
      vertex 11.3105 1.18139 7
      vertex 12.3375 0 2
      vertex 13.9348 -1.83745 2.36549
    endloop
  endfacet
  facet normal -0.75471 -0.656059 0
    outer loop
      vertex 11.3105 1.18139 7
      vertex 13.9348 -1.83745 2.36549
      vertex 13.9348 -1.83745 7
    endloop
  endfacet
  facet normal 0.788011 0.615661 0
    outer loop
      vertex 8.63451 0 2
      vertex 7.16268 1.88385 2.37472
      vertex 7.16268 1.88385 7
    endloop
  endfacet
  facet normal 0.788011 0.615661 0
    outer loop
      vertex 9.62533 -1.26819 2.25226
      vertex 8.63451 0 2
      vertex 9.62533 -1.26819 7
    endloop
  endfacet
  facet normal 0.788011 0.615661 0
    outer loop
      vertex 9.62533 -1.26819 7
      vertex 8.63451 0 2
      vertex 7.16268 1.88385 7
    endloop
  endfacet
  facet normal -0.615661 0.788011 0
    outer loop
      vertex 6.37467 1.26819 2.25226
      vertex 6.37467 1.26819 7
      vertex 7.16268 1.88385 2.37472
    endloop
  endfacet
  facet normal -0.615661 0.788011 0
    outer loop
      vertex 7.16268 1.88385 2.37472
      vertex 6.37467 1.26819 7
      vertex 7.16268 1.88385 7
    endloop
  endfacet
  facet normal -0.788011 -0.615661 0
    outer loop
      vertex 6.37467 1.26819 2.25226
      vertex 7.36549 0 2
      vertex 6.37467 1.26819 7
    endloop
  endfacet
  facet normal -0.788011 -0.615661 0
    outer loop
      vertex 6.37467 1.26819 7
      vertex 7.36549 0 2
      vertex 8.83732 -1.88385 2.37472
    endloop
  endfacet
  facet normal -0.788011 -0.615661 0
    outer loop
      vertex 6.37467 1.26819 7
      vertex 8.83732 -1.88385 2.37472
      vertex 8.83732 -1.88385 7
    endloop
  endfacet
  facet normal 0 0 1
    outer loop
      vertex 2.26242 1.92509 7
      vertex 1.44327 1.35152 7
      vertex 3.73758 -1.92509 7
    endloop
  endfacet
  facet normal 0 0 1
    outer loop
      vertex 4.55673 -1.35152 7
      vertex 2.26242 1.92509 7
      vertex 3.73758 -1.92509 7
    endloop
  endfacet
  facet normal 0 0 1
    outer loop
      vertex -2.63581 1.96106 7
      vertex -3.48386 1.43114 7
      vertex -1.36419 -1.96106 7
    endloop
  endfacet
  facet normal 0 0 1
    outer loop
      vertex -0.516137 -1.43114 7
      vertex -2.63581 1.96106 7
      vertex -1.36419 -1.96106 7
    endloop
  endfacet
  facet normal 0 0 1
    outer loop
      vertex -7.53231 1.99164 7
      vertex -8.40693 1.50683 7
      vertex -6.46769 -1.99164 7
    endloop
  endfacet
  facet normal 0 0 1
    outer loop
      vertex -5.59307 -1.50683 7
      vertex -7.53231 1.99164 7
      vertex -6.46769 -1.99164 7
    endloop
  endfacet
  facet normal 0 0 1
    outer loop
      vertex -12.4273 2.01677 7
      vertex -13.3261 1.5784 7
      vertex -11.5727 -2.01677 7
    endloop
  endfacet
  facet normal 0 0 1
    outer loop
      vertex -10.6739 -1.5784 7
      vertex -12.4273 2.01677 7
      vertex -11.5727 -2.01677 7
    endloop
  endfacet
  facet normal 0 0 1
    outer loop
      vertex -17.3212 2.03638 7
      vertex -18.2417 1.64564 7
      vertex -16.6788 -2.03638 7
    endloop
  endfacet
  facet normal 0 0 1
    outer loop
      vertex -15.7583 -1.64564 7
      vertex -17.3212 2.03638 7
      vertex -16.6788 -2.03638 7
    endloop
  endfacet
  facet normal 0 0 1
    outer loop
      vertex -22.2142 2.0504 7
      vertex -23.1539 1.70838 7
      vertex -21.7858 -2.0504 7
    endloop
  endfacet
  facet normal 0 0 1
    outer loop
      vertex -20.8461 -1.70838 7
      vertex -22.2142 2.0504 7
      vertex -21.7858 -2.0504 7
    endloop
  endfacet
  facet normal 0 0 1
    outer loop
      vertex -27.1066 2.0588 7
      vertex -28.0629 1.76642 7
      vertex -26.8934 -2.0588 7
    endloop
  endfacet
  facet normal 0 0 1
    outer loop
      vertex -25.9371 -1.76642 7
      vertex -27.1066 2.0588 7
      vertex -26.8934 -2.0588 7
    endloop
  endfacet
  facet normal 0 0 1
    outer loop
      vertex -31.9987 2.06155 7
      vertex -32.969 1.81963 7
      vertex -32.0013 -2.06155 7
    endloop
  endfacet
  facet normal 0 0 1
    outer loop
      vertex -31.031 -1.81963 7
      vertex -31.9987 2.06155 7
      vertex -32.0013 -2.06155 7
    endloop
  endfacet
  facet normal 0 0 1
    outer loop
      vertex -36.8908 2.05866 7
      vertex -37.8724 1.86785 7
      vertex -37.1092 -2.05866 7
    endloop
  endfacet
  facet normal 0 0 1
    outer loop
      vertex -36.1276 -1.86785 7
      vertex -36.8908 2.05866 7
      vertex -37.1092 -2.05866 7
    endloop
  endfacet
  facet normal 0 0 1
    outer loop
      vertex -41.7832 2.05012 7
      vertex -42.7735 1.91095 7
      vertex -42.2168 -2.05012 7
    endloop
  endfacet
  facet normal 0 0 1
    outer loop
      vertex -41.2265 -1.91095 7
      vertex -41.7832 2.05012 7
      vertex -42.2168 -2.05012 7
    endloop
  endfacet
  facet normal 0.615661 -0.788011 0
    outer loop
      vertex 8.83732 -1.88385 7
      vertex 8.83732 -1.88385 2.37472
      vertex 9.62533 -1.26819 2.25226
    endloop
  endfacet
  facet normal 0.615661 -0.788011 0
    outer loop
      vertex 9.62533 -1.26819 7
      vertex 8.83732 -1.88385 7
      vertex 9.62533 -1.26819 2.25226
    endloop
  endfacet
  facet normal 0.656059 -0.75471 0
    outer loop
      vertex 13.9348 -1.83745 7
      vertex 13.9348 -1.83745 2.36549
      vertex 14.6895 -1.18139 2.23499
    endloop
  endfacet
  facet normal 0.656059 -0.75471 0
    outer loop
      vertex 14.6895 -1.18139 7
      vertex 13.9348 -1.83745 7
      vertex 14.6895 -1.18139 2.23499
    endloop
  endfacet
  facet normal 0.694658 -0.71934 0
    outer loop
      vertex 19.0296 -1.78601 7
      vertex 19.0296 -1.78601 2.35526
      vertex 19.749 -1.09135 2.21708
    endloop
  endfacet
  facet normal 0.694658 -0.71934 0
    outer loop
      vertex 19.749 -1.09135 7
      vertex 19.0296 -1.78601 7
      vertex 19.749 -1.09135 2.21708
    endloop
  endfacet
  facet normal 0.731354 -0.681998 0
    outer loop
      vertex 24.1217 -1.72967 7
      vertex 24.1217 -1.72967 2.34405
      vertex 24.8037 -0.99832 2.19858
    endloop
  endfacet
  facet normal 0.731354 -0.681998 0
    outer loop
      vertex 24.8037 -0.99832 7
      vertex 24.1217 -1.72967 7
      vertex 24.8037 -0.99832 2.19858
    endloop
  endfacet
  facet normal 0.766044 -0.642788 0
    outer loop
      vertex 29.2107 -1.6686 7
      vertex 29.2107 -1.6686 2.3319
      vertex 29.8535 -0.902553 2.17953
    endloop
  endfacet
  facet normal 0.766044 -0.642788 0
    outer loop
      vertex 29.8535 -0.902553 7
      vertex 29.2107 -1.6686 7
      vertex 29.8535 -0.902553 2.17953
    endloop
  endfacet
  facet normal 0.798636 -0.601815 0
    outer loop
      vertex 34.2964 -1.60295 7
      vertex 34.2964 -1.60295 2.31885
      vertex 34.8982 -0.804312 2.15999
    endloop
  endfacet
  facet normal 0.798636 -0.601815 0
    outer loop
      vertex 34.8982 -0.804312 7
      vertex 34.2964 -1.60295 7
      vertex 34.8982 -0.804312 2.15999
    endloop
  endfacet
  facet normal 0.829038 -0.559193 0
    outer loop
      vertex 39.3785 -1.5329 7
      vertex 39.3785 -1.5329 2.30491
      vertex 39.9377 -0.703867 2.14001
    endloop
  endfacet
  facet normal 0.829038 -0.559193 0
    outer loop
      vertex 39.9377 -0.703867 7
      vertex 39.3785 -1.5329 7
      vertex 39.9377 -0.703867 2.14001
    endloop
  endfacet
  facet normal 0.857167 -0.515038 0
    outer loop
      vertex 44.4568 -1.45866 7
      vertex 44.4568 -1.45866 2.29015
      vertex 44.9719 -0.601492 2.11964
    endloop
  endfacet
  facet normal 0.857167 -0.515038 0
    outer loop
      vertex 44.9719 -0.601492 7
      vertex 44.4568 -1.45866 7
      vertex 44.9719 -0.601492 2.11964
    endloop
  endfacet
  facet normal 0.882948 -0.469472 0
    outer loop
      vertex 49.5312 -1.38042 7
      vertex 49.5312 -1.38042 2.27458
      vertex 50.0006 -0.497469 2.09895
    endloop
  endfacet
  facet normal 0.882948 -0.469472 0
    outer loop
      vertex 50.0006 -0.497469 7
      vertex 49.5312 -1.38042 7
      vertex 50.0006 -0.497469 2.09895
    endloop
  endfacet
  facet normal 0 0 1
    outer loop
      vertex 46.4688 1.38042 7
      vertex 45.9994 0.497469 7
      vertex 49.5312 -1.38042 7
    endloop
  endfacet
  facet normal 0 0 1
    outer loop
      vertex 50.0006 -0.497469 7
      vertex 46.4688 1.38042 7
      vertex 49.5312 -1.38042 7
    endloop
  endfacet
  facet normal 0 0 1
    outer loop
      vertex 41.5432 1.45866 7
      vertex 41.0281 0.601492 7
      vertex 44.4568 -1.45866 7
    endloop
  endfacet
  facet normal 0 0 1
    outer loop
      vertex 44.9719 -0.601492 7
      vertex 41.5432 1.45866 7
      vertex 44.4568 -1.45866 7
    endloop
  endfacet
  facet normal 0 0 1
    outer loop
      vertex 36.6215 1.5329 7
      vertex 36.0623 0.703867 7
      vertex 39.3785 -1.5329 7
    endloop
  endfacet
  facet normal 0 0 1
    outer loop
      vertex 39.9377 -0.703867 7
      vertex 36.6215 1.5329 7
      vertex 39.3785 -1.5329 7
    endloop
  endfacet
  facet normal 0 0 1
    outer loop
      vertex 31.7036 1.60295 7
      vertex 31.1018 0.804312 7
      vertex 34.2964 -1.60295 7
    endloop
  endfacet
  facet normal 0 0 1
    outer loop
      vertex 34.8982 -0.804312 7
      vertex 31.7036 1.60295 7
      vertex 34.2964 -1.60295 7
    endloop
  endfacet
  facet normal 0 0 1
    outer loop
      vertex 26.7893 1.6686 7
      vertex 26.1465 0.902553 7
      vertex 29.2107 -1.6686 7
    endloop
  endfacet
  facet normal 0 0 1
    outer loop
      vertex 29.8535 -0.902553 7
      vertex 26.7893 1.6686 7
      vertex 29.2107 -1.6686 7
    endloop
  endfacet
  facet normal 0 0 1
    outer loop
      vertex 21.8783 1.72967 7
      vertex 21.1963 0.99832 7
      vertex 24.1217 -1.72967 7
    endloop
  endfacet
  facet normal 0 0 1
    outer loop
      vertex 24.8037 -0.99832 7
      vertex 21.8783 1.72967 7
      vertex 24.1217 -1.72967 7
    endloop
  endfacet
  facet normal 0 0 1
    outer loop
      vertex 16.9704 1.78601 7
      vertex 16.251 1.09135 7
      vertex 19.0296 -1.78601 7
    endloop
  endfacet
  facet normal 0 0 1
    outer loop
      vertex 19.749 -1.09135 7
      vertex 16.9704 1.78601 7
      vertex 19.0296 -1.78601 7
    endloop
  endfacet
  facet normal 0 0 1
    outer loop
      vertex 12.0652 1.83745 7
      vertex 11.3105 1.18139 7
      vertex 13.9348 -1.83745 7
    endloop
  endfacet
  facet normal 0 0 1
    outer loop
      vertex 14.6895 -1.18139 7
      vertex 12.0652 1.83745 7
      vertex 13.9348 -1.83745 7
    endloop
  endfacet
  facet normal 0 0 1
    outer loop
      vertex 7.16268 1.88385 7
      vertex 6.37467 1.26819 7
      vertex 8.83732 -1.88385 7
    endloop
  endfacet
  facet normal 0 0 1
    outer loop
      vertex 9.62533 -1.26819 7
      vertex 7.16268 1.88385 7
      vertex 8.83732 -1.88385 7
    endloop
  endfacet
endsolid OpenSCAD_Model
