999
Inkscape export via "Better DXF Output" (bob@bobcookdev.com)
  0
SECTION
  2
HEADER
  9
$ACADVER
  1
AC1014
  9
$HANDSEED
  5
FFFF
  0
ENDSEC
  0
SECTION
  2
TABLES
  0
TABLE
  2
VPORT
  5
8
330
0
100
AcDbSymbolTable
 70
     4
  0
VPORT
  5
2E
330
8
100
AcDbSymbolTableRecord
100
AcDbViewportTableRecord
  2
*ACTIVE
 70
     0
 10
0.0
 20
0.0
 11
1.0
 21
1.0
 12
4.25
 22
5.5
 13
0.0
 23
0.0
 14
10.0
 24
10.0
 15
10.0
 25
10.0
 16
0.0
 26
0.0
 36
1.0
 17
0.0
 27
0.0
 37
0.0
 40
11
 41
1.24
 42
50.0
 43
0.0
 44
0.0
 50
0.0
 51
0.0
 71
     0
 72
   100
 73
     1
 74
     3
 75
     0
 76
     0
 77
     0
 78
     0
  0
ENDTAB
  0
TABLE
  2
LTYPE
  5
5
330
0
100
AcDbSymbolTable
 70
     1
  0
LTYPE
  5
14
330
5
100
AcDbSymbolTableRecord
100
AcDbLinetypeTableRecord
  2
BYBLOCK
 70
     0
  3

 72
    65
 73
     0
 40
0.0
  0
LTYPE
  5
15
330
5
100
AcDbSymbolTableRecord
100
AcDbLinetypeTableRecord
  2
BYLAYER
 70
     0
  3

 72
    65
 73
     0
 40
0.0
  0
LTYPE
  5
16
330
5
100
AcDbSymbolTableRecord
100
AcDbLinetypeTableRecord
  2
CONTINUOUS
 70
     0
  3
Solid line
 72
    65
 73
     0
 40
0.0
  0
ENDTAB
  0
TABLE
  2
LAYER
  5
2
330
0
100
AcDbSymbolTable
 70
1
  0
LAYER
  5
10
330
2
100
AcDbSymbolTableRecord
100
AcDbLayerTableRecord
  2
0
 70
     0
 62
     7
  6
CONTINUOUS
  0
ENDTAB
  0
TABLE
  2
STYLE
  5
3
330
0
100
AcDbSymbolTable
 70
     1
  0
STYLE
  5
11
330
3
100
AcDbSymbolTableRecord
100
AcDbTextStyleTableRecord
  2
STANDARD
 70
     0
 40
0.0
 41
1.0
 50
0.0
 71
     0
 42
2.5
  3
txt
  4

  0
ENDTAB
  0
TABLE
  2
VIEW
  5
6
330
0
100
AcDbSymbolTable
 70
     0
  0
ENDTAB
  0
TABLE
  2
UCS
  5
7
330
0
100
AcDbSymbolTable
 70
     0
  0
ENDTAB
  0
TABLE
  2
APPID
  5
9
330
0
100
AcDbSymbolTable
 70
     2
  0
APPID
  5
12
330
9
100
AcDbSymbolTableRecord
100
AcDbRegAppTableRecord
  2
ACAD
 70
     0
  0
ENDTAB
  0
TABLE
  2
DIMSTYLE
  5
A
330
0
100
AcDbSymbolTable
 70
     1
  0
DIMSTYLE
105
27
330
A
100
AcDbSymbolTableRecord
100
AcDbDimStyleTableRecord
  2
ISO-25
 70
     0
  3

  4

  5

  6

  7

 40
1.0
 41
2.5
 42
0.625
 43
3.75
 44
1.25
 45
0.0
 46
0.0
 47
0.0
 48
0.0
140
2.5
141
2.5
142
0.0
143
0.03937007874016
144
1.0
145
0.0
146
1.0
147
0.625
 71
     0
 72
     0
 73
     0
 74
     0
 75
     0
 76
     0
 77
     1
 78
     8
170
     0
171
     3
172
     1
173
     0
174
     0
175
     0
176
     0
177
     0
178
     0
270
     2
271
     2
272
     2
273
     2
274
     3
340
11
275
     0
280
     0
281
     0
282
     0
283
     0
284
     8
285
     0
286
     0
287
     3
288
     0
  0
ENDTAB
  0
TABLE
  2
BLOCK_RECORD
  5
1
330
0
100
AcDbSymbolTable
 70
     1
  0
BLOCK_RECORD
  5
1F
330
1
100
AcDbSymbolTableRecord
100
AcDbBlockTableRecord
  2
*MODEL_SPACE
  0
BLOCK_RECORD
  5
1B
330
1
100
AcDbSymbolTableRecord
100
AcDbBlockTableRecord
  2
*PAPER_SPACE
  0
ENDTAB
  0
ENDSEC
  0
SECTION
  2
BLOCKS
  0
BLOCK
  5
20
330
1F
100
AcDbEntity
  8
0
100
AcDbBlockBegin
  2
*MODEL_SPACE
 70
     0
 10
0.0
 20
0.0
 30
0.0
  3
*MODEL_SPACE
  1

  0
ENDBLK
  5
21
330
1F
100
AcDbEntity
  8
0
100
AcDbBlockEnd
  0
BLOCK
  5
1C
330
1B
100
AcDbEntity
 67
     1
  8
0
100
AcDbBlockBegin
  2
*PAPER_SPACE
  1

  0
ENDBLK
  5
1D
330
1B
100
AcDbEntity
 67
     1
  8
0
100
AcDbBlockEnd
  0
ENDSEC
  0
SECTION
  2
ENTITIES
0
LINE
8
Layer 1
62
4
5
100
100
AcDbEntity
100
AcDbLine
10
0.846667
20
297.846667
30
0.0
11
-0.846667
21
296.153333
31
0.0
0
LINE
8
Layer 1
62
4
5
101
100
AcDbEntity
100
AcDbLine
10
0.000000
20
298.411111
30
0.0
11
0.000000
21
295.588889
31
0.0
0
LINE
8
Layer 1
62
4
5
102
100
AcDbEntity
100
AcDbLine
10
2.257778
20
295.871111
30
0.0
11
1.128889
21
294.742222
31
0.0
0
LINE
8
Layer 1
62
4
5
103
100
AcDbEntity
100
AcDbLine
10
1.693333
20
296.435556
30
0.0
11
0.564444
21
295.306667
31
0.0
0
LINE
8
Layer 1
62
4
5
104
100
AcDbEntity
100
AcDbLine
10
1.128889
20
297.000000
30
0.0
11
0.000000
21
295.871111
31
0.0
0
LINE
8
Layer_1
62
4
5
105
100
AcDbEntity
100
AcDbLine
10
2.427364
20
125.408695
30
0.0
11
-27.312446
21
102.429365
31
0.0
0
LINE
8
Layer_1
62
4
5
106
100
AcDbEntity
100
AcDbLine
10
-27.312446
20
102.429365
30
0.0
11
-16.525556
21
84.714305
31
0.0
0
LINE
8
Layer_1
62
4
5
107
100
AcDbEntity
100
AcDbLine
10
-16.525556
20
84.714305
30
0.0
11
-14.953046
21
67.305055
31
0.0
0
LINE
8
Layer_1
62
4
5
108
100
AcDbEntity
100
AcDbLine
10
-14.953046
20
67.305055
30
0.0
11
-14.953046
21
44.609705
31
0.0
0
LINE
8
Layer_1
62
4
5
109
100
AcDbEntity
100
AcDbLine
10
-14.953046
20
44.609705
30
0.0
11
-14.953046
21
21.914306
31
0.0
0
LINE
8
Layer_1
62
4
5
10a
100
AcDbEntity
100
AcDbLine
10
-14.953046
20
21.914306
30
0.0
11
-14.953046
21
-0.759205
31
0.0
0
LINE
8
Layer_1
62
4
5
10b
100
AcDbEntity
100
AcDbLine
10
-14.953046
20
-0.759205
30
0.0
11
-14.953046
21
-23.454584
31
0.0
0
LINE
8
Layer_1
62
4
5
10c
100
AcDbEntity
100
AcDbLine
10
-14.953046
20
-23.454584
30
0.0
11
-25.988226
21
-23.454584
31
0.0
0
LINE
8
Layer_1
62
4
5
10d
100
AcDbEntity
100
AcDbLine
10
-25.988226
20
-23.454584
30
0.0
11
-36.995817
21
-23.454584
31
0.0
0
LINE
8
Layer_1
62
4
5
10e
100
AcDbEntity
100
AcDbLine
10
-36.995817
20
-23.454584
30
0.0
11
-48.003406
21
-23.454584
31
0.0
0
LINE
8
Layer_1
62
4
5
10f
100
AcDbEntity
100
AcDbLine
10
-48.003406
20
-23.454584
30
0.0
11
-53.989994
21
-23.454584
31
0.0
0
LINE
8
Layer_1
62
4
5
110
100
AcDbEntity
100
AcDbLine
10
-53.989996
20
-23.454595
30
0.0
11
-82.902166
21
-5.892395
31
0.0
0
LINE
8
Layer_1
62
4
5
111
100
AcDbEntity
100
AcDbLine
10
-82.902166
20
-5.892395
30
0.0
11
-112.669570
21
-28.871795
31
0.0
0
LINE
8
Layer_1
62
4
5
112
100
AcDbEntity
100
AcDbLine
10
-112.669570
20
-28.871795
30
0.0
11
-82.902166
21
-51.829295
31
0.0
0
LINE
8
Layer_1
62
4
5
113
100
AcDbEntity
100
AcDbLine
10
-82.902166
20
-51.829295
30
0.0
11
-53.272706
21
-30.793995
31
0.0
0
LINE
8
Layer_1
62
4
5
114
100
AcDbEntity
100
AcDbLine
10
-53.272707
20
-30.793999
30
0.0
11
-48.003406
21
-30.793999
31
0.0
0
LINE
8
Layer_1
62
4
5
115
100
AcDbEntity
100
AcDbLine
10
-48.003406
20
-30.793999
30
0.0
11
-36.995817
21
-30.793999
31
0.0
0
LINE
8
Layer_1
62
4
5
116
100
AcDbEntity
100
AcDbLine
10
-36.995817
20
-30.793999
30
0.0
11
-25.988226
21
-30.793999
31
0.0
0
LINE
8
Layer_1
62
4
5
117
100
AcDbEntity
100
AcDbLine
10
-25.988226
20
-30.793999
30
0.0
11
-14.953046
21
-30.793999
31
0.0
0
LINE
8
Layer_1
62
4
5
118
100
AcDbEntity
100
AcDbLine
10
-14.953046
20
-30.793999
30
0.0
11
-14.953046
21
-37.521782
31
0.0
0
LINE
8
Layer_1
62
4
5
119
100
AcDbEntity
100
AcDbLine
10
-14.953046
20
-37.521782
30
0.0
11
-14.953046
21
-44.227692
31
0.0
0
LINE
8
Layer_1
62
4
5
11a
100
AcDbEntity
100
AcDbLine
10
-14.953046
20
-44.227692
30
0.0
11
-14.953046
21
-50.955503
31
0.0
0
LINE
8
Layer_1
62
4
5
11b
100
AcDbEntity
100
AcDbLine
10
-14.953046
20
-50.955503
30
0.0
11
-16.635906
21
-72.121803
31
0.0
0
LINE
8
Layer_1
62
4
5
11c
100
AcDbEntity
100
AcDbLine
10
-16.635906
20
-72.121803
30
0.0
11
-30.236767
21
-91.409603
31
0.0
0
LINE
8
Layer_1
62
4
5
11d
100
AcDbEntity
100
AcDbLine
10
-30.236766
20
-91.409595
30
0.0
11
-0.496956
21
-114.388995
31
0.0
0
LINE
8
Layer_1
62
4
5
11e
100
AcDbEntity
100
AcDbLine
10
-0.496956
20
-114.388995
30
0.0
11
29.242854
21
-91.409595
31
0.0
0
LINE
8
Layer_1
62
4
5
11f
100
AcDbEntity
100
AcDbLine
10
29.242853
20
-91.409603
30
0.0
11
8.717424
21
-69.566196
31
0.0
0
LINE
8
Layer_1
62
4
5
120
100
AcDbEntity
100
AcDbLine
10
8.717424
20
-69.566196
30
0.0
11
5.710334
21
-56.110602
31
0.0
0
LINE
8
Layer_1
62
4
5
121
100
AcDbEntity
100
AcDbLine
10
5.710334
20
-56.110602
30
0.0
11
2.896364
21
-46.149992
31
0.0
0
LINE
8
Layer_1
62
4
5
122
100
AcDbEntity
100
AcDbLine
10
2.896364
20
-46.149992
30
0.0
11
5.958624
21
-36.975682
31
0.0
0
LINE
8
Layer_1
62
4
5
123
100
AcDbEntity
100
AcDbLine
10
5.958624
20
-36.975682
30
0.0
11
12.414204
21
-28.937287
31
0.0
0
LINE
8
Layer_1
62
4
5
124
100
AcDbEntity
100
AcDbLine
10
12.414204
20
-28.937287
30
0.0
11
19.366364
21
-29.024296
31
0.0
0
LINE
8
Layer_1
62
4
5
125
100
AcDbEntity
100
AcDbLine
10
19.366364
20
-29.024692
30
0.0
11
24.442554
21
-0.890297
31
0.0
0
LINE
8
Layer_1
62
4
5
126
100
AcDbEntity
100
AcDbLine
10
24.442554
20
-0.890297
30
0.0
11
35.394965
21
17.611105
31
0.0
0
LINE
8
Layer_1
62
4
5
127
100
AcDbEntity
100
AcDbLine
10
35.394965
20
17.611105
30
0.0
11
48.775123
21
33.775304
31
0.0
0
LINE
8
Layer_1
62
4
5
128
100
AcDbEntity
100
AcDbLine
10
48.775123
20
33.775304
30
0.0
11
60.224122
21
45.330506
31
0.0
0
LINE
8
Layer_1
62
4
5
129
100
AcDbEntity
100
AcDbLine
10
60.224124
20
45.330505
30
0.0
11
73.880164
21
51.250105
31
0.0
0
LINE
8
Layer_1
62
4
5
12a
100
AcDbEntity
100
AcDbLine
10
73.880164
20
51.250105
30
0.0
11
73.824964
21
52.713615
31
0.0
0
LINE
8
Layer_1
62
4
5
12b
100
AcDbEntity
100
AcDbLine
10
73.824984
20
52.713615
30
0.0
11
98.516204
21
42.578205
31
0.0
0
LINE
8
Layer_1
62
4
5
12c
100
AcDbEntity
100
AcDbLine
10
98.516204
20
42.578205
30
0.0
11
128.256010
21
65.557575
31
0.0
0
LINE
8
Layer_1
62
4
5
12d
100
AcDbEntity
100
AcDbLine
10
128.256010
20
65.557575
30
0.0
11
98.516204
21
88.515065
31
0.0
0
LINE
8
Layer_1
62
4
5
12e
100
AcDbEntity
100
AcDbLine
10
98.516204
20
88.515065
30
0.0
11
71.700714
21
75.518205
31
0.0
0
LINE
8
Layer_1
62
4
5
12f
100
AcDbEntity
100
AcDbLine
10
71.700714
20
75.518205
30
0.0
11
42.705774
21
65.950765
31
0.0
0
LINE
8
Layer_1
62
4
5
130
100
AcDbEntity
100
AcDbLine
10
42.705774
20
65.950765
30
0.0
11
33.463814
21
61.101505
31
0.0
0
LINE
8
Layer_1
62
4
5
131
100
AcDbEntity
100
AcDbLine
10
33.463814
20
61.101505
30
0.0
11
27.118584
21
54.701375
31
0.0
0
LINE
8
Layer_1
62
4
5
132
100
AcDbEntity
100
AcDbLine
10
27.118584
20
54.701375
30
0.0
11
19.338784
21
51.774305
31
0.0
0
LINE
8
Layer_1
62
4
5
133
100
AcDbEntity
100
AcDbLine
10
19.338784
20
51.774305
30
0.0
11
13.738424
21
55.378515
31
0.0
0
LINE
8
Layer_1
62
4
5
134
100
AcDbEntity
100
AcDbLine
10
13.738424
20
55.378515
30
0.0
11
10.455464
21
59.790905
31
0.0
0
LINE
8
Layer_1
62
4
5
135
100
AcDbEntity
100
AcDbLine
10
10.455464
20
59.790905
30
0.0
11
10.179584
21
80.236395
31
0.0
0
LINE
8
Layer_1
62
4
5
136
100
AcDbEntity
100
AcDbLine
10
10.179584
20
80.236395
30
0.0
11
32.194764
21
102.429365
31
0.0
0
LINE
8
Layer_1
62
4
5
137
100
AcDbEntity
100
AcDbLine
10
32.194764
20
102.429365
30
0.0
11
2.427364
21
125.408695
31
0.0
  0
ENDSEC
  0
SECTION
  2
OBJECTS
  0
DICTIONARY
  5
C
330
0
100
AcDbDictionary
  3
ACAD_GROUP
350
D
  3
ACAD_MLINESTYLE
350
17
  0
DICTIONARY
  5
D
330
C
100
AcDbDictionary
  0
DICTIONARY
  5
1A
330
C
100
AcDbDictionary
  0
DICTIONARY
  5
17
330
C
100
AcDbDictionary
  3
STANDARD
350
18
  0
DICTIONARY
  5
19
330
C
100
AcDbDictionary
  0
ENDSEC
  0
EOF
