solid OpenSCAD_Model
  facet normal -1 0 0
    outer loop
      vertex -73 -73 0
      vertex -73 -73 6
      vertex -73 -67 0
    endloop
  endfacet
  facet normal -1 0 0
    outer loop
      vertex -73 -67 0
      vertex -73 -73 6
      vertex -73 -67 6
    endloop
  endfacet
  facet normal 0 -1 0
    outer loop
      vertex -73 -73 6
      vertex -73 -73 0
      vertex -67 -73 0
    endloop
  endfacet
  facet normal 0 -1 0
    outer loop
      vertex -67 -73 6
      vertex -73 -73 6
      vertex -67 -73 0
    endloop
  endfacet
  facet normal 0 0 -1
    outer loop
      vertex -73 -73 0
      vertex -73 -67 0
      vertex -67 -73 0
    endloop
  endfacet
  facet normal 0 0 -1
    outer loop
      vertex -67 -73 0
      vertex -73 -67 0
      vertex -67 -67 0
    endloop
  endfacet
  facet normal 0 1 0
    outer loop
      vertex -73 -67 0
      vertex -73 -67 6
      vertex -67 -67 0
    endloop
  endfacet
  facet normal 0 1 0
    outer loop
      vertex -67 -67 0
      vertex -73 -67 6
      vertex -67 -67 6
    endloop
  endfacet
  facet normal 0 0 1
    outer loop
      vertex -73 -67 6
      vertex -73 -73 6
      vertex -67 -73 6
    endloop
  endfacet
  facet normal 0 0 1
    outer loop
      vertex -67 -67 6
      vertex -73 -67 6
      vertex -67 -73 6
    endloop
  endfacet
  facet normal 1 0 0
    outer loop
      vertex -67 -73 6
      vertex -67 -73 0
      vertex -67 -67 0
    endloop
  endfacet
  facet normal 1 0 0
    outer loop
      vertex -67 -67 6
      vertex -67 -73 6
      vertex -67 -67 0
    endloop
  endfacet
  facet normal -1 0 0
    outer loop
      vertex -64 -73 0
      vertex -64 -73 6
      vertex -64 -67 0
    endloop
  endfacet
  facet normal -1 0 0
    outer loop
      vertex -64 -67 0
      vertex -64 -73 6
      vertex -64 -67 6
    endloop
  endfacet
  facet normal 0 -1 0
    outer loop
      vertex -64 -73 6
      vertex -64 -73 0
      vertex -58 -73 0
    endloop
  endfacet
  facet normal 0 -1 0
    outer loop
      vertex -58 -73 6
      vertex -64 -73 6
      vertex -58 -73 0
    endloop
  endfacet
  facet normal 0 0 -1
    outer loop
      vertex -64 -73 0
      vertex -64 -67 0
      vertex -58 -73 0
    endloop
  endfacet
  facet normal 0 0 -1
    outer loop
      vertex -58 -73 0
      vertex -64 -67 0
      vertex -58 -67 0
    endloop
  endfacet
  facet normal 0 1 0
    outer loop
      vertex -64 -67 0
      vertex -64 -67 6
      vertex -58 -67 0
    endloop
  endfacet
  facet normal 0 1 0
    outer loop
      vertex -58 -67 0
      vertex -64 -67 6
      vertex -58 -67 6
    endloop
  endfacet
  facet normal 0 0 1
    outer loop
      vertex -64 -67 6
      vertex -64 -73 6
      vertex -58 -73 6
    endloop
  endfacet
  facet normal 0 0 1
    outer loop
      vertex -58 -67 6
      vertex -64 -67 6
      vertex -58 -73 6
    endloop
  endfacet
  facet normal 1 0 0
    outer loop
      vertex -58 -73 6
      vertex -58 -73 0
      vertex -58 -67 0
    endloop
  endfacet
  facet normal 1 0 0
    outer loop
      vertex -58 -67 6
      vertex -58 -73 6
      vertex -58 -67 0
    endloop
  endfacet
  facet normal -1 0 0
    outer loop
      vertex -55 -73 0
      vertex -55 -73 6
      vertex -55 -67 0
    endloop
  endfacet
  facet normal -1 0 0
    outer loop
      vertex -55 -67 0
      vertex -55 -73 6
      vertex -55 -67 6
    endloop
  endfacet
  facet normal 0 -1 0
    outer loop
      vertex -55 -73 6
      vertex -55 -73 0
      vertex -49 -73 0
    endloop
  endfacet
  facet normal 0 -1 0
    outer loop
      vertex -49 -73 6
      vertex -55 -73 6
      vertex -49 -73 0
    endloop
  endfacet
  facet normal 0 0 -1
    outer loop
      vertex -55 -73 0
      vertex -55 -67 0
      vertex -49 -73 0
    endloop
  endfacet
  facet normal 0 0 -1
    outer loop
      vertex -49 -73 0
      vertex -55 -67 0
      vertex -49 -67 0
    endloop
  endfacet
  facet normal 0 1 0
    outer loop
      vertex -55 -67 0
      vertex -55 -67 6
      vertex -49 -67 0
    endloop
  endfacet
  facet normal 0 1 0
    outer loop
      vertex -49 -67 0
      vertex -55 -67 6
      vertex -49 -67 6
    endloop
  endfacet
  facet normal 0 0 1
    outer loop
      vertex -55 -67 6
      vertex -55 -73 6
      vertex -49 -73 6
    endloop
  endfacet
  facet normal 0 0 1
    outer loop
      vertex -49 -67 6
      vertex -55 -67 6
      vertex -49 -73 6
    endloop
  endfacet
  facet normal 1 0 0
    outer loop
      vertex -49 -73 6
      vertex -49 -73 0
      vertex -49 -67 0
    endloop
  endfacet
  facet normal 1 0 0
    outer loop
      vertex -49 -67 6
      vertex -49 -73 6
      vertex -49 -67 0
    endloop
  endfacet
  facet normal -1 0 0
    outer loop
      vertex -46 -73 0
      vertex -46 -73 6
      vertex -46 -67 0
    endloop
  endfacet
  facet normal -1 0 0
    outer loop
      vertex -46 -67 0
      vertex -46 -73 6
      vertex -46 -67 6
    endloop
  endfacet
  facet normal 0 -1 0
    outer loop
      vertex -46 -73 6
      vertex -46 -73 0
      vertex -40 -73 0
    endloop
  endfacet
  facet normal 0 -1 0
    outer loop
      vertex -40 -73 6
      vertex -46 -73 6
      vertex -40 -73 0
    endloop
  endfacet
  facet normal 0 0 -1
    outer loop
      vertex -46 -73 0
      vertex -46 -67 0
      vertex -40 -73 0
    endloop
  endfacet
  facet normal 0 0 -1
    outer loop
      vertex -40 -73 0
      vertex -46 -67 0
      vertex -40 -67 0
    endloop
  endfacet
  facet normal 0 1 0
    outer loop
      vertex -46 -67 0
      vertex -46 -67 6
      vertex -40 -67 0
    endloop
  endfacet
  facet normal 0 1 0
    outer loop
      vertex -40 -67 0
      vertex -46 -67 6
      vertex -40 -67 6
    endloop
  endfacet
  facet normal 0 0 1
    outer loop
      vertex -46 -67 6
      vertex -46 -73 6
      vertex -40 -73 6
    endloop
  endfacet
  facet normal 0 0 1
    outer loop
      vertex -40 -67 6
      vertex -46 -67 6
      vertex -40 -73 6
    endloop
  endfacet
  facet normal 1 0 0
    outer loop
      vertex -40 -73 6
      vertex -40 -73 0
      vertex -40 -67 0
    endloop
  endfacet
  facet normal 1 0 0
    outer loop
      vertex -40 -67 6
      vertex -40 -73 6
      vertex -40 -67 0
    endloop
  endfacet
  facet normal -1 0 0
    outer loop
      vertex -37 -73 0
      vertex -37 -73 6
      vertex -37 -67 0
    endloop
  endfacet
  facet normal -1 0 0
    outer loop
      vertex -37 -67 0
      vertex -37 -73 6
      vertex -37 -67 6
    endloop
  endfacet
  facet normal 0 -1 0
    outer loop
      vertex -37 -73 6
      vertex -37 -73 0
      vertex -31 -73 0
    endloop
  endfacet
  facet normal 0 -1 0
    outer loop
      vertex -31 -73 6
      vertex -37 -73 6
      vertex -31 -73 0
    endloop
  endfacet
  facet normal 0 0 -1
    outer loop
      vertex -37 -73 0
      vertex -37 -67 0
      vertex -31 -73 0
    endloop
  endfacet
  facet normal 0 0 -1
    outer loop
      vertex -31 -73 0
      vertex -37 -67 0
      vertex -31 -67 0
    endloop
  endfacet
  facet normal 0 1 0
    outer loop
      vertex -37 -67 0
      vertex -37 -67 6
      vertex -31 -67 0
    endloop
  endfacet
  facet normal 0 1 0
    outer loop
      vertex -31 -67 0
      vertex -37 -67 6
      vertex -31 -67 6
    endloop
  endfacet
  facet normal 0 0 1
    outer loop
      vertex -37 -67 6
      vertex -37 -73 6
      vertex -31 -73 6
    endloop
  endfacet
  facet normal 0 0 1
    outer loop
      vertex -31 -67 6
      vertex -37 -67 6
      vertex -31 -73 6
    endloop
  endfacet
  facet normal 1 0 0
    outer loop
      vertex -31 -73 6
      vertex -31 -73 0
      vertex -31 -67 0
    endloop
  endfacet
  facet normal 1 0 0
    outer loop
      vertex -31 -67 6
      vertex -31 -73 6
      vertex -31 -67 0
    endloop
  endfacet
  facet normal -1 0 0
    outer loop
      vertex -28 -73 0
      vertex -28 -73 6
      vertex -28 -67 0
    endloop
  endfacet
  facet normal -1 0 0
    outer loop
      vertex -28 -67 0
      vertex -28 -73 6
      vertex -28 -67 6
    endloop
  endfacet
  facet normal 0 -1 0
    outer loop
      vertex -28 -73 6
      vertex -28 -73 0
      vertex -22 -73 0
    endloop
  endfacet
  facet normal 0 -1 0
    outer loop
      vertex -22 -73 6
      vertex -28 -73 6
      vertex -22 -73 0
    endloop
  endfacet
  facet normal 0 0 -1
    outer loop
      vertex -28 -73 0
      vertex -28 -67 0
      vertex -22 -73 0
    endloop
  endfacet
  facet normal 0 0 -1
    outer loop
      vertex -22 -73 0
      vertex -28 -67 0
      vertex -22 -67 0
    endloop
  endfacet
  facet normal 0 1 0
    outer loop
      vertex -28 -67 0
      vertex -28 -67 6
      vertex -22 -67 0
    endloop
  endfacet
  facet normal 0 1 0
    outer loop
      vertex -22 -67 0
      vertex -28 -67 6
      vertex -22 -67 6
    endloop
  endfacet
  facet normal 0 0 1
    outer loop
      vertex -28 -67 6
      vertex -28 -73 6
      vertex -22 -73 6
    endloop
  endfacet
  facet normal 0 0 1
    outer loop
      vertex -22 -67 6
      vertex -28 -67 6
      vertex -22 -73 6
    endloop
  endfacet
  facet normal 1 0 0
    outer loop
      vertex -22 -73 6
      vertex -22 -73 0
      vertex -22 -67 0
    endloop
  endfacet
  facet normal 1 0 0
    outer loop
      vertex -22 -67 6
      vertex -22 -73 6
      vertex -22 -67 0
    endloop
  endfacet
  facet normal -1 0 0
    outer loop
      vertex -19 -73 0
      vertex -19 -73 6
      vertex -19 -67 0
    endloop
  endfacet
  facet normal -1 0 0
    outer loop
      vertex -19 -67 0
      vertex -19 -73 6
      vertex -19 -67 6
    endloop
  endfacet
  facet normal 0 -1 0
    outer loop
      vertex -19 -73 6
      vertex -19 -73 0
      vertex -13 -73 0
    endloop
  endfacet
  facet normal 0 -1 0
    outer loop
      vertex -13 -73 6
      vertex -19 -73 6
      vertex -13 -73 0
    endloop
  endfacet
  facet normal 0 0 -1
    outer loop
      vertex -19 -73 0
      vertex -19 -67 0
      vertex -13 -73 0
    endloop
  endfacet
  facet normal 0 0 -1
    outer loop
      vertex -13 -73 0
      vertex -19 -67 0
      vertex -13 -67 0
    endloop
  endfacet
  facet normal 0 1 0
    outer loop
      vertex -19 -67 0
      vertex -19 -67 6
      vertex -13 -67 0
    endloop
  endfacet
  facet normal 0 1 0
    outer loop
      vertex -13 -67 0
      vertex -19 -67 6
      vertex -13 -67 6
    endloop
  endfacet
  facet normal 0 0 1
    outer loop
      vertex -19 -67 6
      vertex -19 -73 6
      vertex -13 -73 6
    endloop
  endfacet
  facet normal 0 0 1
    outer loop
      vertex -13 -67 6
      vertex -19 -67 6
      vertex -13 -73 6
    endloop
  endfacet
  facet normal 1 0 0
    outer loop
      vertex -13 -73 6
      vertex -13 -73 0
      vertex -13 -67 0
    endloop
  endfacet
  facet normal 1 0 0
    outer loop
      vertex -13 -67 6
      vertex -13 -73 6
      vertex -13 -67 0
    endloop
  endfacet
  facet normal -1 0 0
    outer loop
      vertex -10 -73 0
      vertex -10 -73 6
      vertex -10 -67 0
    endloop
  endfacet
  facet normal -1 0 0
    outer loop
      vertex -10 -67 0
      vertex -10 -73 6
      vertex -10 -67 6
    endloop
  endfacet
  facet normal 0 -1 0
    outer loop
      vertex -10 -73 6
      vertex -10 -73 0
      vertex -4 -73 0
    endloop
  endfacet
  facet normal 0 -1 0
    outer loop
      vertex -4 -73 6
      vertex -10 -73 6
      vertex -4 -73 0
    endloop
  endfacet
  facet normal 0 0 -1
    outer loop
      vertex -10 -73 0
      vertex -10 -67 0
      vertex -4 -73 0
    endloop
  endfacet
  facet normal 0 0 -1
    outer loop
      vertex -4 -73 0
      vertex -10 -67 0
      vertex -4 -67 0
    endloop
  endfacet
  facet normal 0 1 0
    outer loop
      vertex -10 -67 0
      vertex -10 -67 6
      vertex -4 -67 0
    endloop
  endfacet
  facet normal 0 1 0
    outer loop
      vertex -4 -67 0
      vertex -10 -67 6
      vertex -4 -67 6
    endloop
  endfacet
  facet normal 0 0 1
    outer loop
      vertex -10 -67 6
      vertex -10 -73 6
      vertex -4 -73 6
    endloop
  endfacet
  facet normal 0 0 1
    outer loop
      vertex -4 -67 6
      vertex -10 -67 6
      vertex -4 -73 6
    endloop
  endfacet
  facet normal 1 0 0
    outer loop
      vertex -4 -73 6
      vertex -4 -73 0
      vertex -4 -67 0
    endloop
  endfacet
  facet normal 1 0 0
    outer loop
      vertex -4 -67 6
      vertex -4 -73 6
      vertex -4 -67 0
    endloop
  endfacet
  facet normal -1 0 0
    outer loop
      vertex -73 -64 0
      vertex -73 -64 6
      vertex -73 -58 0
    endloop
  endfacet
  facet normal -1 0 0
    outer loop
      vertex -73 -58 0
      vertex -73 -64 6
      vertex -73 -58 6
    endloop
  endfacet
  facet normal 0 -1 0
    outer loop
      vertex -73 -64 6
      vertex -73 -64 0
      vertex -67 -64 0
    endloop
  endfacet
  facet normal 0 -1 0
    outer loop
      vertex -67 -64 6
      vertex -73 -64 6
      vertex -67 -64 0
    endloop
  endfacet
  facet normal 0 0 -1
    outer loop
      vertex -73 -64 0
      vertex -73 -58 0
      vertex -67 -64 0
    endloop
  endfacet
  facet normal 0 0 -1
    outer loop
      vertex -67 -64 0
      vertex -73 -58 0
      vertex -67 -58 0
    endloop
  endfacet
  facet normal 0 1 0
    outer loop
      vertex -73 -58 0
      vertex -73 -58 6
      vertex -67 -58 0
    endloop
  endfacet
  facet normal 0 1 0
    outer loop
      vertex -67 -58 0
      vertex -73 -58 6
      vertex -67 -58 6
    endloop
  endfacet
  facet normal 0 0 1
    outer loop
      vertex -73 -58 6
      vertex -73 -64 6
      vertex -67 -64 6
    endloop
  endfacet
  facet normal 0 0 1
    outer loop
      vertex -67 -58 6
      vertex -73 -58 6
      vertex -67 -64 6
    endloop
  endfacet
  facet normal 1 0 0
    outer loop
      vertex -67 -64 6
      vertex -67 -64 0
      vertex -67 -58 0
    endloop
  endfacet
  facet normal 1 0 0
    outer loop
      vertex -67 -58 6
      vertex -67 -64 6
      vertex -67 -58 0
    endloop
  endfacet
  facet normal -1 0 0
    outer loop
      vertex -64 -64 0
      vertex -64 -64 6
      vertex -64 -58 0
    endloop
  endfacet
  facet normal -1 0 0
    outer loop
      vertex -64 -58 0
      vertex -64 -64 6
      vertex -64 -58 6
    endloop
  endfacet
  facet normal 0 -1 0
    outer loop
      vertex -64 -64 6
      vertex -64 -64 0
      vertex -58 -64 0
    endloop
  endfacet
  facet normal 0 -1 0
    outer loop
      vertex -58 -64 6
      vertex -64 -64 6
      vertex -58 -64 0
    endloop
  endfacet
  facet normal 0 0 -1
    outer loop
      vertex -64 -64 0
      vertex -64 -58 0
      vertex -58 -64 0
    endloop
  endfacet
  facet normal 0 0 -1
    outer loop
      vertex -58 -64 0
      vertex -64 -58 0
      vertex -58 -58 0
    endloop
  endfacet
  facet normal 0 1 0
    outer loop
      vertex -64 -58 0
      vertex -64 -58 6
      vertex -58 -58 0
    endloop
  endfacet
  facet normal 0 1 0
    outer loop
      vertex -58 -58 0
      vertex -64 -58 6
      vertex -58 -58 6
    endloop
  endfacet
  facet normal 0 0 1
    outer loop
      vertex -64 -58 6
      vertex -64 -64 6
      vertex -58 -64 6
    endloop
  endfacet
  facet normal 0 0 1
    outer loop
      vertex -58 -58 6
      vertex -64 -58 6
      vertex -58 -64 6
    endloop
  endfacet
  facet normal 1 0 0
    outer loop
      vertex -58 -64 6
      vertex -58 -64 0
      vertex -58 -58 0
    endloop
  endfacet
  facet normal 1 0 0
    outer loop
      vertex -58 -58 6
      vertex -58 -64 6
      vertex -58 -58 0
    endloop
  endfacet
  facet normal -1 0 0
    outer loop
      vertex -55 -64 0
      vertex -55 -64 6
      vertex -55 -58 0
    endloop
  endfacet
  facet normal -1 0 0
    outer loop
      vertex -55 -58 0
      vertex -55 -64 6
      vertex -55 -58 6
    endloop
  endfacet
  facet normal 0 -1 0
    outer loop
      vertex -55 -64 6
      vertex -55 -64 0
      vertex -49 -64 0
    endloop
  endfacet
  facet normal 0 -1 0
    outer loop
      vertex -49 -64 6
      vertex -55 -64 6
      vertex -49 -64 0
    endloop
  endfacet
  facet normal 0 0 -1
    outer loop
      vertex -55 -64 0
      vertex -55 -58 0
      vertex -49 -64 0
    endloop
  endfacet
  facet normal 0 0 -1
    outer loop
      vertex -49 -64 0
      vertex -55 -58 0
      vertex -49 -58 0
    endloop
  endfacet
  facet normal 0 1 0
    outer loop
      vertex -55 -58 0
      vertex -55 -58 6
      vertex -49 -58 0
    endloop
  endfacet
  facet normal 0 1 0
    outer loop
      vertex -49 -58 0
      vertex -55 -58 6
      vertex -49 -58 6
    endloop
  endfacet
  facet normal 0 0 1
    outer loop
      vertex -55 -58 6
      vertex -55 -64 6
      vertex -49 -64 6
    endloop
  endfacet
  facet normal 0 0 1
    outer loop
      vertex -49 -58 6
      vertex -55 -58 6
      vertex -49 -64 6
    endloop
  endfacet
  facet normal 1 0 0
    outer loop
      vertex -49 -64 6
      vertex -49 -64 0
      vertex -49 -58 0
    endloop
  endfacet
  facet normal 1 0 0
    outer loop
      vertex -49 -58 6
      vertex -49 -64 6
      vertex -49 -58 0
    endloop
  endfacet
  facet normal -1 0 0
    outer loop
      vertex -46 -64 0
      vertex -46 -64 6
      vertex -46 -58 0
    endloop
  endfacet
  facet normal -1 0 0
    outer loop
      vertex -46 -58 0
      vertex -46 -64 6
      vertex -46 -58 6
    endloop
  endfacet
  facet normal 0 -1 0
    outer loop
      vertex -46 -64 6
      vertex -46 -64 0
      vertex -40 -64 0
    endloop
  endfacet
  facet normal 0 -1 0
    outer loop
      vertex -40 -64 6
      vertex -46 -64 6
      vertex -40 -64 0
    endloop
  endfacet
  facet normal 0 0 -1
    outer loop
      vertex -46 -64 0
      vertex -46 -58 0
      vertex -40 -64 0
    endloop
  endfacet
  facet normal 0 0 -1
    outer loop
      vertex -40 -64 0
      vertex -46 -58 0
      vertex -40 -58 0
    endloop
  endfacet
  facet normal 0 1 0
    outer loop
      vertex -46 -58 0
      vertex -46 -58 6
      vertex -40 -58 0
    endloop
  endfacet
  facet normal 0 1 0
    outer loop
      vertex -40 -58 0
      vertex -46 -58 6
      vertex -40 -58 6
    endloop
  endfacet
  facet normal 0 0 1
    outer loop
      vertex -46 -58 6
      vertex -46 -64 6
      vertex -40 -64 6
    endloop
  endfacet
  facet normal 0 0 1
    outer loop
      vertex -40 -58 6
      vertex -46 -58 6
      vertex -40 -64 6
    endloop
  endfacet
  facet normal 1 0 0
    outer loop
      vertex -40 -64 6
      vertex -40 -64 0
      vertex -40 -58 0
    endloop
  endfacet
  facet normal 1 0 0
    outer loop
      vertex -40 -58 6
      vertex -40 -64 6
      vertex -40 -58 0
    endloop
  endfacet
  facet normal -1 0 0
    outer loop
      vertex -37 -64 0
      vertex -37 -64 6
      vertex -37 -58 0
    endloop
  endfacet
  facet normal -1 0 0
    outer loop
      vertex -37 -58 0
      vertex -37 -64 6
      vertex -37 -58 6
    endloop
  endfacet
  facet normal 0 -1 0
    outer loop
      vertex -37 -64 6
      vertex -37 -64 0
      vertex -31 -64 0
    endloop
  endfacet
  facet normal 0 -1 0
    outer loop
      vertex -31 -64 6
      vertex -37 -64 6
      vertex -31 -64 0
    endloop
  endfacet
  facet normal 0 0 -1
    outer loop
      vertex -37 -64 0
      vertex -37 -58 0
      vertex -31 -64 0
    endloop
  endfacet
  facet normal 0 0 -1
    outer loop
      vertex -31 -64 0
      vertex -37 -58 0
      vertex -31 -58 0
    endloop
  endfacet
  facet normal 0 1 0
    outer loop
      vertex -37 -58 0
      vertex -37 -58 6
      vertex -31 -58 0
    endloop
  endfacet
  facet normal 0 1 0
    outer loop
      vertex -31 -58 0
      vertex -37 -58 6
      vertex -31 -58 6
    endloop
  endfacet
  facet normal 0 0 1
    outer loop
      vertex -37 -58 6
      vertex -37 -64 6
      vertex -31 -64 6
    endloop
  endfacet
  facet normal 0 0 1
    outer loop
      vertex -31 -58 6
      vertex -37 -58 6
      vertex -31 -64 6
    endloop
  endfacet
  facet normal 1 0 0
    outer loop
      vertex -31 -64 6
      vertex -31 -64 0
      vertex -31 -58 0
    endloop
  endfacet
  facet normal 1 0 0
    outer loop
      vertex -31 -58 6
      vertex -31 -64 6
      vertex -31 -58 0
    endloop
  endfacet
  facet normal -1 0 0
    outer loop
      vertex -28 -64 0
      vertex -28 -64 6
      vertex -28 -58 0
    endloop
  endfacet
  facet normal -1 0 0
    outer loop
      vertex -28 -58 0
      vertex -28 -64 6
      vertex -28 -58 6
    endloop
  endfacet
  facet normal 0 -1 0
    outer loop
      vertex -28 -64 6
      vertex -28 -64 0
      vertex -22 -64 0
    endloop
  endfacet
  facet normal 0 -1 0
    outer loop
      vertex -22 -64 6
      vertex -28 -64 6
      vertex -22 -64 0
    endloop
  endfacet
  facet normal 0 0 -1
    outer loop
      vertex -28 -64 0
      vertex -28 -58 0
      vertex -22 -64 0
    endloop
  endfacet
  facet normal 0 0 -1
    outer loop
      vertex -22 -64 0
      vertex -28 -58 0
      vertex -22 -58 0
    endloop
  endfacet
  facet normal 0 1 0
    outer loop
      vertex -28 -58 0
      vertex -28 -58 6
      vertex -22 -58 0
    endloop
  endfacet
  facet normal 0 1 0
    outer loop
      vertex -22 -58 0
      vertex -28 -58 6
      vertex -22 -58 6
    endloop
  endfacet
  facet normal 0 0 1
    outer loop
      vertex -28 -58 6
      vertex -28 -64 6
      vertex -22 -64 6
    endloop
  endfacet
  facet normal 0 0 1
    outer loop
      vertex -22 -58 6
      vertex -28 -58 6
      vertex -22 -64 6
    endloop
  endfacet
  facet normal 1 0 0
    outer loop
      vertex -22 -64 6
      vertex -22 -64 0
      vertex -22 -58 0
    endloop
  endfacet
  facet normal 1 0 0
    outer loop
      vertex -22 -58 6
      vertex -22 -64 6
      vertex -22 -58 0
    endloop
  endfacet
  facet normal -1 0 0
    outer loop
      vertex -19 -64 0
      vertex -19 -64 6
      vertex -19 -58 0
    endloop
  endfacet
  facet normal -1 0 0
    outer loop
      vertex -19 -58 0
      vertex -19 -64 6
      vertex -19 -58 6
    endloop
  endfacet
  facet normal 0 -1 0
    outer loop
      vertex -19 -64 6
      vertex -19 -64 0
      vertex -13 -64 0
    endloop
  endfacet
  facet normal 0 -1 0
    outer loop
      vertex -13 -64 6
      vertex -19 -64 6
      vertex -13 -64 0
    endloop
  endfacet
  facet normal 0 0 -1
    outer loop
      vertex -19 -64 0
      vertex -19 -58 0
      vertex -13 -64 0
    endloop
  endfacet
  facet normal 0 0 -1
    outer loop
      vertex -13 -64 0
      vertex -19 -58 0
      vertex -13 -58 0
    endloop
  endfacet
  facet normal 0 1 0
    outer loop
      vertex -19 -58 0
      vertex -19 -58 6
      vertex -13 -58 0
    endloop
  endfacet
  facet normal 0 1 0
    outer loop
      vertex -13 -58 0
      vertex -19 -58 6
      vertex -13 -58 6
    endloop
  endfacet
  facet normal 0 0 1
    outer loop
      vertex -19 -58 6
      vertex -19 -64 6
      vertex -13 -64 6
    endloop
  endfacet
  facet normal 0 0 1
    outer loop
      vertex -13 -58 6
      vertex -19 -58 6
      vertex -13 -64 6
    endloop
  endfacet
  facet normal 1 0 0
    outer loop
      vertex -13 -64 6
      vertex -13 -64 0
      vertex -13 -58 0
    endloop
  endfacet
  facet normal 1 0 0
    outer loop
      vertex -13 -58 6
      vertex -13 -64 6
      vertex -13 -58 0
    endloop
  endfacet
  facet normal -1 0 0
    outer loop
      vertex -10 -64 0
      vertex -10 -64 6
      vertex -10 -58 0
    endloop
  endfacet
  facet normal -1 0 0
    outer loop
      vertex -10 -58 0
      vertex -10 -64 6
      vertex -10 -58 6
    endloop
  endfacet
  facet normal 0 -1 0
    outer loop
      vertex -10 -64 6
      vertex -10 -64 0
      vertex -4 -64 0
    endloop
  endfacet
  facet normal 0 -1 0
    outer loop
      vertex -4 -64 6
      vertex -10 -64 6
      vertex -4 -64 0
    endloop
  endfacet
  facet normal 0 0 -1
    outer loop
      vertex -10 -64 0
      vertex -10 -58 0
      vertex -4 -64 0
    endloop
  endfacet
  facet normal 0 0 -1
    outer loop
      vertex -4 -64 0
      vertex -10 -58 0
      vertex -4 -58 0
    endloop
  endfacet
  facet normal 0 1 0
    outer loop
      vertex -10 -58 0
      vertex -10 -58 6
      vertex -4 -58 0
    endloop
  endfacet
  facet normal 0 1 0
    outer loop
      vertex -4 -58 0
      vertex -10 -58 6
      vertex -4 -58 6
    endloop
  endfacet
  facet normal 0 0 1
    outer loop
      vertex -10 -58 6
      vertex -10 -64 6
      vertex -4 -64 6
    endloop
  endfacet
  facet normal 0 0 1
    outer loop
      vertex -4 -58 6
      vertex -10 -58 6
      vertex -4 -64 6
    endloop
  endfacet
  facet normal 1 0 0
    outer loop
      vertex -4 -64 6
      vertex -4 -64 0
      vertex -4 -58 0
    endloop
  endfacet
  facet normal 1 0 0
    outer loop
      vertex -4 -58 6
      vertex -4 -64 6
      vertex -4 -58 0
    endloop
  endfacet
  facet normal -1 0 0
    outer loop
      vertex -73 -55 0
      vertex -73 -55 6
      vertex -73 -49 0
    endloop
  endfacet
  facet normal -1 0 0
    outer loop
      vertex -73 -49 0
      vertex -73 -55 6
      vertex -73 -49 6
    endloop
  endfacet
  facet normal 0 -1 0
    outer loop
      vertex -73 -55 6
      vertex -73 -55 0
      vertex -67 -55 0
    endloop
  endfacet
  facet normal 0 -1 0
    outer loop
      vertex -67 -55 6
      vertex -73 -55 6
      vertex -67 -55 0
    endloop
  endfacet
  facet normal 0 0 -1
    outer loop
      vertex -73 -55 0
      vertex -73 -49 0
      vertex -67 -55 0
    endloop
  endfacet
  facet normal 0 0 -1
    outer loop
      vertex -67 -55 0
      vertex -73 -49 0
      vertex -67 -49 0
    endloop
  endfacet
  facet normal 0 1 0
    outer loop
      vertex -73 -49 0
      vertex -73 -49 6
      vertex -67 -49 0
    endloop
  endfacet
  facet normal 0 1 0
    outer loop
      vertex -67 -49 0
      vertex -73 -49 6
      vertex -67 -49 6
    endloop
  endfacet
  facet normal 0 0 1
    outer loop
      vertex -73 -49 6
      vertex -73 -55 6
      vertex -67 -55 6
    endloop
  endfacet
  facet normal 0 0 1
    outer loop
      vertex -67 -49 6
      vertex -73 -49 6
      vertex -67 -55 6
    endloop
  endfacet
  facet normal 1 0 0
    outer loop
      vertex -67 -55 6
      vertex -67 -55 0
      vertex -67 -49 0
    endloop
  endfacet
  facet normal 1 0 0
    outer loop
      vertex -67 -49 6
      vertex -67 -55 6
      vertex -67 -49 0
    endloop
  endfacet
  facet normal -1 0 0
    outer loop
      vertex -64 -55 0
      vertex -64 -55 6
      vertex -64 -49 0
    endloop
  endfacet
  facet normal -1 0 0
    outer loop
      vertex -64 -49 0
      vertex -64 -55 6
      vertex -64 -49 6
    endloop
  endfacet
  facet normal 0 -1 0
    outer loop
      vertex -64 -55 6
      vertex -64 -55 0
      vertex -58 -55 0
    endloop
  endfacet
  facet normal 0 -1 0
    outer loop
      vertex -58 -55 6
      vertex -64 -55 6
      vertex -58 -55 0
    endloop
  endfacet
  facet normal 0 0 -1
    outer loop
      vertex -64 -55 0
      vertex -64 -49 0
      vertex -58 -55 0
    endloop
  endfacet
  facet normal 0 0 -1
    outer loop
      vertex -58 -55 0
      vertex -64 -49 0
      vertex -58 -49 0
    endloop
  endfacet
  facet normal 0 1 0
    outer loop
      vertex -64 -49 0
      vertex -64 -49 6
      vertex -58 -49 0
    endloop
  endfacet
  facet normal 0 1 0
    outer loop
      vertex -58 -49 0
      vertex -64 -49 6
      vertex -58 -49 6
    endloop
  endfacet
  facet normal 0 0 1
    outer loop
      vertex -64 -49 6
      vertex -64 -55 6
      vertex -58 -55 6
    endloop
  endfacet
  facet normal 0 0 1
    outer loop
      vertex -58 -49 6
      vertex -64 -49 6
      vertex -58 -55 6
    endloop
  endfacet
  facet normal 1 0 0
    outer loop
      vertex -58 -55 6
      vertex -58 -55 0
      vertex -58 -49 0
    endloop
  endfacet
  facet normal 1 0 0
    outer loop
      vertex -58 -49 6
      vertex -58 -55 6
      vertex -58 -49 0
    endloop
  endfacet
  facet normal -1 0 0
    outer loop
      vertex -55 -55 0
      vertex -55 -55 6
      vertex -55 -49 0
    endloop
  endfacet
  facet normal -1 0 0
    outer loop
      vertex -55 -49 0
      vertex -55 -55 6
      vertex -55 -49 6
    endloop
  endfacet
  facet normal 0 -1 0
    outer loop
      vertex -55 -55 6
      vertex -55 -55 0
      vertex -49 -55 0
    endloop
  endfacet
  facet normal 0 -1 0
    outer loop
      vertex -49 -55 6
      vertex -55 -55 6
      vertex -49 -55 0
    endloop
  endfacet
  facet normal 0 0 -1
    outer loop
      vertex -55 -55 0
      vertex -55 -49 0
      vertex -49 -55 0
    endloop
  endfacet
  facet normal 0 0 -1
    outer loop
      vertex -49 -55 0
      vertex -55 -49 0
      vertex -49 -49 0
    endloop
  endfacet
  facet normal 0 1 0
    outer loop
      vertex -55 -49 0
      vertex -55 -49 6
      vertex -49 -49 0
    endloop
  endfacet
  facet normal 0 1 0
    outer loop
      vertex -49 -49 0
      vertex -55 -49 6
      vertex -49 -49 6
    endloop
  endfacet
  facet normal 0 0 1
    outer loop
      vertex -55 -49 6
      vertex -55 -55 6
      vertex -49 -55 6
    endloop
  endfacet
  facet normal 0 0 1
    outer loop
      vertex -49 -49 6
      vertex -55 -49 6
      vertex -49 -55 6
    endloop
  endfacet
  facet normal 1 0 0
    outer loop
      vertex -49 -55 6
      vertex -49 -55 0
      vertex -49 -49 0
    endloop
  endfacet
  facet normal 1 0 0
    outer loop
      vertex -49 -49 6
      vertex -49 -55 6
      vertex -49 -49 0
    endloop
  endfacet
  facet normal -1 0 0
    outer loop
      vertex -46 -55 0
      vertex -46 -55 6
      vertex -46 -49 0
    endloop
  endfacet
  facet normal -1 0 0
    outer loop
      vertex -46 -49 0
      vertex -46 -55 6
      vertex -46 -49 6
    endloop
  endfacet
  facet normal 0 -1 0
    outer loop
      vertex -46 -55 6
      vertex -46 -55 0
      vertex -40 -55 0
    endloop
  endfacet
  facet normal 0 -1 0
    outer loop
      vertex -40 -55 6
      vertex -46 -55 6
      vertex -40 -55 0
    endloop
  endfacet
  facet normal 0 0 -1
    outer loop
      vertex -46 -55 0
      vertex -46 -49 0
      vertex -40 -55 0
    endloop
  endfacet
  facet normal 0 0 -1
    outer loop
      vertex -40 -55 0
      vertex -46 -49 0
      vertex -40 -49 0
    endloop
  endfacet
  facet normal 0 1 0
    outer loop
      vertex -46 -49 0
      vertex -46 -49 6
      vertex -40 -49 0
    endloop
  endfacet
  facet normal 0 1 0
    outer loop
      vertex -40 -49 0
      vertex -46 -49 6
      vertex -40 -49 6
    endloop
  endfacet
  facet normal 0 0 1
    outer loop
      vertex -46 -49 6
      vertex -46 -55 6
      vertex -40 -55 6
    endloop
  endfacet
  facet normal 0 0 1
    outer loop
      vertex -40 -49 6
      vertex -46 -49 6
      vertex -40 -55 6
    endloop
  endfacet
  facet normal 1 0 0
    outer loop
      vertex -40 -55 6
      vertex -40 -55 0
      vertex -40 -49 0
    endloop
  endfacet
  facet normal 1 0 0
    outer loop
      vertex -40 -49 6
      vertex -40 -55 6
      vertex -40 -49 0
    endloop
  endfacet
  facet normal -1 0 0
    outer loop
      vertex -37 -55 0
      vertex -37 -55 6
      vertex -37 -49 0
    endloop
  endfacet
  facet normal -1 0 0
    outer loop
      vertex -37 -49 0
      vertex -37 -55 6
      vertex -37 -49 6
    endloop
  endfacet
  facet normal 0 -1 0
    outer loop
      vertex -37 -55 6
      vertex -37 -55 0
      vertex -31 -55 0
    endloop
  endfacet
  facet normal 0 -1 0
    outer loop
      vertex -31 -55 6
      vertex -37 -55 6
      vertex -31 -55 0
    endloop
  endfacet
  facet normal 0 0 -1
    outer loop
      vertex -37 -55 0
      vertex -37 -49 0
      vertex -31 -55 0
    endloop
  endfacet
  facet normal 0 0 -1
    outer loop
      vertex -31 -55 0
      vertex -37 -49 0
      vertex -31 -49 0
    endloop
  endfacet
  facet normal 0 1 0
    outer loop
      vertex -37 -49 0
      vertex -37 -49 6
      vertex -31 -49 0
    endloop
  endfacet
  facet normal 0 1 0
    outer loop
      vertex -31 -49 0
      vertex -37 -49 6
      vertex -31 -49 6
    endloop
  endfacet
  facet normal 0 0 1
    outer loop
      vertex -37 -49 6
      vertex -37 -55 6
      vertex -31 -55 6
    endloop
  endfacet
  facet normal 0 0 1
    outer loop
      vertex -31 -49 6
      vertex -37 -49 6
      vertex -31 -55 6
    endloop
  endfacet
  facet normal 1 0 0
    outer loop
      vertex -31 -55 6
      vertex -31 -55 0
      vertex -31 -49 0
    endloop
  endfacet
  facet normal 1 0 0
    outer loop
      vertex -31 -49 6
      vertex -31 -55 6
      vertex -31 -49 0
    endloop
  endfacet
  facet normal -1 0 0
    outer loop
      vertex -28 -55 0
      vertex -28 -55 6
      vertex -28 -49 0
    endloop
  endfacet
  facet normal -1 0 0
    outer loop
      vertex -28 -49 0
      vertex -28 -55 6
      vertex -28 -49 6
    endloop
  endfacet
  facet normal 0 -1 0
    outer loop
      vertex -28 -55 6
      vertex -28 -55 0
      vertex -22 -55 0
    endloop
  endfacet
  facet normal 0 -1 0
    outer loop
      vertex -22 -55 6
      vertex -28 -55 6
      vertex -22 -55 0
    endloop
  endfacet
  facet normal 0 0 -1
    outer loop
      vertex -28 -55 0
      vertex -28 -49 0
      vertex -22 -55 0
    endloop
  endfacet
  facet normal 0 0 -1
    outer loop
      vertex -22 -55 0
      vertex -28 -49 0
      vertex -22 -49 0
    endloop
  endfacet
  facet normal 0 1 0
    outer loop
      vertex -28 -49 0
      vertex -28 -49 6
      vertex -22 -49 0
    endloop
  endfacet
  facet normal 0 1 0
    outer loop
      vertex -22 -49 0
      vertex -28 -49 6
      vertex -22 -49 6
    endloop
  endfacet
  facet normal 0 0 1
    outer loop
      vertex -28 -49 6
      vertex -28 -55 6
      vertex -22 -55 6
    endloop
  endfacet
  facet normal 0 0 1
    outer loop
      vertex -22 -49 6
      vertex -28 -49 6
      vertex -22 -55 6
    endloop
  endfacet
  facet normal 1 0 0
    outer loop
      vertex -22 -55 6
      vertex -22 -55 0
      vertex -22 -49 0
    endloop
  endfacet
  facet normal 1 0 0
    outer loop
      vertex -22 -49 6
      vertex -22 -55 6
      vertex -22 -49 0
    endloop
  endfacet
  facet normal -1 0 0
    outer loop
      vertex -19 -55 0
      vertex -19 -55 6
      vertex -19 -49 0
    endloop
  endfacet
  facet normal -1 0 0
    outer loop
      vertex -19 -49 0
      vertex -19 -55 6
      vertex -19 -49 6
    endloop
  endfacet
  facet normal 0 -1 0
    outer loop
      vertex -19 -55 6
      vertex -19 -55 0
      vertex -13 -55 0
    endloop
  endfacet
  facet normal 0 -1 0
    outer loop
      vertex -13 -55 6
      vertex -19 -55 6
      vertex -13 -55 0
    endloop
  endfacet
  facet normal 0 0 -1
    outer loop
      vertex -19 -55 0
      vertex -19 -49 0
      vertex -13 -55 0
    endloop
  endfacet
  facet normal 0 0 -1
    outer loop
      vertex -13 -55 0
      vertex -19 -49 0
      vertex -13 -49 0
    endloop
  endfacet
  facet normal 0 1 0
    outer loop
      vertex -19 -49 0
      vertex -19 -49 6
      vertex -13 -49 0
    endloop
  endfacet
  facet normal 0 1 0
    outer loop
      vertex -13 -49 0
      vertex -19 -49 6
      vertex -13 -49 6
    endloop
  endfacet
  facet normal 0 0 1
    outer loop
      vertex -19 -49 6
      vertex -19 -55 6
      vertex -13 -55 6
    endloop
  endfacet
  facet normal 0 0 1
    outer loop
      vertex -13 -49 6
      vertex -19 -49 6
      vertex -13 -55 6
    endloop
  endfacet
  facet normal 1 0 0
    outer loop
      vertex -13 -55 6
      vertex -13 -55 0
      vertex -13 -49 0
    endloop
  endfacet
  facet normal 1 0 0
    outer loop
      vertex -13 -49 6
      vertex -13 -55 6
      vertex -13 -49 0
    endloop
  endfacet
  facet normal -1 0 0
    outer loop
      vertex -10 -55 0
      vertex -10 -55 6
      vertex -10 -49 0
    endloop
  endfacet
  facet normal -1 0 0
    outer loop
      vertex -10 -49 0
      vertex -10 -55 6
      vertex -10 -49 6
    endloop
  endfacet
  facet normal 0 -1 0
    outer loop
      vertex -10 -55 6
      vertex -10 -55 0
      vertex -4 -55 0
    endloop
  endfacet
  facet normal 0 -1 0
    outer loop
      vertex -4 -55 6
      vertex -10 -55 6
      vertex -4 -55 0
    endloop
  endfacet
  facet normal 0 0 -1
    outer loop
      vertex -10 -55 0
      vertex -10 -49 0
      vertex -4 -55 0
    endloop
  endfacet
  facet normal 0 0 -1
    outer loop
      vertex -4 -55 0
      vertex -10 -49 0
      vertex -4 -49 0
    endloop
  endfacet
  facet normal 0 1 0
    outer loop
      vertex -10 -49 0
      vertex -10 -49 6
      vertex -4 -49 0
    endloop
  endfacet
  facet normal 0 1 0
    outer loop
      vertex -4 -49 0
      vertex -10 -49 6
      vertex -4 -49 6
    endloop
  endfacet
  facet normal 0 0 1
    outer loop
      vertex -10 -49 6
      vertex -10 -55 6
      vertex -4 -55 6
    endloop
  endfacet
  facet normal 0 0 1
    outer loop
      vertex -4 -49 6
      vertex -10 -49 6
      vertex -4 -55 6
    endloop
  endfacet
  facet normal 1 0 0
    outer loop
      vertex -4 -55 6
      vertex -4 -55 0
      vertex -4 -49 0
    endloop
  endfacet
  facet normal 1 0 0
    outer loop
      vertex -4 -49 6
      vertex -4 -55 6
      vertex -4 -49 0
    endloop
  endfacet
  facet normal -1 0 0
    outer loop
      vertex -73 -46 0
      vertex -73 -46 6
      vertex -73 -40 0
    endloop
  endfacet
  facet normal -1 0 0
    outer loop
      vertex -73 -40 0
      vertex -73 -46 6
      vertex -73 -40 6
    endloop
  endfacet
  facet normal 0 -1 0
    outer loop
      vertex -73 -46 6
      vertex -73 -46 0
      vertex -67 -46 0
    endloop
  endfacet
  facet normal 0 -1 0
    outer loop
      vertex -67 -46 6
      vertex -73 -46 6
      vertex -67 -46 0
    endloop
  endfacet
  facet normal 0 0 -1
    outer loop
      vertex -73 -46 0
      vertex -73 -40 0
      vertex -67 -46 0
    endloop
  endfacet
  facet normal 0 0 -1
    outer loop
      vertex -67 -46 0
      vertex -73 -40 0
      vertex -67 -40 0
    endloop
  endfacet
  facet normal 0 1 0
    outer loop
      vertex -73 -40 0
      vertex -73 -40 6
      vertex -67 -40 0
    endloop
  endfacet
  facet normal 0 1 0
    outer loop
      vertex -67 -40 0
      vertex -73 -40 6
      vertex -67 -40 6
    endloop
  endfacet
  facet normal 0 0 1
    outer loop
      vertex -73 -40 6
      vertex -73 -46 6
      vertex -67 -46 6
    endloop
  endfacet
  facet normal 0 0 1
    outer loop
      vertex -67 -40 6
      vertex -73 -40 6
      vertex -67 -46 6
    endloop
  endfacet
  facet normal 1 0 0
    outer loop
      vertex -67 -46 6
      vertex -67 -46 0
      vertex -67 -40 0
    endloop
  endfacet
  facet normal 1 0 0
    outer loop
      vertex -67 -40 6
      vertex -67 -46 6
      vertex -67 -40 0
    endloop
  endfacet
  facet normal -1 0 0
    outer loop
      vertex -64 -46 0
      vertex -64 -46 6
      vertex -64 -40 0
    endloop
  endfacet
  facet normal -1 0 0
    outer loop
      vertex -64 -40 0
      vertex -64 -46 6
      vertex -64 -40 6
    endloop
  endfacet
  facet normal 0 -1 0
    outer loop
      vertex -64 -46 6
      vertex -64 -46 0
      vertex -58 -46 0
    endloop
  endfacet
  facet normal 0 -1 0
    outer loop
      vertex -58 -46 6
      vertex -64 -46 6
      vertex -58 -46 0
    endloop
  endfacet
  facet normal 0 0 -1
    outer loop
      vertex -64 -46 0
      vertex -64 -40 0
      vertex -58 -46 0
    endloop
  endfacet
  facet normal 0 0 -1
    outer loop
      vertex -58 -46 0
      vertex -64 -40 0
      vertex -58 -40 0
    endloop
  endfacet
  facet normal 0 1 0
    outer loop
      vertex -64 -40 0
      vertex -64 -40 6
      vertex -58 -40 0
    endloop
  endfacet
  facet normal 0 1 0
    outer loop
      vertex -58 -40 0
      vertex -64 -40 6
      vertex -58 -40 6
    endloop
  endfacet
  facet normal 0 0 1
    outer loop
      vertex -64 -40 6
      vertex -64 -46 6
      vertex -58 -46 6
    endloop
  endfacet
  facet normal 0 0 1
    outer loop
      vertex -58 -40 6
      vertex -64 -40 6
      vertex -58 -46 6
    endloop
  endfacet
  facet normal 1 0 0
    outer loop
      vertex -58 -46 6
      vertex -58 -46 0
      vertex -58 -40 0
    endloop
  endfacet
  facet normal 1 0 0
    outer loop
      vertex -58 -40 6
      vertex -58 -46 6
      vertex -58 -40 0
    endloop
  endfacet
  facet normal -1 0 0
    outer loop
      vertex -55 -46 0
      vertex -55 -46 6
      vertex -55 -40 0
    endloop
  endfacet
  facet normal -1 0 0
    outer loop
      vertex -55 -40 0
      vertex -55 -46 6
      vertex -55 -40 6
    endloop
  endfacet
  facet normal 0 -1 0
    outer loop
      vertex -55 -46 6
      vertex -55 -46 0
      vertex -49 -46 0
    endloop
  endfacet
  facet normal 0 -1 0
    outer loop
      vertex -49 -46 6
      vertex -55 -46 6
      vertex -49 -46 0
    endloop
  endfacet
  facet normal 0 0 -1
    outer loop
      vertex -55 -46 0
      vertex -55 -40 0
      vertex -49 -46 0
    endloop
  endfacet
  facet normal 0 0 -1
    outer loop
      vertex -49 -46 0
      vertex -55 -40 0
      vertex -49 -40 0
    endloop
  endfacet
  facet normal 0 1 0
    outer loop
      vertex -55 -40 0
      vertex -55 -40 6
      vertex -49 -40 0
    endloop
  endfacet
  facet normal 0 1 0
    outer loop
      vertex -49 -40 0
      vertex -55 -40 6
      vertex -49 -40 6
    endloop
  endfacet
  facet normal 0 0 1
    outer loop
      vertex -55 -40 6
      vertex -55 -46 6
      vertex -49 -46 6
    endloop
  endfacet
  facet normal 0 0 1
    outer loop
      vertex -49 -40 6
      vertex -55 -40 6
      vertex -49 -46 6
    endloop
  endfacet
  facet normal 1 0 0
    outer loop
      vertex -49 -46 6
      vertex -49 -46 0
      vertex -49 -40 0
    endloop
  endfacet
  facet normal 1 0 0
    outer loop
      vertex -49 -40 6
      vertex -49 -46 6
      vertex -49 -40 0
    endloop
  endfacet
  facet normal -1 0 0
    outer loop
      vertex -46 -46 0
      vertex -46 -46 6
      vertex -46 -40 0
    endloop
  endfacet
  facet normal -1 0 0
    outer loop
      vertex -46 -40 0
      vertex -46 -46 6
      vertex -46 -40 6
    endloop
  endfacet
  facet normal 0 -1 0
    outer loop
      vertex -46 -46 6
      vertex -46 -46 0
      vertex -40 -46 0
    endloop
  endfacet
  facet normal 0 -1 0
    outer loop
      vertex -40 -46 6
      vertex -46 -46 6
      vertex -40 -46 0
    endloop
  endfacet
  facet normal 0 0 -1
    outer loop
      vertex -46 -46 0
      vertex -46 -40 0
      vertex -40 -46 0
    endloop
  endfacet
  facet normal 0 0 -1
    outer loop
      vertex -40 -46 0
      vertex -46 -40 0
      vertex -40 -40 0
    endloop
  endfacet
  facet normal 0 1 0
    outer loop
      vertex -46 -40 0
      vertex -46 -40 6
      vertex -40 -40 0
    endloop
  endfacet
  facet normal 0 1 0
    outer loop
      vertex -40 -40 0
      vertex -46 -40 6
      vertex -40 -40 6
    endloop
  endfacet
  facet normal 0 0 1
    outer loop
      vertex -46 -40 6
      vertex -46 -46 6
      vertex -40 -46 6
    endloop
  endfacet
  facet normal 0 0 1
    outer loop
      vertex -40 -40 6
      vertex -46 -40 6
      vertex -40 -46 6
    endloop
  endfacet
  facet normal 1 0 0
    outer loop
      vertex -40 -46 6
      vertex -40 -46 0
      vertex -40 -40 0
    endloop
  endfacet
  facet normal 1 0 0
    outer loop
      vertex -40 -40 6
      vertex -40 -46 6
      vertex -40 -40 0
    endloop
  endfacet
  facet normal -1 0 0
    outer loop
      vertex -37 -46 0
      vertex -37 -46 6
      vertex -37 -40 0
    endloop
  endfacet
  facet normal -1 0 0
    outer loop
      vertex -37 -40 0
      vertex -37 -46 6
      vertex -37 -40 6
    endloop
  endfacet
  facet normal 0 -1 0
    outer loop
      vertex -37 -46 6
      vertex -37 -46 0
      vertex -31 -46 0
    endloop
  endfacet
  facet normal 0 -1 0
    outer loop
      vertex -31 -46 6
      vertex -37 -46 6
      vertex -31 -46 0
    endloop
  endfacet
  facet normal 0 0 -1
    outer loop
      vertex -37 -46 0
      vertex -37 -40 0
      vertex -31 -46 0
    endloop
  endfacet
  facet normal 0 0 -1
    outer loop
      vertex -31 -46 0
      vertex -37 -40 0
      vertex -31 -40 0
    endloop
  endfacet
  facet normal 0 1 0
    outer loop
      vertex -37 -40 0
      vertex -37 -40 6
      vertex -31 -40 0
    endloop
  endfacet
  facet normal 0 1 0
    outer loop
      vertex -31 -40 0
      vertex -37 -40 6
      vertex -31 -40 6
    endloop
  endfacet
  facet normal 0 0 1
    outer loop
      vertex -37 -40 6
      vertex -37 -46 6
      vertex -31 -46 6
    endloop
  endfacet
  facet normal 0 0 1
    outer loop
      vertex -31 -40 6
      vertex -37 -40 6
      vertex -31 -46 6
    endloop
  endfacet
  facet normal 1 0 0
    outer loop
      vertex -31 -46 6
      vertex -31 -46 0
      vertex -31 -40 0
    endloop
  endfacet
  facet normal 1 0 0
    outer loop
      vertex -31 -40 6
      vertex -31 -46 6
      vertex -31 -40 0
    endloop
  endfacet
  facet normal -1 0 0
    outer loop
      vertex -28 -46 0
      vertex -28 -46 6
      vertex -28 -40 0
    endloop
  endfacet
  facet normal -1 0 0
    outer loop
      vertex -28 -40 0
      vertex -28 -46 6
      vertex -28 -40 6
    endloop
  endfacet
  facet normal 0 -1 0
    outer loop
      vertex -28 -46 6
      vertex -28 -46 0
      vertex -22 -46 0
    endloop
  endfacet
  facet normal 0 -1 0
    outer loop
      vertex -22 -46 6
      vertex -28 -46 6
      vertex -22 -46 0
    endloop
  endfacet
  facet normal 0 0 -1
    outer loop
      vertex -28 -46 0
      vertex -28 -40 0
      vertex -22 -46 0
    endloop
  endfacet
  facet normal 0 0 -1
    outer loop
      vertex -22 -46 0
      vertex -28 -40 0
      vertex -22 -40 0
    endloop
  endfacet
  facet normal 0 1 0
    outer loop
      vertex -28 -40 0
      vertex -28 -40 6
      vertex -22 -40 0
    endloop
  endfacet
  facet normal 0 1 0
    outer loop
      vertex -22 -40 0
      vertex -28 -40 6
      vertex -22 -40 6
    endloop
  endfacet
  facet normal 0 0 1
    outer loop
      vertex -28 -40 6
      vertex -28 -46 6
      vertex -22 -46 6
    endloop
  endfacet
  facet normal 0 0 1
    outer loop
      vertex -22 -40 6
      vertex -28 -40 6
      vertex -22 -46 6
    endloop
  endfacet
  facet normal 1 0 0
    outer loop
      vertex -22 -46 6
      vertex -22 -46 0
      vertex -22 -40 0
    endloop
  endfacet
  facet normal 1 0 0
    outer loop
      vertex -22 -40 6
      vertex -22 -46 6
      vertex -22 -40 0
    endloop
  endfacet
  facet normal -1 0 0
    outer loop
      vertex -19 -46 0
      vertex -19 -46 6
      vertex -19 -40 0
    endloop
  endfacet
  facet normal -1 0 0
    outer loop
      vertex -19 -40 0
      vertex -19 -46 6
      vertex -19 -40 6
    endloop
  endfacet
  facet normal 0 -1 0
    outer loop
      vertex -19 -46 6
      vertex -19 -46 0
      vertex -13 -46 0
    endloop
  endfacet
  facet normal 0 -1 0
    outer loop
      vertex -13 -46 6
      vertex -19 -46 6
      vertex -13 -46 0
    endloop
  endfacet
  facet normal 0 0 -1
    outer loop
      vertex -19 -46 0
      vertex -19 -40 0
      vertex -13 -46 0
    endloop
  endfacet
  facet normal 0 0 -1
    outer loop
      vertex -13 -46 0
      vertex -19 -40 0
      vertex -13 -40 0
    endloop
  endfacet
  facet normal 0 1 0
    outer loop
      vertex -19 -40 0
      vertex -19 -40 6
      vertex -13 -40 0
    endloop
  endfacet
  facet normal 0 1 0
    outer loop
      vertex -13 -40 0
      vertex -19 -40 6
      vertex -13 -40 6
    endloop
  endfacet
  facet normal 0 0 1
    outer loop
      vertex -19 -40 6
      vertex -19 -46 6
      vertex -13 -46 6
    endloop
  endfacet
  facet normal 0 0 1
    outer loop
      vertex -13 -40 6
      vertex -19 -40 6
      vertex -13 -46 6
    endloop
  endfacet
  facet normal 1 0 0
    outer loop
      vertex -13 -46 6
      vertex -13 -46 0
      vertex -13 -40 0
    endloop
  endfacet
  facet normal 1 0 0
    outer loop
      vertex -13 -40 6
      vertex -13 -46 6
      vertex -13 -40 0
    endloop
  endfacet
  facet normal -1 0 0
    outer loop
      vertex -10 -46 0
      vertex -10 -46 6
      vertex -10 -40 0
    endloop
  endfacet
  facet normal -1 0 0
    outer loop
      vertex -10 -40 0
      vertex -10 -46 6
      vertex -10 -40 6
    endloop
  endfacet
  facet normal 0 -1 0
    outer loop
      vertex -10 -46 6
      vertex -10 -46 0
      vertex -4 -46 0
    endloop
  endfacet
  facet normal 0 -1 0
    outer loop
      vertex -4 -46 6
      vertex -10 -46 6
      vertex -4 -46 0
    endloop
  endfacet
  facet normal 0 0 -1
    outer loop
      vertex -10 -46 0
      vertex -10 -40 0
      vertex -4 -46 0
    endloop
  endfacet
  facet normal 0 0 -1
    outer loop
      vertex -4 -46 0
      vertex -10 -40 0
      vertex -4 -40 0
    endloop
  endfacet
  facet normal 0 1 0
    outer loop
      vertex -10 -40 0
      vertex -10 -40 6
      vertex -4 -40 0
    endloop
  endfacet
  facet normal 0 1 0
    outer loop
      vertex -4 -40 0
      vertex -10 -40 6
      vertex -4 -40 6
    endloop
  endfacet
  facet normal 0 0 1
    outer loop
      vertex -10 -40 6
      vertex -10 -46 6
      vertex -4 -46 6
    endloop
  endfacet
  facet normal 0 0 1
    outer loop
      vertex -4 -40 6
      vertex -10 -40 6
      vertex -4 -46 6
    endloop
  endfacet
  facet normal 1 0 0
    outer loop
      vertex -4 -46 6
      vertex -4 -46 0
      vertex -4 -40 0
    endloop
  endfacet
  facet normal 1 0 0
    outer loop
      vertex -4 -40 6
      vertex -4 -46 6
      vertex -4 -40 0
    endloop
  endfacet
  facet normal -1 0 0
    outer loop
      vertex -73 -37 0
      vertex -73 -37 6
      vertex -73 -31 0
    endloop
  endfacet
  facet normal -1 0 0
    outer loop
      vertex -73 -31 0
      vertex -73 -37 6
      vertex -73 -31 6
    endloop
  endfacet
  facet normal 0 -1 0
    outer loop
      vertex -73 -37 6
      vertex -73 -37 0
      vertex -67 -37 0
    endloop
  endfacet
  facet normal 0 -1 0
    outer loop
      vertex -67 -37 6
      vertex -73 -37 6
      vertex -67 -37 0
    endloop
  endfacet
  facet normal 0 0 -1
    outer loop
      vertex -73 -37 0
      vertex -73 -31 0
      vertex -67 -37 0
    endloop
  endfacet
  facet normal 0 0 -1
    outer loop
      vertex -67 -37 0
      vertex -73 -31 0
      vertex -67 -31 0
    endloop
  endfacet
  facet normal 0 1 0
    outer loop
      vertex -73 -31 0
      vertex -73 -31 6
      vertex -67 -31 0
    endloop
  endfacet
  facet normal 0 1 0
    outer loop
      vertex -67 -31 0
      vertex -73 -31 6
      vertex -67 -31 6
    endloop
  endfacet
  facet normal 0 0 1
    outer loop
      vertex -73 -31 6
      vertex -73 -37 6
      vertex -67 -37 6
    endloop
  endfacet
  facet normal 0 0 1
    outer loop
      vertex -67 -31 6
      vertex -73 -31 6
      vertex -67 -37 6
    endloop
  endfacet
  facet normal 1 0 0
    outer loop
      vertex -67 -37 6
      vertex -67 -37 0
      vertex -67 -31 0
    endloop
  endfacet
  facet normal 1 0 0
    outer loop
      vertex -67 -31 6
      vertex -67 -37 6
      vertex -67 -31 0
    endloop
  endfacet
  facet normal -1 0 0
    outer loop
      vertex -64 -37 0
      vertex -64 -37 6
      vertex -64 -31 0
    endloop
  endfacet
  facet normal -1 0 0
    outer loop
      vertex -64 -31 0
      vertex -64 -37 6
      vertex -64 -31 6
    endloop
  endfacet
  facet normal 0 -1 0
    outer loop
      vertex -64 -37 6
      vertex -64 -37 0
      vertex -58 -37 0
    endloop
  endfacet
  facet normal 0 -1 0
    outer loop
      vertex -58 -37 6
      vertex -64 -37 6
      vertex -58 -37 0
    endloop
  endfacet
  facet normal 0 0 -1
    outer loop
      vertex -64 -37 0
      vertex -64 -31 0
      vertex -58 -37 0
    endloop
  endfacet
  facet normal 0 0 -1
    outer loop
      vertex -58 -37 0
      vertex -64 -31 0
      vertex -58 -31 0
    endloop
  endfacet
  facet normal 0 1 0
    outer loop
      vertex -64 -31 0
      vertex -64 -31 6
      vertex -58 -31 0
    endloop
  endfacet
  facet normal 0 1 0
    outer loop
      vertex -58 -31 0
      vertex -64 -31 6
      vertex -58 -31 6
    endloop
  endfacet
  facet normal 0 0 1
    outer loop
      vertex -64 -31 6
      vertex -64 -37 6
      vertex -58 -37 6
    endloop
  endfacet
  facet normal 0 0 1
    outer loop
      vertex -58 -31 6
      vertex -64 -31 6
      vertex -58 -37 6
    endloop
  endfacet
  facet normal 1 0 0
    outer loop
      vertex -58 -37 6
      vertex -58 -37 0
      vertex -58 -31 0
    endloop
  endfacet
  facet normal 1 0 0
    outer loop
      vertex -58 -31 6
      vertex -58 -37 6
      vertex -58 -31 0
    endloop
  endfacet
  facet normal -1 0 0
    outer loop
      vertex -55 -37 0
      vertex -55 -37 6
      vertex -55 -31 0
    endloop
  endfacet
  facet normal -1 0 0
    outer loop
      vertex -55 -31 0
      vertex -55 -37 6
      vertex -55 -31 6
    endloop
  endfacet
  facet normal 0 -1 0
    outer loop
      vertex -55 -37 6
      vertex -55 -37 0
      vertex -49 -37 0
    endloop
  endfacet
  facet normal 0 -1 0
    outer loop
      vertex -49 -37 6
      vertex -55 -37 6
      vertex -49 -37 0
    endloop
  endfacet
  facet normal 0 0 -1
    outer loop
      vertex -55 -37 0
      vertex -55 -31 0
      vertex -49 -37 0
    endloop
  endfacet
  facet normal 0 0 -1
    outer loop
      vertex -49 -37 0
      vertex -55 -31 0
      vertex -49 -31 0
    endloop
  endfacet
  facet normal 0 1 0
    outer loop
      vertex -55 -31 0
      vertex -55 -31 6
      vertex -49 -31 0
    endloop
  endfacet
  facet normal 0 1 0
    outer loop
      vertex -49 -31 0
      vertex -55 -31 6
      vertex -49 -31 6
    endloop
  endfacet
  facet normal 0 0 1
    outer loop
      vertex -55 -31 6
      vertex -55 -37 6
      vertex -49 -37 6
    endloop
  endfacet
  facet normal 0 0 1
    outer loop
      vertex -49 -31 6
      vertex -55 -31 6
      vertex -49 -37 6
    endloop
  endfacet
  facet normal 1 0 0
    outer loop
      vertex -49 -37 6
      vertex -49 -37 0
      vertex -49 -31 0
    endloop
  endfacet
  facet normal 1 0 0
    outer loop
      vertex -49 -31 6
      vertex -49 -37 6
      vertex -49 -31 0
    endloop
  endfacet
  facet normal -1 0 0
    outer loop
      vertex -46 -37 0
      vertex -46 -37 6
      vertex -46 -31 0
    endloop
  endfacet
  facet normal -1 0 0
    outer loop
      vertex -46 -31 0
      vertex -46 -37 6
      vertex -46 -31 6
    endloop
  endfacet
  facet normal 0 -1 0
    outer loop
      vertex -46 -37 6
      vertex -46 -37 0
      vertex -40 -37 0
    endloop
  endfacet
  facet normal 0 -1 0
    outer loop
      vertex -40 -37 6
      vertex -46 -37 6
      vertex -40 -37 0
    endloop
  endfacet
  facet normal 0 0 -1
    outer loop
      vertex -46 -37 0
      vertex -46 -31 0
      vertex -40 -37 0
    endloop
  endfacet
  facet normal 0 0 -1
    outer loop
      vertex -40 -37 0
      vertex -46 -31 0
      vertex -40 -31 0
    endloop
  endfacet
  facet normal 0 1 0
    outer loop
      vertex -46 -31 0
      vertex -46 -31 6
      vertex -40 -31 0
    endloop
  endfacet
  facet normal 0 1 0
    outer loop
      vertex -40 -31 0
      vertex -46 -31 6
      vertex -40 -31 6
    endloop
  endfacet
  facet normal 0 0 1
    outer loop
      vertex -46 -31 6
      vertex -46 -37 6
      vertex -40 -37 6
    endloop
  endfacet
  facet normal 0 0 1
    outer loop
      vertex -40 -31 6
      vertex -46 -31 6
      vertex -40 -37 6
    endloop
  endfacet
  facet normal 1 0 0
    outer loop
      vertex -40 -37 6
      vertex -40 -37 0
      vertex -40 -31 0
    endloop
  endfacet
  facet normal 1 0 0
    outer loop
      vertex -40 -31 6
      vertex -40 -37 6
      vertex -40 -31 0
    endloop
  endfacet
  facet normal -1 0 0
    outer loop
      vertex -37 -37 0
      vertex -37 -37 6
      vertex -37 -31 0
    endloop
  endfacet
  facet normal -1 0 0
    outer loop
      vertex -37 -31 0
      vertex -37 -37 6
      vertex -37 -31 6
    endloop
  endfacet
  facet normal 0 -1 0
    outer loop
      vertex -37 -37 6
      vertex -37 -37 0
      vertex -31 -37 0
    endloop
  endfacet
  facet normal 0 -1 0
    outer loop
      vertex -31 -37 6
      vertex -37 -37 6
      vertex -31 -37 0
    endloop
  endfacet
  facet normal 0 0 -1
    outer loop
      vertex -37 -37 0
      vertex -37 -31 0
      vertex -31 -37 0
    endloop
  endfacet
  facet normal 0 0 -1
    outer loop
      vertex -31 -37 0
      vertex -37 -31 0
      vertex -31 -31 0
    endloop
  endfacet
  facet normal 0 1 0
    outer loop
      vertex -37 -31 0
      vertex -37 -31 6
      vertex -31 -31 0
    endloop
  endfacet
  facet normal 0 1 0
    outer loop
      vertex -31 -31 0
      vertex -37 -31 6
      vertex -31 -31 6
    endloop
  endfacet
  facet normal 0 0 1
    outer loop
      vertex -37 -31 6
      vertex -37 -37 6
      vertex -31 -37 6
    endloop
  endfacet
  facet normal 0 0 1
    outer loop
      vertex -31 -31 6
      vertex -37 -31 6
      vertex -31 -37 6
    endloop
  endfacet
  facet normal 1 0 0
    outer loop
      vertex -31 -37 6
      vertex -31 -37 0
      vertex -31 -31 0
    endloop
  endfacet
  facet normal 1 0 0
    outer loop
      vertex -31 -31 6
      vertex -31 -37 6
      vertex -31 -31 0
    endloop
  endfacet
  facet normal -1 0 0
    outer loop
      vertex -28 -37 0
      vertex -28 -37 6
      vertex -28 -31 0
    endloop
  endfacet
  facet normal -1 0 0
    outer loop
      vertex -28 -31 0
      vertex -28 -37 6
      vertex -28 -31 6
    endloop
  endfacet
  facet normal 0 -1 0
    outer loop
      vertex -28 -37 6
      vertex -28 -37 0
      vertex -22 -37 0
    endloop
  endfacet
  facet normal 0 -1 0
    outer loop
      vertex -22 -37 6
      vertex -28 -37 6
      vertex -22 -37 0
    endloop
  endfacet
  facet normal 0 0 -1
    outer loop
      vertex -28 -37 0
      vertex -28 -31 0
      vertex -22 -37 0
    endloop
  endfacet
  facet normal 0 0 -1
    outer loop
      vertex -22 -37 0
      vertex -28 -31 0
      vertex -22 -31 0
    endloop
  endfacet
  facet normal 0 1 0
    outer loop
      vertex -28 -31 0
      vertex -28 -31 6
      vertex -22 -31 0
    endloop
  endfacet
  facet normal 0 1 0
    outer loop
      vertex -22 -31 0
      vertex -28 -31 6
      vertex -22 -31 6
    endloop
  endfacet
  facet normal 0 0 1
    outer loop
      vertex -28 -31 6
      vertex -28 -37 6
      vertex -22 -37 6
    endloop
  endfacet
  facet normal 0 0 1
    outer loop
      vertex -22 -31 6
      vertex -28 -31 6
      vertex -22 -37 6
    endloop
  endfacet
  facet normal 1 0 0
    outer loop
      vertex -22 -37 6
      vertex -22 -37 0
      vertex -22 -31 0
    endloop
  endfacet
  facet normal 1 0 0
    outer loop
      vertex -22 -31 6
      vertex -22 -37 6
      vertex -22 -31 0
    endloop
  endfacet
  facet normal -1 0 0
    outer loop
      vertex -19 -37 0
      vertex -19 -37 6
      vertex -19 -31 0
    endloop
  endfacet
  facet normal -1 0 0
    outer loop
      vertex -19 -31 0
      vertex -19 -37 6
      vertex -19 -31 6
    endloop
  endfacet
  facet normal 0 -1 0
    outer loop
      vertex -19 -37 6
      vertex -19 -37 0
      vertex -13 -37 0
    endloop
  endfacet
  facet normal 0 -1 0
    outer loop
      vertex -13 -37 6
      vertex -19 -37 6
      vertex -13 -37 0
    endloop
  endfacet
  facet normal 0 0 -1
    outer loop
      vertex -19 -37 0
      vertex -19 -31 0
      vertex -13 -37 0
    endloop
  endfacet
  facet normal 0 0 -1
    outer loop
      vertex -13 -37 0
      vertex -19 -31 0
      vertex -13 -31 0
    endloop
  endfacet
  facet normal 0 1 0
    outer loop
      vertex -19 -31 0
      vertex -19 -31 6
      vertex -13 -31 0
    endloop
  endfacet
  facet normal 0 1 0
    outer loop
      vertex -13 -31 0
      vertex -19 -31 6
      vertex -13 -31 6
    endloop
  endfacet
  facet normal 0 0 1
    outer loop
      vertex -19 -31 6
      vertex -19 -37 6
      vertex -13 -37 6
    endloop
  endfacet
  facet normal 0 0 1
    outer loop
      vertex -13 -31 6
      vertex -19 -31 6
      vertex -13 -37 6
    endloop
  endfacet
  facet normal 1 0 0
    outer loop
      vertex -13 -37 6
      vertex -13 -37 0
      vertex -13 -31 0
    endloop
  endfacet
  facet normal 1 0 0
    outer loop
      vertex -13 -31 6
      vertex -13 -37 6
      vertex -13 -31 0
    endloop
  endfacet
  facet normal -1 0 0
    outer loop
      vertex -10 -37 0
      vertex -10 -37 6
      vertex -10 -31 0
    endloop
  endfacet
  facet normal -1 0 0
    outer loop
      vertex -10 -31 0
      vertex -10 -37 6
      vertex -10 -31 6
    endloop
  endfacet
  facet normal 0 -1 0
    outer loop
      vertex -10 -37 6
      vertex -10 -37 0
      vertex -4 -37 0
    endloop
  endfacet
  facet normal 0 -1 0
    outer loop
      vertex -4 -37 6
      vertex -10 -37 6
      vertex -4 -37 0
    endloop
  endfacet
  facet normal 0 0 -1
    outer loop
      vertex -10 -37 0
      vertex -10 -31 0
      vertex -4 -37 0
    endloop
  endfacet
  facet normal 0 0 -1
    outer loop
      vertex -4 -37 0
      vertex -10 -31 0
      vertex -4 -31 0
    endloop
  endfacet
  facet normal 0 1 0
    outer loop
      vertex -10 -31 0
      vertex -10 -31 6
      vertex -4 -31 0
    endloop
  endfacet
  facet normal 0 1 0
    outer loop
      vertex -4 -31 0
      vertex -10 -31 6
      vertex -4 -31 6
    endloop
  endfacet
  facet normal 0 0 1
    outer loop
      vertex -10 -31 6
      vertex -10 -37 6
      vertex -4 -37 6
    endloop
  endfacet
  facet normal 0 0 1
    outer loop
      vertex -4 -31 6
      vertex -10 -31 6
      vertex -4 -37 6
    endloop
  endfacet
  facet normal 1 0 0
    outer loop
      vertex -4 -37 6
      vertex -4 -37 0
      vertex -4 -31 0
    endloop
  endfacet
  facet normal 1 0 0
    outer loop
      vertex -4 -31 6
      vertex -4 -37 6
      vertex -4 -31 0
    endloop
  endfacet
  facet normal -1 0 0
    outer loop
      vertex -73 -28 0
      vertex -73 -28 6
      vertex -73 -22 0
    endloop
  endfacet
  facet normal -1 0 0
    outer loop
      vertex -73 -22 0
      vertex -73 -28 6
      vertex -73 -22 6
    endloop
  endfacet
  facet normal 0 -1 0
    outer loop
      vertex -73 -28 6
      vertex -73 -28 0
      vertex -67 -28 0
    endloop
  endfacet
  facet normal 0 -1 0
    outer loop
      vertex -67 -28 6
      vertex -73 -28 6
      vertex -67 -28 0
    endloop
  endfacet
  facet normal 0 0 -1
    outer loop
      vertex -73 -28 0
      vertex -73 -22 0
      vertex -67 -28 0
    endloop
  endfacet
  facet normal 0 0 -1
    outer loop
      vertex -67 -28 0
      vertex -73 -22 0
      vertex -67 -22 0
    endloop
  endfacet
  facet normal 0 1 0
    outer loop
      vertex -73 -22 0
      vertex -73 -22 6
      vertex -67 -22 0
    endloop
  endfacet
  facet normal 0 1 0
    outer loop
      vertex -67 -22 0
      vertex -73 -22 6
      vertex -67 -22 6
    endloop
  endfacet
  facet normal 0 0 1
    outer loop
      vertex -73 -22 6
      vertex -73 -28 6
      vertex -67 -28 6
    endloop
  endfacet
  facet normal 0 0 1
    outer loop
      vertex -67 -22 6
      vertex -73 -22 6
      vertex -67 -28 6
    endloop
  endfacet
  facet normal 1 0 0
    outer loop
      vertex -67 -28 6
      vertex -67 -28 0
      vertex -67 -22 0
    endloop
  endfacet
  facet normal 1 0 0
    outer loop
      vertex -67 -22 6
      vertex -67 -28 6
      vertex -67 -22 0
    endloop
  endfacet
  facet normal -1 0 0
    outer loop
      vertex -64 -28 0
      vertex -64 -28 6
      vertex -64 -22 0
    endloop
  endfacet
  facet normal -1 0 0
    outer loop
      vertex -64 -22 0
      vertex -64 -28 6
      vertex -64 -22 6
    endloop
  endfacet
  facet normal 0 -1 0
    outer loop
      vertex -64 -28 6
      vertex -64 -28 0
      vertex -58 -28 0
    endloop
  endfacet
  facet normal 0 -1 0
    outer loop
      vertex -58 -28 6
      vertex -64 -28 6
      vertex -58 -28 0
    endloop
  endfacet
  facet normal 0 0 -1
    outer loop
      vertex -64 -28 0
      vertex -64 -22 0
      vertex -58 -28 0
    endloop
  endfacet
  facet normal 0 0 -1
    outer loop
      vertex -58 -28 0
      vertex -64 -22 0
      vertex -58 -22 0
    endloop
  endfacet
  facet normal 0 1 0
    outer loop
      vertex -64 -22 0
      vertex -64 -22 6
      vertex -58 -22 0
    endloop
  endfacet
  facet normal 0 1 0
    outer loop
      vertex -58 -22 0
      vertex -64 -22 6
      vertex -58 -22 6
    endloop
  endfacet
  facet normal 0 0 1
    outer loop
      vertex -64 -22 6
      vertex -64 -28 6
      vertex -58 -28 6
    endloop
  endfacet
  facet normal 0 0 1
    outer loop
      vertex -58 -22 6
      vertex -64 -22 6
      vertex -58 -28 6
    endloop
  endfacet
  facet normal 1 0 0
    outer loop
      vertex -58 -28 6
      vertex -58 -28 0
      vertex -58 -22 0
    endloop
  endfacet
  facet normal 1 0 0
    outer loop
      vertex -58 -22 6
      vertex -58 -28 6
      vertex -58 -22 0
    endloop
  endfacet
  facet normal -1 0 0
    outer loop
      vertex -55 -28 0
      vertex -55 -28 6
      vertex -55 -22 0
    endloop
  endfacet
  facet normal -1 0 0
    outer loop
      vertex -55 -22 0
      vertex -55 -28 6
      vertex -55 -22 6
    endloop
  endfacet
  facet normal 0 -1 0
    outer loop
      vertex -55 -28 6
      vertex -55 -28 0
      vertex -49 -28 0
    endloop
  endfacet
  facet normal 0 -1 0
    outer loop
      vertex -49 -28 6
      vertex -55 -28 6
      vertex -49 -28 0
    endloop
  endfacet
  facet normal 0 0 -1
    outer loop
      vertex -55 -28 0
      vertex -55 -22 0
      vertex -49 -28 0
    endloop
  endfacet
  facet normal 0 0 -1
    outer loop
      vertex -49 -28 0
      vertex -55 -22 0
      vertex -49 -22 0
    endloop
  endfacet
  facet normal 0 1 0
    outer loop
      vertex -55 -22 0
      vertex -55 -22 6
      vertex -49 -22 0
    endloop
  endfacet
  facet normal 0 1 0
    outer loop
      vertex -49 -22 0
      vertex -55 -22 6
      vertex -49 -22 6
    endloop
  endfacet
  facet normal 0 0 1
    outer loop
      vertex -55 -22 6
      vertex -55 -28 6
      vertex -49 -28 6
    endloop
  endfacet
  facet normal 0 0 1
    outer loop
      vertex -49 -22 6
      vertex -55 -22 6
      vertex -49 -28 6
    endloop
  endfacet
  facet normal 1 0 0
    outer loop
      vertex -49 -28 6
      vertex -49 -28 0
      vertex -49 -22 0
    endloop
  endfacet
  facet normal 1 0 0
    outer loop
      vertex -49 -22 6
      vertex -49 -28 6
      vertex -49 -22 0
    endloop
  endfacet
  facet normal -1 0 0
    outer loop
      vertex -46 -28 0
      vertex -46 -28 6
      vertex -46 -22 0
    endloop
  endfacet
  facet normal -1 0 0
    outer loop
      vertex -46 -22 0
      vertex -46 -28 6
      vertex -46 -22 6
    endloop
  endfacet
  facet normal 0 -1 0
    outer loop
      vertex -46 -28 6
      vertex -46 -28 0
      vertex -40 -28 0
    endloop
  endfacet
  facet normal 0 -1 0
    outer loop
      vertex -40 -28 6
      vertex -46 -28 6
      vertex -40 -28 0
    endloop
  endfacet
  facet normal 0 0 -1
    outer loop
      vertex -46 -28 0
      vertex -46 -22 0
      vertex -40 -28 0
    endloop
  endfacet
  facet normal 0 0 -1
    outer loop
      vertex -40 -28 0
      vertex -46 -22 0
      vertex -40 -22 0
    endloop
  endfacet
  facet normal 0 1 0
    outer loop
      vertex -46 -22 0
      vertex -46 -22 6
      vertex -40 -22 0
    endloop
  endfacet
  facet normal 0 1 0
    outer loop
      vertex -40 -22 0
      vertex -46 -22 6
      vertex -40 -22 6
    endloop
  endfacet
  facet normal 0 0 1
    outer loop
      vertex -46 -22 6
      vertex -46 -28 6
      vertex -40 -28 6
    endloop
  endfacet
  facet normal 0 0 1
    outer loop
      vertex -40 -22 6
      vertex -46 -22 6
      vertex -40 -28 6
    endloop
  endfacet
  facet normal 1 0 0
    outer loop
      vertex -40 -28 6
      vertex -40 -28 0
      vertex -40 -22 0
    endloop
  endfacet
  facet normal 1 0 0
    outer loop
      vertex -40 -22 6
      vertex -40 -28 6
      vertex -40 -22 0
    endloop
  endfacet
  facet normal -1 0 0
    outer loop
      vertex -37 -28 0
      vertex -37 -28 6
      vertex -37 -22 0
    endloop
  endfacet
  facet normal -1 0 0
    outer loop
      vertex -37 -22 0
      vertex -37 -28 6
      vertex -37 -22 6
    endloop
  endfacet
  facet normal 0 -1 0
    outer loop
      vertex -37 -28 6
      vertex -37 -28 0
      vertex -31 -28 0
    endloop
  endfacet
  facet normal 0 -1 0
    outer loop
      vertex -31 -28 6
      vertex -37 -28 6
      vertex -31 -28 0
    endloop
  endfacet
  facet normal 0 0 -1
    outer loop
      vertex -37 -28 0
      vertex -37 -22 0
      vertex -31 -28 0
    endloop
  endfacet
  facet normal 0 0 -1
    outer loop
      vertex -31 -28 0
      vertex -37 -22 0
      vertex -31 -22 0
    endloop
  endfacet
  facet normal 0 1 0
    outer loop
      vertex -37 -22 0
      vertex -37 -22 6
      vertex -31 -22 0
    endloop
  endfacet
  facet normal 0 1 0
    outer loop
      vertex -31 -22 0
      vertex -37 -22 6
      vertex -31 -22 6
    endloop
  endfacet
  facet normal 0 0 1
    outer loop
      vertex -37 -22 6
      vertex -37 -28 6
      vertex -31 -28 6
    endloop
  endfacet
  facet normal 0 0 1
    outer loop
      vertex -31 -22 6
      vertex -37 -22 6
      vertex -31 -28 6
    endloop
  endfacet
  facet normal 1 0 0
    outer loop
      vertex -31 -28 6
      vertex -31 -28 0
      vertex -31 -22 0
    endloop
  endfacet
  facet normal 1 0 0
    outer loop
      vertex -31 -22 6
      vertex -31 -28 6
      vertex -31 -22 0
    endloop
  endfacet
  facet normal -1 0 0
    outer loop
      vertex -28 -28 0
      vertex -28 -28 6
      vertex -28 -22 0
    endloop
  endfacet
  facet normal -1 0 0
    outer loop
      vertex -28 -22 0
      vertex -28 -28 6
      vertex -28 -22 6
    endloop
  endfacet
  facet normal 0 -1 0
    outer loop
      vertex -28 -28 6
      vertex -28 -28 0
      vertex -22 -28 0
    endloop
  endfacet
  facet normal 0 -1 0
    outer loop
      vertex -22 -28 6
      vertex -28 -28 6
      vertex -22 -28 0
    endloop
  endfacet
  facet normal 0 0 -1
    outer loop
      vertex -28 -28 0
      vertex -28 -22 0
      vertex -22 -28 0
    endloop
  endfacet
  facet normal 0 0 -1
    outer loop
      vertex -22 -28 0
      vertex -28 -22 0
      vertex -22 -22 0
    endloop
  endfacet
  facet normal 0 1 0
    outer loop
      vertex -28 -22 0
      vertex -28 -22 6
      vertex -22 -22 0
    endloop
  endfacet
  facet normal 0 1 0
    outer loop
      vertex -22 -22 0
      vertex -28 -22 6
      vertex -22 -22 6
    endloop
  endfacet
  facet normal 0 0 1
    outer loop
      vertex -28 -22 6
      vertex -28 -28 6
      vertex -22 -28 6
    endloop
  endfacet
  facet normal 0 0 1
    outer loop
      vertex -22 -22 6
      vertex -28 -22 6
      vertex -22 -28 6
    endloop
  endfacet
  facet normal 1 0 0
    outer loop
      vertex -22 -28 6
      vertex -22 -28 0
      vertex -22 -22 0
    endloop
  endfacet
  facet normal 1 0 0
    outer loop
      vertex -22 -22 6
      vertex -22 -28 6
      vertex -22 -22 0
    endloop
  endfacet
  facet normal -1 0 0
    outer loop
      vertex -19 -28 0
      vertex -19 -28 6
      vertex -19 -22 0
    endloop
  endfacet
  facet normal -1 0 0
    outer loop
      vertex -19 -22 0
      vertex -19 -28 6
      vertex -19 -22 6
    endloop
  endfacet
  facet normal 0 -1 0
    outer loop
      vertex -19 -28 6
      vertex -19 -28 0
      vertex -13 -28 0
    endloop
  endfacet
  facet normal 0 -1 0
    outer loop
      vertex -13 -28 6
      vertex -19 -28 6
      vertex -13 -28 0
    endloop
  endfacet
  facet normal 0 0 -1
    outer loop
      vertex -19 -28 0
      vertex -19 -22 0
      vertex -13 -28 0
    endloop
  endfacet
  facet normal 0 0 -1
    outer loop
      vertex -13 -28 0
      vertex -19 -22 0
      vertex -13 -22 0
    endloop
  endfacet
  facet normal 0 1 0
    outer loop
      vertex -19 -22 0
      vertex -19 -22 6
      vertex -13 -22 0
    endloop
  endfacet
  facet normal 0 1 0
    outer loop
      vertex -13 -22 0
      vertex -19 -22 6
      vertex -13 -22 6
    endloop
  endfacet
  facet normal 0 0 1
    outer loop
      vertex -19 -22 6
      vertex -19 -28 6
      vertex -13 -28 6
    endloop
  endfacet
  facet normal 0 0 1
    outer loop
      vertex -13 -22 6
      vertex -19 -22 6
      vertex -13 -28 6
    endloop
  endfacet
  facet normal 1 0 0
    outer loop
      vertex -13 -28 6
      vertex -13 -28 0
      vertex -13 -22 0
    endloop
  endfacet
  facet normal 1 0 0
    outer loop
      vertex -13 -22 6
      vertex -13 -28 6
      vertex -13 -22 0
    endloop
  endfacet
  facet normal -1 0 0
    outer loop
      vertex -10 -28 0
      vertex -10 -28 6
      vertex -10 -22 0
    endloop
  endfacet
  facet normal -1 0 0
    outer loop
      vertex -10 -22 0
      vertex -10 -28 6
      vertex -10 -22 6
    endloop
  endfacet
  facet normal 0 -1 0
    outer loop
      vertex -10 -28 6
      vertex -10 -28 0
      vertex -4 -28 0
    endloop
  endfacet
  facet normal 0 -1 0
    outer loop
      vertex -4 -28 6
      vertex -10 -28 6
      vertex -4 -28 0
    endloop
  endfacet
  facet normal 0 0 -1
    outer loop
      vertex -10 -28 0
      vertex -10 -22 0
      vertex -4 -28 0
    endloop
  endfacet
  facet normal 0 0 -1
    outer loop
      vertex -4 -28 0
      vertex -10 -22 0
      vertex -4 -22 0
    endloop
  endfacet
  facet normal 0 1 0
    outer loop
      vertex -10 -22 0
      vertex -10 -22 6
      vertex -4 -22 0
    endloop
  endfacet
  facet normal 0 1 0
    outer loop
      vertex -4 -22 0
      vertex -10 -22 6
      vertex -4 -22 6
    endloop
  endfacet
  facet normal 0 0 1
    outer loop
      vertex -10 -22 6
      vertex -10 -28 6
      vertex -4 -28 6
    endloop
  endfacet
  facet normal 0 0 1
    outer loop
      vertex -4 -22 6
      vertex -10 -22 6
      vertex -4 -28 6
    endloop
  endfacet
  facet normal 1 0 0
    outer loop
      vertex -4 -28 6
      vertex -4 -28 0
      vertex -4 -22 0
    endloop
  endfacet
  facet normal 1 0 0
    outer loop
      vertex -4 -22 6
      vertex -4 -28 6
      vertex -4 -22 0
    endloop
  endfacet
  facet normal -1 0 0
    outer loop
      vertex -73 -19 0
      vertex -73 -19 6
      vertex -73 -13 0
    endloop
  endfacet
  facet normal -1 0 0
    outer loop
      vertex -73 -13 0
      vertex -73 -19 6
      vertex -73 -13 6
    endloop
  endfacet
  facet normal 0 -1 0
    outer loop
      vertex -73 -19 6
      vertex -73 -19 0
      vertex -67 -19 0
    endloop
  endfacet
  facet normal 0 -1 0
    outer loop
      vertex -67 -19 6
      vertex -73 -19 6
      vertex -67 -19 0
    endloop
  endfacet
  facet normal 0 0 -1
    outer loop
      vertex -73 -19 0
      vertex -73 -13 0
      vertex -67 -19 0
    endloop
  endfacet
  facet normal 0 0 -1
    outer loop
      vertex -67 -19 0
      vertex -73 -13 0
      vertex -67 -13 0
    endloop
  endfacet
  facet normal 0 1 0
    outer loop
      vertex -73 -13 0
      vertex -73 -13 6
      vertex -67 -13 0
    endloop
  endfacet
  facet normal 0 1 0
    outer loop
      vertex -67 -13 0
      vertex -73 -13 6
      vertex -67 -13 6
    endloop
  endfacet
  facet normal 0 0 1
    outer loop
      vertex -73 -13 6
      vertex -73 -19 6
      vertex -67 -19 6
    endloop
  endfacet
  facet normal 0 0 1
    outer loop
      vertex -67 -13 6
      vertex -73 -13 6
      vertex -67 -19 6
    endloop
  endfacet
  facet normal 1 0 0
    outer loop
      vertex -67 -19 6
      vertex -67 -19 0
      vertex -67 -13 0
    endloop
  endfacet
  facet normal 1 0 0
    outer loop
      vertex -67 -13 6
      vertex -67 -19 6
      vertex -67 -13 0
    endloop
  endfacet
  facet normal -1 0 0
    outer loop
      vertex -64 -19 0
      vertex -64 -19 6
      vertex -64 -13 0
    endloop
  endfacet
  facet normal -1 0 0
    outer loop
      vertex -64 -13 0
      vertex -64 -19 6
      vertex -64 -13 6
    endloop
  endfacet
  facet normal 0 -1 0
    outer loop
      vertex -64 -19 6
      vertex -64 -19 0
      vertex -58 -19 0
    endloop
  endfacet
  facet normal 0 -1 0
    outer loop
      vertex -58 -19 6
      vertex -64 -19 6
      vertex -58 -19 0
    endloop
  endfacet
  facet normal 0 0 -1
    outer loop
      vertex -64 -19 0
      vertex -64 -13 0
      vertex -58 -19 0
    endloop
  endfacet
  facet normal 0 0 -1
    outer loop
      vertex -58 -19 0
      vertex -64 -13 0
      vertex -58 -13 0
    endloop
  endfacet
  facet normal 0 1 0
    outer loop
      vertex -64 -13 0
      vertex -64 -13 6
      vertex -58 -13 0
    endloop
  endfacet
  facet normal 0 1 0
    outer loop
      vertex -58 -13 0
      vertex -64 -13 6
      vertex -58 -13 6
    endloop
  endfacet
  facet normal 0 0 1
    outer loop
      vertex -64 -13 6
      vertex -64 -19 6
      vertex -58 -19 6
    endloop
  endfacet
  facet normal 0 0 1
    outer loop
      vertex -58 -13 6
      vertex -64 -13 6
      vertex -58 -19 6
    endloop
  endfacet
  facet normal 1 0 0
    outer loop
      vertex -58 -19 6
      vertex -58 -19 0
      vertex -58 -13 0
    endloop
  endfacet
  facet normal 1 0 0
    outer loop
      vertex -58 -13 6
      vertex -58 -19 6
      vertex -58 -13 0
    endloop
  endfacet
  facet normal -1 0 0
    outer loop
      vertex -55 -19 0
      vertex -55 -19 6
      vertex -55 -13 0
    endloop
  endfacet
  facet normal -1 0 0
    outer loop
      vertex -55 -13 0
      vertex -55 -19 6
      vertex -55 -13 6
    endloop
  endfacet
  facet normal 0 -1 0
    outer loop
      vertex -55 -19 6
      vertex -55 -19 0
      vertex -49 -19 0
    endloop
  endfacet
  facet normal 0 -1 0
    outer loop
      vertex -49 -19 6
      vertex -55 -19 6
      vertex -49 -19 0
    endloop
  endfacet
  facet normal 0 0 -1
    outer loop
      vertex -55 -19 0
      vertex -55 -13 0
      vertex -49 -19 0
    endloop
  endfacet
  facet normal 0 0 -1
    outer loop
      vertex -49 -19 0
      vertex -55 -13 0
      vertex -49 -13 0
    endloop
  endfacet
  facet normal 0 1 0
    outer loop
      vertex -55 -13 0
      vertex -55 -13 6
      vertex -49 -13 0
    endloop
  endfacet
  facet normal 0 1 0
    outer loop
      vertex -49 -13 0
      vertex -55 -13 6
      vertex -49 -13 6
    endloop
  endfacet
  facet normal 0 0 1
    outer loop
      vertex -55 -13 6
      vertex -55 -19 6
      vertex -49 -19 6
    endloop
  endfacet
  facet normal 0 0 1
    outer loop
      vertex -49 -13 6
      vertex -55 -13 6
      vertex -49 -19 6
    endloop
  endfacet
  facet normal 1 0 0
    outer loop
      vertex -49 -19 6
      vertex -49 -19 0
      vertex -49 -13 0
    endloop
  endfacet
  facet normal 1 0 0
    outer loop
      vertex -49 -13 6
      vertex -49 -19 6
      vertex -49 -13 0
    endloop
  endfacet
  facet normal -1 0 0
    outer loop
      vertex -46 -19 0
      vertex -46 -19 6
      vertex -46 -13 0
    endloop
  endfacet
  facet normal -1 0 0
    outer loop
      vertex -46 -13 0
      vertex -46 -19 6
      vertex -46 -13 6
    endloop
  endfacet
  facet normal 0 -1 0
    outer loop
      vertex -46 -19 6
      vertex -46 -19 0
      vertex -40 -19 0
    endloop
  endfacet
  facet normal 0 -1 0
    outer loop
      vertex -40 -19 6
      vertex -46 -19 6
      vertex -40 -19 0
    endloop
  endfacet
  facet normal 0 0 -1
    outer loop
      vertex -46 -19 0
      vertex -46 -13 0
      vertex -40 -19 0
    endloop
  endfacet
  facet normal 0 0 -1
    outer loop
      vertex -40 -19 0
      vertex -46 -13 0
      vertex -40 -13 0
    endloop
  endfacet
  facet normal 0 1 0
    outer loop
      vertex -46 -13 0
      vertex -46 -13 6
      vertex -40 -13 0
    endloop
  endfacet
  facet normal 0 1 0
    outer loop
      vertex -40 -13 0
      vertex -46 -13 6
      vertex -40 -13 6
    endloop
  endfacet
  facet normal 0 0 1
    outer loop
      vertex -46 -13 6
      vertex -46 -19 6
      vertex -40 -19 6
    endloop
  endfacet
  facet normal 0 0 1
    outer loop
      vertex -40 -13 6
      vertex -46 -13 6
      vertex -40 -19 6
    endloop
  endfacet
  facet normal 1 0 0
    outer loop
      vertex -40 -19 6
      vertex -40 -19 0
      vertex -40 -13 0
    endloop
  endfacet
  facet normal 1 0 0
    outer loop
      vertex -40 -13 6
      vertex -40 -19 6
      vertex -40 -13 0
    endloop
  endfacet
  facet normal -1 0 0
    outer loop
      vertex -37 -19 0
      vertex -37 -19 6
      vertex -37 -13 0
    endloop
  endfacet
  facet normal -1 0 0
    outer loop
      vertex -37 -13 0
      vertex -37 -19 6
      vertex -37 -13 6
    endloop
  endfacet
  facet normal 0 -1 0
    outer loop
      vertex -37 -19 6
      vertex -37 -19 0
      vertex -31 -19 0
    endloop
  endfacet
  facet normal 0 -1 0
    outer loop
      vertex -31 -19 6
      vertex -37 -19 6
      vertex -31 -19 0
    endloop
  endfacet
  facet normal 0 0 -1
    outer loop
      vertex -37 -19 0
      vertex -37 -13 0
      vertex -31 -19 0
    endloop
  endfacet
  facet normal 0 0 -1
    outer loop
      vertex -31 -19 0
      vertex -37 -13 0
      vertex -31 -13 0
    endloop
  endfacet
  facet normal 0 1 0
    outer loop
      vertex -37 -13 0
      vertex -37 -13 6
      vertex -31 -13 0
    endloop
  endfacet
  facet normal 0 1 0
    outer loop
      vertex -31 -13 0
      vertex -37 -13 6
      vertex -31 -13 6
    endloop
  endfacet
  facet normal 0 0 1
    outer loop
      vertex -37 -13 6
      vertex -37 -19 6
      vertex -31 -19 6
    endloop
  endfacet
  facet normal 0 0 1
    outer loop
      vertex -31 -13 6
      vertex -37 -13 6
      vertex -31 -19 6
    endloop
  endfacet
  facet normal 1 0 0
    outer loop
      vertex -31 -19 6
      vertex -31 -19 0
      vertex -31 -13 0
    endloop
  endfacet
  facet normal 1 0 0
    outer loop
      vertex -31 -13 6
      vertex -31 -19 6
      vertex -31 -13 0
    endloop
  endfacet
  facet normal -1 0 0
    outer loop
      vertex -28 -19 0
      vertex -28 -19 6
      vertex -28 -13 0
    endloop
  endfacet
  facet normal -1 0 0
    outer loop
      vertex -28 -13 0
      vertex -28 -19 6
      vertex -28 -13 6
    endloop
  endfacet
  facet normal 0 -1 0
    outer loop
      vertex -28 -19 6
      vertex -28 -19 0
      vertex -22 -19 0
    endloop
  endfacet
  facet normal 0 -1 0
    outer loop
      vertex -22 -19 6
      vertex -28 -19 6
      vertex -22 -19 0
    endloop
  endfacet
  facet normal 0 0 -1
    outer loop
      vertex -28 -19 0
      vertex -28 -13 0
      vertex -22 -19 0
    endloop
  endfacet
  facet normal 0 0 -1
    outer loop
      vertex -22 -19 0
      vertex -28 -13 0
      vertex -22 -13 0
    endloop
  endfacet
  facet normal 0 1 0
    outer loop
      vertex -28 -13 0
      vertex -28 -13 6
      vertex -22 -13 0
    endloop
  endfacet
  facet normal 0 1 0
    outer loop
      vertex -22 -13 0
      vertex -28 -13 6
      vertex -22 -13 6
    endloop
  endfacet
  facet normal 0 0 1
    outer loop
      vertex -28 -13 6
      vertex -28 -19 6
      vertex -22 -19 6
    endloop
  endfacet
  facet normal 0 0 1
    outer loop
      vertex -22 -13 6
      vertex -28 -13 6
      vertex -22 -19 6
    endloop
  endfacet
  facet normal 1 0 0
    outer loop
      vertex -22 -19 6
      vertex -22 -19 0
      vertex -22 -13 0
    endloop
  endfacet
  facet normal 1 0 0
    outer loop
      vertex -22 -13 6
      vertex -22 -19 6
      vertex -22 -13 0
    endloop
  endfacet
  facet normal -1 0 0
    outer loop
      vertex -19 -19 0
      vertex -19 -19 6
      vertex -19 -13 0
    endloop
  endfacet
  facet normal -1 0 0
    outer loop
      vertex -19 -13 0
      vertex -19 -19 6
      vertex -19 -13 6
    endloop
  endfacet
  facet normal 0 -1 0
    outer loop
      vertex -19 -19 6
      vertex -19 -19 0
      vertex -13 -19 0
    endloop
  endfacet
  facet normal 0 -1 0
    outer loop
      vertex -13 -19 6
      vertex -19 -19 6
      vertex -13 -19 0
    endloop
  endfacet
  facet normal 0 0 -1
    outer loop
      vertex -19 -19 0
      vertex -19 -13 0
      vertex -13 -19 0
    endloop
  endfacet
  facet normal 0 0 -1
    outer loop
      vertex -13 -19 0
      vertex -19 -13 0
      vertex -13 -13 0
    endloop
  endfacet
  facet normal 0 1 0
    outer loop
      vertex -19 -13 0
      vertex -19 -13 6
      vertex -13 -13 0
    endloop
  endfacet
  facet normal 0 1 0
    outer loop
      vertex -13 -13 0
      vertex -19 -13 6
      vertex -13 -13 6
    endloop
  endfacet
  facet normal 0 0 1
    outer loop
      vertex -19 -13 6
      vertex -19 -19 6
      vertex -13 -19 6
    endloop
  endfacet
  facet normal 0 0 1
    outer loop
      vertex -13 -13 6
      vertex -19 -13 6
      vertex -13 -19 6
    endloop
  endfacet
  facet normal 1 0 0
    outer loop
      vertex -13 -19 6
      vertex -13 -19 0
      vertex -13 -13 0
    endloop
  endfacet
  facet normal 1 0 0
    outer loop
      vertex -13 -13 6
      vertex -13 -19 6
      vertex -13 -13 0
    endloop
  endfacet
  facet normal -1 0 0
    outer loop
      vertex -10 -19 0
      vertex -10 -19 6
      vertex -10 -13 0
    endloop
  endfacet
  facet normal -1 0 0
    outer loop
      vertex -10 -13 0
      vertex -10 -19 6
      vertex -10 -13 6
    endloop
  endfacet
  facet normal 0 -1 0
    outer loop
      vertex -10 -19 6
      vertex -10 -19 0
      vertex -4 -19 0
    endloop
  endfacet
  facet normal 0 -1 0
    outer loop
      vertex -4 -19 6
      vertex -10 -19 6
      vertex -4 -19 0
    endloop
  endfacet
  facet normal 0 0 -1
    outer loop
      vertex -10 -19 0
      vertex -10 -13 0
      vertex -4 -19 0
    endloop
  endfacet
  facet normal 0 0 -1
    outer loop
      vertex -4 -19 0
      vertex -10 -13 0
      vertex -4 -13 0
    endloop
  endfacet
  facet normal 0 1 0
    outer loop
      vertex -10 -13 0
      vertex -10 -13 6
      vertex -4 -13 0
    endloop
  endfacet
  facet normal 0 1 0
    outer loop
      vertex -4 -13 0
      vertex -10 -13 6
      vertex -4 -13 6
    endloop
  endfacet
  facet normal 0 0 1
    outer loop
      vertex -10 -13 6
      vertex -10 -19 6
      vertex -4 -19 6
    endloop
  endfacet
  facet normal 0 0 1
    outer loop
      vertex -4 -13 6
      vertex -10 -13 6
      vertex -4 -19 6
    endloop
  endfacet
  facet normal 1 0 0
    outer loop
      vertex -4 -19 6
      vertex -4 -19 0
      vertex -4 -13 0
    endloop
  endfacet
  facet normal 1 0 0
    outer loop
      vertex -4 -13 6
      vertex -4 -19 6
      vertex -4 -13 0
    endloop
  endfacet
  facet normal -1 0 0
    outer loop
      vertex -73 -10 0
      vertex -73 -10 6
      vertex -73 -4 0
    endloop
  endfacet
  facet normal -1 0 0
    outer loop
      vertex -73 -4 0
      vertex -73 -10 6
      vertex -73 -4 6
    endloop
  endfacet
  facet normal 0 -1 0
    outer loop
      vertex -73 -10 6
      vertex -73 -10 0
      vertex -67 -10 0
    endloop
  endfacet
  facet normal 0 -1 0
    outer loop
      vertex -67 -10 6
      vertex -73 -10 6
      vertex -67 -10 0
    endloop
  endfacet
  facet normal 0 0 -1
    outer loop
      vertex -73 -10 0
      vertex -73 -4 0
      vertex -67 -10 0
    endloop
  endfacet
  facet normal 0 0 -1
    outer loop
      vertex -67 -10 0
      vertex -73 -4 0
      vertex -67 -4 0
    endloop
  endfacet
  facet normal 0 1 0
    outer loop
      vertex -73 -4 0
      vertex -73 -4 6
      vertex -67 -4 0
    endloop
  endfacet
  facet normal 0 1 0
    outer loop
      vertex -67 -4 0
      vertex -73 -4 6
      vertex -67 -4 6
    endloop
  endfacet
  facet normal 0 0 1
    outer loop
      vertex -73 -4 6
      vertex -73 -10 6
      vertex -67 -10 6
    endloop
  endfacet
  facet normal 0 0 1
    outer loop
      vertex -67 -4 6
      vertex -73 -4 6
      vertex -67 -10 6
    endloop
  endfacet
  facet normal 1 0 0
    outer loop
      vertex -67 -10 6
      vertex -67 -10 0
      vertex -67 -4 0
    endloop
  endfacet
  facet normal 1 0 0
    outer loop
      vertex -67 -4 6
      vertex -67 -10 6
      vertex -67 -4 0
    endloop
  endfacet
  facet normal -1 0 0
    outer loop
      vertex -64 -10 0
      vertex -64 -10 6
      vertex -64 -4 0
    endloop
  endfacet
  facet normal -1 0 0
    outer loop
      vertex -64 -4 0
      vertex -64 -10 6
      vertex -64 -4 6
    endloop
  endfacet
  facet normal 0 -1 0
    outer loop
      vertex -64 -10 6
      vertex -64 -10 0
      vertex -58 -10 0
    endloop
  endfacet
  facet normal 0 -1 0
    outer loop
      vertex -58 -10 6
      vertex -64 -10 6
      vertex -58 -10 0
    endloop
  endfacet
  facet normal 0 0 -1
    outer loop
      vertex -64 -10 0
      vertex -64 -4 0
      vertex -58 -10 0
    endloop
  endfacet
  facet normal 0 0 -1
    outer loop
      vertex -58 -10 0
      vertex -64 -4 0
      vertex -58 -4 0
    endloop
  endfacet
  facet normal 0 1 0
    outer loop
      vertex -64 -4 0
      vertex -64 -4 6
      vertex -58 -4 0
    endloop
  endfacet
  facet normal 0 1 0
    outer loop
      vertex -58 -4 0
      vertex -64 -4 6
      vertex -58 -4 6
    endloop
  endfacet
  facet normal 0 0 1
    outer loop
      vertex -64 -4 6
      vertex -64 -10 6
      vertex -58 -10 6
    endloop
  endfacet
  facet normal 0 0 1
    outer loop
      vertex -58 -4 6
      vertex -64 -4 6
      vertex -58 -10 6
    endloop
  endfacet
  facet normal 1 0 0
    outer loop
      vertex -58 -10 6
      vertex -58 -10 0
      vertex -58 -4 0
    endloop
  endfacet
  facet normal 1 0 0
    outer loop
      vertex -58 -4 6
      vertex -58 -10 6
      vertex -58 -4 0
    endloop
  endfacet
  facet normal -1 0 0
    outer loop
      vertex -55 -10 0
      vertex -55 -10 6
      vertex -55 -4 0
    endloop
  endfacet
  facet normal -1 0 0
    outer loop
      vertex -55 -4 0
      vertex -55 -10 6
      vertex -55 -4 6
    endloop
  endfacet
  facet normal 0 -1 0
    outer loop
      vertex -55 -10 6
      vertex -55 -10 0
      vertex -49 -10 0
    endloop
  endfacet
  facet normal 0 -1 0
    outer loop
      vertex -49 -10 6
      vertex -55 -10 6
      vertex -49 -10 0
    endloop
  endfacet
  facet normal 0 0 -1
    outer loop
      vertex -55 -10 0
      vertex -55 -4 0
      vertex -49 -10 0
    endloop
  endfacet
  facet normal 0 0 -1
    outer loop
      vertex -49 -10 0
      vertex -55 -4 0
      vertex -49 -4 0
    endloop
  endfacet
  facet normal 0 1 0
    outer loop
      vertex -55 -4 0
      vertex -55 -4 6
      vertex -49 -4 0
    endloop
  endfacet
  facet normal 0 1 0
    outer loop
      vertex -49 -4 0
      vertex -55 -4 6
      vertex -49 -4 6
    endloop
  endfacet
  facet normal 0 0 1
    outer loop
      vertex -55 -4 6
      vertex -55 -10 6
      vertex -49 -10 6
    endloop
  endfacet
  facet normal 0 0 1
    outer loop
      vertex -49 -4 6
      vertex -55 -4 6
      vertex -49 -10 6
    endloop
  endfacet
  facet normal 1 0 0
    outer loop
      vertex -49 -10 6
      vertex -49 -10 0
      vertex -49 -4 0
    endloop
  endfacet
  facet normal 1 0 0
    outer loop
      vertex -49 -4 6
      vertex -49 -10 6
      vertex -49 -4 0
    endloop
  endfacet
  facet normal -1 0 0
    outer loop
      vertex -46 -10 0
      vertex -46 -10 6
      vertex -46 -4 0
    endloop
  endfacet
  facet normal -1 0 0
    outer loop
      vertex -46 -4 0
      vertex -46 -10 6
      vertex -46 -4 6
    endloop
  endfacet
  facet normal 0 -1 0
    outer loop
      vertex -46 -10 6
      vertex -46 -10 0
      vertex -40 -10 0
    endloop
  endfacet
  facet normal 0 -1 0
    outer loop
      vertex -40 -10 6
      vertex -46 -10 6
      vertex -40 -10 0
    endloop
  endfacet
  facet normal 0 0 -1
    outer loop
      vertex -46 -10 0
      vertex -46 -4 0
      vertex -40 -10 0
    endloop
  endfacet
  facet normal 0 0 -1
    outer loop
      vertex -40 -10 0
      vertex -46 -4 0
      vertex -40 -4 0
    endloop
  endfacet
  facet normal 0 1 0
    outer loop
      vertex -46 -4 0
      vertex -46 -4 6
      vertex -40 -4 0
    endloop
  endfacet
  facet normal 0 1 0
    outer loop
      vertex -40 -4 0
      vertex -46 -4 6
      vertex -40 -4 6
    endloop
  endfacet
  facet normal 0 0 1
    outer loop
      vertex -46 -4 6
      vertex -46 -10 6
      vertex -40 -10 6
    endloop
  endfacet
  facet normal 0 0 1
    outer loop
      vertex -40 -4 6
      vertex -46 -4 6
      vertex -40 -10 6
    endloop
  endfacet
  facet normal 1 0 0
    outer loop
      vertex -40 -10 6
      vertex -40 -10 0
      vertex -40 -4 0
    endloop
  endfacet
  facet normal 1 0 0
    outer loop
      vertex -40 -4 6
      vertex -40 -10 6
      vertex -40 -4 0
    endloop
  endfacet
  facet normal -1 0 0
    outer loop
      vertex -37 -10 0
      vertex -37 -10 6
      vertex -37 -4 0
    endloop
  endfacet
  facet normal -1 0 0
    outer loop
      vertex -37 -4 0
      vertex -37 -10 6
      vertex -37 -4 6
    endloop
  endfacet
  facet normal 0 -1 0
    outer loop
      vertex -37 -10 6
      vertex -37 -10 0
      vertex -31 -10 0
    endloop
  endfacet
  facet normal 0 -1 0
    outer loop
      vertex -31 -10 6
      vertex -37 -10 6
      vertex -31 -10 0
    endloop
  endfacet
  facet normal 0 0 -1
    outer loop
      vertex -37 -10 0
      vertex -37 -4 0
      vertex -31 -10 0
    endloop
  endfacet
  facet normal 0 0 -1
    outer loop
      vertex -31 -10 0
      vertex -37 -4 0
      vertex -31 -4 0
    endloop
  endfacet
  facet normal 0 1 0
    outer loop
      vertex -37 -4 0
      vertex -37 -4 6
      vertex -31 -4 0
    endloop
  endfacet
  facet normal 0 1 0
    outer loop
      vertex -31 -4 0
      vertex -37 -4 6
      vertex -31 -4 6
    endloop
  endfacet
  facet normal 0 0 1
    outer loop
      vertex -37 -4 6
      vertex -37 -10 6
      vertex -31 -10 6
    endloop
  endfacet
  facet normal 0 0 1
    outer loop
      vertex -31 -4 6
      vertex -37 -4 6
      vertex -31 -10 6
    endloop
  endfacet
  facet normal 1 0 0
    outer loop
      vertex -31 -10 6
      vertex -31 -10 0
      vertex -31 -4 0
    endloop
  endfacet
  facet normal 1 0 0
    outer loop
      vertex -31 -4 6
      vertex -31 -10 6
      vertex -31 -4 0
    endloop
  endfacet
  facet normal -1 0 0
    outer loop
      vertex -28 -10 0
      vertex -28 -10 6
      vertex -28 -4 0
    endloop
  endfacet
  facet normal -1 0 0
    outer loop
      vertex -28 -4 0
      vertex -28 -10 6
      vertex -28 -4 6
    endloop
  endfacet
  facet normal 0 -1 0
    outer loop
      vertex -28 -10 6
      vertex -28 -10 0
      vertex -22 -10 0
    endloop
  endfacet
  facet normal 0 -1 0
    outer loop
      vertex -22 -10 6
      vertex -28 -10 6
      vertex -22 -10 0
    endloop
  endfacet
  facet normal 0 0 -1
    outer loop
      vertex -28 -10 0
      vertex -28 -4 0
      vertex -22 -10 0
    endloop
  endfacet
  facet normal 0 0 -1
    outer loop
      vertex -22 -10 0
      vertex -28 -4 0
      vertex -22 -4 0
    endloop
  endfacet
  facet normal 0 1 0
    outer loop
      vertex -28 -4 0
      vertex -28 -4 6
      vertex -22 -4 0
    endloop
  endfacet
  facet normal 0 1 0
    outer loop
      vertex -22 -4 0
      vertex -28 -4 6
      vertex -22 -4 6
    endloop
  endfacet
  facet normal 0 0 1
    outer loop
      vertex -28 -4 6
      vertex -28 -10 6
      vertex -22 -10 6
    endloop
  endfacet
  facet normal 0 0 1
    outer loop
      vertex -22 -4 6
      vertex -28 -4 6
      vertex -22 -10 6
    endloop
  endfacet
  facet normal 1 0 0
    outer loop
      vertex -22 -10 6
      vertex -22 -10 0
      vertex -22 -4 0
    endloop
  endfacet
  facet normal 1 0 0
    outer loop
      vertex -22 -4 6
      vertex -22 -10 6
      vertex -22 -4 0
    endloop
  endfacet
  facet normal -1 0 0
    outer loop
      vertex -19 -10 0
      vertex -19 -10 6
      vertex -19 -4 0
    endloop
  endfacet
  facet normal -1 0 0
    outer loop
      vertex -19 -4 0
      vertex -19 -10 6
      vertex -19 -4 6
    endloop
  endfacet
  facet normal 0 -1 0
    outer loop
      vertex -19 -10 6
      vertex -19 -10 0
      vertex -13 -10 0
    endloop
  endfacet
  facet normal 0 -1 0
    outer loop
      vertex -13 -10 6
      vertex -19 -10 6
      vertex -13 -10 0
    endloop
  endfacet
  facet normal 0 0 -1
    outer loop
      vertex -19 -10 0
      vertex -19 -4 0
      vertex -13 -10 0
    endloop
  endfacet
  facet normal 0 0 -1
    outer loop
      vertex -13 -10 0
      vertex -19 -4 0
      vertex -13 -4 0
    endloop
  endfacet
  facet normal 0 1 0
    outer loop
      vertex -19 -4 0
      vertex -19 -4 6
      vertex -13 -4 0
    endloop
  endfacet
  facet normal 0 1 0
    outer loop
      vertex -13 -4 0
      vertex -19 -4 6
      vertex -13 -4 6
    endloop
  endfacet
  facet normal 0 0 1
    outer loop
      vertex -19 -4 6
      vertex -19 -10 6
      vertex -13 -10 6
    endloop
  endfacet
  facet normal 0 0 1
    outer loop
      vertex -13 -4 6
      vertex -19 -4 6
      vertex -13 -10 6
    endloop
  endfacet
  facet normal 1 0 0
    outer loop
      vertex -13 -10 6
      vertex -13 -10 0
      vertex -13 -4 0
    endloop
  endfacet
  facet normal 1 0 0
    outer loop
      vertex -13 -4 6
      vertex -13 -10 6
      vertex -13 -4 0
    endloop
  endfacet
  facet normal -1 0 0
    outer loop
      vertex -10 -10 0
      vertex -10 -10 6
      vertex -10 -4 0
    endloop
  endfacet
  facet normal -1 0 0
    outer loop
      vertex -10 -4 0
      vertex -10 -10 6
      vertex -10 -4 6
    endloop
  endfacet
  facet normal 0 -1 0
    outer loop
      vertex -10 -10 6
      vertex -10 -10 0
      vertex -4 -10 0
    endloop
  endfacet
  facet normal 0 -1 0
    outer loop
      vertex -4 -10 6
      vertex -10 -10 6
      vertex -4 -10 0
    endloop
  endfacet
  facet normal 0 0 -1
    outer loop
      vertex -10 -10 0
      vertex -10 -4 0
      vertex -4 -10 0
    endloop
  endfacet
  facet normal 0 0 -1
    outer loop
      vertex -4 -10 0
      vertex -10 -4 0
      vertex -4 -4 0
    endloop
  endfacet
  facet normal 0 1 0
    outer loop
      vertex -10 -4 0
      vertex -10 -4 6
      vertex -4 -4 0
    endloop
  endfacet
  facet normal 0 1 0
    outer loop
      vertex -4 -4 0
      vertex -10 -4 6
      vertex -4 -4 6
    endloop
  endfacet
  facet normal 0 0 1
    outer loop
      vertex -10 -4 6
      vertex -10 -10 6
      vertex -4 -10 6
    endloop
  endfacet
  facet normal 0 0 1
    outer loop
      vertex -4 -4 6
      vertex -10 -4 6
      vertex -4 -10 6
    endloop
  endfacet
  facet normal 1 0 0
    outer loop
      vertex -4 -10 6
      vertex -4 -10 0
      vertex -4 -4 0
    endloop
  endfacet
  facet normal 1 0 0
    outer loop
      vertex -4 -4 6
      vertex -4 -10 6
      vertex -4 -4 0
    endloop
  endfacet
endsolid OpenSCAD_Model
