solid OpenSCAD_Model
  facet normal 0 0 -1
    outer loop
      vertex -12.25 0 0
      vertex -11.9823 2.54692 0
      vertex -11.9823 -2.54692 0
    endloop
  endfacet
  facet normal 0 0 -1
    outer loop
      vertex -11.9823 -2.54692 0
      vertex -11.9823 2.54692 0
      vertex -11.1909 4.98252 0
    endloop
  endfacet
  facet normal 0 0 -1
    outer loop
      vertex -11.9823 -2.54692 0
      vertex -11.1909 4.98252 0
      vertex -9.91046 7.20037 0
    endloop
  endfacet
  facet normal 0 0 -1
    outer loop
      vertex -11.9823 -2.54692 0
      vertex -9.91046 7.20037 0
      vertex -8.19685 9.10352 0
    endloop
  endfacet
  facet normal 0 0 -1
    outer loop
      vertex -11.9823 -2.54692 0
      vertex -8.19685 9.10352 0
      vertex -6.125 10.6088 0
    endloop
  endfacet
  facet normal 0 0 -1
    outer loop
      vertex -11.9823 -2.54692 0
      vertex -6.125 10.6088 0
      vertex -3.78546 11.6504 0
    endloop
  endfacet
  facet normal 0 0 -1
    outer loop
      vertex -11.9823 -2.54692 0
      vertex -3.78546 11.6504 0
      vertex -1.28047 12.1829 0
    endloop
  endfacet
  facet normal 0 0 -1
    outer loop
      vertex -11.9823 -2.54692 0
      vertex -1.28047 12.1829 0
      vertex 1.28047 12.1829 0
    endloop
  endfacet
  facet normal 0 0 -1
    outer loop
      vertex -11.9823 -2.54692 0
      vertex 1.28047 12.1829 0
      vertex 3.78546 11.6504 0
    endloop
  endfacet
  facet normal 0 0 -1
    outer loop
      vertex -11.9823 -2.54692 0
      vertex 3.78546 11.6504 0
      vertex 6.125 10.6088 0
    endloop
  endfacet
  facet normal 0 0 -1
    outer loop
      vertex -11.9823 -2.54692 0
      vertex 6.125 10.6088 0
      vertex 8.19685 9.10352 0
    endloop
  endfacet
  facet normal 0 0 -1
    outer loop
      vertex -11.9823 -2.54692 0
      vertex 8.19685 9.10352 0
      vertex 9.91046 7.20037 0
    endloop
  endfacet
  facet normal 0 0 -1
    outer loop
      vertex 0 2.5 0
      vertex 9.91046 7.20037 0
      vertex 11.1909 4.98252 0
    endloop
  endfacet
  facet normal 0 0 -1
    outer loop
      vertex 2.5 0 0
      vertex 11.9823 2.54692 0
      vertex 12.25 0 0
    endloop
  endfacet
  facet normal 0 0 -1
    outer loop
      vertex 1.76777 -1.76777 0
      vertex 12.25 0 0
      vertex 11.9823 -2.54692 0
    endloop
  endfacet
  facet normal 0 0 -1
    outer loop
      vertex -11.9823 -2.54692 0
      vertex 11.9823 -2.54692 0
      vertex 11.1909 -4.98252 0
    endloop
  endfacet
  facet normal 0 0 -1
    outer loop
      vertex -11.9823 -2.54692 0
      vertex 11.1909 -4.98252 0
      vertex 9.91046 -7.20037 0
    endloop
  endfacet
  facet normal 0 0 -1
    outer loop
      vertex -11.9823 -2.54692 0
      vertex 9.91046 -7.20037 0
      vertex 8.19685 -9.10352 0
    endloop
  endfacet
  facet normal 0 0 -1
    outer loop
      vertex -11.9823 -2.54692 0
      vertex 8.19685 -9.10352 0
      vertex 6.125 -10.6088 0
    endloop
  endfacet
  facet normal 0 0 -1
    outer loop
      vertex -11.9823 -2.54692 0
      vertex 6.125 -10.6088 0
      vertex 3.78546 -11.6504 0
    endloop
  endfacet
  facet normal 0 0 -1
    outer loop
      vertex -11.9823 -2.54692 0
      vertex 3.78546 -11.6504 0
      vertex 1.28047 -12.1829 0
    endloop
  endfacet
  facet normal 0 0 -1
    outer loop
      vertex -11.9823 -2.54692 0
      vertex 1.28047 -12.1829 0
      vertex -1.28047 -12.1829 0
    endloop
  endfacet
  facet normal 0 0 -1
    outer loop
      vertex -11.9823 -2.54692 0
      vertex -1.28047 -12.1829 0
      vertex -3.78546 -11.6504 0
    endloop
  endfacet
  facet normal 0 0 -1
    outer loop
      vertex -11.9823 -2.54692 0
      vertex -3.78546 -11.6504 0
      vertex -6.125 -10.6088 0
    endloop
  endfacet
  facet normal 0 0 -1
    outer loop
      vertex -11.9823 -2.54692 0
      vertex -6.125 -10.6088 0
      vertex -8.19685 -9.10352 0
    endloop
  endfacet
  facet normal 0 0 -1
    outer loop
      vertex -11.9823 -2.54692 0
      vertex -8.19685 -9.10352 0
      vertex -9.91046 -7.20037 0
    endloop
  endfacet
  facet normal 0 0 -1
    outer loop
      vertex -11.9823 -2.54692 0
      vertex -9.91046 -7.20037 0
      vertex -11.1909 -4.98252 0
    endloop
  endfacet
  facet normal 0 0 -1
    outer loop
      vertex 0 2.5 0
      vertex 11.1909 4.98252 0
      vertex 1.76777 1.76777 0
    endloop
  endfacet
  facet normal 0 0 -1
    outer loop
      vertex 1.76777 -1.76777 0
      vertex 11.9823 -2.54692 0
      vertex 0 -2.5 0
    endloop
  endfacet
  facet normal 0 0 -1
    outer loop
      vertex -11.9823 -2.54692 0
      vertex -1.76777 -1.76777 0
      vertex 0 -2.5 0
    endloop
  endfacet
  facet normal 0 0 -1
    outer loop
      vertex -11.9823 -2.54692 0
      vertex 0 -2.5 0
      vertex 11.9823 -2.54692 0
    endloop
  endfacet
  facet normal 0 0 -1
    outer loop
      vertex 1.76777 1.76777 0
      vertex 11.9823 2.54692 0
      vertex 2.5 0 0
    endloop
  endfacet
  facet normal 0 0 -1
    outer loop
      vertex 2.5 0 0
      vertex 12.25 0 0
      vertex 1.76777 -1.76777 0
    endloop
  endfacet
  facet normal 0 0 -1
    outer loop
      vertex -1.76777 -1.76777 0
      vertex -11.9823 -2.54692 0
      vertex -2.5 0 0
    endloop
  endfacet
  facet normal 0 0 -1
    outer loop
      vertex -1.76777 1.76777 0
      vertex 9.91046 7.20037 0
      vertex 0 2.5 0
    endloop
  endfacet
  facet normal 0 0 -1
    outer loop
      vertex 1.76777 1.76777 0
      vertex 11.1909 4.98252 0
      vertex 11.9823 2.54692 0
    endloop
  endfacet
  facet normal 0 0 -1
    outer loop
      vertex -11.9823 -2.54692 0
      vertex 9.91046 7.20037 0
      vertex -1.76777 1.76777 0
    endloop
  endfacet
  facet normal 0 0 -1
    outer loop
      vertex -2.5 0 0
      vertex -11.9823 -2.54692 0
      vertex -1.76777 1.76777 0
    endloop
  endfacet
  facet normal -0.994522 0.104529 0
    outer loop
      vertex -12.25 0 0
      vertex -12.25 0 32.5
      vertex -11.9823 2.54692 0
    endloop
  endfacet
  facet normal -0.994522 0.104529 0
    outer loop
      vertex -11.9823 2.54692 0
      vertex -12.25 0 32.5
      vertex -11.9823 2.54692 32.5
    endloop
  endfacet
  facet normal -0.994522 -0.104529 0
    outer loop
      vertex -12.25 0 0
      vertex -11.9823 -2.54692 0
      vertex -12.25 0 32.5
    endloop
  endfacet
  facet normal -0.994522 -0.104529 0
    outer loop
      vertex -12.25 0 32.5
      vertex -11.9823 -2.54692 0
      vertex -11.9823 -2.54692 32.5
    endloop
  endfacet
  facet normal -0.951057 -0.309017 0
    outer loop
      vertex -11.9823 -2.54692 0
      vertex -11.1909 -4.98252 0
      vertex -11.9823 -2.54692 32.5
    endloop
  endfacet
  facet normal -0.951057 -0.309017 0
    outer loop
      vertex -11.9823 -2.54692 32.5
      vertex -11.1909 -4.98252 0
      vertex -11.1909 -4.98252 32.5
    endloop
  endfacet
  facet normal -0.866025 -0.5 0
    outer loop
      vertex -11.1909 -4.98252 0
      vertex -9.91046 -7.20037 0
      vertex -11.1909 -4.98252 32.5
    endloop
  endfacet
  facet normal -0.866025 -0.5 0
    outer loop
      vertex -11.1909 -4.98252 32.5
      vertex -9.91046 -7.20037 0
      vertex -9.91046 -7.20037 32.5
    endloop
  endfacet
  facet normal -0.743145 -0.669131 0
    outer loop
      vertex -9.91046 -7.20037 0
      vertex -8.19685 -9.10352 0
      vertex -9.91046 -7.20037 32.5
    endloop
  endfacet
  facet normal -0.743145 -0.669131 0
    outer loop
      vertex -9.91046 -7.20037 32.5
      vertex -8.19685 -9.10352 0
      vertex -8.19685 -9.10352 32.5
    endloop
  endfacet
  facet normal -0.587785 -0.809017 0
    outer loop
      vertex -8.19685 -9.10352 32.5
      vertex -8.19685 -9.10352 0
      vertex -6.125 -10.6088 0
    endloop
  endfacet
  facet normal -0.587785 -0.809017 0
    outer loop
      vertex -6.125 -10.6088 32.5
      vertex -8.19685 -9.10352 32.5
      vertex -6.125 -10.6088 0
    endloop
  endfacet
  facet normal -0.406737 -0.913545 0
    outer loop
      vertex -6.125 -10.6088 32.5
      vertex -6.125 -10.6088 0
      vertex -3.78546 -11.6504 0
    endloop
  endfacet
  facet normal -0.406737 -0.913545 0
    outer loop
      vertex -3.78546 -11.6504 32.5
      vertex -6.125 -10.6088 32.5
      vertex -3.78546 -11.6504 0
    endloop
  endfacet
  facet normal -0.207912 -0.978148 0
    outer loop
      vertex -3.78546 -11.6504 32.5
      vertex -3.78546 -11.6504 0
      vertex -1.28047 -12.1829 0
    endloop
  endfacet
  facet normal -0.207912 -0.978148 0
    outer loop
      vertex -1.28047 -12.1829 32.5
      vertex -3.78546 -11.6504 32.5
      vertex -1.28047 -12.1829 0
    endloop
  endfacet
  facet normal 0 -1 0
    outer loop
      vertex -1.28047 -12.1829 32.5
      vertex -1.28047 -12.1829 0
      vertex 1.28047 -12.1829 0
    endloop
  endfacet
  facet normal 0 -1 0
    outer loop
      vertex 1.28047 -12.1829 32.5
      vertex -1.28047 -12.1829 32.5
      vertex 1.28047 -12.1829 0
    endloop
  endfacet
  facet normal 0.207912 -0.978148 0
    outer loop
      vertex 1.28047 -12.1829 32.5
      vertex 1.28047 -12.1829 0
      vertex 3.78546 -11.6504 0
    endloop
  endfacet
  facet normal 0.207912 -0.978148 0
    outer loop
      vertex 3.78546 -11.6504 32.5
      vertex 1.28047 -12.1829 32.5
      vertex 3.78546 -11.6504 0
    endloop
  endfacet
  facet normal 0.406737 -0.913545 0
    outer loop
      vertex 3.78546 -11.6504 32.5
      vertex 3.78546 -11.6504 0
      vertex 6.125 -10.6088 0
    endloop
  endfacet
  facet normal 0.406737 -0.913545 0
    outer loop
      vertex 6.125 -10.6088 32.5
      vertex 3.78546 -11.6504 32.5
      vertex 6.125 -10.6088 0
    endloop
  endfacet
  facet normal 0.587785 -0.809017 0
    outer loop
      vertex 6.125 -10.6088 32.5
      vertex 6.125 -10.6088 0
      vertex 8.19685 -9.10352 0
    endloop
  endfacet
  facet normal 0.587785 -0.809017 0
    outer loop
      vertex 8.19685 -9.10352 32.5
      vertex 6.125 -10.6088 32.5
      vertex 8.19685 -9.10352 0
    endloop
  endfacet
  facet normal 0.743145 -0.669131 0
    outer loop
      vertex 8.19685 -9.10352 32.5
      vertex 8.19685 -9.10352 0
      vertex 9.91046 -7.20037 0
    endloop
  endfacet
  facet normal 0.743145 -0.669131 0
    outer loop
      vertex 9.91046 -7.20037 32.5
      vertex 8.19685 -9.10352 32.5
      vertex 9.91046 -7.20037 0
    endloop
  endfacet
  facet normal 0.866025 -0.5 0
    outer loop
      vertex 9.91046 -7.20037 32.5
      vertex 9.91046 -7.20037 0
      vertex 11.1909 -4.98252 0
    endloop
  endfacet
  facet normal 0.866025 -0.5 0
    outer loop
      vertex 11.1909 -4.98252 32.5
      vertex 9.91046 -7.20037 32.5
      vertex 11.1909 -4.98252 0
    endloop
  endfacet
  facet normal 0.951057 -0.309017 0
    outer loop
      vertex 11.1909 -4.98252 32.5
      vertex 11.1909 -4.98252 0
      vertex 11.9823 -2.54692 0
    endloop
  endfacet
  facet normal 0.951057 -0.309017 0
    outer loop
      vertex 11.9823 -2.54692 32.5
      vertex 11.1909 -4.98252 32.5
      vertex 11.9823 -2.54692 0
    endloop
  endfacet
  facet normal 0.994522 -0.104529 0
    outer loop
      vertex 11.9823 -2.54692 32.5
      vertex 11.9823 -2.54692 0
      vertex 12.25 0 0
    endloop
  endfacet
  facet normal 0.994522 -0.104529 0
    outer loop
      vertex 12.25 0 32.5
      vertex 11.9823 -2.54692 32.5
      vertex 12.25 0 0
    endloop
  endfacet
  facet normal 0.994522 0.104529 0
    outer loop
      vertex 12.25 0 0
      vertex 11.9823 2.54692 0
      vertex 11.9823 2.54692 32.5
    endloop
  endfacet
  facet normal 0.994522 0.104529 0
    outer loop
      vertex 12.25 0 32.5
      vertex 12.25 0 0
      vertex 11.9823 2.54692 32.5
    endloop
  endfacet
  facet normal 0.951057 0.309017 0
    outer loop
      vertex 11.9823 2.54692 0
      vertex 11.1909 4.98252 0
      vertex 11.1909 4.98252 32.5
    endloop
  endfacet
  facet normal 0.951057 0.309017 0
    outer loop
      vertex 11.9823 2.54692 32.5
      vertex 11.9823 2.54692 0
      vertex 11.1909 4.98252 32.5
    endloop
  endfacet
  facet normal 0.866025 0.5 0
    outer loop
      vertex 11.1909 4.98252 0
      vertex 9.91046 7.20037 0
      vertex 9.91046 7.20037 32.5
    endloop
  endfacet
  facet normal 0.866025 0.5 0
    outer loop
      vertex 11.1909 4.98252 32.5
      vertex 11.1909 4.98252 0
      vertex 9.91046 7.20037 32.5
    endloop
  endfacet
  facet normal 0.743145 0.669131 0
    outer loop
      vertex 9.91046 7.20037 0
      vertex 8.19685 9.10352 0
      vertex 8.19685 9.10352 32.5
    endloop
  endfacet
  facet normal 0.743145 0.669131 0
    outer loop
      vertex 9.91046 7.20037 32.5
      vertex 9.91046 7.20037 0
      vertex 8.19685 9.10352 32.5
    endloop
  endfacet
  facet normal 0.587785 0.809017 0
    outer loop
      vertex 6.125 10.6088 0
      vertex 6.125 10.6088 32.5
      vertex 8.19685 9.10352 0
    endloop
  endfacet
  facet normal 0.587785 0.809017 0
    outer loop
      vertex 8.19685 9.10352 0
      vertex 6.125 10.6088 32.5
      vertex 8.19685 9.10352 32.5
    endloop
  endfacet
  facet normal 0.406737 0.913545 0
    outer loop
      vertex 3.78546 11.6504 0
      vertex 3.78546 11.6504 32.5
      vertex 6.125 10.6088 0
    endloop
  endfacet
  facet normal 0.406737 0.913545 0
    outer loop
      vertex 6.125 10.6088 0
      vertex 3.78546 11.6504 32.5
      vertex 6.125 10.6088 32.5
    endloop
  endfacet
  facet normal 0.207912 0.978148 0
    outer loop
      vertex 1.28047 12.1829 0
      vertex 1.28047 12.1829 32.5
      vertex 3.78546 11.6504 0
    endloop
  endfacet
  facet normal 0.207912 0.978148 0
    outer loop
      vertex 3.78546 11.6504 0
      vertex 1.28047 12.1829 32.5
      vertex 3.78546 11.6504 32.5
    endloop
  endfacet
  facet normal 0 1 0
    outer loop
      vertex -1.28047 12.1829 0
      vertex -1.28047 12.1829 32.5
      vertex 1.28047 12.1829 0
    endloop
  endfacet
  facet normal 0 1 0
    outer loop
      vertex 1.28047 12.1829 0
      vertex -1.28047 12.1829 32.5
      vertex 1.28047 12.1829 32.5
    endloop
  endfacet
  facet normal -0.207912 0.978148 0
    outer loop
      vertex -3.78546 11.6504 0
      vertex -3.78546 11.6504 32.5
      vertex -1.28047 12.1829 0
    endloop
  endfacet
  facet normal -0.207912 0.978148 0
    outer loop
      vertex -1.28047 12.1829 0
      vertex -3.78546 11.6504 32.5
      vertex -1.28047 12.1829 32.5
    endloop
  endfacet
  facet normal -0.406737 0.913545 0
    outer loop
      vertex -6.125 10.6088 0
      vertex -6.125 10.6088 32.5
      vertex -3.78546 11.6504 0
    endloop
  endfacet
  facet normal -0.406737 0.913545 0
    outer loop
      vertex -3.78546 11.6504 0
      vertex -6.125 10.6088 32.5
      vertex -3.78546 11.6504 32.5
    endloop
  endfacet
  facet normal -0.587785 0.809017 0
    outer loop
      vertex -8.19685 9.10352 0
      vertex -8.19685 9.10352 32.5
      vertex -6.125 10.6088 0
    endloop
  endfacet
  facet normal -0.587785 0.809017 0
    outer loop
      vertex -6.125 10.6088 0
      vertex -8.19685 9.10352 32.5
      vertex -6.125 10.6088 32.5
    endloop
  endfacet
  facet normal -0.743145 0.669131 0
    outer loop
      vertex -9.91046 7.20037 0
      vertex -9.91046 7.20037 32.5
      vertex -8.19685 9.10352 0
    endloop
  endfacet
  facet normal -0.743145 0.669131 0
    outer loop
      vertex -8.19685 9.10352 0
      vertex -9.91046 7.20037 32.5
      vertex -8.19685 9.10352 32.5
    endloop
  endfacet
  facet normal -0.866025 0.5 0
    outer loop
      vertex -11.1909 4.98252 0
      vertex -11.1909 4.98252 32.5
      vertex -9.91046 7.20037 0
    endloop
  endfacet
  facet normal -0.866025 0.5 0
    outer loop
      vertex -9.91046 7.20037 0
      vertex -11.1909 4.98252 32.5
      vertex -9.91046 7.20037 32.5
    endloop
  endfacet
  facet normal -0.951057 0.309017 0
    outer loop
      vertex -11.9823 2.54692 0
      vertex -11.9823 2.54692 32.5
      vertex -11.1909 4.98252 0
    endloop
  endfacet
  facet normal -0.951057 0.309017 0
    outer loop
      vertex -11.1909 4.98252 0
      vertex -11.9823 2.54692 32.5
      vertex -11.1909 4.98252 32.5
    endloop
  endfacet
  facet normal 0.92388 -0.382683 0
    outer loop
      vertex -1.76777 1.76777 0
      vertex -1.76777 1.76777 16.25
      vertex -2.5 0 16.25
    endloop
  endfacet
  facet normal 0.92388 -0.382683 0
    outer loop
      vertex -2.5 0 0
      vertex -1.76777 1.76777 0
      vertex -2.5 0 16.25
    endloop
  endfacet
  facet normal 0.92388 0.382683 0
    outer loop
      vertex -2.5 0 16.25
      vertex -1.76777 -1.76777 16.25
      vertex -1.76777 -1.76777 0
    endloop
  endfacet
  facet normal 0.92388 0.382683 0
    outer loop
      vertex -2.5 0 0
      vertex -2.5 0 16.25
      vertex -1.76777 -1.76777 0
    endloop
  endfacet
  facet normal 0.382683 -0.92388 0
    outer loop
      vertex 0 2.5 0
      vertex 0 2.5 16.25
      vertex -1.76777 1.76777 16.25
    endloop
  endfacet
  facet normal 0.382683 -0.92388 0
    outer loop
      vertex -1.76777 1.76777 0
      vertex 0 2.5 0
      vertex -1.76777 1.76777 16.25
    endloop
  endfacet
  facet normal -0.382683 -0.92388 0
    outer loop
      vertex 1.76777 1.76777 0
      vertex 1.76777 1.76777 16.25
      vertex 0 2.5 16.25
    endloop
  endfacet
  facet normal -0.382683 -0.92388 0
    outer loop
      vertex 0 2.5 0
      vertex 1.76777 1.76777 0
      vertex 0 2.5 16.25
    endloop
  endfacet
  facet normal -0.92388 -0.382683 0
    outer loop
      vertex 2.5 0 16.25
      vertex 1.76777 1.76777 16.25
      vertex 2.5 0 0
    endloop
  endfacet
  facet normal -0.92388 -0.382683 0
    outer loop
      vertex 2.5 0 0
      vertex 1.76777 1.76777 16.25
      vertex 1.76777 1.76777 0
    endloop
  endfacet
  facet normal -0.92388 0.382683 0
    outer loop
      vertex 2.5 0 16.25
      vertex 2.5 0 0
      vertex 1.76777 -1.76777 16.25
    endloop
  endfacet
  facet normal -0.92388 0.382683 0
    outer loop
      vertex 1.76777 -1.76777 16.25
      vertex 2.5 0 0
      vertex 1.76777 -1.76777 0
    endloop
  endfacet
  facet normal -0.382683 0.92388 0
    outer loop
      vertex 1.76777 -1.76777 16.25
      vertex 1.76777 -1.76777 0
      vertex 0 -2.5 16.25
    endloop
  endfacet
  facet normal -0.382683 0.92388 0
    outer loop
      vertex 0 -2.5 16.25
      vertex 1.76777 -1.76777 0
      vertex 0 -2.5 0
    endloop
  endfacet
  facet normal 0.382683 0.92388 0
    outer loop
      vertex 0 -2.5 16.25
      vertex 0 -2.5 0
      vertex -1.76777 -1.76777 16.25
    endloop
  endfacet
  facet normal 0.382683 0.92388 0
    outer loop
      vertex -1.76777 -1.76777 16.25
      vertex 0 -2.5 0
      vertex -1.76777 -1.76777 0
    endloop
  endfacet
  facet normal 0 0 1
    outer loop
      vertex -11.9823 2.54692 32.5
      vertex -12.25 0 32.5
      vertex -11.9823 -2.54692 32.5
    endloop
  endfacet
  facet normal 0 0 1
    outer loop
      vertex -9.91046 -7.20037 32.5
      vertex -11.9823 2.54692 32.5
      vertex -11.1909 -4.98252 32.5
    endloop
  endfacet
  facet normal 0 0 1
    outer loop
      vertex -11.1909 -4.98252 32.5
      vertex -11.9823 2.54692 32.5
      vertex -11.9823 -2.54692 32.5
    endloop
  endfacet
  facet normal 0 0 1
    outer loop
      vertex -8.19685 -9.10352 32.5
      vertex -11.9823 2.54692 32.5
      vertex -9.91046 -7.20037 32.5
    endloop
  endfacet
  facet normal 0 0 1
    outer loop
      vertex -6.125 -10.6088 32.5
      vertex -11.9823 2.54692 32.5
      vertex -8.19685 -9.10352 32.5
    endloop
  endfacet
  facet normal 0 0 1
    outer loop
      vertex -3.78546 -11.6504 32.5
      vertex -11.9823 2.54692 32.5
      vertex -6.125 -10.6088 32.5
    endloop
  endfacet
  facet normal 0 0 1
    outer loop
      vertex -1.28047 -12.1829 32.5
      vertex -11.9823 2.54692 32.5
      vertex -3.78546 -11.6504 32.5
    endloop
  endfacet
  facet normal 0 0 1
    outer loop
      vertex 1.28047 -12.1829 32.5
      vertex -11.9823 2.54692 32.5
      vertex -1.28047 -12.1829 32.5
    endloop
  endfacet
  facet normal 0 0 1
    outer loop
      vertex 3.78546 -11.6504 32.5
      vertex -11.9823 2.54692 32.5
      vertex 1.28047 -12.1829 32.5
    endloop
  endfacet
  facet normal 0 0 1
    outer loop
      vertex 6.125 -10.6088 32.5
      vertex -11.9823 2.54692 32.5
      vertex 3.78546 -11.6504 32.5
    endloop
  endfacet
  facet normal 0 0 1
    outer loop
      vertex 8.19685 -9.10352 32.5
      vertex -11.9823 2.54692 32.5
      vertex 6.125 -10.6088 32.5
    endloop
  endfacet
  facet normal 0 0 1
    outer loop
      vertex -1.875 -3.2476 32.5
      vertex -11.9823 2.54692 32.5
      vertex 8.19685 -9.10352 32.5
    endloop
  endfacet
  facet normal 0 0 1
    outer loop
      vertex 3.2476 -1.875 32.5
      vertex 1.875 -3.2476 32.5
      vertex 11.1909 -4.98252 32.5
    endloop
  endfacet
  facet normal 0 0 1
    outer loop
      vertex 1.875 3.2476 32.5
      vertex 3.2476 1.875 32.5
      vertex 11.9823 2.54692 32.5
    endloop
  endfacet
  facet normal 0 0 1
    outer loop
      vertex 3.2476 1.875 32.5
      vertex 3.75 0 32.5
      vertex 12.25 0 32.5
    endloop
  endfacet
  facet normal 0 0 1
    outer loop
      vertex 9.91046 7.20037 32.5
      vertex -11.9823 2.54692 32.5
      vertex 11.1909 4.98252 32.5
    endloop
  endfacet
  facet normal 0 0 1
    outer loop
      vertex 8.19685 9.10352 32.5
      vertex -11.9823 2.54692 32.5
      vertex 9.91046 7.20037 32.5
    endloop
  endfacet
  facet normal 0 0 1
    outer loop
      vertex 6.125 10.6088 32.5
      vertex -11.9823 2.54692 32.5
      vertex 8.19685 9.10352 32.5
    endloop
  endfacet
  facet normal 0 0 1
    outer loop
      vertex 3.78546 11.6504 32.5
      vertex -11.9823 2.54692 32.5
      vertex 6.125 10.6088 32.5
    endloop
  endfacet
  facet normal 0 0 1
    outer loop
      vertex 1.28047 12.1829 32.5
      vertex -11.9823 2.54692 32.5
      vertex 3.78546 11.6504 32.5
    endloop
  endfacet
  facet normal 0 0 1
    outer loop
      vertex -1.28047 12.1829 32.5
      vertex -11.9823 2.54692 32.5
      vertex 1.28047 12.1829 32.5
    endloop
  endfacet
  facet normal 0 0 1
    outer loop
      vertex -3.78546 11.6504 32.5
      vertex -11.9823 2.54692 32.5
      vertex -1.28047 12.1829 32.5
    endloop
  endfacet
  facet normal 0 0 1
    outer loop
      vertex -6.125 10.6088 32.5
      vertex -11.9823 2.54692 32.5
      vertex -3.78546 11.6504 32.5
    endloop
  endfacet
  facet normal 0 0 1
    outer loop
      vertex -8.19685 9.10352 32.5
      vertex -11.9823 2.54692 32.5
      vertex -6.125 10.6088 32.5
    endloop
  endfacet
  facet normal 0 0 1
    outer loop
      vertex -9.91046 7.20037 32.5
      vertex -11.9823 2.54692 32.5
      vertex -8.19685 9.10352 32.5
    endloop
  endfacet
  facet normal 0 0 1
    outer loop
      vertex -11.1909 4.98252 32.5
      vertex -11.9823 2.54692 32.5
      vertex -9.91046 7.20037 32.5
    endloop
  endfacet
  facet normal 0 0 1
    outer loop
      vertex -3.75 0 32.5
      vertex -3.2476 1.875 32.5
      vertex -11.9823 2.54692 32.5
    endloop
  endfacet
  facet normal 0 0 1
    outer loop
      vertex 1.875 -3.2476 32.5
      vertex 0 -3.75 32.5
      vertex 9.91046 -7.20037 32.5
    endloop
  endfacet
  facet normal 0 0 1
    outer loop
      vertex 0 3.75 32.5
      vertex 1.875 3.2476 32.5
      vertex 11.1909 4.98252 32.5
    endloop
  endfacet
  facet normal 0 0 1
    outer loop
      vertex 3.75 0 32.5
      vertex 3.2476 -1.875 32.5
      vertex 11.9823 -2.54692 32.5
    endloop
  endfacet
  facet normal 0 0 1
    outer loop
      vertex 0 3.75 32.5
      vertex -11.9823 2.54692 32.5
      vertex -1.875 3.2476 32.5
    endloop
  endfacet
  facet normal 0 0 1
    outer loop
      vertex 11.1909 4.98252 32.5
      vertex -11.9823 2.54692 32.5
      vertex 0 3.75 32.5
    endloop
  endfacet
  facet normal 0 0 1
    outer loop
      vertex 11.1909 4.98252 32.5
      vertex 1.875 3.2476 32.5
      vertex 11.9823 2.54692 32.5
    endloop
  endfacet
  facet normal 0 0 1
    outer loop
      vertex 11.9823 2.54692 32.5
      vertex 3.2476 1.875 32.5
      vertex 12.25 0 32.5
    endloop
  endfacet
  facet normal 0 0 1
    outer loop
      vertex 12.25 0 32.5
      vertex 3.75 0 32.5
      vertex 11.9823 -2.54692 32.5
    endloop
  endfacet
  facet normal 0 0 1
    outer loop
      vertex -3.2476 1.875 32.5
      vertex -1.875 3.2476 32.5
      vertex -11.9823 2.54692 32.5
    endloop
  endfacet
  facet normal 0 0 1
    outer loop
      vertex 11.9823 -2.54692 32.5
      vertex 3.2476 -1.875 32.5
      vertex 11.1909 -4.98252 32.5
    endloop
  endfacet
  facet normal 0 0 1
    outer loop
      vertex 11.1909 -4.98252 32.5
      vertex 1.875 -3.2476 32.5
      vertex 9.91046 -7.20037 32.5
    endloop
  endfacet
  facet normal 0 0 1
    outer loop
      vertex 9.91046 -7.20037 32.5
      vertex 0 -3.75 32.5
      vertex 8.19685 -9.10352 32.5
    endloop
  endfacet
  facet normal 0 0 1
    outer loop
      vertex -3.2476 -1.875 32.5
      vertex -11.9823 2.54692 32.5
      vertex -1.875 -3.2476 32.5
    endloop
  endfacet
  facet normal 0 0 1
    outer loop
      vertex 0 -3.75 32.5
      vertex -1.875 -3.2476 32.5
      vertex 8.19685 -9.10352 32.5
    endloop
  endfacet
  facet normal 0 0 1
    outer loop
      vertex -3.2476 -1.875 32.5
      vertex -3.75 0 32.5
      vertex -11.9823 2.54692 32.5
    endloop
  endfacet
  facet normal 0 0 1
    outer loop
      vertex -3.2476 -1.875 16.25
      vertex -1.875 -3.2476 16.25
      vertex 0 -3.75 16.25
    endloop
  endfacet
  facet normal 0 0 1
    outer loop
      vertex 0 -2.5 16.25
      vertex -3.2476 -1.875 16.25
      vertex 1.875 -3.2476 16.25
    endloop
  endfacet
  facet normal 0 0 1
    outer loop
      vertex 1.875 -3.2476 16.25
      vertex -3.2476 -1.875 16.25
      vertex 0 -3.75 16.25
    endloop
  endfacet
  facet normal 0 0 1
    outer loop
      vertex 0 -2.5 16.25
      vertex -1.76777 -1.76777 16.25
      vertex -3.2476 -1.875 16.25
    endloop
  endfacet
  facet normal 0 0 1
    outer loop
      vertex -3.2476 1.875 16.25
      vertex -3.2476 -1.875 16.25
      vertex -1.875 3.2476 16.25
    endloop
  endfacet
  facet normal 0 0 1
    outer loop
      vertex -3.75 0 16.25
      vertex -3.2476 -1.875 16.25
      vertex -3.2476 1.875 16.25
    endloop
  endfacet
  facet normal 0 0 1
    outer loop
      vertex 0 2.5 16.25
      vertex 1.76777 1.76777 16.25
      vertex 1.875 3.2476 16.25
    endloop
  endfacet
  facet normal 0 0 1
    outer loop
      vertex -1.875 3.2476 16.25
      vertex -3.2476 -1.875 16.25
      vertex -2.5 0 16.25
    endloop
  endfacet
  facet normal 0 0 1
    outer loop
      vertex -1.875 3.2476 16.25
      vertex -1.76777 1.76777 16.25
      vertex 0 3.75 16.25
    endloop
  endfacet
  facet normal 0 0 1
    outer loop
      vertex -1.875 3.2476 16.25
      vertex -2.5 0 16.25
      vertex -1.76777 1.76777 16.25
    endloop
  endfacet
  facet normal 0 0 1
    outer loop
      vertex 0 3.75 16.25
      vertex 0 2.5 16.25
      vertex 1.875 3.2476 16.25
    endloop
  endfacet
  facet normal 0 0 1
    outer loop
      vertex -1.76777 1.76777 16.25
      vertex 0 2.5 16.25
      vertex 0 3.75 16.25
    endloop
  endfacet
  facet normal 0 0 1
    outer loop
      vertex 1.875 3.2476 16.25
      vertex 1.76777 1.76777 16.25
      vertex 3.2476 1.875 16.25
    endloop
  endfacet
  facet normal 0 0 1
    outer loop
      vertex 3.2476 1.875 16.25
      vertex 2.5 0 16.25
      vertex 3.75 0 16.25
    endloop
  endfacet
  facet normal 0 0 1
    outer loop
      vertex 3.75 0 16.25
      vertex 1.76777 -1.76777 16.25
      vertex 3.2476 -1.875 16.25
    endloop
  endfacet
  facet normal 0 0 1
    outer loop
      vertex 3.2476 -1.875 16.25
      vertex 0 -2.5 16.25
      vertex 1.875 -3.2476 16.25
    endloop
  endfacet
  facet normal 0 0 1
    outer loop
      vertex 1.76777 1.76777 16.25
      vertex 2.5 0 16.25
      vertex 3.2476 1.875 16.25
    endloop
  endfacet
  facet normal 0 0 1
    outer loop
      vertex 2.5 0 16.25
      vertex 1.76777 -1.76777 16.25
      vertex 3.75 0 16.25
    endloop
  endfacet
  facet normal 0 0 1
    outer loop
      vertex 1.76777 -1.76777 16.25
      vertex 0 -2.5 16.25
      vertex 3.2476 -1.875 16.25
    endloop
  endfacet
  facet normal 0 0 1
    outer loop
      vertex -1.76777 -1.76777 16.25
      vertex -2.5 0 16.25
      vertex -3.2476 -1.875 16.25
    endloop
  endfacet
  facet normal 0.965926 0.258819 0
    outer loop
      vertex -3.75 0 32.5
      vertex -3.2476 -1.875 32.5
      vertex -3.2476 -1.875 16.25
    endloop
  endfacet
  facet normal 0.965926 0.258819 0
    outer loop
      vertex -3.75 0 16.25
      vertex -3.75 0 32.5
      vertex -3.2476 -1.875 16.25
    endloop
  endfacet
  facet normal 0.707107 0.707107 0
    outer loop
      vertex -1.875 -3.2476 32.5
      vertex -1.875 -3.2476 16.25
      vertex -3.2476 -1.875 32.5
    endloop
  endfacet
  facet normal 0.707107 0.707107 0
    outer loop
      vertex -3.2476 -1.875 32.5
      vertex -1.875 -3.2476 16.25
      vertex -3.2476 -1.875 16.25
    endloop
  endfacet
  facet normal 0.258819 0.965926 0
    outer loop
      vertex 0 -3.75 32.5
      vertex 0 -3.75 16.25
      vertex -1.875 -3.2476 32.5
    endloop
  endfacet
  facet normal 0.258819 0.965926 0
    outer loop
      vertex -1.875 -3.2476 32.5
      vertex 0 -3.75 16.25
      vertex -1.875 -3.2476 16.25
    endloop
  endfacet
  facet normal -0.258819 0.965926 0
    outer loop
      vertex 1.875 -3.2476 32.5
      vertex 1.875 -3.2476 16.25
      vertex 0 -3.75 32.5
    endloop
  endfacet
  facet normal -0.258819 0.965926 0
    outer loop
      vertex 0 -3.75 32.5
      vertex 1.875 -3.2476 16.25
      vertex 0 -3.75 16.25
    endloop
  endfacet
  facet normal -0.707107 0.707107 0
    outer loop
      vertex 3.2476 -1.875 32.5
      vertex 3.2476 -1.875 16.25
      vertex 1.875 -3.2476 32.5
    endloop
  endfacet
  facet normal -0.707107 0.707107 0
    outer loop
      vertex 1.875 -3.2476 32.5
      vertex 3.2476 -1.875 16.25
      vertex 1.875 -3.2476 16.25
    endloop
  endfacet
  facet normal -0.965926 0.258819 0
    outer loop
      vertex 3.75 0 32.5
      vertex 3.75 0 16.25
      vertex 3.2476 -1.875 32.5
    endloop
  endfacet
  facet normal -0.965926 0.258819 0
    outer loop
      vertex 3.2476 -1.875 32.5
      vertex 3.75 0 16.25
      vertex 3.2476 -1.875 16.25
    endloop
  endfacet
  facet normal -0.965926 -0.258819 0
    outer loop
      vertex 3.75 0 32.5
      vertex 3.2476 1.875 32.5
      vertex 3.75 0 16.25
    endloop
  endfacet
  facet normal -0.965926 -0.258819 0
    outer loop
      vertex 3.75 0 16.25
      vertex 3.2476 1.875 32.5
      vertex 3.2476 1.875 16.25
    endloop
  endfacet
  facet normal -0.707107 -0.707107 0
    outer loop
      vertex 3.2476 1.875 16.25
      vertex 3.2476 1.875 32.5
      vertex 1.875 3.2476 32.5
    endloop
  endfacet
  facet normal -0.707107 -0.707107 0
    outer loop
      vertex 1.875 3.2476 16.25
      vertex 3.2476 1.875 16.25
      vertex 1.875 3.2476 32.5
    endloop
  endfacet
  facet normal -0.258819 -0.965926 0
    outer loop
      vertex 1.875 3.2476 16.25
      vertex 1.875 3.2476 32.5
      vertex 0 3.75 32.5
    endloop
  endfacet
  facet normal -0.258819 -0.965926 0
    outer loop
      vertex 0 3.75 16.25
      vertex 1.875 3.2476 16.25
      vertex 0 3.75 32.5
    endloop
  endfacet
  facet normal 0.258819 -0.965926 0
    outer loop
      vertex 0 3.75 16.25
      vertex 0 3.75 32.5
      vertex -1.875 3.2476 32.5
    endloop
  endfacet
  facet normal 0.258819 -0.965926 0
    outer loop
      vertex -1.875 3.2476 16.25
      vertex 0 3.75 16.25
      vertex -1.875 3.2476 32.5
    endloop
  endfacet
  facet normal 0.707107 -0.707107 0
    outer loop
      vertex -1.875 3.2476 16.25
      vertex -1.875 3.2476 32.5
      vertex -3.2476 1.875 32.5
    endloop
  endfacet
  facet normal 0.707107 -0.707107 0
    outer loop
      vertex -3.2476 1.875 16.25
      vertex -1.875 3.2476 16.25
      vertex -3.2476 1.875 32.5
    endloop
  endfacet
  facet normal 0.965926 -0.258819 0
    outer loop
      vertex -3.2476 1.875 16.25
      vertex -3.2476 1.875 32.5
      vertex -3.75 0 32.5
    endloop
  endfacet
  facet normal 0.965926 -0.258819 0
    outer loop
      vertex -3.75 0 16.25
      vertex -3.2476 1.875 16.25
      vertex -3.75 0 32.5
    endloop
  endfacet
  facet normal 0 0 -1
    outer loop
      vertex 23 0 0
      vertex 23.3715 3.5345 0
      vertex 23.3715 -3.5345 0
    endloop
  endfacet
  facet normal 0 0 -1
    outer loop
      vertex 23.3715 -3.5345 0
      vertex 23.3715 3.5345 0
      vertex 24.4697 6.91452 0
    endloop
  endfacet
  facet normal 0 0 -1
    outer loop
      vertex 23.3715 -3.5345 0
      vertex 24.4697 6.91452 0
      vertex 26.2467 9.99235 0
    endloop
  endfacet
  facet normal 0 0 -1
    outer loop
      vertex 23.3715 -3.5345 0
      vertex 26.2467 9.99235 0
      vertex 28.6248 12.6335 0
    endloop
  endfacet
  facet normal 0 0 -1
    outer loop
      vertex 23.3715 -3.5345 0
      vertex 28.6248 12.6335 0
      vertex 31.5 14.7224 0
    endloop
  endfacet
  facet normal 0 0 -1
    outer loop
      vertex 23.3715 -3.5345 0
      vertex 31.5 14.7224 0
      vertex 34.7467 16.168 0
    endloop
  endfacet
  facet normal 0 0 -1
    outer loop
      vertex 31.7028 9.215 0
      vertex 34.7467 16.168 0
      vertex 38.223 16.9069 0
    endloop
  endfacet
  facet normal 0 0 -1
    outer loop
      vertex 36.1682 11.7931 0
      vertex 38.223 16.9069 0
      vertex 41.777 16.9069 0
    endloop
  endfacet
  facet normal 0 0 -1
    outer loop
      vertex 38.7038 12.3321 0
      vertex 41.777 16.9069 0
      vertex 45.2533 16.168 0
    endloop
  endfacet
  facet normal 0 0 -1
    outer loop
      vertex 43.8318 11.7931 0
      vertex 45.2533 16.168 0
      vertex 48.5 14.7224 0
    endloop
  endfacet
  facet normal 0 0 -1
    outer loop
      vertex 46.2 10.7387 0
      vertex 48.5 14.7224 0
      vertex 51.3752 12.6335 0
    endloop
  endfacet
  facet normal 0 0 -1
    outer loop
      vertex 48.2972 9.215 0
      vertex 51.3752 12.6335 0
      vertex 53.7533 9.99235 0
    endloop
  endfacet
  facet normal 0 0 -1
    outer loop
      vertex 50.0318 7.28854 0
      vertex 53.7533 9.99235 0
      vertex 55.5303 6.91452 0
    endloop
  endfacet
  facet normal 0 0 -1
    outer loop
      vertex 51.328 5.04353 0
      vertex 55.5303 6.91452 0
      vertex 56.6285 3.5345 0
    endloop
  endfacet
  facet normal 0 0 -1
    outer loop
      vertex 52.4 0 0
      vertex 56.6285 3.5345 0
      vertex 57 0 0
    endloop
  endfacet
  facet normal 0 0 -1
    outer loop
      vertex 52.129 -2.5781 0
      vertex 57 0 0
      vertex 56.6285 -3.5345 0
    endloop
  endfacet
  facet normal 0 0 -1
    outer loop
      vertex 51.328 -5.04353 0
      vertex 56.6285 -3.5345 0
      vertex 55.5303 -6.91452 0
    endloop
  endfacet
  facet normal 0 0 -1
    outer loop
      vertex 50.0318 -7.28854 0
      vertex 55.5303 -6.91452 0
      vertex 53.7533 -9.99235 0
    endloop
  endfacet
  facet normal 0 0 -1
    outer loop
      vertex 46.2 -10.7387 0
      vertex 53.7533 -9.99235 0
      vertex 51.3752 -12.6335 0
    endloop
  endfacet
  facet normal 0 0 -1
    outer loop
      vertex 43.8318 -11.7931 0
      vertex 51.3752 -12.6335 0
      vertex 48.5 -14.7224 0
    endloop
  endfacet
  facet normal 0 0 -1
    outer loop
      vertex 38.7038 -12.3321 0
      vertex 48.5 -14.7224 0
      vertex 45.2533 -16.168 0
    endloop
  endfacet
  facet normal 0 0 -1
    outer loop
      vertex 33.8 -10.7387 0
      vertex 45.2533 -16.168 0
      vertex 41.777 -16.9069 0
    endloop
  endfacet
  facet normal 0 0 -1
    outer loop
      vertex 23.3715 -3.5345 0
      vertex 41.777 -16.9069 0
      vertex 38.223 -16.9069 0
    endloop
  endfacet
  facet normal 0 0 -1
    outer loop
      vertex 23.3715 -3.5345 0
      vertex 38.223 -16.9069 0
      vertex 34.7467 -16.168 0
    endloop
  endfacet
  facet normal 0 0 -1
    outer loop
      vertex 23.3715 -3.5345 0
      vertex 34.7467 -16.168 0
      vertex 31.5 -14.7224 0
    endloop
  endfacet
  facet normal 0 0 -1
    outer loop
      vertex 23.3715 -3.5345 0
      vertex 31.5 -14.7224 0
      vertex 28.6248 -12.6335 0
    endloop
  endfacet
  facet normal 0 0 -1
    outer loop
      vertex 23.3715 -3.5345 0
      vertex 28.6248 -12.6335 0
      vertex 26.2467 -9.99235 0
    endloop
  endfacet
  facet normal 0 0 -1
    outer loop
      vertex 23.3715 -3.5345 0
      vertex 26.2467 -9.99235 0
      vertex 24.4697 -6.91452 0
    endloop
  endfacet
  facet normal 0 0 -1
    outer loop
      vertex 27.871 -2.5781 0
      vertex 23.3715 -3.5345 0
      vertex 27.6 0 0
    endloop
  endfacet
  facet normal 0 0 -1
    outer loop
      vertex 52.129 -2.5781 0
      vertex 56.6285 -3.5345 0
      vertex 51.328 -5.04353 0
    endloop
  endfacet
  facet normal 0 0 -1
    outer loop
      vertex 28.672 -5.04353 0
      vertex 23.3715 -3.5345 0
      vertex 27.871 -2.5781 0
    endloop
  endfacet
  facet normal 0 0 -1
    outer loop
      vertex 29.9682 -7.28854 0
      vertex 23.3715 -3.5345 0
      vertex 28.672 -5.04353 0
    endloop
  endfacet
  facet normal 0 0 -1
    outer loop
      vertex 31.7028 -9.215 0
      vertex 23.3715 -3.5345 0
      vertex 29.9682 -7.28854 0
    endloop
  endfacet
  facet normal 0 0 -1
    outer loop
      vertex 38.7038 -12.3321 0
      vertex 45.2533 -16.168 0
      vertex 36.1682 -11.7931 0
    endloop
  endfacet
  facet normal 0 0 -1
    outer loop
      vertex 23.3715 -3.5345 0
      vertex 31.7028 -9.215 0
      vertex 41.777 -16.9069 0
    endloop
  endfacet
  facet normal 0 0 -1
    outer loop
      vertex 36.1682 -11.7931 0
      vertex 45.2533 -16.168 0
      vertex 33.8 -10.7387 0
    endloop
  endfacet
  facet normal 0 0 -1
    outer loop
      vertex 31.7028 -9.215 0
      vertex 33.8 -10.7387 0
      vertex 41.777 -16.9069 0
    endloop
  endfacet
  facet normal 0 0 -1
    outer loop
      vertex 41.2962 -12.3321 0
      vertex 48.5 -14.7224 0
      vertex 38.7038 -12.3321 0
    endloop
  endfacet
  facet normal 0 0 -1
    outer loop
      vertex 43.8318 -11.7931 0
      vertex 48.5 -14.7224 0
      vertex 41.2962 -12.3321 0
    endloop
  endfacet
  facet normal 0 0 -1
    outer loop
      vertex 48.2972 -9.215 0
      vertex 53.7533 -9.99235 0
      vertex 46.2 -10.7387 0
    endloop
  endfacet
  facet normal 0 0 -1
    outer loop
      vertex 50.0318 -7.28854 0
      vertex 53.7533 -9.99235 0
      vertex 48.2972 -9.215 0
    endloop
  endfacet
  facet normal 0 0 -1
    outer loop
      vertex 46.2 -10.7387 0
      vertex 51.3752 -12.6335 0
      vertex 43.8318 -11.7931 0
    endloop
  endfacet
  facet normal 0 0 -1
    outer loop
      vertex 52.129 2.5781 0
      vertex 56.6285 3.5345 0
      vertex 52.4 0 0
    endloop
  endfacet
  facet normal 0 0 -1
    outer loop
      vertex 50.0318 7.28854 0
      vertex 55.5303 6.91452 0
      vertex 51.328 5.04353 0
    endloop
  endfacet
  facet normal 0 0 -1
    outer loop
      vertex 51.328 5.04353 0
      vertex 56.6285 3.5345 0
      vertex 52.129 2.5781 0
    endloop
  endfacet
  facet normal 0 0 -1
    outer loop
      vertex 52.4 0 0
      vertex 57 0 0
      vertex 52.129 -2.5781 0
    endloop
  endfacet
  facet normal 0 0 -1
    outer loop
      vertex 41.2962 12.3321 0
      vertex 45.2533 16.168 0
      vertex 43.8318 11.7931 0
    endloop
  endfacet
  facet normal 0 0 -1
    outer loop
      vertex 38.7038 12.3321 0
      vertex 45.2533 16.168 0
      vertex 41.2962 12.3321 0
    endloop
  endfacet
  facet normal 0 0 -1
    outer loop
      vertex 43.8318 11.7931 0
      vertex 48.5 14.7224 0
      vertex 46.2 10.7387 0
    endloop
  endfacet
  facet normal 0 0 -1
    outer loop
      vertex 33.8 10.7387 0
      vertex 38.223 16.9069 0
      vertex 36.1682 11.7931 0
    endloop
  endfacet
  facet normal 0 0 -1
    outer loop
      vertex 29.9682 7.28854 0
      vertex 34.7467 16.168 0
      vertex 31.7028 9.215 0
    endloop
  endfacet
  facet normal 0 0 -1
    outer loop
      vertex 27.871 2.5781 0
      vertex 23.3715 -3.5345 0
      vertex 28.672 5.04353 0
    endloop
  endfacet
  facet normal 0 0 -1
    outer loop
      vertex 23.3715 -3.5345 0
      vertex 34.7467 16.168 0
      vertex 29.9682 7.28854 0
    endloop
  endfacet
  facet normal 0 0 -1
    outer loop
      vertex 23.3715 -3.5345 0
      vertex 29.9682 7.28854 0
      vertex 28.672 5.04353 0
    endloop
  endfacet
  facet normal 0 0 -1
    outer loop
      vertex 46.2 10.7387 0
      vertex 51.3752 12.6335 0
      vertex 48.2972 9.215 0
    endloop
  endfacet
  facet normal 0 0 -1
    outer loop
      vertex 27.6 0 0
      vertex 23.3715 -3.5345 0
      vertex 27.871 2.5781 0
    endloop
  endfacet
  facet normal 0 0 -1
    outer loop
      vertex 31.7028 9.215 0
      vertex 38.223 16.9069 0
      vertex 33.8 10.7387 0
    endloop
  endfacet
  facet normal 0 0 -1
    outer loop
      vertex 36.1682 11.7931 0
      vertex 41.777 16.9069 0
      vertex 38.7038 12.3321 0
    endloop
  endfacet
  facet normal 0 0 -1
    outer loop
      vertex 48.2972 9.215 0
      vertex 53.7533 9.99235 0
      vertex 50.0318 7.28854 0
    endloop
  endfacet
  facet normal 0 0 -1
    outer loop
      vertex 51.328 -5.04353 0
      vertex 55.5303 -6.91452 0
      vertex 50.0318 -7.28854 0
    endloop
  endfacet
  facet normal -0.994522 0.104529 0
    outer loop
      vertex 23 0 0
      vertex 23 0 3.75
      vertex 23.3715 3.5345 0
    endloop
  endfacet
  facet normal -0.994522 0.104529 0
    outer loop
      vertex 23.3715 3.5345 0
      vertex 23 0 3.75
      vertex 23.3715 3.5345 3.75
    endloop
  endfacet
  facet normal -0.994522 -0.104529 0
    outer loop
      vertex 23 0 0
      vertex 23.3715 -3.5345 0
      vertex 23 0 3.75
    endloop
  endfacet
  facet normal -0.994522 -0.104529 0
    outer loop
      vertex 23 0 3.75
      vertex 23.3715 -3.5345 0
      vertex 23.3715 -3.5345 3.75
    endloop
  endfacet
  facet normal -0.951057 -0.309017 0
    outer loop
      vertex 23.3715 -3.5345 0
      vertex 24.4697 -6.91452 0
      vertex 23.3715 -3.5345 3.75
    endloop
  endfacet
  facet normal -0.951057 -0.309017 0
    outer loop
      vertex 23.3715 -3.5345 3.75
      vertex 24.4697 -6.91452 0
      vertex 24.4697 -6.91452 3.75
    endloop
  endfacet
  facet normal -0.866025 -0.5 0
    outer loop
      vertex 24.4697 -6.91452 0
      vertex 26.2467 -9.99235 0
      vertex 24.4697 -6.91452 3.75
    endloop
  endfacet
  facet normal -0.866025 -0.5 0
    outer loop
      vertex 24.4697 -6.91452 3.75
      vertex 26.2467 -9.99235 0
      vertex 26.2467 -9.99235 3.75
    endloop
  endfacet
  facet normal -0.743145 -0.669131 0
    outer loop
      vertex 26.2467 -9.99235 0
      vertex 28.6248 -12.6335 0
      vertex 26.2467 -9.99235 3.75
    endloop
  endfacet
  facet normal -0.743145 -0.669131 0
    outer loop
      vertex 26.2467 -9.99235 3.75
      vertex 28.6248 -12.6335 0
      vertex 28.6248 -12.6335 3.75
    endloop
  endfacet
  facet normal -0.587785 -0.809017 0
    outer loop
      vertex 28.6248 -12.6335 3.75
      vertex 28.6248 -12.6335 0
      vertex 31.5 -14.7224 0
    endloop
  endfacet
  facet normal -0.587785 -0.809017 0
    outer loop
      vertex 31.5 -14.7224 3.75
      vertex 28.6248 -12.6335 3.75
      vertex 31.5 -14.7224 0
    endloop
  endfacet
  facet normal -0.406737 -0.913545 0
    outer loop
      vertex 31.5 -14.7224 3.75
      vertex 31.5 -14.7224 0
      vertex 34.7467 -16.168 0
    endloop
  endfacet
  facet normal -0.406737 -0.913545 0
    outer loop
      vertex 34.7467 -16.168 3.75
      vertex 31.5 -14.7224 3.75
      vertex 34.7467 -16.168 0
    endloop
  endfacet
  facet normal -0.207912 -0.978148 0
    outer loop
      vertex 34.7467 -16.168 3.75
      vertex 34.7467 -16.168 0
      vertex 38.223 -16.9069 0
    endloop
  endfacet
  facet normal -0.207912 -0.978148 0
    outer loop
      vertex 38.223 -16.9069 3.75
      vertex 34.7467 -16.168 3.75
      vertex 38.223 -16.9069 0
    endloop
  endfacet
  facet normal 0 -1 0
    outer loop
      vertex 38.223 -16.9069 3.75
      vertex 38.223 -16.9069 0
      vertex 41.777 -16.9069 0
    endloop
  endfacet
  facet normal 0 -1 0
    outer loop
      vertex 41.777 -16.9069 3.75
      vertex 38.223 -16.9069 3.75
      vertex 41.777 -16.9069 0
    endloop
  endfacet
  facet normal 0.207912 -0.978148 0
    outer loop
      vertex 41.777 -16.9069 3.75
      vertex 41.777 -16.9069 0
      vertex 45.2533 -16.168 0
    endloop
  endfacet
  facet normal 0.207912 -0.978148 0
    outer loop
      vertex 45.2533 -16.168 3.75
      vertex 41.777 -16.9069 3.75
      vertex 45.2533 -16.168 0
    endloop
  endfacet
  facet normal 0.406737 -0.913545 0
    outer loop
      vertex 45.2533 -16.168 3.75
      vertex 45.2533 -16.168 0
      vertex 48.5 -14.7224 0
    endloop
  endfacet
  facet normal 0.406737 -0.913545 0
    outer loop
      vertex 48.5 -14.7224 3.75
      vertex 45.2533 -16.168 3.75
      vertex 48.5 -14.7224 0
    endloop
  endfacet
  facet normal 0.587785 -0.809017 0
    outer loop
      vertex 48.5 -14.7224 3.75
      vertex 48.5 -14.7224 0
      vertex 51.3752 -12.6335 0
    endloop
  endfacet
  facet normal 0.587785 -0.809017 0
    outer loop
      vertex 51.3752 -12.6335 3.75
      vertex 48.5 -14.7224 3.75
      vertex 51.3752 -12.6335 0
    endloop
  endfacet
  facet normal 0.743145 -0.669131 0
    outer loop
      vertex 51.3752 -12.6335 3.75
      vertex 51.3752 -12.6335 0
      vertex 53.7533 -9.99235 0
    endloop
  endfacet
  facet normal 0.743145 -0.669131 0
    outer loop
      vertex 53.7533 -9.99235 3.75
      vertex 51.3752 -12.6335 3.75
      vertex 53.7533 -9.99235 0
    endloop
  endfacet
  facet normal 0.866025 -0.5 0
    outer loop
      vertex 53.7533 -9.99235 3.75
      vertex 53.7533 -9.99235 0
      vertex 55.5303 -6.91452 0
    endloop
  endfacet
  facet normal 0.866025 -0.5 0
    outer loop
      vertex 55.5303 -6.91452 3.75
      vertex 53.7533 -9.99235 3.75
      vertex 55.5303 -6.91452 0
    endloop
  endfacet
  facet normal 0.951057 -0.309017 0
    outer loop
      vertex 55.5303 -6.91452 3.75
      vertex 55.5303 -6.91452 0
      vertex 56.6285 -3.5345 0
    endloop
  endfacet
  facet normal 0.951057 -0.309017 0
    outer loop
      vertex 56.6285 -3.5345 3.75
      vertex 55.5303 -6.91452 3.75
      vertex 56.6285 -3.5345 0
    endloop
  endfacet
  facet normal 0.994522 -0.104529 0
    outer loop
      vertex 56.6285 -3.5345 3.75
      vertex 56.6285 -3.5345 0
      vertex 57 0 0
    endloop
  endfacet
  facet normal 0.994522 -0.104529 0
    outer loop
      vertex 57 0 3.75
      vertex 56.6285 -3.5345 3.75
      vertex 57 0 0
    endloop
  endfacet
  facet normal 0.994522 0.104529 0
    outer loop
      vertex 57 0 0
      vertex 56.6285 3.5345 0
      vertex 56.6285 3.5345 3.75
    endloop
  endfacet
  facet normal 0.994522 0.104529 0
    outer loop
      vertex 57 0 3.75
      vertex 57 0 0
      vertex 56.6285 3.5345 3.75
    endloop
  endfacet
  facet normal 0.951057 0.309017 0
    outer loop
      vertex 56.6285 3.5345 0
      vertex 55.5303 6.91452 0
      vertex 55.5303 6.91452 3.75
    endloop
  endfacet
  facet normal 0.951057 0.309017 0
    outer loop
      vertex 56.6285 3.5345 3.75
      vertex 56.6285 3.5345 0
      vertex 55.5303 6.91452 3.75
    endloop
  endfacet
  facet normal 0.866025 0.5 0
    outer loop
      vertex 55.5303 6.91452 0
      vertex 53.7533 9.99235 0
      vertex 53.7533 9.99235 3.75
    endloop
  endfacet
  facet normal 0.866025 0.5 0
    outer loop
      vertex 55.5303 6.91452 3.75
      vertex 55.5303 6.91452 0
      vertex 53.7533 9.99235 3.75
    endloop
  endfacet
  facet normal 0.743145 0.669131 0
    outer loop
      vertex 53.7533 9.99235 0
      vertex 51.3752 12.6335 0
      vertex 51.3752 12.6335 3.75
    endloop
  endfacet
  facet normal 0.743145 0.669131 0
    outer loop
      vertex 53.7533 9.99235 3.75
      vertex 53.7533 9.99235 0
      vertex 51.3752 12.6335 3.75
    endloop
  endfacet
  facet normal 0.587785 0.809017 0
    outer loop
      vertex 48.5 14.7224 0
      vertex 48.5 14.7224 3.75
      vertex 51.3752 12.6335 0
    endloop
  endfacet
  facet normal 0.587785 0.809017 0
    outer loop
      vertex 51.3752 12.6335 0
      vertex 48.5 14.7224 3.75
      vertex 51.3752 12.6335 3.75
    endloop
  endfacet
  facet normal 0.406737 0.913545 0
    outer loop
      vertex 45.2533 16.168 0
      vertex 45.2533 16.168 3.75
      vertex 48.5 14.7224 0
    endloop
  endfacet
  facet normal 0.406737 0.913545 0
    outer loop
      vertex 48.5 14.7224 0
      vertex 45.2533 16.168 3.75
      vertex 48.5 14.7224 3.75
    endloop
  endfacet
  facet normal 0.207912 0.978148 0
    outer loop
      vertex 41.777 16.9069 0
      vertex 41.777 16.9069 3.75
      vertex 45.2533 16.168 0
    endloop
  endfacet
  facet normal 0.207912 0.978148 0
    outer loop
      vertex 45.2533 16.168 0
      vertex 41.777 16.9069 3.75
      vertex 45.2533 16.168 3.75
    endloop
  endfacet
  facet normal 0 1 0
    outer loop
      vertex 38.223 16.9069 0
      vertex 38.223 16.9069 3.75
      vertex 41.777 16.9069 0
    endloop
  endfacet
  facet normal 0 1 0
    outer loop
      vertex 41.777 16.9069 0
      vertex 38.223 16.9069 3.75
      vertex 41.777 16.9069 3.75
    endloop
  endfacet
  facet normal -0.207912 0.978148 0
    outer loop
      vertex 34.7467 16.168 0
      vertex 34.7467 16.168 3.75
      vertex 38.223 16.9069 0
    endloop
  endfacet
  facet normal -0.207912 0.978148 0
    outer loop
      vertex 38.223 16.9069 0
      vertex 34.7467 16.168 3.75
      vertex 38.223 16.9069 3.75
    endloop
  endfacet
  facet normal -0.406737 0.913545 0
    outer loop
      vertex 31.5 14.7224 0
      vertex 31.5 14.7224 3.75
      vertex 34.7467 16.168 0
    endloop
  endfacet
  facet normal -0.406737 0.913545 0
    outer loop
      vertex 34.7467 16.168 0
      vertex 31.5 14.7224 3.75
      vertex 34.7467 16.168 3.75
    endloop
  endfacet
  facet normal -0.587785 0.809017 0
    outer loop
      vertex 28.6248 12.6335 0
      vertex 28.6248 12.6335 3.75
      vertex 31.5 14.7224 0
    endloop
  endfacet
  facet normal -0.587785 0.809017 0
    outer loop
      vertex 31.5 14.7224 0
      vertex 28.6248 12.6335 3.75
      vertex 31.5 14.7224 3.75
    endloop
  endfacet
  facet normal -0.743145 0.669131 0
    outer loop
      vertex 26.2467 9.99235 0
      vertex 26.2467 9.99235 3.75
      vertex 28.6248 12.6335 0
    endloop
  endfacet
  facet normal -0.743145 0.669131 0
    outer loop
      vertex 28.6248 12.6335 0
      vertex 26.2467 9.99235 3.75
      vertex 28.6248 12.6335 3.75
    endloop
  endfacet
  facet normal -0.866025 0.5 0
    outer loop
      vertex 24.4697 6.91452 0
      vertex 24.4697 6.91452 3.75
      vertex 26.2467 9.99235 0
    endloop
  endfacet
  facet normal -0.866025 0.5 0
    outer loop
      vertex 26.2467 9.99235 0
      vertex 24.4697 6.91452 3.75
      vertex 26.2467 9.99235 3.75
    endloop
  endfacet
  facet normal -0.951057 0.309017 0
    outer loop
      vertex 23.3715 3.5345 0
      vertex 23.3715 3.5345 3.75
      vertex 24.4697 6.91452 0
    endloop
  endfacet
  facet normal -0.951057 0.309017 0
    outer loop
      vertex 24.4697 6.91452 0
      vertex 23.3715 3.5345 3.75
      vertex 24.4697 6.91452 3.75
    endloop
  endfacet
  facet normal 0.994522 -0.104529 0
    outer loop
      vertex 27.871 2.5781 0
      vertex 27.871 2.5781 3.75
      vertex 27.6 0 3.75
    endloop
  endfacet
  facet normal 0.994522 -0.104529 0
    outer loop
      vertex 27.6 0 0
      vertex 27.871 2.5781 0
      vertex 27.6 0 3.75
    endloop
  endfacet
  facet normal 0.994522 0.104529 0
    outer loop
      vertex 27.6 0 3.75
      vertex 27.871 -2.5781 3.75
      vertex 27.871 -2.5781 0
    endloop
  endfacet
  facet normal 0.994522 0.104529 0
    outer loop
      vertex 27.6 0 0
      vertex 27.6 0 3.75
      vertex 27.871 -2.5781 0
    endloop
  endfacet
  facet normal 0.951057 -0.309017 0
    outer loop
      vertex 28.672 5.04353 0
      vertex 28.672 5.04353 3.75
      vertex 27.871 2.5781 3.75
    endloop
  endfacet
  facet normal 0.951057 -0.309017 0
    outer loop
      vertex 27.871 2.5781 0
      vertex 28.672 5.04353 0
      vertex 27.871 2.5781 3.75
    endloop
  endfacet
  facet normal 0.866025 -0.5 0
    outer loop
      vertex 29.9682 7.28854 0
      vertex 29.9682 7.28854 3.75
      vertex 28.672 5.04353 3.75
    endloop
  endfacet
  facet normal 0.866025 -0.5 0
    outer loop
      vertex 28.672 5.04353 0
      vertex 29.9682 7.28854 0
      vertex 28.672 5.04353 3.75
    endloop
  endfacet
  facet normal 0.743145 -0.669131 0
    outer loop
      vertex 31.7028 9.215 0
      vertex 31.7028 9.215 3.75
      vertex 29.9682 7.28854 3.75
    endloop
  endfacet
  facet normal 0.743145 -0.669131 0
    outer loop
      vertex 29.9682 7.28854 0
      vertex 31.7028 9.215 0
      vertex 29.9682 7.28854 3.75
    endloop
  endfacet
  facet normal 0.587785 -0.809017 0
    outer loop
      vertex 33.8 10.7387 0
      vertex 33.8 10.7387 3.75
      vertex 31.7028 9.215 3.75
    endloop
  endfacet
  facet normal 0.587785 -0.809017 0
    outer loop
      vertex 31.7028 9.215 0
      vertex 33.8 10.7387 0
      vertex 31.7028 9.215 3.75
    endloop
  endfacet
  facet normal 0.406737 -0.913545 0
    outer loop
      vertex 36.1682 11.7931 0
      vertex 36.1682 11.7931 3.75
      vertex 33.8 10.7387 3.75
    endloop
  endfacet
  facet normal 0.406737 -0.913545 0
    outer loop
      vertex 33.8 10.7387 0
      vertex 36.1682 11.7931 0
      vertex 33.8 10.7387 3.75
    endloop
  endfacet
  facet normal 0.207912 -0.978148 0
    outer loop
      vertex 38.7038 12.3321 0
      vertex 38.7038 12.3321 3.75
      vertex 36.1682 11.7931 3.75
    endloop
  endfacet
  facet normal 0.207912 -0.978148 0
    outer loop
      vertex 36.1682 11.7931 0
      vertex 38.7038 12.3321 0
      vertex 36.1682 11.7931 3.75
    endloop
  endfacet
  facet normal 0 -1 0
    outer loop
      vertex 41.2962 12.3321 0
      vertex 41.2962 12.3321 3.75
      vertex 38.7038 12.3321 3.75
    endloop
  endfacet
  facet normal 0 -1 0
    outer loop
      vertex 38.7038 12.3321 0
      vertex 41.2962 12.3321 0
      vertex 38.7038 12.3321 3.75
    endloop
  endfacet
  facet normal -0.207912 -0.978148 0
    outer loop
      vertex 43.8318 11.7931 0
      vertex 43.8318 11.7931 3.75
      vertex 41.2962 12.3321 3.75
    endloop
  endfacet
  facet normal -0.207912 -0.978148 0
    outer loop
      vertex 41.2962 12.3321 0
      vertex 43.8318 11.7931 0
      vertex 41.2962 12.3321 3.75
    endloop
  endfacet
  facet normal -0.406737 -0.913545 0
    outer loop
      vertex 46.2 10.7387 0
      vertex 46.2 10.7387 3.75
      vertex 43.8318 11.7931 3.75
    endloop
  endfacet
  facet normal -0.406737 -0.913545 0
    outer loop
      vertex 43.8318 11.7931 0
      vertex 46.2 10.7387 0
      vertex 43.8318 11.7931 3.75
    endloop
  endfacet
  facet normal -0.587785 -0.809017 0
    outer loop
      vertex 48.2972 9.215 0
      vertex 48.2972 9.215 3.75
      vertex 46.2 10.7387 3.75
    endloop
  endfacet
  facet normal -0.587785 -0.809017 0
    outer loop
      vertex 46.2 10.7387 0
      vertex 48.2972 9.215 0
      vertex 46.2 10.7387 3.75
    endloop
  endfacet
  facet normal -0.743145 -0.669131 0
    outer loop
      vertex 50.0318 7.28854 3.75
      vertex 48.2972 9.215 3.75
      vertex 50.0318 7.28854 0
    endloop
  endfacet
  facet normal -0.743145 -0.669131 0
    outer loop
      vertex 50.0318 7.28854 0
      vertex 48.2972 9.215 3.75
      vertex 48.2972 9.215 0
    endloop
  endfacet
  facet normal -0.866025 -0.5 0
    outer loop
      vertex 51.328 5.04353 3.75
      vertex 50.0318 7.28854 3.75
      vertex 51.328 5.04353 0
    endloop
  endfacet
  facet normal -0.866025 -0.5 0
    outer loop
      vertex 51.328 5.04353 0
      vertex 50.0318 7.28854 3.75
      vertex 50.0318 7.28854 0
    endloop
  endfacet
  facet normal -0.951057 -0.309017 0
    outer loop
      vertex 52.129 2.5781 3.75
      vertex 51.328 5.04353 3.75
      vertex 52.129 2.5781 0
    endloop
  endfacet
  facet normal -0.951057 -0.309017 0
    outer loop
      vertex 52.129 2.5781 0
      vertex 51.328 5.04353 3.75
      vertex 51.328 5.04353 0
    endloop
  endfacet
  facet normal -0.994522 -0.104529 0
    outer loop
      vertex 52.4 0 3.75
      vertex 52.129 2.5781 3.75
      vertex 52.4 0 0
    endloop
  endfacet
  facet normal -0.994522 -0.104529 0
    outer loop
      vertex 52.4 0 0
      vertex 52.129 2.5781 3.75
      vertex 52.129 2.5781 0
    endloop
  endfacet
  facet normal -0.994522 0.104529 0
    outer loop
      vertex 52.4 0 3.75
      vertex 52.4 0 0
      vertex 52.129 -2.5781 3.75
    endloop
  endfacet
  facet normal -0.994522 0.104529 0
    outer loop
      vertex 52.129 -2.5781 3.75
      vertex 52.4 0 0
      vertex 52.129 -2.5781 0
    endloop
  endfacet
  facet normal -0.951057 0.309017 0
    outer loop
      vertex 52.129 -2.5781 3.75
      vertex 52.129 -2.5781 0
      vertex 51.328 -5.04353 3.75
    endloop
  endfacet
  facet normal -0.951057 0.309017 0
    outer loop
      vertex 51.328 -5.04353 3.75
      vertex 52.129 -2.5781 0
      vertex 51.328 -5.04353 0
    endloop
  endfacet
  facet normal -0.866025 0.5 0
    outer loop
      vertex 51.328 -5.04353 3.75
      vertex 51.328 -5.04353 0
      vertex 50.0318 -7.28854 3.75
    endloop
  endfacet
  facet normal -0.866025 0.5 0
    outer loop
      vertex 50.0318 -7.28854 3.75
      vertex 51.328 -5.04353 0
      vertex 50.0318 -7.28854 0
    endloop
  endfacet
  facet normal -0.743145 0.669131 0
    outer loop
      vertex 50.0318 -7.28854 3.75
      vertex 50.0318 -7.28854 0
      vertex 48.2972 -9.215 3.75
    endloop
  endfacet
  facet normal -0.743145 0.669131 0
    outer loop
      vertex 48.2972 -9.215 3.75
      vertex 50.0318 -7.28854 0
      vertex 48.2972 -9.215 0
    endloop
  endfacet
  facet normal -0.587785 0.809017 0
    outer loop
      vertex 48.2972 -9.215 3.75
      vertex 48.2972 -9.215 0
      vertex 46.2 -10.7387 3.75
    endloop
  endfacet
  facet normal -0.587785 0.809017 0
    outer loop
      vertex 46.2 -10.7387 3.75
      vertex 48.2972 -9.215 0
      vertex 46.2 -10.7387 0
    endloop
  endfacet
  facet normal -0.406737 0.913545 0
    outer loop
      vertex 46.2 -10.7387 3.75
      vertex 46.2 -10.7387 0
      vertex 43.8318 -11.7931 3.75
    endloop
  endfacet
  facet normal -0.406737 0.913545 0
    outer loop
      vertex 43.8318 -11.7931 3.75
      vertex 46.2 -10.7387 0
      vertex 43.8318 -11.7931 0
    endloop
  endfacet
  facet normal -0.207912 0.978148 0
    outer loop
      vertex 43.8318 -11.7931 3.75
      vertex 43.8318 -11.7931 0
      vertex 41.2962 -12.3321 3.75
    endloop
  endfacet
  facet normal -0.207912 0.978148 0
    outer loop
      vertex 41.2962 -12.3321 3.75
      vertex 43.8318 -11.7931 0
      vertex 41.2962 -12.3321 0
    endloop
  endfacet
  facet normal 0 1 0
    outer loop
      vertex 41.2962 -12.3321 3.75
      vertex 41.2962 -12.3321 0
      vertex 38.7038 -12.3321 3.75
    endloop
  endfacet
  facet normal 0 1 0
    outer loop
      vertex 38.7038 -12.3321 3.75
      vertex 41.2962 -12.3321 0
      vertex 38.7038 -12.3321 0
    endloop
  endfacet
  facet normal 0.207912 0.978148 0
    outer loop
      vertex 38.7038 -12.3321 3.75
      vertex 38.7038 -12.3321 0
      vertex 36.1682 -11.7931 3.75
    endloop
  endfacet
  facet normal 0.207912 0.978148 0
    outer loop
      vertex 36.1682 -11.7931 3.75
      vertex 38.7038 -12.3321 0
      vertex 36.1682 -11.7931 0
    endloop
  endfacet
  facet normal 0.406737 0.913545 0
    outer loop
      vertex 36.1682 -11.7931 3.75
      vertex 36.1682 -11.7931 0
      vertex 33.8 -10.7387 3.75
    endloop
  endfacet
  facet normal 0.406737 0.913545 0
    outer loop
      vertex 33.8 -10.7387 3.75
      vertex 36.1682 -11.7931 0
      vertex 33.8 -10.7387 0
    endloop
  endfacet
  facet normal 0.587785 0.809017 0
    outer loop
      vertex 33.8 -10.7387 3.75
      vertex 33.8 -10.7387 0
      vertex 31.7028 -9.215 3.75
    endloop
  endfacet
  facet normal 0.587785 0.809017 0
    outer loop
      vertex 31.7028 -9.215 3.75
      vertex 33.8 -10.7387 0
      vertex 31.7028 -9.215 0
    endloop
  endfacet
  facet normal 0.743145 0.669131 0
    outer loop
      vertex 29.9682 -7.28854 3.75
      vertex 31.7028 -9.215 3.75
      vertex 31.7028 -9.215 0
    endloop
  endfacet
  facet normal 0.743145 0.669131 0
    outer loop
      vertex 29.9682 -7.28854 0
      vertex 29.9682 -7.28854 3.75
      vertex 31.7028 -9.215 0
    endloop
  endfacet
  facet normal 0.866025 0.5 0
    outer loop
      vertex 28.672 -5.04353 3.75
      vertex 29.9682 -7.28854 3.75
      vertex 29.9682 -7.28854 0
    endloop
  endfacet
  facet normal 0.866025 0.5 0
    outer loop
      vertex 28.672 -5.04353 0
      vertex 28.672 -5.04353 3.75
      vertex 29.9682 -7.28854 0
    endloop
  endfacet
  facet normal 0.951057 0.309017 0
    outer loop
      vertex 27.871 -2.5781 3.75
      vertex 28.672 -5.04353 3.75
      vertex 28.672 -5.04353 0
    endloop
  endfacet
  facet normal 0.951057 0.309017 0
    outer loop
      vertex 27.871 -2.5781 0
      vertex 27.871 -2.5781 3.75
      vertex 28.672 -5.04353 0
    endloop
  endfacet
  facet normal 0 0 1
    outer loop
      vertex 23.3715 3.5345 3.75
      vertex 23 0 3.75
      vertex 23.3715 -3.5345 3.75
    endloop
  endfacet
  facet normal 0 0 1
    outer loop
      vertex 26.2467 -9.99235 3.75
      vertex 23.3715 3.5345 3.75
      vertex 24.4697 -6.91452 3.75
    endloop
  endfacet
  facet normal 0 0 1
    outer loop
      vertex 24.4697 -6.91452 3.75
      vertex 23.3715 3.5345 3.75
      vertex 23.3715 -3.5345 3.75
    endloop
  endfacet
  facet normal 0 0 1
    outer loop
      vertex 28.6248 -12.6335 3.75
      vertex 23.3715 3.5345 3.75
      vertex 26.2467 -9.99235 3.75
    endloop
  endfacet
  facet normal 0 0 1
    outer loop
      vertex 31.5 -14.7224 3.75
      vertex 23.3715 3.5345 3.75
      vertex 28.6248 -12.6335 3.75
    endloop
  endfacet
  facet normal 0 0 1
    outer loop
      vertex 34.7467 -16.168 3.75
      vertex 23.3715 3.5345 3.75
      vertex 31.5 -14.7224 3.75
    endloop
  endfacet
  facet normal 0 0 1
    outer loop
      vertex 29.9682 -7.28854 3.75
      vertex 23.3715 3.5345 3.75
      vertex 34.7467 -16.168 3.75
    endloop
  endfacet
  facet normal 0 0 1
    outer loop
      vertex 48.2972 9.215 3.75
      vertex 50.0318 7.28854 3.75
      vertex 53.7533 9.99235 3.75
    endloop
  endfacet
  facet normal 0 0 1
    outer loop
      vertex 36.1682 11.7931 3.75
      vertex 38.7038 12.3321 3.75
      vertex 45.2533 16.168 3.75
    endloop
  endfacet
  facet normal 0 0 1
    outer loop
      vertex 41.2962 12.3321 3.75
      vertex 43.8318 11.7931 3.75
      vertex 48.5 14.7224 3.75
    endloop
  endfacet
  facet normal 0 0 1
    outer loop
      vertex 38.223 16.9069 3.75
      vertex 23.3715 3.5345 3.75
      vertex 41.777 16.9069 3.75
    endloop
  endfacet
  facet normal 0 0 1
    outer loop
      vertex 34.7467 16.168 3.75
      vertex 23.3715 3.5345 3.75
      vertex 38.223 16.9069 3.75
    endloop
  endfacet
  facet normal 0 0 1
    outer loop
      vertex 31.5 14.7224 3.75
      vertex 23.3715 3.5345 3.75
      vertex 34.7467 16.168 3.75
    endloop
  endfacet
  facet normal 0 0 1
    outer loop
      vertex 28.6248 12.6335 3.75
      vertex 23.3715 3.5345 3.75
      vertex 31.5 14.7224 3.75
    endloop
  endfacet
  facet normal 0 0 1
    outer loop
      vertex 26.2467 9.99235 3.75
      vertex 23.3715 3.5345 3.75
      vertex 28.6248 12.6335 3.75
    endloop
  endfacet
  facet normal 0 0 1
    outer loop
      vertex 24.4697 6.91452 3.75
      vertex 23.3715 3.5345 3.75
      vertex 26.2467 9.99235 3.75
    endloop
  endfacet
  facet normal 0 0 1
    outer loop
      vertex 50.0318 -7.28854 3.75
      vertex 48.2972 -9.215 3.75
      vertex 53.7533 -9.99235 3.75
    endloop
  endfacet
  facet normal 0 0 1
    outer loop
      vertex 50.0318 7.28854 3.75
      vertex 51.328 5.04353 3.75
      vertex 55.5303 6.91452 3.75
    endloop
  endfacet
  facet normal 0 0 1
    outer loop
      vertex 43.8318 11.7931 3.75
      vertex 46.2 10.7387 3.75
      vertex 51.3752 12.6335 3.75
    endloop
  endfacet
  facet normal 0 0 1
    outer loop
      vertex 41.777 16.9069 3.75
      vertex 23.3715 3.5345 3.75
      vertex 31.7028 9.215 3.75
    endloop
  endfacet
  facet normal 0 0 1
    outer loop
      vertex 41.777 16.9069 3.75
      vertex 33.8 10.7387 3.75
      vertex 45.2533 16.168 3.75
    endloop
  endfacet
  facet normal 0 0 1
    outer loop
      vertex 41.777 16.9069 3.75
      vertex 31.7028 9.215 3.75
      vertex 33.8 10.7387 3.75
    endloop
  endfacet
  facet normal 0 0 1
    outer loop
      vertex 33.8 10.7387 3.75
      vertex 36.1682 11.7931 3.75
      vertex 45.2533 16.168 3.75
    endloop
  endfacet
  facet normal 0 0 1
    outer loop
      vertex 45.2533 16.168 3.75
      vertex 38.7038 12.3321 3.75
      vertex 48.5 14.7224 3.75
    endloop
  endfacet
  facet normal 0 0 1
    outer loop
      vertex 38.7038 12.3321 3.75
      vertex 41.2962 12.3321 3.75
      vertex 48.5 14.7224 3.75
    endloop
  endfacet
  facet normal 0 0 1
    outer loop
      vertex 48.5 14.7224 3.75
      vertex 43.8318 11.7931 3.75
      vertex 51.3752 12.6335 3.75
    endloop
  endfacet
  facet normal 0 0 1
    outer loop
      vertex 29.9682 7.28854 3.75
      vertex 31.7028 9.215 3.75
      vertex 23.3715 3.5345 3.75
    endloop
  endfacet
  facet normal 0 0 1
    outer loop
      vertex 51.3752 12.6335 3.75
      vertex 46.2 10.7387 3.75
      vertex 53.7533 9.99235 3.75
    endloop
  endfacet
  facet normal 0 0 1
    outer loop
      vertex 46.2 10.7387 3.75
      vertex 48.2972 9.215 3.75
      vertex 53.7533 9.99235 3.75
    endloop
  endfacet
  facet normal 0 0 1
    outer loop
      vertex 53.7533 9.99235 3.75
      vertex 50.0318 7.28854 3.75
      vertex 55.5303 6.91452 3.75
    endloop
  endfacet
  facet normal 0 0 1
    outer loop
      vertex 46.2 -10.7387 3.75
      vertex 43.8318 -11.7931 3.75
      vertex 48.5 -14.7224 3.75
    endloop
  endfacet
  facet normal 0 0 1
    outer loop
      vertex 55.5303 6.91452 3.75
      vertex 51.328 5.04353 3.75
      vertex 56.6285 3.5345 3.75
    endloop
  endfacet
  facet normal 0 0 1
    outer loop
      vertex 28.672 5.04353 3.75
      vertex 29.9682 7.28854 3.75
      vertex 23.3715 3.5345 3.75
    endloop
  endfacet
  facet normal 0 0 1
    outer loop
      vertex 56.6285 3.5345 3.75
      vertex 52.129 2.5781 3.75
      vertex 57 0 3.75
    endloop
  endfacet
  facet normal 0 0 1
    outer loop
      vertex 57 0 3.75
      vertex 52.4 0 3.75
      vertex 56.6285 -3.5345 3.75
    endloop
  endfacet
  facet normal 0 0 1
    outer loop
      vertex 52.4 0 3.75
      vertex 52.129 -2.5781 3.75
      vertex 56.6285 -3.5345 3.75
    endloop
  endfacet
  facet normal 0 0 1
    outer loop
      vertex 56.6285 -3.5345 3.75
      vertex 51.328 -5.04353 3.75
      vertex 55.5303 -6.91452 3.75
    endloop
  endfacet
  facet normal 0 0 1
    outer loop
      vertex 55.5303 -6.91452 3.75
      vertex 50.0318 -7.28854 3.75
      vertex 53.7533 -9.99235 3.75
    endloop
  endfacet
  facet normal 0 0 1
    outer loop
      vertex 51.328 5.04353 3.75
      vertex 52.129 2.5781 3.75
      vertex 56.6285 3.5345 3.75
    endloop
  endfacet
  facet normal 0 0 1
    outer loop
      vertex 53.7533 -9.99235 3.75
      vertex 48.2972 -9.215 3.75
      vertex 51.3752 -12.6335 3.75
    endloop
  endfacet
  facet normal 0 0 1
    outer loop
      vertex 52.129 2.5781 3.75
      vertex 52.4 0 3.75
      vertex 57 0 3.75
    endloop
  endfacet
  facet normal 0 0 1
    outer loop
      vertex 51.3752 -12.6335 3.75
      vertex 46.2 -10.7387 3.75
      vertex 48.5 -14.7224 3.75
    endloop
  endfacet
  facet normal 0 0 1
    outer loop
      vertex 52.129 -2.5781 3.75
      vertex 51.328 -5.04353 3.75
      vertex 56.6285 -3.5345 3.75
    endloop
  endfacet
  facet normal 0 0 1
    outer loop
      vertex 48.5 -14.7224 3.75
      vertex 43.8318 -11.7931 3.75
      vertex 45.2533 -16.168 3.75
    endloop
  endfacet
  facet normal 0 0 1
    outer loop
      vertex 43.8318 -11.7931 3.75
      vertex 41.2962 -12.3321 3.75
      vertex 45.2533 -16.168 3.75
    endloop
  endfacet
  facet normal 0 0 1
    outer loop
      vertex 45.2533 -16.168 3.75
      vertex 38.7038 -12.3321 3.75
      vertex 41.777 -16.9069 3.75
    endloop
  endfacet
  facet normal 0 0 1
    outer loop
      vertex 48.2972 -9.215 3.75
      vertex 46.2 -10.7387 3.75
      vertex 51.3752 -12.6335 3.75
    endloop
  endfacet
  facet normal 0 0 1
    outer loop
      vertex 41.777 -16.9069 3.75
      vertex 36.1682 -11.7931 3.75
      vertex 38.223 -16.9069 3.75
    endloop
  endfacet
  facet normal 0 0 1
    outer loop
      vertex 36.1682 -11.7931 3.75
      vertex 33.8 -10.7387 3.75
      vertex 38.223 -16.9069 3.75
    endloop
  endfacet
  facet normal 0 0 1
    outer loop
      vertex 38.223 -16.9069 3.75
      vertex 31.7028 -9.215 3.75
      vertex 34.7467 -16.168 3.75
    endloop
  endfacet
  facet normal 0 0 1
    outer loop
      vertex 31.7028 -9.215 3.75
      vertex 29.9682 -7.28854 3.75
      vertex 34.7467 -16.168 3.75
    endloop
  endfacet
  facet normal 0 0 1
    outer loop
      vertex 28.672 -5.04353 3.75
      vertex 23.3715 3.5345 3.75
      vertex 29.9682 -7.28854 3.75
    endloop
  endfacet
  facet normal 0 0 1
    outer loop
      vertex 33.8 -10.7387 3.75
      vertex 31.7028 -9.215 3.75
      vertex 38.223 -16.9069 3.75
    endloop
  endfacet
  facet normal 0 0 1
    outer loop
      vertex 28.672 -5.04353 3.75
      vertex 27.871 -2.5781 3.75
      vertex 23.3715 3.5345 3.75
    endloop
  endfacet
  facet normal 0 0 1
    outer loop
      vertex 27.871 -2.5781 3.75
      vertex 27.6 0 3.75
      vertex 23.3715 3.5345 3.75
    endloop
  endfacet
  facet normal 0 0 1
    outer loop
      vertex 38.7038 -12.3321 3.75
      vertex 36.1682 -11.7931 3.75
      vertex 41.777 -16.9069 3.75
    endloop
  endfacet
  facet normal 0 0 1
    outer loop
      vertex 41.2962 -12.3321 3.75
      vertex 38.7038 -12.3321 3.75
      vertex 45.2533 -16.168 3.75
    endloop
  endfacet
  facet normal 0 0 1
    outer loop
      vertex 27.6 0 3.75
      vertex 27.871 2.5781 3.75
      vertex 23.3715 3.5345 3.75
    endloop
  endfacet
  facet normal 0 0 1
    outer loop
      vertex 51.328 -5.04353 3.75
      vertex 50.0318 -7.28854 3.75
      vertex 55.5303 -6.91452 3.75
    endloop
  endfacet
  facet normal 0 0 1
    outer loop
      vertex 27.871 2.5781 3.75
      vertex 28.672 5.04353 3.75
      vertex 23.3715 3.5345 3.75
    endloop
  endfacet
endsolid OpenSCAD_Model
