  0
SECTION
  2
BLOCKS
  0
ENDSEC
  0
SECTION
  2
ENTITIES
  0
LINE
  8
0
 10
-10
 11
-9.781
 20
0
 21
2.079
  0
LINE
  8
0
 10
-9.781
 11
-9.135
 20
2.079
 21
4.067
  0
LINE
  8
0
 10
-9.135
 11
-8.09
 20
4.067
 21
5.878
  0
LINE
  8
0
 10
-8.09
 11
-6.691
 20
5.878
 21
7.431
  0
LINE
  8
0
 10
-6.691
 11
-5
 20
7.431
 21
8.66
  0
LINE
  8
0
 10
-5
 11
-3.09
 20
8.66
 21
9.511
  0
LINE
  8
0
 10
-3.09
 11
-1.045
 20
9.511
 21
9.945
  0
LINE
  8
0
 10
-1.045
 11
1.045
 20
9.945
 21
9.945
  0
LINE
  8
0
 10
1.045
 11
3.09
 20
9.945
 21
9.511
  0
LINE
  8
0
 10
3.09
 11
5
 20
9.511
 21
8.66
  0
LINE
  8
0
 10
5
 11
6.691
 20
8.66
 21
7.431
  0
LINE
  8
0
 10
6.691
 11
8.09
 20
7.431
 21
5.878
  0
LINE
  8
0
 10
8.09
 11
9.135
 20
5.878
 21
4.067
  0
LINE
  8
0
 10
9.135
 11
9.781
 20
4.067
 21
2.079
  0
LINE
  8
0
 10
9.781
 11
10
 20
2.079
 21
0
  0
LINE
  8
0
 10
10
 11
9.781
 20
0
 21
-2.079
  0
LINE
  8
0
 10
9.781
 11
9.135
 20
-2.079
 21
-4.067
  0
LINE
  8
0
 10
9.135
 11
8.09
 20
-4.067
 21
-5.878
  0
LINE
  8
0
 10
8.09
 11
6.691
 20
-5.878
 21
-7.431
  0
LINE
  8
0
 10
6.691
 11
5
 20
-7.431
 21
-8.66
  0
LINE
  8
0
 10
5
 11
3.09
 20
-8.66
 21
-9.511
  0
LINE
  8
0
 10
3.09
 11
1.045
 20
-9.511
 21
-9.945
  0
LINE
  8
0
 10
1.045
 11
-1.045
 20
-9.945
 21
-9.945
  0
LINE
  8
0
 10
-1.045
 11
-3.09
 20
-9.945
 21
-9.511
  0
LINE
  8
0
 10
-3.09
 11
-5
 20
-9.511
 21
-8.66
  0
LINE
  8
0
 10
-5
 11
-6.691
 20
-8.66
 21
-7.431
  0
LINE
  8
0
 10
-6.691
 11
-8.09
 20
-7.431
 21
-5.878
  0
LINE
  8
0
 10
-8.09
 11
-9.135
 20
-5.878
 21
-4.067
  0
LINE
  8
0
 10
-9.135
 11
-9.781
 20
-4.067
 21
-2.079
  0
LINE
  8
0
 10
-9.781
 11
-10
 20
-2.079
 21
0
  0
ENDSEC
  0
SECTION
  2
OBJECTS
  0
DICTIONARY
  0
ENDSEC
  0
EOF
