solid OpenSCAD_Model
  facet normal 0 0 -1
    outer loop
      vertex -70 0 0
      vertex -68.4703 14.5538 0
      vertex -68.4703 -14.5538 0
    endloop
  endfacet
  facet normal 0 0 -1
    outer loop
      vertex -68.4703 -14.5538 0
      vertex -68.4703 14.5538 0
      vertex -63.9482 28.4716 0
    endloop
  endfacet
  facet normal 0 0 -1
    outer loop
      vertex -68.4703 -14.5538 0
      vertex -63.9482 28.4716 0
      vertex -56.6312 41.145 0
    endloop
  endfacet
  facet normal 0 0 -1
    outer loop
      vertex -68.4703 -14.5538 0
      vertex -56.6312 41.145 0
      vertex -46.8391 52.0201 0
    endloop
  endfacet
  facet normal 0 0 -1
    outer loop
      vertex -68.4703 -14.5538 0
      vertex -46.8391 52.0201 0
      vertex -35 60.6218 0
    endloop
  endfacet
  facet normal 0 0 -1
    outer loop
      vertex -68.4703 -14.5538 0
      vertex -35 60.6218 0
      vertex -21.6312 66.574 0
    endloop
  endfacet
  facet normal 0 0 -1
    outer loop
      vertex -68.4703 -14.5538 0
      vertex -21.6312 66.574 0
      vertex -7.31699 69.6165 0
    endloop
  endfacet
  facet normal 0 0 -1
    outer loop
      vertex -68.4703 -14.5538 0
      vertex -7.31699 69.6165 0
      vertex 7.31699 69.6165 0
    endloop
  endfacet
  facet normal 0 0 -1
    outer loop
      vertex -68.4703 -14.5538 0
      vertex 7.31699 69.6165 0
      vertex 21.6312 66.574 0
    endloop
  endfacet
  facet normal 0 0 -1
    outer loop
      vertex -68.4703 -14.5538 0
      vertex 21.6312 66.574 0
      vertex 35 60.6218 0
    endloop
  endfacet
  facet normal 0 0 -1
    outer loop
      vertex -68.4703 -14.5538 0
      vertex 35 60.6218 0
      vertex 46.8391 52.0201 0
    endloop
  endfacet
  facet normal 0 0 -1
    outer loop
      vertex -68.4703 -14.5538 0
      vertex 46.8391 52.0201 0
      vertex 56.6312 41.145 0
    endloop
  endfacet
  facet normal 0 0 -1
    outer loop
      vertex -68.4703 -14.5538 0
      vertex 56.6312 41.145 0
      vertex 62 31.8459 0
    endloop
  endfacet
  facet normal 0 0 -1
    outer loop
      vertex 62 31.8459 0
      vertex 62 70 0
      vertex 70 70 0
    endloop
  endfacet
  facet normal 0 0 -1
    outer loop
      vertex 62 31.8459 0
      vertex 70 70 0
      vertex 70 0 0
    endloop
  endfacet
  facet normal 0 0 -1
    outer loop
      vertex -0.445042 -1.94986 0
      vertex 70 0 0
      vertex -68.4703 -14.5538 0
    endloop
  endfacet
  facet normal 0 0 -1
    outer loop
      vertex -68.4703 -14.5538 0
      vertex 70 0 0
      vertex 68.4703 -14.5538 0
    endloop
  endfacet
  facet normal 0 0 -1
    outer loop
      vertex -68.4703 -14.5538 0
      vertex 68.4703 -14.5538 0
      vertex 63.9482 -28.4716 0
    endloop
  endfacet
  facet normal 0 0 -1
    outer loop
      vertex -68.4703 -14.5538 0
      vertex 63.9482 -28.4716 0
      vertex 56.6312 -41.145 0
    endloop
  endfacet
  facet normal 0 0 -1
    outer loop
      vertex -68.4703 -14.5538 0
      vertex 56.6312 -41.145 0
      vertex 46.8391 -52.0201 0
    endloop
  endfacet
  facet normal 0 0 -1
    outer loop
      vertex -68.4703 -14.5538 0
      vertex 46.8391 -52.0201 0
      vertex 35 -60.6218 0
    endloop
  endfacet
  facet normal 0 0 -1
    outer loop
      vertex -68.4703 -14.5538 0
      vertex 35 -60.6218 0
      vertex 21.6312 -66.574 0
    endloop
  endfacet
  facet normal 0 0 -1
    outer loop
      vertex -68.4703 -14.5538 0
      vertex 21.6312 -66.574 0
      vertex 7.31699 -69.6165 0
    endloop
  endfacet
  facet normal 0 0 -1
    outer loop
      vertex -68.4703 -14.5538 0
      vertex 7.31699 -69.6165 0
      vertex -7.31699 -69.6165 0
    endloop
  endfacet
  facet normal 0 0 -1
    outer loop
      vertex -68.4703 -14.5538 0
      vertex -7.31699 -69.6165 0
      vertex -21.6312 -66.574 0
    endloop
  endfacet
  facet normal 0 0 -1
    outer loop
      vertex -68.4703 -14.5538 0
      vertex -21.6312 -66.574 0
      vertex -35 -60.6218 0
    endloop
  endfacet
  facet normal 0 0 -1
    outer loop
      vertex -68.4703 -14.5538 0
      vertex -35 -60.6218 0
      vertex -46.8391 -52.0201 0
    endloop
  endfacet
  facet normal 0 0 -1
    outer loop
      vertex -68.4703 -14.5538 0
      vertex -46.8391 -52.0201 0
      vertex -56.6312 -41.145 0
    endloop
  endfacet
  facet normal 0 0 -1
    outer loop
      vertex -68.4703 -14.5538 0
      vertex -56.6312 -41.145 0
      vertex -63.9482 -28.4716 0
    endloop
  endfacet
  facet normal 0 0 -1
    outer loop
      vertex -0.445042 1.94986 0
      vertex 62 31.8459 0
      vertex 1.24698 1.56366 0
    endloop
  endfacet
  facet normal 0 0 -1
    outer loop
      vertex -0.445042 1.94986 0
      vertex -1.80194 0.867767 0
      vertex -68.4703 -14.5538 0
    endloop
  endfacet
  facet normal 0 0 -1
    outer loop
      vertex 1.24698 1.56366 0
      vertex 70 0 0
      vertex 2 0 0
    endloop
  endfacet
  facet normal 0 0 -1
    outer loop
      vertex -1.80194 0.867767 0
      vertex -1.80194 -0.867767 0
      vertex -68.4703 -14.5538 0
    endloop
  endfacet
  facet normal 0 0 -1
    outer loop
      vertex 1.24698 -1.56366 0
      vertex 70 0 0
      vertex -0.445042 -1.94986 0
    endloop
  endfacet
  facet normal 0 0 -1
    outer loop
      vertex -1.80194 -0.867767 0
      vertex -0.445042 -1.94986 0
      vertex -68.4703 -14.5538 0
    endloop
  endfacet
  facet normal 0 0 -1
    outer loop
      vertex 62 31.8459 0
      vertex 70 0 0
      vertex 1.24698 1.56366 0
    endloop
  endfacet
  facet normal 0 0 -1
    outer loop
      vertex 62 31.8459 0
      vertex -0.445042 1.94986 0
      vertex -68.4703 -14.5538 0
    endloop
  endfacet
  facet normal 0 0 -1
    outer loop
      vertex 2 0 0
      vertex 70 0 0
      vertex 1.24698 -1.56366 0
    endloop
  endfacet
  facet normal -0.994522 0.104528 0
    outer loop
      vertex -70 0 0
      vertex -70 0 2
      vertex -68.4703 14.5538 0
    endloop
  endfacet
  facet normal -0.994522 0.104528 0
    outer loop
      vertex -68.4703 14.5538 0
      vertex -70 0 2
      vertex -68.4703 14.5538 2
    endloop
  endfacet
  facet normal -0.994522 -0.104528 0
    outer loop
      vertex -70 0 0
      vertex -68.4703 -14.5538 0
      vertex -70 0 2
    endloop
  endfacet
  facet normal -0.994522 -0.104528 0
    outer loop
      vertex -70 0 2
      vertex -68.4703 -14.5538 0
      vertex -68.4703 -14.5538 2
    endloop
  endfacet
  facet normal -0.951057 -0.309017 0
    outer loop
      vertex -68.4703 -14.5538 0
      vertex -63.9482 -28.4716 0
      vertex -68.4703 -14.5538 2
    endloop
  endfacet
  facet normal -0.951057 -0.309017 0
    outer loop
      vertex -68.4703 -14.5538 2
      vertex -63.9482 -28.4716 0
      vertex -63.9482 -28.4716 2
    endloop
  endfacet
  facet normal -0.866025 -0.5 0
    outer loop
      vertex -63.9482 -28.4716 0
      vertex -56.6312 -41.145 0
      vertex -63.9482 -28.4716 2
    endloop
  endfacet
  facet normal -0.866025 -0.5 0
    outer loop
      vertex -63.9482 -28.4716 2
      vertex -56.6312 -41.145 0
      vertex -56.6312 -41.145 2
    endloop
  endfacet
  facet normal -0.743145 -0.669131 0
    outer loop
      vertex -56.6312 -41.145 0
      vertex -46.8391 -52.0201 0
      vertex -56.6312 -41.145 2
    endloop
  endfacet
  facet normal -0.743145 -0.669131 0
    outer loop
      vertex -56.6312 -41.145 2
      vertex -46.8391 -52.0201 0
      vertex -46.8391 -52.0201 2
    endloop
  endfacet
  facet normal -0.587785 -0.809017 0
    outer loop
      vertex -46.8391 -52.0201 2
      vertex -46.8391 -52.0201 0
      vertex -35 -60.6218 0
    endloop
  endfacet
  facet normal -0.587785 -0.809017 0
    outer loop
      vertex -35 -60.6218 2
      vertex -46.8391 -52.0201 2
      vertex -35 -60.6218 0
    endloop
  endfacet
  facet normal -0.406737 -0.913545 0
    outer loop
      vertex -35 -60.6218 2
      vertex -35 -60.6218 0
      vertex -21.6312 -66.574 0
    endloop
  endfacet
  facet normal -0.406737 -0.913545 0
    outer loop
      vertex -21.6312 -66.574 2
      vertex -35 -60.6218 2
      vertex -21.6312 -66.574 0
    endloop
  endfacet
  facet normal -0.207912 -0.978148 0
    outer loop
      vertex -21.6312 -66.574 2
      vertex -21.6312 -66.574 0
      vertex -7.31699 -69.6165 0
    endloop
  endfacet
  facet normal -0.207912 -0.978148 0
    outer loop
      vertex -7.31699 -69.6165 2
      vertex -21.6312 -66.574 2
      vertex -7.31699 -69.6165 0
    endloop
  endfacet
  facet normal 0 -1 0
    outer loop
      vertex -7.31699 -69.6165 2
      vertex -7.31699 -69.6165 0
      vertex 7.31699 -69.6165 0
    endloop
  endfacet
  facet normal 0 -1 0
    outer loop
      vertex 7.31699 -69.6165 2
      vertex -7.31699 -69.6165 2
      vertex 7.31699 -69.6165 0
    endloop
  endfacet
  facet normal 0.207912 -0.978148 0
    outer loop
      vertex 7.31699 -69.6165 2
      vertex 7.31699 -69.6165 0
      vertex 21.6312 -66.574 0
    endloop
  endfacet
  facet normal 0.207912 -0.978148 0
    outer loop
      vertex 21.6312 -66.574 2
      vertex 7.31699 -69.6165 2
      vertex 21.6312 -66.574 0
    endloop
  endfacet
  facet normal 0.406737 -0.913545 0
    outer loop
      vertex 21.6312 -66.574 2
      vertex 21.6312 -66.574 0
      vertex 35 -60.6218 0
    endloop
  endfacet
  facet normal 0.406737 -0.913545 0
    outer loop
      vertex 35 -60.6218 2
      vertex 21.6312 -66.574 2
      vertex 35 -60.6218 0
    endloop
  endfacet
  facet normal 0.587785 -0.809017 0
    outer loop
      vertex 35 -60.6218 2
      vertex 35 -60.6218 0
      vertex 46.8391 -52.0201 0
    endloop
  endfacet
  facet normal 0.587785 -0.809017 0
    outer loop
      vertex 46.8391 -52.0201 2
      vertex 35 -60.6218 2
      vertex 46.8391 -52.0201 0
    endloop
  endfacet
  facet normal 0.743145 -0.669131 0
    outer loop
      vertex 46.8391 -52.0201 2
      vertex 46.8391 -52.0201 0
      vertex 56.6312 -41.145 0
    endloop
  endfacet
  facet normal 0.743145 -0.669131 0
    outer loop
      vertex 56.6312 -41.145 2
      vertex 46.8391 -52.0201 2
      vertex 56.6312 -41.145 0
    endloop
  endfacet
  facet normal 0.866025 -0.5 0
    outer loop
      vertex 56.6312 -41.145 2
      vertex 56.6312 -41.145 0
      vertex 63.9482 -28.4716 0
    endloop
  endfacet
  facet normal 0.866025 -0.5 0
    outer loop
      vertex 63.9482 -28.4716 2
      vertex 56.6312 -41.145 2
      vertex 63.9482 -28.4716 0
    endloop
  endfacet
  facet normal 0.951057 -0.309017 0
    outer loop
      vertex 63.9482 -28.4716 2
      vertex 63.9482 -28.4716 0
      vertex 68.4703 -14.5538 0
    endloop
  endfacet
  facet normal 0.951057 -0.309017 0
    outer loop
      vertex 68.4703 -14.5538 2
      vertex 63.9482 -28.4716 2
      vertex 68.4703 -14.5538 0
    endloop
  endfacet
  facet normal 0.994522 -0.104528 0
    outer loop
      vertex 68.4703 -14.5538 2
      vertex 68.4703 -14.5538 0
      vertex 70 0 0
    endloop
  endfacet
  facet normal 0.994522 -0.104528 0
    outer loop
      vertex 70 0 2
      vertex 68.4703 -14.5538 2
      vertex 70 0 0
    endloop
  endfacet
  facet normal 1 0 0
    outer loop
      vertex 70 0 2
      vertex 70 0 0
      vertex 70 70 0
    endloop
  endfacet
  facet normal 1 0 0
    outer loop
      vertex 70 70 2
      vertex 70 0 2
      vertex 70 70 0
    endloop
  endfacet
  facet normal 0 1 0
    outer loop
      vertex 62 70 0
      vertex 62 70 2
      vertex 70 70 0
    endloop
  endfacet
  facet normal 0 1 0
    outer loop
      vertex 70 70 0
      vertex 62 70 2
      vertex 70 70 2
    endloop
  endfacet
  facet normal -1 0 0
    outer loop
      vertex 62 31.8459 0
      vertex 62 31.8459 2
      vertex 62 70 0
    endloop
  endfacet
  facet normal -1 0 0
    outer loop
      vertex 62 70 0
      vertex 62 31.8459 2
      vertex 62 70 2
    endloop
  endfacet
  facet normal 0.866025 0.5 0
    outer loop
      vertex 62 31.8459 0
      vertex 56.6312 41.145 0
      vertex 56.6312 41.145 2
    endloop
  endfacet
  facet normal 0.866025 0.5 0
    outer loop
      vertex 62 31.8459 2
      vertex 62 31.8459 0
      vertex 56.6312 41.145 2
    endloop
  endfacet
  facet normal 0.743145 0.669131 0
    outer loop
      vertex 56.6312 41.145 0
      vertex 46.8391 52.0201 0
      vertex 46.8391 52.0201 2
    endloop
  endfacet
  facet normal 0.743145 0.669131 0
    outer loop
      vertex 56.6312 41.145 2
      vertex 56.6312 41.145 0
      vertex 46.8391 52.0201 2
    endloop
  endfacet
  facet normal 0.587785 0.809017 0
    outer loop
      vertex 35 60.6218 0
      vertex 35 60.6218 2
      vertex 46.8391 52.0201 0
    endloop
  endfacet
  facet normal 0.587785 0.809017 0
    outer loop
      vertex 46.8391 52.0201 0
      vertex 35 60.6218 2
      vertex 46.8391 52.0201 2
    endloop
  endfacet
  facet normal 0.406737 0.913545 0
    outer loop
      vertex 21.6312 66.574 0
      vertex 21.6312 66.574 2
      vertex 35 60.6218 0
    endloop
  endfacet
  facet normal 0.406737 0.913545 0
    outer loop
      vertex 35 60.6218 0
      vertex 21.6312 66.574 2
      vertex 35 60.6218 2
    endloop
  endfacet
  facet normal 0.207912 0.978148 0
    outer loop
      vertex 7.31699 69.6165 0
      vertex 7.31699 69.6165 2
      vertex 21.6312 66.574 0
    endloop
  endfacet
  facet normal 0.207912 0.978148 0
    outer loop
      vertex 21.6312 66.574 0
      vertex 7.31699 69.6165 2
      vertex 21.6312 66.574 2
    endloop
  endfacet
  facet normal 0 1 0
    outer loop
      vertex -7.31699 69.6165 0
      vertex -7.31699 69.6165 2
      vertex 7.31699 69.6165 0
    endloop
  endfacet
  facet normal 0 1 0
    outer loop
      vertex 7.31699 69.6165 0
      vertex -7.31699 69.6165 2
      vertex 7.31699 69.6165 2
    endloop
  endfacet
  facet normal -0.207912 0.978148 0
    outer loop
      vertex -21.6312 66.574 0
      vertex -21.6312 66.574 2
      vertex -7.31699 69.6165 0
    endloop
  endfacet
  facet normal -0.207912 0.978148 0
    outer loop
      vertex -7.31699 69.6165 0
      vertex -21.6312 66.574 2
      vertex -7.31699 69.6165 2
    endloop
  endfacet
  facet normal -0.406737 0.913545 0
    outer loop
      vertex -35 60.6218 0
      vertex -35 60.6218 2
      vertex -21.6312 66.574 0
    endloop
  endfacet
  facet normal -0.406737 0.913545 0
    outer loop
      vertex -21.6312 66.574 0
      vertex -35 60.6218 2
      vertex -21.6312 66.574 2
    endloop
  endfacet
  facet normal -0.587785 0.809017 0
    outer loop
      vertex -46.8391 52.0201 0
      vertex -46.8391 52.0201 2
      vertex -35 60.6218 0
    endloop
  endfacet
  facet normal -0.587785 0.809017 0
    outer loop
      vertex -35 60.6218 0
      vertex -46.8391 52.0201 2
      vertex -35 60.6218 2
    endloop
  endfacet
  facet normal -0.743145 0.669131 0
    outer loop
      vertex -56.6312 41.145 0
      vertex -56.6312 41.145 2
      vertex -46.8391 52.0201 0
    endloop
  endfacet
  facet normal -0.743145 0.669131 0
    outer loop
      vertex -46.8391 52.0201 0
      vertex -56.6312 41.145 2
      vertex -46.8391 52.0201 2
    endloop
  endfacet
  facet normal -0.866025 0.5 0
    outer loop
      vertex -63.9482 28.4716 0
      vertex -63.9482 28.4716 2
      vertex -56.6312 41.145 0
    endloop
  endfacet
  facet normal -0.866025 0.5 0
    outer loop
      vertex -56.6312 41.145 0
      vertex -63.9482 28.4716 2
      vertex -56.6312 41.145 2
    endloop
  endfacet
  facet normal -0.951057 0.309017 0
    outer loop
      vertex -68.4703 14.5538 0
      vertex -68.4703 14.5538 2
      vertex -63.9482 28.4716 0
    endloop
  endfacet
  facet normal -0.951057 0.309017 0
    outer loop
      vertex -63.9482 28.4716 0
      vertex -68.4703 14.5538 2
      vertex -63.9482 28.4716 2
    endloop
  endfacet
  facet normal 0.62349 -0.781831 0
    outer loop
      vertex -0.445042 1.94986 0
      vertex -0.445042 1.94986 22
      vertex -1.80194 0.867767 22
    endloop
  endfacet
  facet normal 0.62349 -0.781831 0
    outer loop
      vertex -1.80194 0.867767 0
      vertex -0.445042 1.94986 0
      vertex -1.80194 0.867767 22
    endloop
  endfacet
  facet normal 1 0 0
    outer loop
      vertex -1.80194 0.867767 0
      vertex -1.80194 0.867767 22
      vertex -1.80194 -0.867767 22
    endloop
  endfacet
  facet normal 1 0 0
    outer loop
      vertex -1.80194 -0.867767 0
      vertex -1.80194 0.867767 0
      vertex -1.80194 -0.867767 22
    endloop
  endfacet
  facet normal -0.222521 -0.974928 0
    outer loop
      vertex 1.24698 1.56366 0
      vertex 1.24698 1.56366 22
      vertex -0.445042 1.94986 22
    endloop
  endfacet
  facet normal -0.222521 -0.974928 0
    outer loop
      vertex -0.445042 1.94986 0
      vertex 1.24698 1.56366 0
      vertex -0.445042 1.94986 22
    endloop
  endfacet
  facet normal -0.900969 -0.433884 0
    outer loop
      vertex 2 0 22
      vertex 1.24698 1.56366 22
      vertex 2 0 0
    endloop
  endfacet
  facet normal -0.900969 -0.433884 0
    outer loop
      vertex 2 0 0
      vertex 1.24698 1.56366 22
      vertex 1.24698 1.56366 0
    endloop
  endfacet
  facet normal -0.900969 0.433884 0
    outer loop
      vertex 2 0 22
      vertex 2 0 0
      vertex 1.24698 -1.56366 22
    endloop
  endfacet
  facet normal -0.900969 0.433884 0
    outer loop
      vertex 1.24698 -1.56366 22
      vertex 2 0 0
      vertex 1.24698 -1.56366 0
    endloop
  endfacet
  facet normal -0.222521 0.974928 0
    outer loop
      vertex 1.24698 -1.56366 22
      vertex 1.24698 -1.56366 0
      vertex -0.445042 -1.94986 22
    endloop
  endfacet
  facet normal -0.222521 0.974928 0
    outer loop
      vertex -0.445042 -1.94986 22
      vertex 1.24698 -1.56366 0
      vertex -0.445042 -1.94986 0
    endloop
  endfacet
  facet normal 0.62349 0.781831 0
    outer loop
      vertex -0.445042 -1.94986 22
      vertex -0.445042 -1.94986 0
      vertex -1.80194 -0.867767 22
    endloop
  endfacet
  facet normal 0.62349 0.781831 0
    outer loop
      vertex -1.80194 -0.867767 22
      vertex -0.445042 -1.94986 0
      vertex -1.80194 -0.867767 0
    endloop
  endfacet
  facet normal 0 0 1
    outer loop
      vertex -68.4703 14.5538 2
      vertex -70 0 2
      vertex -68.4703 -14.5538 2
    endloop
  endfacet
  facet normal 0 0 1
    outer loop
      vertex -56.6312 -41.145 2
      vertex -68.4703 14.5538 2
      vertex -63.9482 -28.4716 2
    endloop
  endfacet
  facet normal 0 0 1
    outer loop
      vertex -63.9482 -28.4716 2
      vertex -68.4703 14.5538 2
      vertex -68.4703 -14.5538 2
    endloop
  endfacet
  facet normal 0 0 1
    outer loop
      vertex -46.8391 -52.0201 2
      vertex -68.4703 14.5538 2
      vertex -56.6312 -41.145 2
    endloop
  endfacet
  facet normal 0 0 1
    outer loop
      vertex -35 -60.6218 2
      vertex -68.4703 14.5538 2
      vertex -46.8391 -52.0201 2
    endloop
  endfacet
  facet normal 0 0 1
    outer loop
      vertex -21.6312 -66.574 2
      vertex -68.4703 14.5538 2
      vertex -35 -60.6218 2
    endloop
  endfacet
  facet normal 0 0 1
    outer loop
      vertex -7.31699 -69.6165 2
      vertex -68.4703 14.5538 2
      vertex -21.6312 -66.574 2
    endloop
  endfacet
  facet normal 0 0 1
    outer loop
      vertex 7.31699 -69.6165 2
      vertex -68.4703 14.5538 2
      vertex -7.31699 -69.6165 2
    endloop
  endfacet
  facet normal 0 0 1
    outer loop
      vertex 21.6312 -66.574 2
      vertex -68.4703 14.5538 2
      vertex 7.31699 -69.6165 2
    endloop
  endfacet
  facet normal 0 0 1
    outer loop
      vertex 35 -60.6218 2
      vertex -68.4703 14.5538 2
      vertex 21.6312 -66.574 2
    endloop
  endfacet
  facet normal 0 0 1
    outer loop
      vertex 46.8391 -52.0201 2
      vertex -68.4703 14.5538 2
      vertex 35 -60.6218 2
    endloop
  endfacet
  facet normal 0 0 1
    outer loop
      vertex 56.6312 -41.145 2
      vertex -68.4703 14.5538 2
      vertex 46.8391 -52.0201 2
    endloop
  endfacet
  facet normal 0 0 1
    outer loop
      vertex 63.9482 -28.4716 2
      vertex -68.4703 14.5538 2
      vertex 56.6312 -41.145 2
    endloop
  endfacet
  facet normal 0 0 1
    outer loop
      vertex -1.41842 -3.74006 2
      vertex -68.4703 14.5538 2
      vertex 63.9482 -28.4716 2
    endloop
  endfacet
  facet normal 0 0 1
    outer loop
      vertex 62 31.8459 2
      vertex -68.4703 14.5538 2
      vertex 70 0 2
    endloop
  endfacet
  facet normal 0 0 1
    outer loop
      vertex 70 70 2
      vertex 62 31.8459 2
      vertex 70 0 2
    endloop
  endfacet
  facet normal 0 0 1
    outer loop
      vertex 56.6312 41.145 2
      vertex -68.4703 14.5538 2
      vertex 62 31.8459 2
    endloop
  endfacet
  facet normal 0 0 1
    outer loop
      vertex 46.8391 52.0201 2
      vertex -68.4703 14.5538 2
      vertex 56.6312 41.145 2
    endloop
  endfacet
  facet normal 0 0 1
    outer loop
      vertex 46.8391 52.0201 2
      vertex 35 60.6218 2
      vertex -68.4703 14.5538 2
    endloop
  endfacet
  facet normal 0 0 1
    outer loop
      vertex -3.88377 -0.957263 2
      vertex -3.88377 0.957263 2
      vertex -68.4703 14.5538 2
    endloop
  endfacet
  facet normal 0 0 1
    outer loop
      vertex 21.6312 66.574 2
      vertex -68.4703 14.5538 2
      vertex 35 60.6218 2
    endloop
  endfacet
  facet normal 0 0 1
    outer loop
      vertex 7.31699 69.6165 2
      vertex -68.4703 14.5538 2
      vertex 21.6312 66.574 2
    endloop
  endfacet
  facet normal 0 0 1
    outer loop
      vertex -7.31699 69.6165 2
      vertex -68.4703 14.5538 2
      vertex 7.31699 69.6165 2
    endloop
  endfacet
  facet normal 0 0 1
    outer loop
      vertex -21.6312 66.574 2
      vertex -68.4703 14.5538 2
      vertex -7.31699 69.6165 2
    endloop
  endfacet
  facet normal 0 0 1
    outer loop
      vertex -35 60.6218 2
      vertex -68.4703 14.5538 2
      vertex -21.6312 66.574 2
    endloop
  endfacet
  facet normal 0 0 1
    outer loop
      vertex -46.8391 52.0201 2
      vertex -68.4703 14.5538 2
      vertex -35 60.6218 2
    endloop
  endfacet
  facet normal 0 0 1
    outer loop
      vertex -56.6312 41.145 2
      vertex -68.4703 14.5538 2
      vertex -46.8391 52.0201 2
    endloop
  endfacet
  facet normal 0 0 1
    outer loop
      vertex -63.9482 28.4716 2
      vertex -68.4703 14.5538 2
      vertex -56.6312 41.145 2
    endloop
  endfacet
  facet normal 0 0 1
    outer loop
      vertex -1.41842 -3.74006 2
      vertex -2.99404 -2.65249 2
      vertex -68.4703 14.5538 2
    endloop
  endfacet
  facet normal 0 0 1
    outer loop
      vertex 3.54182 -1.85889 2
      vertex 2.27226 -3.29194 2
      vertex 68.4703 -14.5538 2
    endloop
  endfacet
  facet normal 0 0 1
    outer loop
      vertex -2.99404 2.65249 2
      vertex -68.4703 14.5538 2
      vertex -3.88377 0.957263 2
    endloop
  endfacet
  facet normal 0 0 1
    outer loop
      vertex -1.41842 3.74006 2
      vertex -68.4703 14.5538 2
      vertex -2.99404 2.65249 2
    endloop
  endfacet
  facet normal 0 0 1
    outer loop
      vertex 0.482147 3.97083 2
      vertex -68.4703 14.5538 2
      vertex -1.41842 3.74006 2
    endloop
  endfacet
  facet normal 0 0 1
    outer loop
      vertex 2.27226 3.29194 2
      vertex 3.54182 1.85889 2
      vertex 70 0 2
    endloop
  endfacet
  facet normal 0 0 1
    outer loop
      vertex 70 0 2
      vertex -68.4703 14.5538 2
      vertex 0.482147 3.97083 2
    endloop
  endfacet
  facet normal 0 0 1
    outer loop
      vertex 3.54182 1.85889 2
      vertex 4 0 2
      vertex 70 0 2
    endloop
  endfacet
  facet normal 0 0 1
    outer loop
      vertex 4 0 2
      vertex 3.54182 -1.85889 2
      vertex 68.4703 -14.5538 2
    endloop
  endfacet
  facet normal 0 0 1
    outer loop
      vertex 70 0 2
      vertex 4 0 2
      vertex 68.4703 -14.5538 2
    endloop
  endfacet
  facet normal 0 0 1
    outer loop
      vertex 2.27226 -3.29194 2
      vertex 0.482147 -3.97083 2
      vertex 63.9482 -28.4716 2
    endloop
  endfacet
  facet normal 0 0 1
    outer loop
      vertex 0.482147 3.97083 2
      vertex 2.27226 3.29194 2
      vertex 70 0 2
    endloop
  endfacet
  facet normal 0 0 1
    outer loop
      vertex 68.4703 -14.5538 2
      vertex 2.27226 -3.29194 2
      vertex 63.9482 -28.4716 2
    endloop
  endfacet
  facet normal 0 0 1
    outer loop
      vertex 0.482147 -3.97083 2
      vertex -1.41842 -3.74006 2
      vertex 63.9482 -28.4716 2
    endloop
  endfacet
  facet normal 0 0 1
    outer loop
      vertex -3.88377 -0.957263 2
      vertex -68.4703 14.5538 2
      vertex -2.99404 -2.65249 2
    endloop
  endfacet
  facet normal 0 0 1
    outer loop
      vertex 62 70 2
      vertex 62 31.8459 2
      vertex 70 70 2
    endloop
  endfacet
  facet normal 0 0 1
    outer loop
      vertex -3.88377 0.957263 22
      vertex -3.88377 -0.957263 22
      vertex -2.99404 -2.65249 22
    endloop
  endfacet
  facet normal 0 0 1
    outer loop
      vertex 0.482147 -3.97083 22
      vertex -3.88377 0.957263 22
      vertex -1.41842 -3.74006 22
    endloop
  endfacet
  facet normal 0 0 1
    outer loop
      vertex -1.41842 -3.74006 22
      vertex -3.88377 0.957263 22
      vertex -2.99404 -2.65249 22
    endloop
  endfacet
  facet normal 0 0 1
    outer loop
      vertex -1.80194 -0.867767 22
      vertex -3.88377 0.957263 22
      vertex 0.482147 -3.97083 22
    endloop
  endfacet
  facet normal 0 0 1
    outer loop
      vertex -1.80194 0.867767 22
      vertex -0.445042 1.94986 22
      vertex -3.88377 0.957263 22
    endloop
  endfacet
  facet normal 0 0 1
    outer loop
      vertex -0.445042 1.94986 22
      vertex 1.24698 1.56366 22
      vertex 3.54182 1.85889 22
    endloop
  endfacet
  facet normal 0 0 1
    outer loop
      vertex 0.482147 3.97083 22
      vertex -3.88377 0.957263 22
      vertex 2.27226 3.29194 22
    endloop
  endfacet
  facet normal 0 0 1
    outer loop
      vertex -1.41842 3.74006 22
      vertex -3.88377 0.957263 22
      vertex 0.482147 3.97083 22
    endloop
  endfacet
  facet normal 0 0 1
    outer loop
      vertex -2.99404 2.65249 22
      vertex -3.88377 0.957263 22
      vertex -1.41842 3.74006 22
    endloop
  endfacet
  facet normal 0 0 1
    outer loop
      vertex -0.445042 -1.94986 22
      vertex -1.80194 -0.867767 22
      vertex 0.482147 -3.97083 22
    endloop
  endfacet
  facet normal 0 0 1
    outer loop
      vertex 2 0 22
      vertex 1.24698 -1.56366 22
      vertex 3.54182 -1.85889 22
    endloop
  endfacet
  facet normal 0 0 1
    outer loop
      vertex 1.24698 1.56366 22
      vertex 2 0 22
      vertex 4 0 22
    endloop
  endfacet
  facet normal 0 0 1
    outer loop
      vertex 2.27226 3.29194 22
      vertex -0.445042 1.94986 22
      vertex 3.54182 1.85889 22
    endloop
  endfacet
  facet normal 0 0 1
    outer loop
      vertex 2.27226 3.29194 22
      vertex -3.88377 0.957263 22
      vertex -0.445042 1.94986 22
    endloop
  endfacet
  facet normal 0 0 1
    outer loop
      vertex 1.24698 -1.56366 22
      vertex -0.445042 -1.94986 22
      vertex 2.27226 -3.29194 22
    endloop
  endfacet
  facet normal 0 0 1
    outer loop
      vertex 1.24698 1.56366 22
      vertex 4 0 22
      vertex 3.54182 1.85889 22
    endloop
  endfacet
  facet normal 0 0 1
    outer loop
      vertex 4 0 22
      vertex 2 0 22
      vertex 3.54182 -1.85889 22
    endloop
  endfacet
  facet normal 0 0 1
    outer loop
      vertex 3.54182 -1.85889 22
      vertex 1.24698 -1.56366 22
      vertex 2.27226 -3.29194 22
    endloop
  endfacet
  facet normal 0 0 1
    outer loop
      vertex 2.27226 -3.29194 22
      vertex -0.445042 -1.94986 22
      vertex 0.482147 -3.97083 22
    endloop
  endfacet
  facet normal 0 0 1
    outer loop
      vertex -1.80194 -0.867767 22
      vertex -1.80194 0.867767 22
      vertex -3.88377 0.957263 22
    endloop
  endfacet
  facet normal -1 0 0
    outer loop
      vertex -3.88377 -0.957263 2
      vertex -3.88377 -0.957263 22
      vertex -3.88377 0.957263 2
    endloop
  endfacet
  facet normal -1 0 0
    outer loop
      vertex -3.88377 0.957263 2
      vertex -3.88377 -0.957263 22
      vertex -3.88377 0.957263 22
    endloop
  endfacet
  facet normal -0.885456 -0.464723 0
    outer loop
      vertex -3.88377 -0.957263 2
      vertex -2.99404 -2.65249 2
      vertex -3.88377 -0.957263 22
    endloop
  endfacet
  facet normal -0.885456 -0.464723 0
    outer loop
      vertex -3.88377 -0.957263 22
      vertex -2.99404 -2.65249 2
      vertex -2.99404 -2.65249 22
    endloop
  endfacet
  facet normal -0.568065 -0.822984 0
    outer loop
      vertex -2.99404 -2.65249 22
      vertex -2.99404 -2.65249 2
      vertex -1.41842 -3.74006 2
    endloop
  endfacet
  facet normal -0.568065 -0.822984 0
    outer loop
      vertex -1.41842 -3.74006 22
      vertex -2.99404 -2.65249 22
      vertex -1.41842 -3.74006 2
    endloop
  endfacet
  facet normal -0.120536 -0.992709 0
    outer loop
      vertex -1.41842 -3.74006 22
      vertex -1.41842 -3.74006 2
      vertex 0.482147 -3.97083 2
    endloop
  endfacet
  facet normal -0.120536 -0.992709 0
    outer loop
      vertex 0.482147 -3.97083 22
      vertex -1.41842 -3.74006 22
      vertex 0.482147 -3.97083 2
    endloop
  endfacet
  facet normal 0.354605 -0.935016 0
    outer loop
      vertex 0.482147 -3.97083 22
      vertex 0.482147 -3.97083 2
      vertex 2.27226 -3.29194 2
    endloop
  endfacet
  facet normal 0.354605 -0.935016 0
    outer loop
      vertex 2.27226 -3.29194 22
      vertex 0.482147 -3.97083 22
      vertex 2.27226 -3.29194 2
    endloop
  endfacet
  facet normal 0.748511 -0.663123 0
    outer loop
      vertex 2.27226 -3.29194 22
      vertex 2.27226 -3.29194 2
      vertex 3.54182 -1.85889 2
    endloop
  endfacet
  facet normal 0.748511 -0.663123 0
    outer loop
      vertex 3.54182 -1.85889 22
      vertex 2.27226 -3.29194 22
      vertex 3.54182 -1.85889 2
    endloop
  endfacet
  facet normal 0.970942 -0.239316 0
    outer loop
      vertex 3.54182 -1.85889 22
      vertex 3.54182 -1.85889 2
      vertex 4 0 2
    endloop
  endfacet
  facet normal 0.970942 -0.239316 0
    outer loop
      vertex 4 0 22
      vertex 3.54182 -1.85889 22
      vertex 4 0 2
    endloop
  endfacet
  facet normal 0.970942 0.239316 0
    outer loop
      vertex 4 0 2
      vertex 3.54182 1.85889 2
      vertex 3.54182 1.85889 22
    endloop
  endfacet
  facet normal 0.970942 0.239316 0
    outer loop
      vertex 4 0 22
      vertex 4 0 2
      vertex 3.54182 1.85889 22
    endloop
  endfacet
  facet normal 0.748511 0.663123 0
    outer loop
      vertex 3.54182 1.85889 2
      vertex 2.27226 3.29194 2
      vertex 2.27226 3.29194 22
    endloop
  endfacet
  facet normal 0.748511 0.663123 0
    outer loop
      vertex 3.54182 1.85889 22
      vertex 3.54182 1.85889 2
      vertex 2.27226 3.29194 22
    endloop
  endfacet
  facet normal 0.354605 0.935016 0
    outer loop
      vertex 0.482147 3.97083 2
      vertex 0.482147 3.97083 22
      vertex 2.27226 3.29194 2
    endloop
  endfacet
  facet normal 0.354605 0.935016 0
    outer loop
      vertex 2.27226 3.29194 2
      vertex 0.482147 3.97083 22
      vertex 2.27226 3.29194 22
    endloop
  endfacet
  facet normal -0.120536 0.992709 0
    outer loop
      vertex -1.41842 3.74006 2
      vertex -1.41842 3.74006 22
      vertex 0.482147 3.97083 2
    endloop
  endfacet
  facet normal -0.120536 0.992709 0
    outer loop
      vertex 0.482147 3.97083 2
      vertex -1.41842 3.74006 22
      vertex 0.482147 3.97083 22
    endloop
  endfacet
  facet normal -0.568065 0.822984 0
    outer loop
      vertex -2.99404 2.65249 2
      vertex -2.99404 2.65249 22
      vertex -1.41842 3.74006 2
    endloop
  endfacet
  facet normal -0.568065 0.822984 0
    outer loop
      vertex -1.41842 3.74006 2
      vertex -2.99404 2.65249 22
      vertex -1.41842 3.74006 22
    endloop
  endfacet
  facet normal -0.885456 0.464723 0
    outer loop
      vertex -3.88377 0.957263 2
      vertex -3.88377 0.957263 22
      vertex -2.99404 2.65249 2
    endloop
  endfacet
  facet normal -0.885456 0.464723 0
    outer loop
      vertex -2.99404 2.65249 2
      vertex -3.88377 0.957263 22
      vertex -2.99404 2.65249 22
    endloop
  endfacet
endsolid OpenSCAD_Model
