solid OpenSCAD_Model
  facet normal 0 0 -1
    outer loop
      vertex -70 0 0
      vertex -68.4703 14.5538 0
      vertex -68.4703 -14.5538 0
    endloop
  endfacet
  facet normal 0 0 -1
    outer loop
      vertex -68.4703 -14.5538 0
      vertex -68.4703 14.5538 0
      vertex -63.9482 28.4716 0
    endloop
  endfacet
  facet normal 0 0 -1
    outer loop
      vertex -68.4703 -14.5538 0
      vertex -63.9482 28.4716 0
      vertex -56.6312 41.145 0
    endloop
  endfacet
  facet normal 0 0 -1
    outer loop
      vertex -68.4703 -14.5538 0
      vertex -56.6312 41.145 0
      vertex -46.8391 52.0201 0
    endloop
  endfacet
  facet normal 0 0 -1
    outer loop
      vertex -68.4703 -14.5538 0
      vertex -46.8391 52.0201 0
      vertex -35 60.6218 0
    endloop
  endfacet
  facet normal 0 0 -1
    outer loop
      vertex -68.4703 -14.5538 0
      vertex -35 60.6218 0
      vertex -21.6312 66.574 0
    endloop
  endfacet
  facet normal 0 0 -1
    outer loop
      vertex -68.4703 -14.5538 0
      vertex -21.6312 66.574 0
      vertex -7.31699 69.6165 0
    endloop
  endfacet
  facet normal 0 0 -1
    outer loop
      vertex -68.4703 -14.5538 0
      vertex -7.31699 69.6165 0
      vertex 7.31699 69.6165 0
    endloop
  endfacet
  facet normal 0 0 -1
    outer loop
      vertex -68.4703 -14.5538 0
      vertex 7.31699 69.6165 0
      vertex 21.6312 66.574 0
    endloop
  endfacet
  facet normal 0 0 -1
    outer loop
      vertex -68.4703 -14.5538 0
      vertex 21.6312 66.574 0
      vertex 35 60.6218 0
    endloop
  endfacet
  facet normal 0 0 -1
    outer loop
      vertex -68.4703 -14.5538 0
      vertex 35 60.6218 0
      vertex 46.8391 52.0201 0
    endloop
  endfacet
  facet normal 0 0 -1
    outer loop
      vertex -68.4703 -14.5538 0
      vertex 46.8391 52.0201 0
      vertex 56.6312 41.145 0
    endloop
  endfacet
  facet normal 0 0 -1
    outer loop
      vertex -68.4703 -14.5538 0
      vertex 56.6312 41.145 0
      vertex 62 31.8459 0
    endloop
  endfacet
  facet normal 0 0 -1
    outer loop
      vertex 62 31.8459 0
      vertex 62 70 0
      vertex 70 70 0
    endloop
  endfacet
  facet normal 0 0 -1
    outer loop
      vertex 62 31.8459 0
      vertex 70 70 0
      vertex 70 0 0
    endloop
  endfacet
  facet normal 0 0 -1
    outer loop
      vertex 62 31.8459 0
      vertex 70 0 0
      vertex -68.4703 -14.5538 0
    endloop
  endfacet
  facet normal 0 0 -1
    outer loop
      vertex -68.4703 -14.5538 0
      vertex 70 0 0
      vertex 68.4703 -14.5538 0
    endloop
  endfacet
  facet normal 0 0 -1
    outer loop
      vertex -68.4703 -14.5538 0
      vertex 68.4703 -14.5538 0
      vertex 63.9482 -28.4716 0
    endloop
  endfacet
  facet normal 0 0 -1
    outer loop
      vertex -68.4703 -14.5538 0
      vertex 63.9482 -28.4716 0
      vertex 56.6312 -41.145 0
    endloop
  endfacet
  facet normal 0 0 -1
    outer loop
      vertex -68.4703 -14.5538 0
      vertex 56.6312 -41.145 0
      vertex 46.8391 -52.0201 0
    endloop
  endfacet
  facet normal 0 0 -1
    outer loop
      vertex -68.4703 -14.5538 0
      vertex 46.8391 -52.0201 0
      vertex 35 -60.6218 0
    endloop
  endfacet
  facet normal 0 0 -1
    outer loop
      vertex -68.4703 -14.5538 0
      vertex 35 -60.6218 0
      vertex 21.6312 -66.574 0
    endloop
  endfacet
  facet normal 0 0 -1
    outer loop
      vertex -68.4703 -14.5538 0
      vertex 21.6312 -66.574 0
      vertex 7.31699 -69.6165 0
    endloop
  endfacet
  facet normal 0 0 -1
    outer loop
      vertex -68.4703 -14.5538 0
      vertex 7.31699 -69.6165 0
      vertex -7.31699 -69.6165 0
    endloop
  endfacet
  facet normal 0 0 -1
    outer loop
      vertex -68.4703 -14.5538 0
      vertex -7.31699 -69.6165 0
      vertex -21.6312 -66.574 0
    endloop
  endfacet
  facet normal 0 0 -1
    outer loop
      vertex -68.4703 -14.5538 0
      vertex -21.6312 -66.574 0
      vertex -35 -60.6218 0
    endloop
  endfacet
  facet normal 0 0 -1
    outer loop
      vertex -68.4703 -14.5538 0
      vertex -35 -60.6218 0
      vertex -46.8391 -52.0201 0
    endloop
  endfacet
  facet normal 0 0 -1
    outer loop
      vertex -68.4703 -14.5538 0
      vertex -46.8391 -52.0201 0
      vertex -56.6312 -41.145 0
    endloop
  endfacet
  facet normal 0 0 -1
    outer loop
      vertex -68.4703 -14.5538 0
      vertex -56.6312 -41.145 0
      vertex -63.9482 -28.4716 0
    endloop
  endfacet
  facet normal -0.994522 0.104528 0
    outer loop
      vertex -70 0 0
      vertex -70 0 7
      vertex -68.4703 14.5538 0
    endloop
  endfacet
  facet normal -0.994522 0.104528 0
    outer loop
      vertex -68.4703 14.5538 0
      vertex -70 0 7
      vertex -68.4703 14.5538 7
    endloop
  endfacet
  facet normal -0.994522 -0.104528 0
    outer loop
      vertex -70 0 0
      vertex -68.4703 -14.5538 0
      vertex -70 0 7
    endloop
  endfacet
  facet normal -0.994522 -0.104528 0
    outer loop
      vertex -70 0 7
      vertex -68.4703 -14.5538 0
      vertex -68.4703 -14.5538 7
    endloop
  endfacet
  facet normal -0.951057 -0.309017 0
    outer loop
      vertex -68.4703 -14.5538 0
      vertex -63.9482 -28.4716 0
      vertex -68.4703 -14.5538 7
    endloop
  endfacet
  facet normal -0.951057 -0.309017 0
    outer loop
      vertex -68.4703 -14.5538 7
      vertex -63.9482 -28.4716 0
      vertex -63.9482 -28.4716 7
    endloop
  endfacet
  facet normal -0.866025 -0.5 0
    outer loop
      vertex -63.9482 -28.4716 0
      vertex -56.6312 -41.145 0
      vertex -63.9482 -28.4716 7
    endloop
  endfacet
  facet normal -0.866025 -0.5 0
    outer loop
      vertex -63.9482 -28.4716 7
      vertex -56.6312 -41.145 0
      vertex -56.6312 -41.145 7
    endloop
  endfacet
  facet normal -0.743145 -0.669131 0
    outer loop
      vertex -56.6312 -41.145 0
      vertex -46.8391 -52.0201 0
      vertex -56.6312 -41.145 7
    endloop
  endfacet
  facet normal -0.743145 -0.669131 0
    outer loop
      vertex -56.6312 -41.145 7
      vertex -46.8391 -52.0201 0
      vertex -46.8391 -52.0201 7
    endloop
  endfacet
  facet normal -0.587785 -0.809017 0
    outer loop
      vertex -46.8391 -52.0201 7
      vertex -46.8391 -52.0201 0
      vertex -35 -60.6218 0
    endloop
  endfacet
  facet normal -0.587785 -0.809017 0
    outer loop
      vertex -35 -60.6218 7
      vertex -46.8391 -52.0201 7
      vertex -35 -60.6218 0
    endloop
  endfacet
  facet normal -0.406737 -0.913545 0
    outer loop
      vertex -35 -60.6218 7
      vertex -35 -60.6218 0
      vertex -21.6312 -66.574 0
    endloop
  endfacet
  facet normal -0.406737 -0.913545 0
    outer loop
      vertex -21.6312 -66.574 7
      vertex -35 -60.6218 7
      vertex -21.6312 -66.574 0
    endloop
  endfacet
  facet normal -0.207912 -0.978148 0
    outer loop
      vertex -21.6312 -66.574 7
      vertex -21.6312 -66.574 0
      vertex -7.31699 -69.6165 0
    endloop
  endfacet
  facet normal -0.207912 -0.978148 0
    outer loop
      vertex -7.31699 -69.6165 7
      vertex -21.6312 -66.574 7
      vertex -7.31699 -69.6165 0
    endloop
  endfacet
  facet normal 0 -1 0
    outer loop
      vertex -7.31699 -69.6165 7
      vertex -7.31699 -69.6165 0
      vertex 7.31699 -69.6165 0
    endloop
  endfacet
  facet normal 0 -1 0
    outer loop
      vertex 7.31699 -69.6165 7
      vertex -7.31699 -69.6165 7
      vertex 7.31699 -69.6165 0
    endloop
  endfacet
  facet normal 0.207912 -0.978148 0
    outer loop
      vertex 7.31699 -69.6165 7
      vertex 7.31699 -69.6165 0
      vertex 21.6312 -66.574 0
    endloop
  endfacet
  facet normal 0.207912 -0.978148 0
    outer loop
      vertex 21.6312 -66.574 7
      vertex 7.31699 -69.6165 7
      vertex 21.6312 -66.574 0
    endloop
  endfacet
  facet normal 0.406737 -0.913545 0
    outer loop
      vertex 21.6312 -66.574 7
      vertex 21.6312 -66.574 0
      vertex 35 -60.6218 0
    endloop
  endfacet
  facet normal 0.406737 -0.913545 0
    outer loop
      vertex 35 -60.6218 7
      vertex 21.6312 -66.574 7
      vertex 35 -60.6218 0
    endloop
  endfacet
  facet normal 0.587785 -0.809017 0
    outer loop
      vertex 35 -60.6218 7
      vertex 35 -60.6218 0
      vertex 46.8391 -52.0201 0
    endloop
  endfacet
  facet normal 0.587785 -0.809017 0
    outer loop
      vertex 46.8391 -52.0201 7
      vertex 35 -60.6218 7
      vertex 46.8391 -52.0201 0
    endloop
  endfacet
  facet normal 0.743145 -0.669131 0
    outer loop
      vertex 46.8391 -52.0201 7
      vertex 46.8391 -52.0201 0
      vertex 56.6312 -41.145 0
    endloop
  endfacet
  facet normal 0.743145 -0.669131 0
    outer loop
      vertex 56.6312 -41.145 7
      vertex 46.8391 -52.0201 7
      vertex 56.6312 -41.145 0
    endloop
  endfacet
  facet normal 0.866025 -0.5 0
    outer loop
      vertex 56.6312 -41.145 7
      vertex 56.6312 -41.145 0
      vertex 63.9482 -28.4716 0
    endloop
  endfacet
  facet normal 0.866025 -0.5 0
    outer loop
      vertex 63.9482 -28.4716 7
      vertex 56.6312 -41.145 7
      vertex 63.9482 -28.4716 0
    endloop
  endfacet
  facet normal 0.951057 -0.309017 0
    outer loop
      vertex 63.9482 -28.4716 7
      vertex 63.9482 -28.4716 0
      vertex 68.4703 -14.5538 0
    endloop
  endfacet
  facet normal 0.951057 -0.309017 0
    outer loop
      vertex 68.4703 -14.5538 7
      vertex 63.9482 -28.4716 7
      vertex 68.4703 -14.5538 0
    endloop
  endfacet
  facet normal 0.994522 -0.104528 0
    outer loop
      vertex 68.4703 -14.5538 7
      vertex 68.4703 -14.5538 0
      vertex 70 0 0
    endloop
  endfacet
  facet normal 0.994522 -0.104528 0
    outer loop
      vertex 70 0 7
      vertex 68.4703 -14.5538 7
      vertex 70 0 0
    endloop
  endfacet
  facet normal 1 0 0
    outer loop
      vertex 70 0 7
      vertex 70 0 0
      vertex 70 70 0
    endloop
  endfacet
  facet normal 1 0 0
    outer loop
      vertex 70 70 7
      vertex 70 0 7
      vertex 70 70 0
    endloop
  endfacet
  facet normal 0 1 0
    outer loop
      vertex 67.3 70 7
      vertex 70 70 0
      vertex 67.3 70 2.8
    endloop
  endfacet
  facet normal 0 1 0
    outer loop
      vertex 62 70 0
      vertex 62 70 7
      vertex 64.3 70 2.8
    endloop
  endfacet
  facet normal 0 1 0
    outer loop
      vertex 62 70 0
      vertex 64.3 70 2.8
      vertex 70 70 0
    endloop
  endfacet
  facet normal 0 1 0
    outer loop
      vertex 70 70 0
      vertex 67.3 70 7
      vertex 70 70 7
    endloop
  endfacet
  facet normal 0 1 0
    outer loop
      vertex 64.3 70 2.8
      vertex 62 70 7
      vertex 64.3 70 7
    endloop
  endfacet
  facet normal 0 1 0
    outer loop
      vertex 67.3 70 2.8
      vertex 70 70 0
      vertex 64.3 70 2.8
    endloop
  endfacet
  facet normal -1 0 0
    outer loop
      vertex 62 31.8459 0
      vertex 62 31.8459 7
      vertex 62 70 0
    endloop
  endfacet
  facet normal -1 0 0
    outer loop
      vertex 62 70 0
      vertex 62 31.8459 7
      vertex 62 70 7
    endloop
  endfacet
  facet normal 0.866025 0.5 0
    outer loop
      vertex 62 31.8459 0
      vertex 56.6312 41.145 0
      vertex 56.6312 41.145 7
    endloop
  endfacet
  facet normal 0.866025 0.5 0
    outer loop
      vertex 62 31.8459 7
      vertex 62 31.8459 0
      vertex 56.6312 41.145 7
    endloop
  endfacet
  facet normal 0.743145 0.669131 0
    outer loop
      vertex 56.6312 41.145 0
      vertex 46.8391 52.0201 0
      vertex 46.8391 52.0201 7
    endloop
  endfacet
  facet normal 0.743145 0.669131 0
    outer loop
      vertex 56.6312 41.145 7
      vertex 56.6312 41.145 0
      vertex 46.8391 52.0201 7
    endloop
  endfacet
  facet normal 0.587785 0.809017 0
    outer loop
      vertex 35 60.6218 0
      vertex 35 60.6218 7
      vertex 46.8391 52.0201 0
    endloop
  endfacet
  facet normal 0.587785 0.809017 0
    outer loop
      vertex 46.8391 52.0201 0
      vertex 35 60.6218 7
      vertex 46.8391 52.0201 7
    endloop
  endfacet
  facet normal 0.406737 0.913545 0
    outer loop
      vertex 21.6312 66.574 0
      vertex 21.6312 66.574 7
      vertex 35 60.6218 0
    endloop
  endfacet
  facet normal 0.406737 0.913545 0
    outer loop
      vertex 35 60.6218 0
      vertex 21.6312 66.574 7
      vertex 35 60.6218 7
    endloop
  endfacet
  facet normal 0.207912 0.978148 0
    outer loop
      vertex 7.31699 69.6165 0
      vertex 7.31699 69.6165 7
      vertex 21.6312 66.574 0
    endloop
  endfacet
  facet normal 0.207912 0.978148 0
    outer loop
      vertex 21.6312 66.574 0
      vertex 7.31699 69.6165 7
      vertex 21.6312 66.574 7
    endloop
  endfacet
  facet normal 0 1 0
    outer loop
      vertex -7.31699 69.6165 0
      vertex -7.31699 69.6165 7
      vertex 7.31699 69.6165 0
    endloop
  endfacet
  facet normal 0 1 0
    outer loop
      vertex 7.31699 69.6165 0
      vertex -7.31699 69.6165 7
      vertex 7.31699 69.6165 7
    endloop
  endfacet
  facet normal -0.207912 0.978148 0
    outer loop
      vertex -21.6312 66.574 0
      vertex -21.6312 66.574 7
      vertex -7.31699 69.6165 0
    endloop
  endfacet
  facet normal -0.207912 0.978148 0
    outer loop
      vertex -7.31699 69.6165 0
      vertex -21.6312 66.574 7
      vertex -7.31699 69.6165 7
    endloop
  endfacet
  facet normal -0.406737 0.913545 0
    outer loop
      vertex -35 60.6218 0
      vertex -35 60.6218 7
      vertex -21.6312 66.574 0
    endloop
  endfacet
  facet normal -0.406737 0.913545 0
    outer loop
      vertex -21.6312 66.574 0
      vertex -35 60.6218 7
      vertex -21.6312 66.574 7
    endloop
  endfacet
  facet normal -0.587785 0.809017 0
    outer loop
      vertex -46.8391 52.0201 0
      vertex -46.8391 52.0201 7
      vertex -35 60.6218 0
    endloop
  endfacet
  facet normal -0.587785 0.809017 0
    outer loop
      vertex -35 60.6218 0
      vertex -46.8391 52.0201 7
      vertex -35 60.6218 7
    endloop
  endfacet
  facet normal -0.743145 0.669131 0
    outer loop
      vertex -56.6312 41.145 0
      vertex -56.6312 41.145 7
      vertex -46.8391 52.0201 0
    endloop
  endfacet
  facet normal -0.743145 0.669131 0
    outer loop
      vertex -46.8391 52.0201 0
      vertex -56.6312 41.145 7
      vertex -46.8391 52.0201 7
    endloop
  endfacet
  facet normal -0.866025 0.5 0
    outer loop
      vertex -63.9482 28.4716 0
      vertex -63.9482 28.4716 7
      vertex -56.6312 41.145 0
    endloop
  endfacet
  facet normal -0.866025 0.5 0
    outer loop
      vertex -56.6312 41.145 0
      vertex -63.9482 28.4716 7
      vertex -56.6312 41.145 7
    endloop
  endfacet
  facet normal -0.951057 0.309017 0
    outer loop
      vertex -68.4703 14.5538 0
      vertex -68.4703 14.5538 7
      vertex -63.9482 28.4716 0
    endloop
  endfacet
  facet normal -0.951057 0.309017 0
    outer loop
      vertex -63.9482 28.4716 0
      vertex -68.4703 14.5538 7
      vertex -63.9482 28.4716 7
    endloop
  endfacet
  facet normal 0 0 1
    outer loop
      vertex -68.625 0 7
      vertex -70 0 7
      vertex -68.4703 -14.5538 7
    endloop
  endfacet
  facet normal 0 0 1
    outer loop
      vertex -68.0678 -5.30175 7
      vertex -68.625 0 7
      vertex -68.4703 -14.5538 7
    endloop
  endfacet
  facet normal 0 0 1
    outer loop
      vertex -62.6921 -27.9123 7
      vertex -65.478 -19.338 7
      vertex -63.9482 -28.4716 7
    endloop
  endfacet
  facet normal 0 0 1
    outer loop
      vertex -55.5188 -40.3368 7
      vertex -60.0266 -32.529 7
      vertex -56.6312 -41.145 7
    endloop
  endfacet
  facet normal 0 0 1
    outer loop
      vertex -45.9191 -50.9983 7
      vertex -51.9517 -44.2984 7
      vertex -46.8391 -52.0201 7
    endloop
  endfacet
  facet normal 0 0 1
    outer loop
      vertex -34.3125 -59.431 7
      vertex -41.6063 -54.1318 7
      vertex -35 -60.6218 7
    endloop
  endfacet
  facet normal 0 0 1
    outer loop
      vertex -21.2063 -65.2663 7
      vertex -29.4424 -61.5993 7
      vertex -21.6312 -66.574 7
    endloop
  endfacet
  facet normal 0 0 1
    outer loop
      vertex -7.17327 -68.2491 7
      vertex -15.9918 -66.3746 7
      vertex -7.31699 -69.6165 7
    endloop
  endfacet
  facet normal 0 0 1
    outer loop
      vertex 7.17327 -68.2491 7
      vertex -7.17327 -68.2491 7
      vertex 7.31699 -69.6165 7
    endloop
  endfacet
  facet normal 0 0 1
    outer loop
      vertex 21.2063 -65.2663 7
      vertex 12.3877 -67.1407 7
      vertex 21.6312 -66.574 7
    endloop
  endfacet
  facet normal 0 0 1
    outer loop
      vertex 34.3125 -59.431 7
      vertex 26.0764 -63.098 7
      vertex 35 -60.6218 7
    endloop
  endfacet
  facet normal 0 0 1
    outer loop
      vertex 45.9191 -50.9983 7
      vertex 38.6253 -56.2975 7
      vertex 46.8391 -52.0201 7
    endloop
  endfacet
  facet normal 0 0 1
    outer loop
      vertex 55.5188 -40.3368 7
      vertex 49.4862 -47.0366 7
      vertex 56.6312 -41.145 7
    endloop
  endfacet
  facet normal 0 0 1
    outer loop
      vertex 62.6921 -27.9123 7
      vertex 58.1843 -35.72 7
      vertex 63.9482 -28.4716 7
    endloop
  endfacet
  facet normal 0 0 1
    outer loop
      vertex 70 70 7
      vertex 67.3 12.6065 7
      vertex 70 0 7
    endloop
  endfacet
  facet normal 0 0 1
    outer loop
      vertex 67.3 12.6065 7
      vertex 68.0678 5.30175 7
      vertex 70 0 7
    endloop
  endfacet
  facet normal 0 0 1
    outer loop
      vertex 70 0 7
      vertex 68.625 0 7
      vertex 68.4703 -14.5538 7
    endloop
  endfacet
  facet normal 0 0 1
    outer loop
      vertex 68.625 0 7
      vertex 67.6826 -8.96619 7
      vertex 68.4703 -14.5538 7
    endloop
  endfacet
  facet normal 0 0 1
    outer loop
      vertex 35 60.6218 7
      vertex 21.6312 66.574 7
      vertex 21.2063 65.2663 7
    endloop
  endfacet
  facet normal 0 0 1
    outer loop
      vertex 68.4703 -14.5538 7
      vertex 67.1254 -14.2679 7
      vertex 63.9482 -28.4716 7
    endloop
  endfacet
  facet normal 0 0 1
    outer loop
      vertex 67.1254 -14.2679 7
      vertex 64.3394 -22.8423 7
      vertex 63.9482 -28.4716 7
    endloop
  endfacet
  facet normal 0 0 1
    outer loop
      vertex 64.3394 -22.8423 7
      vertex 62.6921 -27.9123 7
      vertex 63.9482 -28.4716 7
    endloop
  endfacet
  facet normal 0 0 1
    outer loop
      vertex 63.9482 -28.4716 7
      vertex 58.1843 -35.72 7
      vertex 56.6312 -41.145 7
    endloop
  endfacet
  facet normal 0 0 1
    outer loop
      vertex 58.1843 -35.72 7
      vertex 55.5188 -40.3368 7
      vertex 56.6312 -41.145 7
    endloop
  endfacet
  facet normal 0 0 1
    outer loop
      vertex 56.6312 -41.145 7
      vertex 49.4862 -47.0366 7
      vertex 46.8391 -52.0201 7
    endloop
  endfacet
  facet normal 0 0 1
    outer loop
      vertex 49.4862 -47.0366 7
      vertex 45.9191 -50.9983 7
      vertex 46.8391 -52.0201 7
    endloop
  endfacet
  facet normal 0 0 1
    outer loop
      vertex -67.1254 14.2679 7
      vertex -64.3394 22.8423 7
      vertex -68.4703 14.5538 7
    endloop
  endfacet
  facet normal 0 0 1
    outer loop
      vertex 46.8391 -52.0201 7
      vertex 38.6253 -56.2975 7
      vertex 35 -60.6218 7
    endloop
  endfacet
  facet normal 0 0 1
    outer loop
      vertex 38.6253 -56.2975 7
      vertex 34.3125 -59.431 7
      vertex 35 -60.6218 7
    endloop
  endfacet
  facet normal 0 0 1
    outer loop
      vertex 35 -60.6218 7
      vertex 26.0764 -63.098 7
      vertex 21.6312 -66.574 7
    endloop
  endfacet
  facet normal 0 0 1
    outer loop
      vertex 7.17327 68.2491 7
      vertex 7.31699 69.6165 7
      vertex -7.17327 68.2491 7
    endloop
  endfacet
  facet normal 0 0 1
    outer loop
      vertex 26.0764 -63.098 7
      vertex 21.2063 -65.2663 7
      vertex 21.6312 -66.574 7
    endloop
  endfacet
  facet normal 0 0 1
    outer loop
      vertex 21.6312 66.574 7
      vertex 7.31699 69.6165 7
      vertex 7.17327 68.2491 7
    endloop
  endfacet
  facet normal 0 0 1
    outer loop
      vertex 21.6312 -66.574 7
      vertex 12.3877 -67.1407 7
      vertex 7.31699 -69.6165 7
    endloop
  endfacet
  facet normal 0 0 1
    outer loop
      vertex 64.3 22.9636 7
      vertex 64.3 70 7
      vertex 62 31.8459 7
    endloop
  endfacet
  facet normal 0 0 1
    outer loop
      vertex 12.3877 -67.1407 7
      vertex 7.17327 -68.2491 7
      vertex 7.31699 -69.6165 7
    endloop
  endfacet
  facet normal 0 0 1
    outer loop
      vertex 7.31699 -69.6165 7
      vertex -7.17327 -68.2491 7
      vertex -7.31699 -69.6165 7
    endloop
  endfacet
  facet normal 0 0 1
    outer loop
      vertex -7.31699 -69.6165 7
      vertex -15.9918 -66.3746 7
      vertex -21.6312 -66.574 7
    endloop
  endfacet
  facet normal 0 0 1
    outer loop
      vertex -15.9918 -66.3746 7
      vertex -21.2063 -65.2663 7
      vertex -21.6312 -66.574 7
    endloop
  endfacet
  facet normal 0 0 1
    outer loop
      vertex -21.6312 -66.574 7
      vertex -29.4424 -61.5993 7
      vertex -35 -60.6218 7
    endloop
  endfacet
  facet normal 0 0 1
    outer loop
      vertex -29.4424 -61.5993 7
      vertex -34.3125 -59.431 7
      vertex -35 -60.6218 7
    endloop
  endfacet
  facet normal 0 0 1
    outer loop
      vertex -35 -60.6218 7
      vertex -41.6063 -54.1318 7
      vertex -46.8391 -52.0201 7
    endloop
  endfacet
  facet normal 0 0 1
    outer loop
      vertex -41.6063 -54.1318 7
      vertex -45.9191 -50.9983 7
      vertex -46.8391 -52.0201 7
    endloop
  endfacet
  facet normal 0 0 1
    outer loop
      vertex -46.8391 -52.0201 7
      vertex -51.9517 -44.2984 7
      vertex -56.6312 -41.145 7
    endloop
  endfacet
  facet normal 0 0 1
    outer loop
      vertex -51.9517 -44.2984 7
      vertex -55.5188 -40.3368 7
      vertex -56.6312 -41.145 7
    endloop
  endfacet
  facet normal 0 0 1
    outer loop
      vertex -56.6312 -41.145 7
      vertex -60.0266 -32.529 7
      vertex -63.9482 -28.4716 7
    endloop
  endfacet
  facet normal 0 0 1
    outer loop
      vertex -60.0266 -32.529 7
      vertex -62.6921 -27.9123 7
      vertex -63.9482 -28.4716 7
    endloop
  endfacet
  facet normal 0 0 1
    outer loop
      vertex -63.9482 -28.4716 7
      vertex -65.478 -19.338 7
      vertex -68.4703 -14.5538 7
    endloop
  endfacet
  facet normal 0 0 1
    outer loop
      vertex -65.478 -19.338 7
      vertex -67.1254 -14.2679 7
      vertex -68.4703 -14.5538 7
    endloop
  endfacet
  facet normal 0 0 1
    outer loop
      vertex -67.1254 -14.2679 7
      vertex -68.0678 -5.30175 7
      vertex -68.4703 -14.5538 7
    endloop
  endfacet
  facet normal 0 0 1
    outer loop
      vertex -68.4703 14.5538 7
      vertex -70 0 7
      vertex -68.625 0 7
    endloop
  endfacet
  facet normal 0 0 1
    outer loop
      vertex 21.6312 66.574 7
      vertex 7.17327 68.2491 7
      vertex 15.9918 66.3746 7
    endloop
  endfacet
  facet normal 0 0 1
    outer loop
      vertex 46.8391 52.0201 7
      vertex 34.3125 59.431 7
      vertex 41.6063 54.1318 7
    endloop
  endfacet
  facet normal 0 0 1
    outer loop
      vertex -62.6921 27.9123 7
      vertex -68.4703 14.5538 7
      vertex -64.3394 22.8423 7
    endloop
  endfacet
  facet normal 0 0 1
    outer loop
      vertex -63.9482 28.4716 7
      vertex -68.4703 14.5538 7
      vertex -62.6921 27.9123 7
    endloop
  endfacet
  facet normal 0 0 1
    outer loop
      vertex 46.8391 52.0201 7
      vertex 35 60.6218 7
      vertex 34.3125 59.431 7
    endloop
  endfacet
  facet normal 0 0 1
    outer loop
      vertex -55.5188 40.3368 7
      vertex -62.6921 27.9123 7
      vertex -58.1843 35.72 7
    endloop
  endfacet
  facet normal 0 0 1
    outer loop
      vertex -56.6312 41.145 7
      vertex -62.6921 27.9123 7
      vertex -55.5188 40.3368 7
    endloop
  endfacet
  facet normal 0 0 1
    outer loop
      vertex -46.8391 52.0201 7
      vertex -55.5188 40.3368 7
      vertex -49.4862 47.0366 7
    endloop
  endfacet
  facet normal 0 0 1
    outer loop
      vertex 62 70 7
      vertex 62 31.8459 7
      vertex 64.3 70 7
    endloop
  endfacet
  facet normal 0 0 1
    outer loop
      vertex -46.8391 52.0201 7
      vertex -49.4862 47.0366 7
      vertex -45.9191 50.9983 7
    endloop
  endfacet
  facet normal 0 0 1
    outer loop
      vertex 29.4424 61.5993 7
      vertex 34.3125 59.431 7
      vertex 35 60.6218 7
    endloop
  endfacet
  facet normal 0 0 1
    outer loop
      vertex -35 60.6218 7
      vertex -45.9191 50.9983 7
      vertex -38.6253 56.2975 7
    endloop
  endfacet
  facet normal 0 0 1
    outer loop
      vertex 35 60.6218 7
      vertex 21.2063 65.2663 7
      vertex 29.4424 61.5993 7
    endloop
  endfacet
  facet normal 0 0 1
    outer loop
      vertex -35 60.6218 7
      vertex -38.6253 56.2975 7
      vertex -34.3125 59.431 7
    endloop
  endfacet
  facet normal 0 0 1
    outer loop
      vertex -21.2063 65.2663 7
      vertex -34.3125 59.431 7
      vertex -26.0764 63.098 7
    endloop
  endfacet
  facet normal 0 0 1
    outer loop
      vertex -21.6312 66.574 7
      vertex -34.3125 59.431 7
      vertex -21.2063 65.2663 7
    endloop
  endfacet
  facet normal 0 0 1
    outer loop
      vertex -7.17327 68.2491 7
      vertex -21.2063 65.2663 7
      vertex -12.3877 67.1407 7
    endloop
  endfacet
  facet normal 0 0 1
    outer loop
      vertex -7.31699 69.6165 7
      vertex -21.2063 65.2663 7
      vertex -7.17327 68.2491 7
    endloop
  endfacet
  facet normal 0 0 1
    outer loop
      vertex 15.9918 66.3746 7
      vertex 21.2063 65.2663 7
      vertex 21.6312 66.574 7
    endloop
  endfacet
  facet normal 0 0 1
    outer loop
      vertex 46.8391 52.0201 7
      vertex 41.6063 54.1318 7
      vertex 45.9191 50.9983 7
    endloop
  endfacet
  facet normal 0 0 1
    outer loop
      vertex 56.6312 41.145 7
      vertex 55.5188 40.3368 7
      vertex 60.0266 32.529 7
    endloop
  endfacet
  facet normal 0 0 1
    outer loop
      vertex 62 31.8459 7
      vertex 60.0266 32.529 7
      vertex 62.6921 27.9123 7
    endloop
  endfacet
  facet normal 0 0 1
    outer loop
      vertex 68.0678 5.30175 7
      vertex 68.625 0 7
      vertex 70 0 7
    endloop
  endfacet
  facet normal 0 0 1
    outer loop
      vertex 67.6826 -8.96619 7
      vertex 67.1254 -14.2679 7
      vertex 68.4703 -14.5538 7
    endloop
  endfacet
  facet normal 0 0 1
    outer loop
      vertex -68.625 0 7
      vertex -67.6826 8.96619 7
      vertex -68.4703 14.5538 7
    endloop
  endfacet
  facet normal 0 0 1
    outer loop
      vertex -7.31699 69.6165 7
      vertex -7.17327 68.2491 7
      vertex 7.31699 69.6165 7
    endloop
  endfacet
  facet normal 0 0 1
    outer loop
      vertex -21.6312 66.574 7
      vertex -21.2063 65.2663 7
      vertex -7.31699 69.6165 7
    endloop
  endfacet
  facet normal 0 0 1
    outer loop
      vertex -35 60.6218 7
      vertex -34.3125 59.431 7
      vertex -21.6312 66.574 7
    endloop
  endfacet
  facet normal 0 0 1
    outer loop
      vertex -46.8391 52.0201 7
      vertex -45.9191 50.9983 7
      vertex -35 60.6218 7
    endloop
  endfacet
  facet normal 0 0 1
    outer loop
      vertex -56.6312 41.145 7
      vertex -55.5188 40.3368 7
      vertex -46.8391 52.0201 7
    endloop
  endfacet
  facet normal 0 0 1
    outer loop
      vertex -63.9482 28.4716 7
      vertex -62.6921 27.9123 7
      vertex -56.6312 41.145 7
    endloop
  endfacet
  facet normal 0 0 1
    outer loop
      vertex 64.3 22.9636 7
      vertex 62 31.8459 7
      vertex 62.6921 27.9123 7
    endloop
  endfacet
  facet normal 0 0 1
    outer loop
      vertex 62 31.8459 7
      vertex 56.6312 41.145 7
      vertex 60.0266 32.529 7
    endloop
  endfacet
  facet normal 0 0 1
    outer loop
      vertex 56.6312 41.145 7
      vertex 51.9517 44.2984 7
      vertex 55.5188 40.3368 7
    endloop
  endfacet
  facet normal 0 0 1
    outer loop
      vertex 56.6312 41.145 7
      vertex 45.9191 50.9983 7
      vertex 51.9517 44.2984 7
    endloop
  endfacet
  facet normal 0 0 1
    outer loop
      vertex 56.6312 41.145 7
      vertex 46.8391 52.0201 7
      vertex 45.9191 50.9983 7
    endloop
  endfacet
  facet normal 0 0 1
    outer loop
      vertex 67.3 70 7
      vertex 67.3 12.6065 7
      vertex 70 70 7
    endloop
  endfacet
  facet normal 0 0 1
    outer loop
      vertex -67.6826 8.96619 7
      vertex -67.1254 14.2679 7
      vertex -68.4703 14.5538 7
    endloop
  endfacet
  facet normal -1 0 0
    outer loop
      vertex 67.3 12.6065 7
      vertex 67.3 70 7
      vertex 67.3 9.66812 4.52928
    endloop
  endfacet
  facet normal -1 0 0
    outer loop
      vertex 67.3 9.66812 4.52928
      vertex 67.3 70 7
      vertex 67.3 70 2.8
    endloop
  endfacet
  facet normal -1 0 0
    outer loop
      vertex 67.3 9.66812 4.52928
      vertex 67.3 70 2.8
      vertex 67.3 7.61149 2.8
    endloop
  endfacet
  facet normal 0 0 1
    outer loop
      vertex 66.6119 14.1588 2.8
      vertex 66.7626 12.7242 2.8
      vertex 67.3 70 2.8
    endloop
  endfacet
  facet normal 0 0 1
    outer loop
      vertex 67.3 70 2.8
      vertex 66.7626 12.7242 2.8
      vertex 67.3 7.61149 2.8
    endloop
  endfacet
  facet normal 0 0 1
    outer loop
      vertex 66.6119 14.1588 2.8
      vertex 67.3 70 2.8
      vertex 64.3 70 2.8
    endloop
  endfacet
  facet normal 0 0 1
    outer loop
      vertex 66.6119 14.1588 2.8
      vertex 64.3 70 2.8
      vertex 64.3 21.2739 2.8
    endloop
  endfacet
  facet normal 1 0 0
    outer loop
      vertex 64.3 70 2.8
      vertex 64.3 70 7
      vertex 64.3 22.9636 7
    endloop
  endfacet
  facet normal 1 0 0
    outer loop
      vertex 64.3 21.2739 2.8
      vertex 64.3 70 2.8
      vertex 64.3 22.2577 5.24539
    endloop
  endfacet
  facet normal 1 0 0
    outer loop
      vertex 64.3 22.2577 5.24539
      vertex 64.3 70 2.8
      vertex 64.3 22.9636 7
    endloop
  endfacet
  facet normal -0.943792 -0.306656 0.123366
    outer loop
      vertex 64.3 22.9636 7
      vertex 62.6921 27.9123 7
      vertex 64.3 22.2577 5.24539
    endloop
  endfacet
  facet normal -0.943792 -0.306656 0.123366
    outer loop
      vertex 64.3 22.2577 5.24539
      vertex 62.6921 27.9123 7
      vertex 62.1211 27.6581 2
    endloop
  endfacet
  facet normal -0.85941 -0.496181 0.123366
    outer loop
      vertex 62.6921 27.9123 7
      vertex 60.0266 32.529 7
      vertex 62.1211 27.6581 2
    endloop
  endfacet
  facet normal -0.85941 -0.496181 0.123366
    outer loop
      vertex 62.1211 27.6581 2
      vertex 60.0266 32.529 7
      vertex 55.0132 39.9694 2
    endloop
  endfacet
  facet normal -0.85941 -0.496181 0.123366
    outer loop
      vertex 60.0266 32.529 7
      vertex 55.5188 40.3368 7
      vertex 55.0132 39.9694 2
    endloop
  endfacet
  facet normal -0.737468 -0.664019 0.123366
    outer loop
      vertex 55.5188 40.3368 7
      vertex 51.9517 44.2984 7
      vertex 55.0132 39.9694 2
    endloop
  endfacet
  facet normal -0.737468 -0.664019 0.123366
    outer loop
      vertex 55.0132 39.9694 2
      vertex 51.9517 44.2984 7
      vertex 45.5009 50.5338 2
    endloop
  endfacet
  facet normal -0.737468 -0.664019 0.123366
    outer loop
      vertex 51.9517 44.2984 7
      vertex 45.9191 50.9983 7
      vertex 45.5009 50.5338 2
    endloop
  endfacet
  facet normal -0.583295 -0.802837 0.123366
    outer loop
      vertex 45.5009 50.5338 2
      vertex 45.9191 50.9983 7
      vertex 41.6063 54.1318 7
    endloop
  endfacet
  facet normal -0.583295 -0.802837 0.123366
    outer loop
      vertex 34 58.8897 2
      vertex 45.5009 50.5338 2
      vertex 41.6063 54.1318 7
    endloop
  endfacet
  facet normal -0.583295 -0.802837 0.123366
    outer loop
      vertex 41.6063 54.1318 7
      vertex 34.3125 59.431 7
      vertex 34 58.8897 2
    endloop
  endfacet
  facet normal -0.40363 -0.906567 0.123366
    outer loop
      vertex 34 58.8897 2
      vertex 34.3125 59.431 7
      vertex 29.4424 61.5993 7
    endloop
  endfacet
  facet normal -0.40363 -0.906567 0.123366
    outer loop
      vertex 21.0132 64.6718 2
      vertex 34 58.8897 2
      vertex 29.4424 61.5993 7
    endloop
  endfacet
  facet normal -0.40363 -0.906567 0.123366
    outer loop
      vertex 29.4424 61.5993 7
      vertex 21.2063 65.2663 7
      vertex 21.0132 64.6718 2
    endloop
  endfacet
  facet normal -0.206324 -0.970676 0.123366
    outer loop
      vertex 21.0132 64.6718 2
      vertex 21.2063 65.2663 7
      vertex 15.9918 66.3746 7
    endloop
  endfacet
  facet normal -0.206324 -0.970676 0.123366
    outer loop
      vertex 7.10794 67.6275 2
      vertex 21.0132 64.6718 2
      vertex 15.9918 66.3746 7
    endloop
  endfacet
  facet normal -0.206323 -0.970676 0.123366
    outer loop
      vertex 15.9918 66.3746 7
      vertex 7.17327 68.2491 7
      vertex 7.10794 67.6275 2
    endloop
  endfacet
  facet normal 0 -0.992361 0.123366
    outer loop
      vertex -7.10794 67.6275 2
      vertex 7.10794 67.6275 2
      vertex 7.17327 68.2491 7
    endloop
  endfacet
  facet normal 0 -0.992361 0.123366
    outer loop
      vertex -7.17327 68.2491 7
      vertex -7.10794 67.6275 2
      vertex 7.17327 68.2491 7
    endloop
  endfacet
  facet normal 0.206324 -0.970676 0.123366
    outer loop
      vertex -7.10794 67.6275 2
      vertex -7.17327 68.2491 7
      vertex -12.3877 67.1407 7
    endloop
  endfacet
  facet normal 0.206324 -0.970676 0.123366
    outer loop
      vertex -21.0132 64.6718 2
      vertex -7.10794 67.6275 2
      vertex -12.3877 67.1407 7
    endloop
  endfacet
  facet normal 0.206323 -0.970676 0.123366
    outer loop
      vertex -21.0132 64.6718 2
      vertex -12.3877 67.1407 7
      vertex -21.2063 65.2663 7
    endloop
  endfacet
  facet normal 0.40363 -0.906567 0.123366
    outer loop
      vertex -21.0132 64.6718 2
      vertex -21.2063 65.2663 7
      vertex -26.0764 63.098 7
    endloop
  endfacet
  facet normal 0.40363 -0.906567 0.123366
    outer loop
      vertex -34 58.8897 2
      vertex -21.0132 64.6718 2
      vertex -26.0764 63.098 7
    endloop
  endfacet
  facet normal 0.40363 -0.906567 0.123366
    outer loop
      vertex -34 58.8897 2
      vertex -26.0764 63.098 7
      vertex -34.3125 59.431 7
    endloop
  endfacet
  facet normal 0.583295 -0.802837 0.123366
    outer loop
      vertex -34 58.8897 2
      vertex -34.3125 59.431 7
      vertex -38.6253 56.2975 7
    endloop
  endfacet
  facet normal 0.583295 -0.802837 0.123366
    outer loop
      vertex -45.5009 50.5338 2
      vertex -34 58.8897 2
      vertex -38.6253 56.2975 7
    endloop
  endfacet
  facet normal 0.583295 -0.802837 0.123366
    outer loop
      vertex -45.5009 50.5338 2
      vertex -38.6253 56.2975 7
      vertex -45.9191 50.9983 7
    endloop
  endfacet
  facet normal 0.737468 -0.664019 0.123366
    outer loop
      vertex -45.5009 50.5338 2
      vertex -45.9191 50.9983 7
      vertex -49.4862 47.0366 7
    endloop
  endfacet
  facet normal 0.737468 -0.664019 0.123366
    outer loop
      vertex -55.0132 39.9694 2
      vertex -45.5009 50.5338 2
      vertex -49.4862 47.0366 7
    endloop
  endfacet
  facet normal 0.737468 -0.664019 0.123366
    outer loop
      vertex -55.0132 39.9694 2
      vertex -49.4862 47.0366 7
      vertex -55.5188 40.3368 7
    endloop
  endfacet
  facet normal 0.85941 -0.496181 0.123366
    outer loop
      vertex -55.0132 39.9694 2
      vertex -55.5188 40.3368 7
      vertex -58.1843 35.72 7
    endloop
  endfacet
  facet normal 0.85941 -0.496181 0.123366
    outer loop
      vertex -62.1211 27.6581 2
      vertex -55.0132 39.9694 2
      vertex -58.1843 35.72 7
    endloop
  endfacet
  facet normal 0.85941 -0.496181 0.123366
    outer loop
      vertex -62.1211 27.6581 2
      vertex -58.1843 35.72 7
      vertex -62.6921 27.9123 7
    endloop
  endfacet
  facet normal 0.943792 -0.306657 0.123366
    outer loop
      vertex -62.1211 27.6581 2
      vertex -62.6921 27.9123 7
      vertex -64.3394 22.8423 7
    endloop
  endfacet
  facet normal 0.943792 -0.306657 0.123366
    outer loop
      vertex -66.514 14.138 2
      vertex -62.1211 27.6581 2
      vertex -64.3394 22.8423 7
    endloop
  endfacet
  facet normal 0.943792 -0.306656 0.123366
    outer loop
      vertex -66.514 14.138 2
      vertex -64.3394 22.8423 7
      vertex -67.1254 14.2679 7
    endloop
  endfacet
  facet normal 0.986925 -0.10373 0.123366
    outer loop
      vertex -66.514 14.138 2
      vertex -67.1254 14.2679 7
      vertex -67.6826 8.96619 7
    endloop
  endfacet
  facet normal 0.986925 -0.10373 0.123366
    outer loop
      vertex -68 0 2
      vertex -66.514 14.138 2
      vertex -67.6826 8.96619 7
    endloop
  endfacet
  facet normal 0.986925 -0.10373 0.123366
    outer loop
      vertex -68 0 2
      vertex -67.6826 8.96619 7
      vertex -68.625 0 7
    endloop
  endfacet
  facet normal 0.986925 0.10373 0.123366
    outer loop
      vertex -68.0678 -5.30175 7
      vertex -66.514 -14.138 2
      vertex -68 0 2
    endloop
  endfacet
  facet normal 0.986925 0.10373 0.123366
    outer loop
      vertex -68.625 0 7
      vertex -68.0678 -5.30175 7
      vertex -68 0 2
    endloop
  endfacet
  facet normal 0.986925 0.10373 0.123366
    outer loop
      vertex -67.1254 -14.2679 7
      vertex -66.514 -14.138 2
      vertex -68.0678 -5.30175 7
    endloop
  endfacet
  facet normal 0.943792 0.306657 0.123366
    outer loop
      vertex -65.478 -19.338 7
      vertex -62.1211 -27.6581 2
      vertex -66.514 -14.138 2
    endloop
  endfacet
  facet normal 0.943792 0.306657 0.123366
    outer loop
      vertex -67.1254 -14.2679 7
      vertex -65.478 -19.338 7
      vertex -66.514 -14.138 2
    endloop
  endfacet
  facet normal 0.943792 0.306656 0.123366
    outer loop
      vertex -62.6921 -27.9123 7
      vertex -62.1211 -27.6581 2
      vertex -65.478 -19.338 7
    endloop
  endfacet
  facet normal 0.85941 0.496181 0.123366
    outer loop
      vertex -60.0266 -32.529 7
      vertex -55.0132 -39.9694 2
      vertex -62.1211 -27.6581 2
    endloop
  endfacet
  facet normal 0.85941 0.496181 0.123366
    outer loop
      vertex -62.6921 -27.9123 7
      vertex -60.0266 -32.529 7
      vertex -62.1211 -27.6581 2
    endloop
  endfacet
  facet normal 0.85941 0.496181 0.123366
    outer loop
      vertex -55.5188 -40.3368 7
      vertex -55.0132 -39.9694 2
      vertex -60.0266 -32.529 7
    endloop
  endfacet
  facet normal 0.737468 0.664019 0.123366
    outer loop
      vertex -51.9517 -44.2984 7
      vertex -45.5009 -50.5338 2
      vertex -55.0132 -39.9694 2
    endloop
  endfacet
  facet normal 0.737468 0.664019 0.123366
    outer loop
      vertex -55.5188 -40.3368 7
      vertex -51.9517 -44.2984 7
      vertex -55.0132 -39.9694 2
    endloop
  endfacet
  facet normal 0.737468 0.664019 0.123366
    outer loop
      vertex -45.9191 -50.9983 7
      vertex -45.5009 -50.5338 2
      vertex -51.9517 -44.2984 7
    endloop
  endfacet
  facet normal 0.583295 0.802837 0.123366
    outer loop
      vertex -34 -58.8897 2
      vertex -45.5009 -50.5338 2
      vertex -41.6063 -54.1318 7
    endloop
  endfacet
  facet normal 0.583295 0.802837 0.123366
    outer loop
      vertex -41.6063 -54.1318 7
      vertex -45.5009 -50.5338 2
      vertex -45.9191 -50.9983 7
    endloop
  endfacet
  facet normal 0.583295 0.802837 0.123366
    outer loop
      vertex -34.3125 -59.431 7
      vertex -34 -58.8897 2
      vertex -41.6063 -54.1318 7
    endloop
  endfacet
  facet normal 0.40363 0.906567 0.123366
    outer loop
      vertex -21.0132 -64.6718 2
      vertex -34 -58.8897 2
      vertex -29.4424 -61.5993 7
    endloop
  endfacet
  facet normal 0.40363 0.906567 0.123366
    outer loop
      vertex -29.4424 -61.5993 7
      vertex -34 -58.8897 2
      vertex -34.3125 -59.431 7
    endloop
  endfacet
  facet normal 0.40363 0.906567 0.123366
    outer loop
      vertex -21.2063 -65.2663 7
      vertex -21.0132 -64.6718 2
      vertex -29.4424 -61.5993 7
    endloop
  endfacet
  facet normal 0.206324 0.970676 0.123366
    outer loop
      vertex -7.10794 -67.6275 2
      vertex -21.0132 -64.6718 2
      vertex -15.9918 -66.3746 7
    endloop
  endfacet
  facet normal 0.206324 0.970676 0.123366
    outer loop
      vertex -15.9918 -66.3746 7
      vertex -21.0132 -64.6718 2
      vertex -21.2063 -65.2663 7
    endloop
  endfacet
  facet normal 0.206323 0.970676 0.123366
    outer loop
      vertex -7.17327 -68.2491 7
      vertex -7.10794 -67.6275 2
      vertex -15.9918 -66.3746 7
    endloop
  endfacet
  facet normal 0 0.992361 0.123366
    outer loop
      vertex 7.10794 -67.6275 2
      vertex -7.10794 -67.6275 2
      vertex 7.17327 -68.2491 7
    endloop
  endfacet
  facet normal 0 0.992361 0.123366
    outer loop
      vertex 7.17327 -68.2491 7
      vertex -7.10794 -67.6275 2
      vertex -7.17327 -68.2491 7
    endloop
  endfacet
  facet normal -0.206324 0.970676 0.123366
    outer loop
      vertex 12.3877 -67.1407 7
      vertex 21.0132 -64.6718 2
      vertex 7.17327 -68.2491 7
    endloop
  endfacet
  facet normal -0.206324 0.970676 0.123366
    outer loop
      vertex 7.17327 -68.2491 7
      vertex 21.0132 -64.6718 2
      vertex 7.10794 -67.6275 2
    endloop
  endfacet
  facet normal -0.206323 0.970676 0.123366
    outer loop
      vertex 21.2063 -65.2663 7
      vertex 21.0132 -64.6718 2
      vertex 12.3877 -67.1407 7
    endloop
  endfacet
  facet normal -0.40363 0.906567 0.123366
    outer loop
      vertex 26.0764 -63.098 7
      vertex 34 -58.8897 2
      vertex 21.2063 -65.2663 7
    endloop
  endfacet
  facet normal -0.40363 0.906567 0.123366
    outer loop
      vertex 21.2063 -65.2663 7
      vertex 34 -58.8897 2
      vertex 21.0132 -64.6718 2
    endloop
  endfacet
  facet normal -0.40363 0.906567 0.123366
    outer loop
      vertex 34.3125 -59.431 7
      vertex 34 -58.8897 2
      vertex 26.0764 -63.098 7
    endloop
  endfacet
  facet normal -0.583295 0.802837 0.123366
    outer loop
      vertex 38.6253 -56.2975 7
      vertex 45.5009 -50.5338 2
      vertex 34.3125 -59.431 7
    endloop
  endfacet
  facet normal -0.583295 0.802837 0.123366
    outer loop
      vertex 34.3125 -59.431 7
      vertex 45.5009 -50.5338 2
      vertex 34 -58.8897 2
    endloop
  endfacet
  facet normal -0.583295 0.802837 0.123366
    outer loop
      vertex 45.9191 -50.9983 7
      vertex 45.5009 -50.5338 2
      vertex 38.6253 -56.2975 7
    endloop
  endfacet
  facet normal -0.737468 0.664019 0.123366
    outer loop
      vertex 49.4862 -47.0366 7
      vertex 55.0132 -39.9694 2
      vertex 45.9191 -50.9983 7
    endloop
  endfacet
  facet normal -0.737468 0.664019 0.123366
    outer loop
      vertex 45.9191 -50.9983 7
      vertex 55.0132 -39.9694 2
      vertex 45.5009 -50.5338 2
    endloop
  endfacet
  facet normal -0.737468 0.664019 0.123366
    outer loop
      vertex 55.5188 -40.3368 7
      vertex 55.0132 -39.9694 2
      vertex 49.4862 -47.0366 7
    endloop
  endfacet
  facet normal -0.85941 0.496181 0.123366
    outer loop
      vertex 58.1843 -35.72 7
      vertex 62.1211 -27.6581 2
      vertex 55.5188 -40.3368 7
    endloop
  endfacet
  facet normal -0.85941 0.496181 0.123366
    outer loop
      vertex 55.5188 -40.3368 7
      vertex 62.1211 -27.6581 2
      vertex 55.0132 -39.9694 2
    endloop
  endfacet
  facet normal -0.85941 0.496181 0.123366
    outer loop
      vertex 62.6921 -27.9123 7
      vertex 62.1211 -27.6581 2
      vertex 58.1843 -35.72 7
    endloop
  endfacet
  facet normal -0.943792 0.306657 0.123366
    outer loop
      vertex 64.3394 -22.8423 7
      vertex 66.514 -14.138 2
      vertex 62.6921 -27.9123 7
    endloop
  endfacet
  facet normal -0.943792 0.306657 0.123366
    outer loop
      vertex 62.6921 -27.9123 7
      vertex 66.514 -14.138 2
      vertex 62.1211 -27.6581 2
    endloop
  endfacet
  facet normal -0.943792 0.306656 0.123366
    outer loop
      vertex 67.1254 -14.2679 7
      vertex 66.514 -14.138 2
      vertex 64.3394 -22.8423 7
    endloop
  endfacet
  facet normal -0.986925 0.10373 0.123366
    outer loop
      vertex 67.6826 -8.96619 7
      vertex 68 0 2
      vertex 67.1254 -14.2679 7
    endloop
  endfacet
  facet normal -0.986925 0.10373 0.123366
    outer loop
      vertex 67.1254 -14.2679 7
      vertex 68 0 2
      vertex 66.514 -14.138 2
    endloop
  endfacet
  facet normal -0.986925 0.10373 0.123366
    outer loop
      vertex 68.625 0 7
      vertex 68 0 2
      vertex 67.6826 -8.96619 7
    endloop
  endfacet
  facet normal -0.986925 -0.10373 0.123366
    outer loop
      vertex 68.625 0 7
      vertex 68.0678 5.30175 7
      vertex 68 0 2
    endloop
  endfacet
  facet normal -0.986925 -0.10373 0.123366
    outer loop
      vertex 68 0 2
      vertex 68.0678 5.30175 7
      vertex 67.3 9.66812 4.52928
    endloop
  endfacet
  facet normal -0.986925 -0.10373 0.123366
    outer loop
      vertex 68 0 2
      vertex 67.3 9.66812 4.52928
      vertex 67.3 7.61149 2.8
    endloop
  endfacet
  facet normal -0.986925 -0.10373 0.123366
    outer loop
      vertex 68 0 2
      vertex 67.3 7.61149 2.8
      vertex 66.7626 12.7242 2.8
    endloop
  endfacet
  facet normal -0.986925 -0.10373 0.123366
    outer loop
      vertex 68 0 2
      vertex 66.7626 12.7242 2.8
      vertex 66.514 14.138 2
    endloop
  endfacet
  facet normal -0.986925 -0.10373 0.123366
    outer loop
      vertex 68.0678 5.30175 7
      vertex 67.3 12.6065 7
      vertex 67.3 9.66812 4.52928
    endloop
  endfacet
  facet normal -0.986925 -0.10373 0.123366
    outer loop
      vertex 66.7626 12.7242 2.8
      vertex 66.6119 14.1588 2.8
      vertex 66.514 14.138 2
    endloop
  endfacet
  facet normal -0.943792 -0.306657 0.123366
    outer loop
      vertex 66.6119 14.1588 2.8
      vertex 64.3 21.2739 2.8
      vertex 66.514 14.138 2
    endloop
  endfacet
  facet normal -0.943792 -0.306657 0.123366
    outer loop
      vertex 62.1211 27.6581 2
      vertex 64.3 21.2739 2.8
      vertex 64.3 22.2577 5.24539
    endloop
  endfacet
  facet normal -0.943792 -0.306657 0.123366
    outer loop
      vertex 66.514 14.138 2
      vertex 64.3 21.2739 2.8
      vertex 62.1211 27.6581 2
    endloop
  endfacet
  facet normal 0 0 1
    outer loop
      vertex -66.514 -14.138 2
      vertex -62.1211 -27.6581 2
      vertex -55.0132 -39.9694 2
    endloop
  endfacet
  facet normal 0 0 1
    outer loop
      vertex -34 -58.8897 2
      vertex -66.514 -14.138 2
      vertex -45.5009 -50.5338 2
    endloop
  endfacet
  facet normal 0 0 1
    outer loop
      vertex -45.5009 -50.5338 2
      vertex -66.514 -14.138 2
      vertex -55.0132 -39.9694 2
    endloop
  endfacet
  facet normal 0 0 1
    outer loop
      vertex -21.0132 -64.6718 2
      vertex -66.514 -14.138 2
      vertex -34 -58.8897 2
    endloop
  endfacet
  facet normal 0 0 1
    outer loop
      vertex -7.10794 -67.6275 2
      vertex -66.514 -14.138 2
      vertex -21.0132 -64.6718 2
    endloop
  endfacet
  facet normal 0 0 1
    outer loop
      vertex 7.10794 -67.6275 2
      vertex -66.514 -14.138 2
      vertex -7.10794 -67.6275 2
    endloop
  endfacet
  facet normal 0 0 1
    outer loop
      vertex 21.0132 -64.6718 2
      vertex -66.514 -14.138 2
      vertex 7.10794 -67.6275 2
    endloop
  endfacet
  facet normal 0 0 1
    outer loop
      vertex 34 -58.8897 2
      vertex -66.514 -14.138 2
      vertex 21.0132 -64.6718 2
    endloop
  endfacet
  facet normal 0 0 1
    outer loop
      vertex 45.5009 -50.5338 2
      vertex -66.514 -14.138 2
      vertex 34 -58.8897 2
    endloop
  endfacet
  facet normal 0 0 1
    outer loop
      vertex 55.0132 -39.9694 2
      vertex -66.514 -14.138 2
      vertex 45.5009 -50.5338 2
    endloop
  endfacet
  facet normal 0 0 1
    outer loop
      vertex 62.1211 -27.6581 2
      vertex -66.514 -14.138 2
      vertex 55.0132 -39.9694 2
    endloop
  endfacet
  facet normal 0 0 1
    outer loop
      vertex 66.514 -14.138 2
      vertex -66.514 -14.138 2
      vertex 62.1211 -27.6581 2
    endloop
  endfacet
  facet normal 0 0 1
    outer loop
      vertex 68 0 2
      vertex -66.514 -14.138 2
      vertex 66.514 -14.138 2
    endloop
  endfacet
  facet normal 0 0 1
    outer loop
      vertex 66.514 14.138 2
      vertex -66.514 -14.138 2
      vertex 68 0 2
    endloop
  endfacet
  facet normal 0 0 1
    outer loop
      vertex 62.1211 27.6581 2
      vertex -66.514 -14.138 2
      vertex 66.514 14.138 2
    endloop
  endfacet
  facet normal 0 0 1
    outer loop
      vertex 55.0132 39.9694 2
      vertex -66.514 -14.138 2
      vertex 62.1211 27.6581 2
    endloop
  endfacet
  facet normal 0 0 1
    outer loop
      vertex 45.5009 50.5338 2
      vertex -66.514 -14.138 2
      vertex 55.0132 39.9694 2
    endloop
  endfacet
  facet normal 0 0 1
    outer loop
      vertex 34 58.8897 2
      vertex -66.514 -14.138 2
      vertex 45.5009 50.5338 2
    endloop
  endfacet
  facet normal 0 0 1
    outer loop
      vertex 21.0132 64.6718 2
      vertex -66.514 -14.138 2
      vertex 34 58.8897 2
    endloop
  endfacet
  facet normal 0 0 1
    outer loop
      vertex 7.10794 67.6275 2
      vertex -66.514 -14.138 2
      vertex 21.0132 64.6718 2
    endloop
  endfacet
  facet normal 0 0 1
    outer loop
      vertex -7.10794 67.6275 2
      vertex -66.514 -14.138 2
      vertex 7.10794 67.6275 2
    endloop
  endfacet
  facet normal 0 0 1
    outer loop
      vertex -21.0132 64.6718 2
      vertex -66.514 -14.138 2
      vertex -7.10794 67.6275 2
    endloop
  endfacet
  facet normal 0 0 1
    outer loop
      vertex -34 58.8897 2
      vertex -66.514 -14.138 2
      vertex -21.0132 64.6718 2
    endloop
  endfacet
  facet normal 0 0 1
    outer loop
      vertex -45.5009 50.5338 2
      vertex -66.514 -14.138 2
      vertex -34 58.8897 2
    endloop
  endfacet
  facet normal 0 0 1
    outer loop
      vertex -55.0132 39.9694 2
      vertex -66.514 -14.138 2
      vertex -45.5009 50.5338 2
    endloop
  endfacet
  facet normal 0 0 1
    outer loop
      vertex -62.1211 27.6581 2
      vertex -66.514 -14.138 2
      vertex -55.0132 39.9694 2
    endloop
  endfacet
  facet normal 0 0 1
    outer loop
      vertex -66.514 14.138 2
      vertex -66.514 -14.138 2
      vertex -62.1211 27.6581 2
    endloop
  endfacet
  facet normal 0 0 1
    outer loop
      vertex -68 0 2
      vertex -66.514 -14.138 2
      vertex -66.514 14.138 2
    endloop
  endfacet
endsolid OpenSCAD_Model
