solid OpenSCAD_Model
  facet normal 0 0 -1
    outer loop
      vertex -70 0 0
      vertex -68.4703 14.5538 0
      vertex -68.4703 -14.5538 0
    endloop
  endfacet
  facet normal 0 0 -1
    outer loop
      vertex -68.4703 -14.5538 0
      vertex -68.4703 14.5538 0
      vertex -63.9482 28.4716 0
    endloop
  endfacet
  facet normal 0 0 -1
    outer loop
      vertex -68.4703 -14.5538 0
      vertex -63.9482 28.4716 0
      vertex -56.6312 41.145 0
    endloop
  endfacet
  facet normal 0 0 -1
    outer loop
      vertex -68.4703 -14.5538 0
      vertex -56.6312 41.145 0
      vertex -46.8391 52.0201 0
    endloop
  endfacet
  facet normal 0 0 -1
    outer loop
      vertex -68.4703 -14.5538 0
      vertex -46.8391 52.0201 0
      vertex -35 60.6218 0
    endloop
  endfacet
  facet normal 0 0 -1
    outer loop
      vertex -68.4703 -14.5538 0
      vertex -35 60.6218 0
      vertex -21.6312 66.574 0
    endloop
  endfacet
  facet normal 0 0 -1
    outer loop
      vertex -68.4703 -14.5538 0
      vertex -21.6312 66.574 0
      vertex -7.31699 69.6165 0
    endloop
  endfacet
  facet normal 0 0 -1
    outer loop
      vertex -68.4703 -14.5538 0
      vertex -7.31699 69.6165 0
      vertex 7.31699 69.6165 0
    endloop
  endfacet
  facet normal 0 0 -1
    outer loop
      vertex -68.4703 -14.5538 0
      vertex 7.31699 69.6165 0
      vertex 21.6312 66.574 0
    endloop
  endfacet
  facet normal 0 0 -1
    outer loop
      vertex -68.4703 -14.5538 0
      vertex 21.6312 66.574 0
      vertex 35 60.6218 0
    endloop
  endfacet
  facet normal 0 0 -1
    outer loop
      vertex -68.4703 -14.5538 0
      vertex 35 60.6218 0
      vertex 46.8391 52.0201 0
    endloop
  endfacet
  facet normal 0 0 -1
    outer loop
      vertex -68.4703 -14.5538 0
      vertex 46.8391 52.0201 0
      vertex 56.6312 41.145 0
    endloop
  endfacet
  facet normal 0 0 -1
    outer loop
      vertex -68.4703 -14.5538 0
      vertex 56.6312 41.145 0
      vertex 62 31.8459 0
    endloop
  endfacet
  facet normal 0 0 -1
    outer loop
      vertex 62 31.8459 0
      vertex 62 70 0
      vertex 70 70 0
    endloop
  endfacet
  facet normal 0 0 -1
    outer loop
      vertex 62 31.8459 0
      vertex 70 70 0
      vertex 70 0 0
    endloop
  endfacet
  facet normal 0 0 -1
    outer loop
      vertex 0.927051 -2.85317 0
      vertex 70 0 0
      vertex -68.4703 -14.5538 0
    endloop
  endfacet
  facet normal 0 0 -1
    outer loop
      vertex -68.4703 -14.5538 0
      vertex 70 0 0
      vertex 68.4703 -14.5538 0
    endloop
  endfacet
  facet normal 0 0 -1
    outer loop
      vertex -68.4703 -14.5538 0
      vertex 68.4703 -14.5538 0
      vertex 63.9482 -28.4716 0
    endloop
  endfacet
  facet normal 0 0 -1
    outer loop
      vertex -68.4703 -14.5538 0
      vertex 63.9482 -28.4716 0
      vertex 56.6312 -41.145 0
    endloop
  endfacet
  facet normal 0 0 -1
    outer loop
      vertex -68.4703 -14.5538 0
      vertex 56.6312 -41.145 0
      vertex 46.8391 -52.0201 0
    endloop
  endfacet
  facet normal 0 0 -1
    outer loop
      vertex -68.4703 -14.5538 0
      vertex 46.8391 -52.0201 0
      vertex 35 -60.6218 0
    endloop
  endfacet
  facet normal 0 0 -1
    outer loop
      vertex -68.4703 -14.5538 0
      vertex 35 -60.6218 0
      vertex 21.6312 -66.574 0
    endloop
  endfacet
  facet normal 0 0 -1
    outer loop
      vertex -68.4703 -14.5538 0
      vertex 21.6312 -66.574 0
      vertex 7.31699 -69.6165 0
    endloop
  endfacet
  facet normal 0 0 -1
    outer loop
      vertex -68.4703 -14.5538 0
      vertex 7.31699 -69.6165 0
      vertex -7.31699 -69.6165 0
    endloop
  endfacet
  facet normal 0 0 -1
    outer loop
      vertex -68.4703 -14.5538 0
      vertex -7.31699 -69.6165 0
      vertex -21.6312 -66.574 0
    endloop
  endfacet
  facet normal 0 0 -1
    outer loop
      vertex -68.4703 -14.5538 0
      vertex -21.6312 -66.574 0
      vertex -35 -60.6218 0
    endloop
  endfacet
  facet normal 0 0 -1
    outer loop
      vertex -68.4703 -14.5538 0
      vertex -35 -60.6218 0
      vertex -46.8391 -52.0201 0
    endloop
  endfacet
  facet normal 0 0 -1
    outer loop
      vertex -68.4703 -14.5538 0
      vertex -46.8391 -52.0201 0
      vertex -56.6312 -41.145 0
    endloop
  endfacet
  facet normal 0 0 -1
    outer loop
      vertex -68.4703 -14.5538 0
      vertex -56.6312 -41.145 0
      vertex -63.9482 -28.4716 0
    endloop
  endfacet
  facet normal 0 0 -1
    outer loop
      vertex -2.42705 1.76336 0
      vertex -3 0 0
      vertex -68.4703 -14.5538 0
    endloop
  endfacet
  facet normal 0 0 -1
    outer loop
      vertex 0.927051 2.85317 0
      vertex 62 31.8459 0
      vertex 2.42705 1.76336 0
    endloop
  endfacet
  facet normal 0 0 -1
    outer loop
      vertex -3 0 0
      vertex -2.42705 -1.76336 0
      vertex -68.4703 -14.5538 0
    endloop
  endfacet
  facet normal 0 0 -1
    outer loop
      vertex 3 0 0
      vertex 70 0 0
      vertex 2.42705 -1.76336 0
    endloop
  endfacet
  facet normal 0 0 -1
    outer loop
      vertex -2.42705 -1.76336 0
      vertex -0.927051 -2.85317 0
      vertex -68.4703 -14.5538 0
    endloop
  endfacet
  facet normal 0 0 -1
    outer loop
      vertex -0.927051 -2.85317 0
      vertex 0.927051 -2.85317 0
      vertex -68.4703 -14.5538 0
    endloop
  endfacet
  facet normal 0 0 -1
    outer loop
      vertex 62 31.8459 0
      vertex 70 0 0
      vertex 3 0 0
    endloop
  endfacet
  facet normal 0 0 -1
    outer loop
      vertex 62 31.8459 0
      vertex 3 0 0
      vertex 2.42705 1.76336 0
    endloop
  endfacet
  facet normal 0 0 -1
    outer loop
      vertex -2.42705 1.76336 0
      vertex -68.4703 -14.5538 0
      vertex -0.927051 2.85317 0
    endloop
  endfacet
  facet normal 0 0 -1
    outer loop
      vertex 62 31.8459 0
      vertex 0.927051 2.85317 0
      vertex -0.927051 2.85317 0
    endloop
  endfacet
  facet normal 0 0 -1
    outer loop
      vertex 62 31.8459 0
      vertex -0.927051 2.85317 0
      vertex -68.4703 -14.5538 0
    endloop
  endfacet
  facet normal 0 0 -1
    outer loop
      vertex 2.42705 -1.76336 0
      vertex 70 0 0
      vertex 0.927051 -2.85317 0
    endloop
  endfacet
  facet normal -0.994522 0.104528 0
    outer loop
      vertex -70 0 0
      vertex -70 0 2
      vertex -68.4703 14.5538 0
    endloop
  endfacet
  facet normal -0.994522 0.104528 0
    outer loop
      vertex -68.4703 14.5538 0
      vertex -70 0 2
      vertex -68.4703 14.5538 2
    endloop
  endfacet
  facet normal -0.994522 -0.104528 0
    outer loop
      vertex -70 0 0
      vertex -68.4703 -14.5538 0
      vertex -70 0 2
    endloop
  endfacet
  facet normal -0.994522 -0.104528 0
    outer loop
      vertex -70 0 2
      vertex -68.4703 -14.5538 0
      vertex -68.4703 -14.5538 2
    endloop
  endfacet
  facet normal -0.951057 -0.309017 0
    outer loop
      vertex -68.4703 -14.5538 0
      vertex -63.9482 -28.4716 0
      vertex -68.4703 -14.5538 2
    endloop
  endfacet
  facet normal -0.951057 -0.309017 0
    outer loop
      vertex -68.4703 -14.5538 2
      vertex -63.9482 -28.4716 0
      vertex -63.9482 -28.4716 2
    endloop
  endfacet
  facet normal -0.866025 -0.5 0
    outer loop
      vertex -63.9482 -28.4716 0
      vertex -56.6312 -41.145 0
      vertex -63.9482 -28.4716 2
    endloop
  endfacet
  facet normal -0.866025 -0.5 0
    outer loop
      vertex -63.9482 -28.4716 2
      vertex -56.6312 -41.145 0
      vertex -56.6312 -41.145 2
    endloop
  endfacet
  facet normal -0.743145 -0.669131 0
    outer loop
      vertex -56.6312 -41.145 0
      vertex -46.8391 -52.0201 0
      vertex -56.6312 -41.145 2
    endloop
  endfacet
  facet normal -0.743145 -0.669131 0
    outer loop
      vertex -56.6312 -41.145 2
      vertex -46.8391 -52.0201 0
      vertex -46.8391 -52.0201 2
    endloop
  endfacet
  facet normal -0.587785 -0.809017 0
    outer loop
      vertex -46.8391 -52.0201 2
      vertex -46.8391 -52.0201 0
      vertex -35 -60.6218 0
    endloop
  endfacet
  facet normal -0.587785 -0.809017 0
    outer loop
      vertex -35 -60.6218 2
      vertex -46.8391 -52.0201 2
      vertex -35 -60.6218 0
    endloop
  endfacet
  facet normal -0.406737 -0.913545 0
    outer loop
      vertex -35 -60.6218 2
      vertex -35 -60.6218 0
      vertex -21.6312 -66.574 0
    endloop
  endfacet
  facet normal -0.406737 -0.913545 0
    outer loop
      vertex -21.6312 -66.574 2
      vertex -35 -60.6218 2
      vertex -21.6312 -66.574 0
    endloop
  endfacet
  facet normal -0.207912 -0.978148 0
    outer loop
      vertex -21.6312 -66.574 2
      vertex -21.6312 -66.574 0
      vertex -7.31699 -69.6165 0
    endloop
  endfacet
  facet normal -0.207912 -0.978148 0
    outer loop
      vertex -7.31699 -69.6165 2
      vertex -21.6312 -66.574 2
      vertex -7.31699 -69.6165 0
    endloop
  endfacet
  facet normal 0 -1 0
    outer loop
      vertex -7.31699 -69.6165 2
      vertex -7.31699 -69.6165 0
      vertex 7.31699 -69.6165 0
    endloop
  endfacet
  facet normal 0 -1 0
    outer loop
      vertex 7.31699 -69.6165 2
      vertex -7.31699 -69.6165 2
      vertex 7.31699 -69.6165 0
    endloop
  endfacet
  facet normal 0.207912 -0.978148 0
    outer loop
      vertex 7.31699 -69.6165 2
      vertex 7.31699 -69.6165 0
      vertex 21.6312 -66.574 0
    endloop
  endfacet
  facet normal 0.207912 -0.978148 0
    outer loop
      vertex 21.6312 -66.574 2
      vertex 7.31699 -69.6165 2
      vertex 21.6312 -66.574 0
    endloop
  endfacet
  facet normal 0.406737 -0.913545 0
    outer loop
      vertex 21.6312 -66.574 2
      vertex 21.6312 -66.574 0
      vertex 35 -60.6218 0
    endloop
  endfacet
  facet normal 0.406737 -0.913545 0
    outer loop
      vertex 35 -60.6218 2
      vertex 21.6312 -66.574 2
      vertex 35 -60.6218 0
    endloop
  endfacet
  facet normal 0.587785 -0.809017 0
    outer loop
      vertex 35 -60.6218 2
      vertex 35 -60.6218 0
      vertex 46.8391 -52.0201 0
    endloop
  endfacet
  facet normal 0.587785 -0.809017 0
    outer loop
      vertex 46.8391 -52.0201 2
      vertex 35 -60.6218 2
      vertex 46.8391 -52.0201 0
    endloop
  endfacet
  facet normal 0.743145 -0.669131 0
    outer loop
      vertex 46.8391 -52.0201 2
      vertex 46.8391 -52.0201 0
      vertex 56.6312 -41.145 0
    endloop
  endfacet
  facet normal 0.743145 -0.669131 0
    outer loop
      vertex 56.6312 -41.145 2
      vertex 46.8391 -52.0201 2
      vertex 56.6312 -41.145 0
    endloop
  endfacet
  facet normal 0.866025 -0.5 0
    outer loop
      vertex 56.6312 -41.145 2
      vertex 56.6312 -41.145 0
      vertex 63.9482 -28.4716 0
    endloop
  endfacet
  facet normal 0.866025 -0.5 0
    outer loop
      vertex 63.9482 -28.4716 2
      vertex 56.6312 -41.145 2
      vertex 63.9482 -28.4716 0
    endloop
  endfacet
  facet normal 0.951057 -0.309017 0
    outer loop
      vertex 63.9482 -28.4716 2
      vertex 63.9482 -28.4716 0
      vertex 68.4703 -14.5538 0
    endloop
  endfacet
  facet normal 0.951057 -0.309017 0
    outer loop
      vertex 68.4703 -14.5538 2
      vertex 63.9482 -28.4716 2
      vertex 68.4703 -14.5538 0
    endloop
  endfacet
  facet normal 0.994522 -0.104528 0
    outer loop
      vertex 68.4703 -14.5538 2
      vertex 68.4703 -14.5538 0
      vertex 70 0 0
    endloop
  endfacet
  facet normal 0.994522 -0.104528 0
    outer loop
      vertex 70 0 2
      vertex 68.4703 -14.5538 2
      vertex 70 0 0
    endloop
  endfacet
  facet normal 1 0 0
    outer loop
      vertex 70 0 2
      vertex 70 0 0
      vertex 70 70 0
    endloop
  endfacet
  facet normal 1 0 0
    outer loop
      vertex 70 70 2
      vertex 70 0 2
      vertex 70 70 0
    endloop
  endfacet
  facet normal 0 1 0
    outer loop
      vertex 62 70 0
      vertex 62 70 2
      vertex 70 70 0
    endloop
  endfacet
  facet normal 0 1 0
    outer loop
      vertex 70 70 0
      vertex 62 70 2
      vertex 70 70 2
    endloop
  endfacet
  facet normal -1 0 0
    outer loop
      vertex 62 31.8459 0
      vertex 62 31.8459 2
      vertex 62 70 0
    endloop
  endfacet
  facet normal -1 0 0
    outer loop
      vertex 62 70 0
      vertex 62 31.8459 2
      vertex 62 70 2
    endloop
  endfacet
  facet normal 0.866025 0.5 0
    outer loop
      vertex 62 31.8459 0
      vertex 56.6312 41.145 0
      vertex 56.6312 41.145 2
    endloop
  endfacet
  facet normal 0.866025 0.5 0
    outer loop
      vertex 62 31.8459 2
      vertex 62 31.8459 0
      vertex 56.6312 41.145 2
    endloop
  endfacet
  facet normal 0.743145 0.669131 0
    outer loop
      vertex 56.6312 41.145 0
      vertex 46.8391 52.0201 0
      vertex 46.8391 52.0201 2
    endloop
  endfacet
  facet normal 0.743145 0.669131 0
    outer loop
      vertex 56.6312 41.145 2
      vertex 56.6312 41.145 0
      vertex 46.8391 52.0201 2
    endloop
  endfacet
  facet normal 0.587785 0.809017 0
    outer loop
      vertex 35 60.6218 0
      vertex 35 60.6218 2
      vertex 46.8391 52.0201 0
    endloop
  endfacet
  facet normal 0.587785 0.809017 0
    outer loop
      vertex 46.8391 52.0201 0
      vertex 35 60.6218 2
      vertex 46.8391 52.0201 2
    endloop
  endfacet
  facet normal 0.406737 0.913545 0
    outer loop
      vertex 21.6312 66.574 0
      vertex 21.6312 66.574 2
      vertex 35 60.6218 0
    endloop
  endfacet
  facet normal 0.406737 0.913545 0
    outer loop
      vertex 35 60.6218 0
      vertex 21.6312 66.574 2
      vertex 35 60.6218 2
    endloop
  endfacet
  facet normal 0.207912 0.978148 0
    outer loop
      vertex 7.31699 69.6165 0
      vertex 7.31699 69.6165 2
      vertex 21.6312 66.574 0
    endloop
  endfacet
  facet normal 0.207912 0.978148 0
    outer loop
      vertex 21.6312 66.574 0
      vertex 7.31699 69.6165 2
      vertex 21.6312 66.574 2
    endloop
  endfacet
  facet normal 0 1 0
    outer loop
      vertex -7.31699 69.6165 0
      vertex -7.31699 69.6165 2
      vertex 7.31699 69.6165 0
    endloop
  endfacet
  facet normal 0 1 0
    outer loop
      vertex 7.31699 69.6165 0
      vertex -7.31699 69.6165 2
      vertex 7.31699 69.6165 2
    endloop
  endfacet
  facet normal -0.207912 0.978148 0
    outer loop
      vertex -21.6312 66.574 0
      vertex -21.6312 66.574 2
      vertex -7.31699 69.6165 0
    endloop
  endfacet
  facet normal -0.207912 0.978148 0
    outer loop
      vertex -7.31699 69.6165 0
      vertex -21.6312 66.574 2
      vertex -7.31699 69.6165 2
    endloop
  endfacet
  facet normal -0.406737 0.913545 0
    outer loop
      vertex -35 60.6218 0
      vertex -35 60.6218 2
      vertex -21.6312 66.574 0
    endloop
  endfacet
  facet normal -0.406737 0.913545 0
    outer loop
      vertex -21.6312 66.574 0
      vertex -35 60.6218 2
      vertex -21.6312 66.574 2
    endloop
  endfacet
  facet normal -0.587785 0.809017 0
    outer loop
      vertex -46.8391 52.0201 0
      vertex -46.8391 52.0201 2
      vertex -35 60.6218 0
    endloop
  endfacet
  facet normal -0.587785 0.809017 0
    outer loop
      vertex -35 60.6218 0
      vertex -46.8391 52.0201 2
      vertex -35 60.6218 2
    endloop
  endfacet
  facet normal -0.743145 0.669131 0
    outer loop
      vertex -56.6312 41.145 0
      vertex -56.6312 41.145 2
      vertex -46.8391 52.0201 0
    endloop
  endfacet
  facet normal -0.743145 0.669131 0
    outer loop
      vertex -46.8391 52.0201 0
      vertex -56.6312 41.145 2
      vertex -46.8391 52.0201 2
    endloop
  endfacet
  facet normal -0.866025 0.5 0
    outer loop
      vertex -63.9482 28.4716 0
      vertex -63.9482 28.4716 2
      vertex -56.6312 41.145 0
    endloop
  endfacet
  facet normal -0.866025 0.5 0
    outer loop
      vertex -56.6312 41.145 0
      vertex -63.9482 28.4716 2
      vertex -56.6312 41.145 2
    endloop
  endfacet
  facet normal -0.951057 0.309017 0
    outer loop
      vertex -68.4703 14.5538 0
      vertex -68.4703 14.5538 2
      vertex -63.9482 28.4716 0
    endloop
  endfacet
  facet normal -0.951057 0.309017 0
    outer loop
      vertex -63.9482 28.4716 0
      vertex -68.4703 14.5538 2
      vertex -63.9482 28.4716 2
    endloop
  endfacet
  facet normal 0.951057 -0.309017 0
    outer loop
      vertex -2.42705 1.76336 0
      vertex -2.42705 1.76336 22
      vertex -3 0 22
    endloop
  endfacet
  facet normal 0.951057 -0.309017 0
    outer loop
      vertex -3 0 0
      vertex -2.42705 1.76336 0
      vertex -3 0 22
    endloop
  endfacet
  facet normal 0.951057 0.309017 0
    outer loop
      vertex -3 0 22
      vertex -2.42705 -1.76336 22
      vertex -2.42705 -1.76336 0
    endloop
  endfacet
  facet normal 0.951057 0.309017 0
    outer loop
      vertex -3 0 0
      vertex -3 0 22
      vertex -2.42705 -1.76336 0
    endloop
  endfacet
  facet normal 0.587785 -0.809017 0
    outer loop
      vertex -0.927051 2.85317 0
      vertex -0.927051 2.85317 22
      vertex -2.42705 1.76336 22
    endloop
  endfacet
  facet normal 0.587785 -0.809017 0
    outer loop
      vertex -2.42705 1.76336 0
      vertex -0.927051 2.85317 0
      vertex -2.42705 1.76336 22
    endloop
  endfacet
  facet normal 0 -1 0
    outer loop
      vertex 0.927051 2.85317 0
      vertex 0.927051 2.85317 22
      vertex -0.927051 2.85317 22
    endloop
  endfacet
  facet normal 0 -1 0
    outer loop
      vertex -0.927051 2.85317 0
      vertex 0.927051 2.85317 0
      vertex -0.927051 2.85317 22
    endloop
  endfacet
  facet normal -0.587785 -0.809017 0
    outer loop
      vertex 2.42705 1.76336 0
      vertex 2.42705 1.76336 22
      vertex 0.927051 2.85317 22
    endloop
  endfacet
  facet normal -0.587785 -0.809017 0
    outer loop
      vertex 0.927051 2.85317 0
      vertex 2.42705 1.76336 0
      vertex 0.927051 2.85317 22
    endloop
  endfacet
  facet normal -0.951057 -0.309017 0
    outer loop
      vertex 3 0 22
      vertex 2.42705 1.76336 22
      vertex 3 0 0
    endloop
  endfacet
  facet normal -0.951057 -0.309017 0
    outer loop
      vertex 3 0 0
      vertex 2.42705 1.76336 22
      vertex 2.42705 1.76336 0
    endloop
  endfacet
  facet normal -0.951057 0.309017 0
    outer loop
      vertex 3 0 22
      vertex 3 0 0
      vertex 2.42705 -1.76336 22
    endloop
  endfacet
  facet normal -0.951057 0.309017 0
    outer loop
      vertex 2.42705 -1.76336 22
      vertex 3 0 0
      vertex 2.42705 -1.76336 0
    endloop
  endfacet
  facet normal -0.587785 0.809017 0
    outer loop
      vertex 2.42705 -1.76336 22
      vertex 2.42705 -1.76336 0
      vertex 0.927051 -2.85317 22
    endloop
  endfacet
  facet normal -0.587785 0.809017 0
    outer loop
      vertex 0.927051 -2.85317 22
      vertex 2.42705 -1.76336 0
      vertex 0.927051 -2.85317 0
    endloop
  endfacet
  facet normal 0 1 0
    outer loop
      vertex 0.927051 -2.85317 22
      vertex 0.927051 -2.85317 0
      vertex -0.927051 -2.85317 22
    endloop
  endfacet
  facet normal 0 1 0
    outer loop
      vertex -0.927051 -2.85317 22
      vertex 0.927051 -2.85317 0
      vertex -0.927051 -2.85317 0
    endloop
  endfacet
  facet normal 0.587785 0.809017 0
    outer loop
      vertex -0.927051 -2.85317 22
      vertex -0.927051 -2.85317 0
      vertex -2.42705 -1.76336 22
    endloop
  endfacet
  facet normal 0.587785 0.809017 0
    outer loop
      vertex -2.42705 -1.76336 22
      vertex -0.927051 -2.85317 0
      vertex -2.42705 -1.76336 0
    endloop
  endfacet
  facet normal 0 0 1
    outer loop
      vertex -68.4703 14.5538 2
      vertex -70 0 2
      vertex -68.4703 -14.5538 2
    endloop
  endfacet
  facet normal 0 0 1
    outer loop
      vertex -56.6312 -41.145 2
      vertex -68.4703 14.5538 2
      vertex -63.9482 -28.4716 2
    endloop
  endfacet
  facet normal 0 0 1
    outer loop
      vertex -63.9482 -28.4716 2
      vertex -68.4703 14.5538 2
      vertex -68.4703 -14.5538 2
    endloop
  endfacet
  facet normal 0 0 1
    outer loop
      vertex -46.8391 -52.0201 2
      vertex -68.4703 14.5538 2
      vertex -56.6312 -41.145 2
    endloop
  endfacet
  facet normal 0 0 1
    outer loop
      vertex -35 -60.6218 2
      vertex -68.4703 14.5538 2
      vertex -46.8391 -52.0201 2
    endloop
  endfacet
  facet normal 0 0 1
    outer loop
      vertex -21.6312 -66.574 2
      vertex -68.4703 14.5538 2
      vertex -35 -60.6218 2
    endloop
  endfacet
  facet normal 0 0 1
    outer loop
      vertex -7.31699 -69.6165 2
      vertex -68.4703 14.5538 2
      vertex -21.6312 -66.574 2
    endloop
  endfacet
  facet normal 0 0 1
    outer loop
      vertex 7.31699 -69.6165 2
      vertex -68.4703 14.5538 2
      vertex -7.31699 -69.6165 2
    endloop
  endfacet
  facet normal 0 0 1
    outer loop
      vertex 21.6312 -66.574 2
      vertex -68.4703 14.5538 2
      vertex 7.31699 -69.6165 2
    endloop
  endfacet
  facet normal 0 0 1
    outer loop
      vertex 35 -60.6218 2
      vertex -68.4703 14.5538 2
      vertex 21.6312 -66.574 2
    endloop
  endfacet
  facet normal 0 0 1
    outer loop
      vertex 46.8391 -52.0201 2
      vertex -68.4703 14.5538 2
      vertex 35 -60.6218 2
    endloop
  endfacet
  facet normal 0 0 1
    outer loop
      vertex 56.6312 -41.145 2
      vertex -68.4703 14.5538 2
      vertex 46.8391 -52.0201 2
    endloop
  endfacet
  facet normal 0 0 1
    outer loop
      vertex 63.9482 -28.4716 2
      vertex -68.4703 14.5538 2
      vertex 56.6312 -41.145 2
    endloop
  endfacet
  facet normal 0 0 1
    outer loop
      vertex -1.91342 -4.6194 2
      vertex -68.4703 14.5538 2
      vertex 63.9482 -28.4716 2
    endloop
  endfacet
  facet normal 0 0 1
    outer loop
      vertex 62 31.8459 2
      vertex -68.4703 14.5538 2
      vertex 70 0 2
    endloop
  endfacet
  facet normal 0 0 1
    outer loop
      vertex 70 70 2
      vertex 62 31.8459 2
      vertex 70 0 2
    endloop
  endfacet
  facet normal 0 0 1
    outer loop
      vertex 56.6312 41.145 2
      vertex -68.4703 14.5538 2
      vertex 62 31.8459 2
    endloop
  endfacet
  facet normal 0 0 1
    outer loop
      vertex 46.8391 52.0201 2
      vertex -68.4703 14.5538 2
      vertex 56.6312 41.145 2
    endloop
  endfacet
  facet normal 0 0 1
    outer loop
      vertex 46.8391 52.0201 2
      vertex 35 60.6218 2
      vertex -68.4703 14.5538 2
    endloop
  endfacet
  facet normal 0 0 1
    outer loop
      vertex 5 0 2
      vertex 4.6194 -1.91342 2
      vertex 68.4703 -14.5538 2
    endloop
  endfacet
  facet normal 0 0 1
    outer loop
      vertex 21.6312 66.574 2
      vertex -68.4703 14.5538 2
      vertex 35 60.6218 2
    endloop
  endfacet
  facet normal 0 0 1
    outer loop
      vertex 7.31699 69.6165 2
      vertex -68.4703 14.5538 2
      vertex 21.6312 66.574 2
    endloop
  endfacet
  facet normal 0 0 1
    outer loop
      vertex -7.31699 69.6165 2
      vertex -68.4703 14.5538 2
      vertex 7.31699 69.6165 2
    endloop
  endfacet
  facet normal 0 0 1
    outer loop
      vertex -21.6312 66.574 2
      vertex -68.4703 14.5538 2
      vertex -7.31699 69.6165 2
    endloop
  endfacet
  facet normal 0 0 1
    outer loop
      vertex -35 60.6218 2
      vertex -68.4703 14.5538 2
      vertex -21.6312 66.574 2
    endloop
  endfacet
  facet normal 0 0 1
    outer loop
      vertex -46.8391 52.0201 2
      vertex -68.4703 14.5538 2
      vertex -35 60.6218 2
    endloop
  endfacet
  facet normal 0 0 1
    outer loop
      vertex -56.6312 41.145 2
      vertex -68.4703 14.5538 2
      vertex -46.8391 52.0201 2
    endloop
  endfacet
  facet normal 0 0 1
    outer loop
      vertex -63.9482 28.4716 2
      vertex -68.4703 14.5538 2
      vertex -56.6312 41.145 2
    endloop
  endfacet
  facet normal 0 0 1
    outer loop
      vertex -1.91342 -4.6194 2
      vertex -3.53553 -3.53553 2
      vertex -68.4703 14.5538 2
    endloop
  endfacet
  facet normal 0 0 1
    outer loop
      vertex -5 0 2
      vertex -68.4703 14.5538 2
      vertex -4.6194 -1.91342 2
    endloop
  endfacet
  facet normal 0 0 1
    outer loop
      vertex 1.91342 4.6194 2
      vertex 3.53553 3.53553 2
      vertex 70 0 2
    endloop
  endfacet
  facet normal 0 0 1
    outer loop
      vertex -3.53553 3.53553 2
      vertex -68.4703 14.5538 2
      vertex -4.6194 1.91342 2
    endloop
  endfacet
  facet normal 0 0 1
    outer loop
      vertex -1.91342 4.6194 2
      vertex -68.4703 14.5538 2
      vertex -3.53553 3.53553 2
    endloop
  endfacet
  facet normal 0 0 1
    outer loop
      vertex 0 5 2
      vertex -68.4703 14.5538 2
      vertex -1.91342 4.6194 2
    endloop
  endfacet
  facet normal 0 0 1
    outer loop
      vertex 70 0 2
      vertex -68.4703 14.5538 2
      vertex 0 5 2
    endloop
  endfacet
  facet normal 0 0 1
    outer loop
      vertex 3.53553 3.53553 2
      vertex 4.6194 1.91342 2
      vertex 70 0 2
    endloop
  endfacet
  facet normal 0 0 1
    outer loop
      vertex 70 0 2
      vertex 0 5 2
      vertex 1.91342 4.6194 2
    endloop
  endfacet
  facet normal 0 0 1
    outer loop
      vertex 4.6194 1.91342 2
      vertex 5 0 2
      vertex 70 0 2
    endloop
  endfacet
  facet normal 0 0 1
    outer loop
      vertex 70 0 2
      vertex 5 0 2
      vertex 68.4703 -14.5538 2
    endloop
  endfacet
  facet normal 0 0 1
    outer loop
      vertex 3.53553 -3.53553 2
      vertex 1.91342 -4.6194 2
      vertex 63.9482 -28.4716 2
    endloop
  endfacet
  facet normal 0 0 1
    outer loop
      vertex 68.4703 -14.5538 2
      vertex 3.53553 -3.53553 2
      vertex 63.9482 -28.4716 2
    endloop
  endfacet
  facet normal 0 0 1
    outer loop
      vertex 4.6194 -1.91342 2
      vertex 3.53553 -3.53553 2
      vertex 68.4703 -14.5538 2
    endloop
  endfacet
  facet normal 0 0 1
    outer loop
      vertex 1.91342 -4.6194 2
      vertex 0 -5 2
      vertex 63.9482 -28.4716 2
    endloop
  endfacet
  facet normal 0 0 1
    outer loop
      vertex 0 -5 2
      vertex -1.91342 -4.6194 2
      vertex 63.9482 -28.4716 2
    endloop
  endfacet
  facet normal 0 0 1
    outer loop
      vertex -5 0 2
      vertex -4.6194 1.91342 2
      vertex -68.4703 14.5538 2
    endloop
  endfacet
  facet normal 0 0 1
    outer loop
      vertex -3.53553 -3.53553 2
      vertex -4.6194 -1.91342 2
      vertex -68.4703 14.5538 2
    endloop
  endfacet
  facet normal 0 0 1
    outer loop
      vertex 62 70 2
      vertex 62 31.8459 2
      vertex 70 70 2
    endloop
  endfacet
  facet normal 0 0 1
    outer loop
      vertex -4.6194 1.91342 22
      vertex -5 0 22
      vertex -4.6194 -1.91342 22
    endloop
  endfacet
  facet normal 0 0 1
    outer loop
      vertex -1.91342 -4.6194 22
      vertex -4.6194 1.91342 22
      vertex -3.53553 -3.53553 22
    endloop
  endfacet
  facet normal 0 0 1
    outer loop
      vertex -3.53553 -3.53553 22
      vertex -4.6194 1.91342 22
      vertex -4.6194 -1.91342 22
    endloop
  endfacet
  facet normal 0 0 1
    outer loop
      vertex -2.42705 -1.76336 22
      vertex -4.6194 1.91342 22
      vertex -1.91342 -4.6194 22
    endloop
  endfacet
  facet normal 0 0 1
    outer loop
      vertex 2.42705 -1.76336 22
      vertex 0.927051 -2.85317 22
      vertex 3.53553 -3.53553 22
    endloop
  endfacet
  facet normal 0 0 1
    outer loop
      vertex 2.42705 1.76336 22
      vertex 3 0 22
      vertex 5 0 22
    endloop
  endfacet
  facet normal 0 0 1
    outer loop
      vertex -0.927051 2.85317 22
      vertex 0.927051 2.85317 22
      vertex 3.53553 3.53553 22
    endloop
  endfacet
  facet normal 0 0 1
    outer loop
      vertex 0.927051 2.85317 22
      vertex 2.42705 1.76336 22
      vertex 4.6194 1.91342 22
    endloop
  endfacet
  facet normal 0 0 1
    outer loop
      vertex 0 5 22
      vertex -4.6194 1.91342 22
      vertex 1.91342 4.6194 22
    endloop
  endfacet
  facet normal 0 0 1
    outer loop
      vertex -1.91342 4.6194 22
      vertex -4.6194 1.91342 22
      vertex 0 5 22
    endloop
  endfacet
  facet normal 0 0 1
    outer loop
      vertex -3.53553 3.53553 22
      vertex -4.6194 1.91342 22
      vertex -1.91342 4.6194 22
    endloop
  endfacet
  facet normal 0 0 1
    outer loop
      vertex 0 -5 22
      vertex -2.42705 -1.76336 22
      vertex -1.91342 -4.6194 22
    endloop
  endfacet
  facet normal 0 0 1
    outer loop
      vertex 3 0 22
      vertex 2.42705 -1.76336 22
      vertex 4.6194 -1.91342 22
    endloop
  endfacet
  facet normal 0 0 1
    outer loop
      vertex 1.91342 4.6194 22
      vertex -0.927051 2.85317 22
      vertex 3.53553 3.53553 22
    endloop
  endfacet
  facet normal 0 0 1
    outer loop
      vertex 1.91342 4.6194 22
      vertex -4.6194 1.91342 22
      vertex -0.927051 2.85317 22
    endloop
  endfacet
  facet normal 0 0 1
    outer loop
      vertex 3.53553 3.53553 22
      vertex 0.927051 2.85317 22
      vertex 4.6194 1.91342 22
    endloop
  endfacet
  facet normal 0 0 1
    outer loop
      vertex 4.6194 1.91342 22
      vertex 2.42705 1.76336 22
      vertex 5 0 22
    endloop
  endfacet
  facet normal 0 0 1
    outer loop
      vertex 5 0 22
      vertex 3 0 22
      vertex 4.6194 -1.91342 22
    endloop
  endfacet
  facet normal 0 0 1
    outer loop
      vertex 0.927051 -2.85317 22
      vertex -0.927051 -2.85317 22
      vertex 1.91342 -4.6194 22
    endloop
  endfacet
  facet normal 0 0 1
    outer loop
      vertex 4.6194 -1.91342 22
      vertex 2.42705 -1.76336 22
      vertex 3.53553 -3.53553 22
    endloop
  endfacet
  facet normal 0 0 1
    outer loop
      vertex -2.42705 1.76336 22
      vertex -0.927051 2.85317 22
      vertex -4.6194 1.91342 22
    endloop
  endfacet
  facet normal 0 0 1
    outer loop
      vertex 3.53553 -3.53553 22
      vertex 0.927051 -2.85317 22
      vertex 1.91342 -4.6194 22
    endloop
  endfacet
  facet normal 0 0 1
    outer loop
      vertex 1.91342 -4.6194 22
      vertex -0.927051 -2.85317 22
      vertex 0 -5 22
    endloop
  endfacet
  facet normal 0 0 1
    outer loop
      vertex -2.42705 -1.76336 22
      vertex -3 0 22
      vertex -4.6194 1.91342 22
    endloop
  endfacet
  facet normal 0 0 1
    outer loop
      vertex -0.927051 -2.85317 22
      vertex -2.42705 -1.76336 22
      vertex 0 -5 22
    endloop
  endfacet
  facet normal 0 0 1
    outer loop
      vertex -3 0 22
      vertex -2.42705 1.76336 22
      vertex -4.6194 1.91342 22
    endloop
  endfacet
  facet normal -0.980785 -0.19509 0
    outer loop
      vertex -5 0 2
      vertex -4.6194 -1.91342 2
      vertex -5 0 22
    endloop
  endfacet
  facet normal -0.980785 -0.19509 0
    outer loop
      vertex -5 0 22
      vertex -4.6194 -1.91342 2
      vertex -4.6194 -1.91342 22
    endloop
  endfacet
  facet normal -0.83147 -0.55557 0
    outer loop
      vertex -4.6194 -1.91342 2
      vertex -3.53553 -3.53553 2
      vertex -4.6194 -1.91342 22
    endloop
  endfacet
  facet normal -0.83147 -0.55557 0
    outer loop
      vertex -4.6194 -1.91342 22
      vertex -3.53553 -3.53553 2
      vertex -3.53553 -3.53553 22
    endloop
  endfacet
  facet normal -0.55557 -0.83147 0
    outer loop
      vertex -3.53553 -3.53553 22
      vertex -3.53553 -3.53553 2
      vertex -1.91342 -4.6194 2
    endloop
  endfacet
  facet normal -0.55557 -0.83147 0
    outer loop
      vertex -1.91342 -4.6194 22
      vertex -3.53553 -3.53553 22
      vertex -1.91342 -4.6194 2
    endloop
  endfacet
  facet normal -0.19509 -0.980785 0
    outer loop
      vertex -1.91342 -4.6194 22
      vertex -1.91342 -4.6194 2
      vertex 0 -5 2
    endloop
  endfacet
  facet normal -0.19509 -0.980785 0
    outer loop
      vertex 0 -5 22
      vertex -1.91342 -4.6194 22
      vertex 0 -5 2
    endloop
  endfacet
  facet normal 0.19509 -0.980785 0
    outer loop
      vertex 0 -5 22
      vertex 0 -5 2
      vertex 1.91342 -4.6194 2
    endloop
  endfacet
  facet normal 0.19509 -0.980785 0
    outer loop
      vertex 1.91342 -4.6194 22
      vertex 0 -5 22
      vertex 1.91342 -4.6194 2
    endloop
  endfacet
  facet normal 0.55557 -0.83147 0
    outer loop
      vertex 1.91342 -4.6194 22
      vertex 1.91342 -4.6194 2
      vertex 3.53553 -3.53553 2
    endloop
  endfacet
  facet normal 0.55557 -0.83147 0
    outer loop
      vertex 3.53553 -3.53553 22
      vertex 1.91342 -4.6194 22
      vertex 3.53553 -3.53553 2
    endloop
  endfacet
  facet normal 0.83147 -0.55557 0
    outer loop
      vertex 3.53553 -3.53553 22
      vertex 3.53553 -3.53553 2
      vertex 4.6194 -1.91342 2
    endloop
  endfacet
  facet normal 0.83147 -0.55557 0
    outer loop
      vertex 4.6194 -1.91342 22
      vertex 3.53553 -3.53553 22
      vertex 4.6194 -1.91342 2
    endloop
  endfacet
  facet normal 0.980785 -0.19509 0
    outer loop
      vertex 4.6194 -1.91342 22
      vertex 4.6194 -1.91342 2
      vertex 5 0 2
    endloop
  endfacet
  facet normal 0.980785 -0.19509 0
    outer loop
      vertex 5 0 22
      vertex 4.6194 -1.91342 22
      vertex 5 0 2
    endloop
  endfacet
  facet normal 0.980785 0.19509 0
    outer loop
      vertex 5 0 2
      vertex 4.6194 1.91342 2
      vertex 4.6194 1.91342 22
    endloop
  endfacet
  facet normal 0.980785 0.19509 0
    outer loop
      vertex 5 0 22
      vertex 5 0 2
      vertex 4.6194 1.91342 22
    endloop
  endfacet
  facet normal 0.83147 0.55557 0
    outer loop
      vertex 4.6194 1.91342 2
      vertex 3.53553 3.53553 2
      vertex 3.53553 3.53553 22
    endloop
  endfacet
  facet normal 0.83147 0.55557 0
    outer loop
      vertex 4.6194 1.91342 22
      vertex 4.6194 1.91342 2
      vertex 3.53553 3.53553 22
    endloop
  endfacet
  facet normal 0.55557 0.83147 0
    outer loop
      vertex 1.91342 4.6194 2
      vertex 1.91342 4.6194 22
      vertex 3.53553 3.53553 2
    endloop
  endfacet
  facet normal 0.55557 0.83147 0
    outer loop
      vertex 3.53553 3.53553 2
      vertex 1.91342 4.6194 22
      vertex 3.53553 3.53553 22
    endloop
  endfacet
  facet normal 0.19509 0.980785 0
    outer loop
      vertex 0 5 2
      vertex 0 5 22
      vertex 1.91342 4.6194 2
    endloop
  endfacet
  facet normal 0.19509 0.980785 0
    outer loop
      vertex 1.91342 4.6194 2
      vertex 0 5 22
      vertex 1.91342 4.6194 22
    endloop
  endfacet
  facet normal -0.19509 0.980785 0
    outer loop
      vertex -1.91342 4.6194 2
      vertex -1.91342 4.6194 22
      vertex 0 5 2
    endloop
  endfacet
  facet normal -0.19509 0.980785 0
    outer loop
      vertex 0 5 2
      vertex -1.91342 4.6194 22
      vertex 0 5 22
    endloop
  endfacet
  facet normal -0.55557 0.83147 0
    outer loop
      vertex -3.53553 3.53553 2
      vertex -3.53553 3.53553 22
      vertex -1.91342 4.6194 2
    endloop
  endfacet
  facet normal -0.55557 0.83147 0
    outer loop
      vertex -1.91342 4.6194 2
      vertex -3.53553 3.53553 22
      vertex -1.91342 4.6194 22
    endloop
  endfacet
  facet normal -0.83147 0.55557 0
    outer loop
      vertex -4.6194 1.91342 2
      vertex -4.6194 1.91342 22
      vertex -3.53553 3.53553 2
    endloop
  endfacet
  facet normal -0.83147 0.55557 0
    outer loop
      vertex -3.53553 3.53553 2
      vertex -4.6194 1.91342 22
      vertex -3.53553 3.53553 22
    endloop
  endfacet
  facet normal -0.980785 0.19509 0
    outer loop
      vertex -5 0 2
      vertex -5 0 22
      vertex -4.6194 1.91342 2
    endloop
  endfacet
  facet normal -0.980785 0.19509 0
    outer loop
      vertex -4.6194 1.91342 2
      vertex -5 0 22
      vertex -4.6194 1.91342 22
    endloop
  endfacet
endsolid OpenSCAD_Model
