solid OpenSCAD_Model
  facet normal 0 0 -1
    outer loop
      vertex -5 0 0
      vertex -4.6194 1.91342 0
      vertex -4.6194 -1.91342 0
    endloop
  endfacet
  facet normal 0 0 -1
    outer loop
      vertex -4.15746 1.72208 0
      vertex -4.6194 1.91342 0
      vertex -3.53553 3.53553 0
    endloop
  endfacet
  facet normal 0 0 -1
    outer loop
      vertex -3.18198 3.18198 0
      vertex -3.53553 3.53553 0
      vertex -1.91342 4.6194 0
    endloop
  endfacet
  facet normal 0 0 -1
    outer loop
      vertex -1.72208 4.15746 0
      vertex -1.91342 4.6194 0
      vertex 0 5 0
    endloop
  endfacet
  facet normal 0 0 -1
    outer loop
      vertex 0 4.5 0
      vertex 0 5 0
      vertex 1.91342 4.6194 0
    endloop
  endfacet
  facet normal 0 0 -1
    outer loop
      vertex 1.72208 4.15746 0
      vertex 1.91342 4.6194 0
      vertex 3.53553 3.53553 0
    endloop
  endfacet
  facet normal 0 0 -1
    outer loop
      vertex -3.18198 -3.18198 0
      vertex -4.6194 -1.91342 0
      vertex -4.15746 -1.72208 0
    endloop
  endfacet
  facet normal 0 0 -1
    outer loop
      vertex 4.5 0 0
      vertex 4.6194 1.91342 0
      vertex 5 0 0
    endloop
  endfacet
  facet normal 0 0 -1
    outer loop
      vertex 4.15746 -1.72208 0
      vertex 5 0 0
      vertex 4.6194 -1.91342 0
    endloop
  endfacet
  facet normal 0 0 -1
    outer loop
      vertex 3.18198 -3.18198 0
      vertex 4.6194 -1.91342 0
      vertex 3.53553 -3.53553 0
    endloop
  endfacet
  facet normal 0 0 -1
    outer loop
      vertex 1.72208 -4.15746 0
      vertex 3.53553 -3.53553 0
      vertex 1.91342 -4.6194 0
    endloop
  endfacet
  facet normal 0 0 -1
    outer loop
      vertex 0 -4.5 0
      vertex 1.91342 -4.6194 0
      vertex 0 -5 0
    endloop
  endfacet
  facet normal 0 0 -1
    outer loop
      vertex -1.72208 -4.15746 0
      vertex 0 -5 0
      vertex -1.91342 -4.6194 0
    endloop
  endfacet
  facet normal 0 0 -1
    outer loop
      vertex -4.6194 -1.91342 0
      vertex -1.91342 -4.6194 0
      vertex -3.53553 -3.53553 0
    endloop
  endfacet
  facet normal 0 0 -1
    outer loop
      vertex -4.6194 -1.91342 0
      vertex -4.6194 1.91342 0
      vertex -4.5 0 0
    endloop
  endfacet
  facet normal 0 0 -1
    outer loop
      vertex 0 -4.5 0
      vertex 0 -5 0
      vertex -1.72208 -4.15746 0
    endloop
  endfacet
  facet normal 0 0 -1
    outer loop
      vertex -4.6194 -1.91342 0
      vertex -3.18198 -3.18198 0
      vertex -1.91342 -4.6194 0
    endloop
  endfacet
  facet normal 0 0 -1
    outer loop
      vertex -3.18198 -3.18198 0
      vertex -1.72208 -4.15746 0
      vertex -1.91342 -4.6194 0
    endloop
  endfacet
  facet normal 0 0 -1
    outer loop
      vertex 4.15746 1.72208 0
      vertex 4.6194 1.91342 0
      vertex 4.5 0 0
    endloop
  endfacet
  facet normal 0 0 -1
    outer loop
      vertex 1.72208 4.15746 0
      vertex 3.53553 3.53553 0
      vertex 3.18198 3.18198 0
    endloop
  endfacet
  facet normal 0 0 -1
    outer loop
      vertex 3.53553 3.53553 0
      vertex 4.6194 1.91342 0
      vertex 4.15746 1.72208 0
    endloop
  endfacet
  facet normal 0 0 -1
    outer loop
      vertex 3.53553 3.53553 0
      vertex 4.15746 1.72208 0
      vertex 3.18198 3.18198 0
    endloop
  endfacet
  facet normal 0 0 -1
    outer loop
      vertex 4.5 0 0
      vertex 5 0 0
      vertex 4.15746 -1.72208 0
    endloop
  endfacet
  facet normal 0 0 -1
    outer loop
      vertex 4.15746 -1.72208 0
      vertex 4.6194 -1.91342 0
      vertex 3.18198 -3.18198 0
    endloop
  endfacet
  facet normal 0 0 -1
    outer loop
      vertex 3.18198 -3.18198 0
      vertex 3.53553 -3.53553 0
      vertex 1.72208 -4.15746 0
    endloop
  endfacet
  facet normal 0 0 -1
    outer loop
      vertex 1.72208 -4.15746 0
      vertex 1.91342 -4.6194 0
      vertex 0 -4.5 0
    endloop
  endfacet
  facet normal 0 0 -1
    outer loop
      vertex -4.5 0 0
      vertex -4.6194 1.91342 0
      vertex -4.15746 1.72208 0
    endloop
  endfacet
  facet normal 0 0 -1
    outer loop
      vertex -4.15746 -1.72208 0
      vertex -4.6194 -1.91342 0
      vertex -4.5 0 0
    endloop
  endfacet
  facet normal 0 0 -1
    outer loop
      vertex -4.15746 1.72208 0
      vertex -3.53553 3.53553 0
      vertex -3.18198 3.18198 0
    endloop
  endfacet
  facet normal 0 0 -1
    outer loop
      vertex -3.18198 3.18198 0
      vertex -1.91342 4.6194 0
      vertex -1.72208 4.15746 0
    endloop
  endfacet
  facet normal 0 0 -1
    outer loop
      vertex -1.72208 4.15746 0
      vertex 0 5 0
      vertex 0 4.5 0
    endloop
  endfacet
  facet normal 0 0 -1
    outer loop
      vertex 0 4.5 0
      vertex 1.91342 4.6194 0
      vertex 1.72208 4.15746 0
    endloop
  endfacet
  facet normal -0.952568 0.189477 0.238142
    outer loop
      vertex -5 0 0
      vertex -3.125 0 7.5
      vertex -4.6194 1.91342 0
    endloop
  endfacet
  facet normal -0.952568 0.189477 0.238142
    outer loop
      vertex -4.6194 1.91342 0
      vertex -3.125 0 7.5
      vertex -3.06533 0.3 7.5
    endloop
  endfacet
  facet normal -0.952568 0.189477 0.238142
    outer loop
      vertex -4.6194 1.91342 0
      vertex -3.06533 0.3 7.5
      vertex -0.724264 0.3 16.8642
    endloop
  endfacet
  facet normal -0.952568 -0.189477 0.238142
    outer loop
      vertex -5 0 0
      vertex -4.6194 -1.91342 0
      vertex -3.125 0 7.5
    endloop
  endfacet
  facet normal -0.952568 -0.189477 0.238142
    outer loop
      vertex -3.06533 -0.3 7.5
      vertex -4.6194 -1.91342 0
      vertex -0.724264 -0.3 16.8642
    endloop
  endfacet
  facet normal -0.952568 -0.189477 0.238142
    outer loop
      vertex -3.125 0 7.5
      vertex -4.6194 -1.91342 0
      vertex -3.06533 -0.3 7.5
    endloop
  endfacet
  facet normal -0.807548 -0.539587 0.238142
    outer loop
      vertex -4.6194 -1.91342 0
      vertex -3.53553 -3.53553 0
      vertex -0.724264 -0.3 16.8642
    endloop
  endfacet
  facet normal -0.807548 -0.539587 0.238142
    outer loop
      vertex -0.724264 -0.3 16.8642
      vertex -3.53553 -3.53553 0
      vertex -0.3 -0.3 18.3029
    endloop
  endfacet
  facet normal -0.539587 -0.807548 0.238142
    outer loop
      vertex -0.3 -0.3 18.3029
      vertex -3.53553 -3.53553 0
      vertex -1.91342 -4.6194 0
    endloop
  endfacet
  facet normal -0.539587 -0.807548 0.238142
    outer loop
      vertex -0.3 -0.724264 16.8642
      vertex -0.3 -0.3 18.3029
      vertex -1.91342 -4.6194 0
    endloop
  endfacet
  facet normal -0.189477 -0.952568 0.238142
    outer loop
      vertex -0.3 -3.06533 7.5
      vertex -1.91342 -4.6194 0
      vertex 0 -5 0
    endloop
  endfacet
  facet normal -0.189477 -0.952568 0.238142
    outer loop
      vertex -0.3 -0.724264 16.8642
      vertex -1.91342 -4.6194 0
      vertex -0.3 -3.06533 7.5
    endloop
  endfacet
  facet normal -0.189477 -0.952568 0.238142
    outer loop
      vertex 0 -3.125 7.5
      vertex -0.3 -3.06533 7.5
      vertex 0 -5 0
    endloop
  endfacet
  facet normal 0.189477 -0.952568 0.238142
    outer loop
      vertex 0 -3.125 7.5
      vertex 0 -5 0
      vertex 1.91342 -4.6194 0
    endloop
  endfacet
  facet normal 0.189477 -0.952568 0.238142
    outer loop
      vertex 0.3 -3.06533 7.5
      vertex 0 -3.125 7.5
      vertex 1.91342 -4.6194 0
    endloop
  endfacet
  facet normal 0.189477 -0.952568 0.238142
    outer loop
      vertex 0.3 -0.724264 16.8642
      vertex 0.3 -3.06533 7.5
      vertex 1.91342 -4.6194 0
    endloop
  endfacet
  facet normal 0.539587 -0.807548 0.238142
    outer loop
      vertex 0.3 -0.3 18.3029
      vertex 0.3 -0.724264 16.8642
      vertex 1.91342 -4.6194 0
    endloop
  endfacet
  facet normal 0.539587 -0.807548 0.238142
    outer loop
      vertex 3.53553 -3.53553 0
      vertex 0.3 -0.3 18.3029
      vertex 1.91342 -4.6194 0
    endloop
  endfacet
  facet normal 0.807548 -0.539587 0.238142
    outer loop
      vertex 0.724264 -0.3 16.8642
      vertex 0.3 -0.3 18.3029
      vertex 3.53553 -3.53553 0
    endloop
  endfacet
  facet normal 0.807548 -0.539587 0.238142
    outer loop
      vertex 4.6194 -1.91342 0
      vertex 0.724264 -0.3 16.8642
      vertex 3.53553 -3.53553 0
    endloop
  endfacet
  facet normal 0.952568 -0.189477 0.238142
    outer loop
      vertex 3.06533 -0.3 7.5
      vertex 0.724264 -0.3 16.8642
      vertex 4.6194 -1.91342 0
    endloop
  endfacet
  facet normal 0.952568 -0.189477 0.238142
    outer loop
      vertex 5 0 0
      vertex 3.06533 -0.3 7.5
      vertex 4.6194 -1.91342 0
    endloop
  endfacet
  facet normal 0.952568 -0.189477 0.238142
    outer loop
      vertex 3.125 0 7.5
      vertex 3.06533 -0.3 7.5
      vertex 5 0 0
    endloop
  endfacet
  facet normal 0.952568 0.189477 0.238142
    outer loop
      vertex 4.6194 1.91342 0
      vertex 0.724264 0.3 16.8642
      vertex 3.06533 0.3 7.5
    endloop
  endfacet
  facet normal 0.952568 0.189477 0.238142
    outer loop
      vertex 3.125 0 7.5
      vertex 4.6194 1.91342 0
      vertex 3.06533 0.3 7.5
    endloop
  endfacet
  facet normal 0.952568 0.189477 0.238142
    outer loop
      vertex 3.125 0 7.5
      vertex 5 0 0
      vertex 4.6194 1.91342 0
    endloop
  endfacet
  facet normal 0.807548 0.539587 0.238142
    outer loop
      vertex 3.53553 3.53553 0
      vertex 0.3 0.3 18.3029
      vertex 0.724264 0.3 16.8642
    endloop
  endfacet
  facet normal 0.807548 0.539587 0.238142
    outer loop
      vertex 4.6194 1.91342 0
      vertex 3.53553 3.53553 0
      vertex 0.724264 0.3 16.8642
    endloop
  endfacet
  facet normal 0.539587 0.807548 0.238142
    outer loop
      vertex 0.3 0.3 18.3029
      vertex 3.53553 3.53553 0
      vertex 0.3 0.724264 16.8642
    endloop
  endfacet
  facet normal 0.539587 0.807548 0.238142
    outer loop
      vertex 0.3 0.724264 16.8642
      vertex 3.53553 3.53553 0
      vertex 1.91342 4.6194 0
    endloop
  endfacet
  facet normal 0.189477 0.952568 0.238142
    outer loop
      vertex 0 3.125 7.5
      vertex 0.3 3.06533 7.5
      vertex 0 5 0
    endloop
  endfacet
  facet normal 0.189477 0.952568 0.238142
    outer loop
      vertex 1.91342 4.6194 0
      vertex 0.3 3.06533 7.5
      vertex 0.3 0.724264 16.8642
    endloop
  endfacet
  facet normal 0.189477 0.952568 0.238142
    outer loop
      vertex 0 5 0
      vertex 0.3 3.06533 7.5
      vertex 1.91342 4.6194 0
    endloop
  endfacet
  facet normal -0.189477 0.952568 0.238142
    outer loop
      vertex -1.91342 4.6194 0
      vertex -0.3 3.06533 7.5
      vertex 0 5 0
    endloop
  endfacet
  facet normal -0.189477 0.952568 0.238142
    outer loop
      vertex -1.91342 4.6194 0
      vertex -0.3 0.724264 16.8642
      vertex -0.3 3.06533 7.5
    endloop
  endfacet
  facet normal -0.189477 0.952568 0.238142
    outer loop
      vertex 0 3.125 7.5
      vertex 0 5 0
      vertex -0.3 3.06533 7.5
    endloop
  endfacet
  facet normal -0.539587 0.807548 0.238142
    outer loop
      vertex -3.53553 3.53553 0
      vertex -0.3 0.3 18.3029
      vertex -1.91342 4.6194 0
    endloop
  endfacet
  facet normal -0.539587 0.807548 0.238142
    outer loop
      vertex -1.91342 4.6194 0
      vertex -0.3 0.3 18.3029
      vertex -0.3 0.724264 16.8642
    endloop
  endfacet
  facet normal -0.807548 0.539587 0.238142
    outer loop
      vertex -4.6194 1.91342 0
      vertex -0.724264 0.3 16.8642
      vertex -3.53553 3.53553 0
    endloop
  endfacet
  facet normal -0.807548 0.539587 0.238142
    outer loop
      vertex -3.53553 3.53553 0
      vertex -0.724264 0.3 16.8642
      vertex -0.3 0.3 18.3029
    endloop
  endfacet
  facet normal 0.952568 0.189477 -0.238142
    outer loop
      vertex -2.625 0 7.5
      vertex -2.56533 -0.3 7.5
      vertex -4.15746 -1.72208 0
    endloop
  endfacet
  facet normal 0.952568 0.189477 -0.238142
    outer loop
      vertex -4.15746 -1.72208 0
      vertex -2.56533 -0.3 7.5
      vertex -0.724264 -0.3 14.8642
    endloop
  endfacet
  facet normal 0.952568 0.189477 -0.238142
    outer loop
      vertex -2.625 0 7.5
      vertex -4.15746 -1.72208 0
      vertex -4.5 0 0
    endloop
  endfacet
  facet normal 0.952568 -0.189477 -0.238142
    outer loop
      vertex -4.15746 1.72208 0
      vertex -0.724264 0.3 14.8642
      vertex -2.56533 0.3 7.5
    endloop
  endfacet
  facet normal 0.952568 -0.189477 -0.238142
    outer loop
      vertex -2.625 0 7.5
      vertex -4.15746 1.72208 0
      vertex -2.56533 0.3 7.5
    endloop
  endfacet
  facet normal 0.952568 -0.189477 -0.238142
    outer loop
      vertex -2.625 0 7.5
      vertex -4.5 0 0
      vertex -4.15746 1.72208 0
    endloop
  endfacet
  facet normal 0.807548 -0.539587 -0.238142
    outer loop
      vertex -3.18198 3.18198 0
      vertex -0.3 0.3 16.3029
      vertex -0.724264 0.3 14.8642
    endloop
  endfacet
  facet normal 0.807548 -0.539587 -0.238142
    outer loop
      vertex -4.15746 1.72208 0
      vertex -3.18198 3.18198 0
      vertex -0.724264 0.3 14.8642
    endloop
  endfacet
  facet normal 0.539587 -0.807548 -0.238142
    outer loop
      vertex -1.72208 4.15746 0
      vertex -0.3 0.724264 14.8642
      vertex -0.3 0.3 16.3029
    endloop
  endfacet
  facet normal 0.539587 -0.807548 -0.238142
    outer loop
      vertex -3.18198 3.18198 0
      vertex -1.72208 4.15746 0
      vertex -0.3 0.3 16.3029
    endloop
  endfacet
  facet normal 0.189477 -0.952568 -0.238142
    outer loop
      vertex 0 4.5 0
      vertex 0 2.625 7.5
      vertex -0.3 2.56533 7.5
    endloop
  endfacet
  facet normal 0.189477 -0.952568 -0.238142
    outer loop
      vertex -1.72208 4.15746 0
      vertex 0 4.5 0
      vertex -0.3 2.56533 7.5
    endloop
  endfacet
  facet normal 0.189477 -0.952568 -0.238142
    outer loop
      vertex -0.3 0.724264 14.8642
      vertex -1.72208 4.15746 0
      vertex -0.3 2.56533 7.5
    endloop
  endfacet
  facet normal -0.189477 -0.952568 -0.238142
    outer loop
      vertex 0.3 2.56533 7.5
      vertex 1.72208 4.15746 0
      vertex 0.3 0.724264 14.8642
    endloop
  endfacet
  facet normal -0.189477 -0.952568 -0.238142
    outer loop
      vertex 0 4.5 0
      vertex 1.72208 4.15746 0
      vertex 0.3 2.56533 7.5
    endloop
  endfacet
  facet normal -0.189477 -0.952568 -0.238142
    outer loop
      vertex 0.3 2.56533 7.5
      vertex 0 2.625 7.5
      vertex 0 4.5 0
    endloop
  endfacet
  facet normal -0.539587 -0.807548 -0.238142
    outer loop
      vertex 0.3 0.724264 14.8642
      vertex 1.72208 4.15746 0
      vertex 3.18198 3.18198 0
    endloop
  endfacet
  facet normal -0.539587 -0.807548 -0.238142
    outer loop
      vertex 0.3 0.3 16.3029
      vertex 0.3 0.724264 14.8642
      vertex 3.18198 3.18198 0
    endloop
  endfacet
  facet normal -0.807548 -0.539587 -0.238142
    outer loop
      vertex 4.15746 1.72208 0
      vertex 0.724264 0.3 14.8642
      vertex 3.18198 3.18198 0
    endloop
  endfacet
  facet normal -0.807548 -0.539587 -0.238142
    outer loop
      vertex 3.18198 3.18198 0
      vertex 0.724264 0.3 14.8642
      vertex 0.3 0.3 16.3029
    endloop
  endfacet
  facet normal -0.952568 -0.189477 -0.238142
    outer loop
      vertex 4.5 0 0
      vertex 2.625 0 7.5
      vertex 4.15746 1.72208 0
    endloop
  endfacet
  facet normal -0.952568 -0.189477 -0.238142
    outer loop
      vertex 4.15746 1.72208 0
      vertex 2.625 0 7.5
      vertex 2.56533 0.3 7.5
    endloop
  endfacet
  facet normal -0.952568 -0.189477 -0.238142
    outer loop
      vertex 4.15746 1.72208 0
      vertex 2.56533 0.3 7.5
      vertex 0.724264 0.3 14.8642
    endloop
  endfacet
  facet normal -0.952568 0.189477 -0.238142
    outer loop
      vertex 2.625 0 7.5
      vertex 4.5 0 0
      vertex 2.56533 -0.3 7.5
    endloop
  endfacet
  facet normal -0.952568 0.189477 -0.238142
    outer loop
      vertex 2.56533 -0.3 7.5
      vertex 4.5 0 0
      vertex 4.15746 -1.72208 0
    endloop
  endfacet
  facet normal -0.952568 0.189477 -0.238142
    outer loop
      vertex 2.56533 -0.3 7.5
      vertex 4.15746 -1.72208 0
      vertex 0.724264 -0.3 14.8642
    endloop
  endfacet
  facet normal -0.807548 0.539587 -0.238142
    outer loop
      vertex 4.15746 -1.72208 0
      vertex 3.18198 -3.18198 0
      vertex 0.724264 -0.3 14.8642
    endloop
  endfacet
  facet normal -0.807548 0.539587 -0.238142
    outer loop
      vertex 0.724264 -0.3 14.8642
      vertex 3.18198 -3.18198 0
      vertex 0.3 -0.3 16.3029
    endloop
  endfacet
  facet normal -0.539587 0.807548 -0.238142
    outer loop
      vertex 3.18198 -3.18198 0
      vertex 1.72208 -4.15746 0
      vertex 0.3 -0.3 16.3029
    endloop
  endfacet
  facet normal -0.539587 0.807548 -0.238142
    outer loop
      vertex 0.3 -0.3 16.3029
      vertex 1.72208 -4.15746 0
      vertex 0.3 -0.724264 14.8642
    endloop
  endfacet
  facet normal -0.189477 0.952568 -0.238142
    outer loop
      vertex 0.3 -2.56533 7.5
      vertex 0.3 -0.724264 14.8642
      vertex 1.72208 -4.15746 0
    endloop
  endfacet
  facet normal -0.189477 0.952568 -0.238142
    outer loop
      vertex 0.3 -2.56533 7.5
      vertex 1.72208 -4.15746 0
      vertex 0 -2.625 7.5
    endloop
  endfacet
  facet normal -0.189477 0.952568 -0.238142
    outer loop
      vertex 1.72208 -4.15746 0
      vertex 0 -4.5 0
      vertex 0 -2.625 7.5
    endloop
  endfacet
  facet normal 0.189477 0.952568 -0.238142
    outer loop
      vertex -0.3 -2.56533 7.5
      vertex 0 -2.625 7.5
      vertex 0 -4.5 0
    endloop
  endfacet
  facet normal 0.189477 0.952568 -0.238142
    outer loop
      vertex -0.3 -2.56533 7.5
      vertex 0 -4.5 0
      vertex -1.72208 -4.15746 0
    endloop
  endfacet
  facet normal 0.189477 0.952568 -0.238142
    outer loop
      vertex -0.3 -2.56533 7.5
      vertex -1.72208 -4.15746 0
      vertex -0.3 -0.724264 14.8642
    endloop
  endfacet
  facet normal 0.539587 0.807548 -0.238142
    outer loop
      vertex -0.3 -0.724264 14.8642
      vertex -1.72208 -4.15746 0
      vertex -0.3 -0.3 16.3029
    endloop
  endfacet
  facet normal 0.539587 0.807548 -0.238142
    outer loop
      vertex -0.3 -0.3 16.3029
      vertex -1.72208 -4.15746 0
      vertex -3.18198 -3.18198 0
    endloop
  endfacet
  facet normal 0.807548 0.539587 -0.238142
    outer loop
      vertex -0.724264 -0.3 14.8642
      vertex -0.3 -0.3 16.3029
      vertex -3.18198 -3.18198 0
    endloop
  endfacet
  facet normal 0.807548 0.539587 -0.238142
    outer loop
      vertex -4.15746 -1.72208 0
      vertex -0.724264 -0.3 14.8642
      vertex -3.18198 -3.18198 0
    endloop
  endfacet
  facet normal 0 -1 0
    outer loop
      vertex -2.56533 0.3 7.5
      vertex -0.724264 0.3 14.8642
      vertex -0.3 0.3 18.3029
    endloop
  endfacet
  facet normal 0 -1 0
    outer loop
      vertex -0.3 0.3 18.3029
      vertex -0.724264 0.3 14.8642
      vertex -0.3 0.3 16.3029
    endloop
  endfacet
  facet normal 0 -1 0
    outer loop
      vertex -2.56533 0.3 7.5
      vertex -0.3 0.3 18.3029
      vertex -0.724264 0.3 16.8642
    endloop
  endfacet
  facet normal 0 -1 0
    outer loop
      vertex -2.56533 0.3 7.5
      vertex -0.724264 0.3 16.8642
      vertex -3.06533 0.3 7.5
    endloop
  endfacet
  facet normal 0 0 1
    outer loop
      vertex -3.06533 -0.3 7.5
      vertex -2.56533 -0.3 7.5
      vertex -2.625 0 7.5
    endloop
  endfacet
  facet normal 0 0 1
    outer loop
      vertex -2.56533 0.3 7.5
      vertex -3.06533 -0.3 7.5
      vertex -2.625 0 7.5
    endloop
  endfacet
  facet normal 0 0 1
    outer loop
      vertex -2.56533 0.3 7.5
      vertex -3.06533 0.3 7.5
      vertex -3.06533 -0.3 7.5
    endloop
  endfacet
  facet normal 0 0 1
    outer loop
      vertex -3.06533 0.3 7.5
      vertex -3.125 0 7.5
      vertex -3.06533 -0.3 7.5
    endloop
  endfacet
  facet normal 0 1 0
    outer loop
      vertex -0.3 -0.3 18.3029
      vertex -0.3 -0.3 16.3029
      vertex -0.724264 -0.3 16.8642
    endloop
  endfacet
  facet normal 0 1 0
    outer loop
      vertex -0.724264 -0.3 16.8642
      vertex -0.3 -0.3 16.3029
      vertex -0.724264 -0.3 14.8642
    endloop
  endfacet
  facet normal 0 1 0
    outer loop
      vertex -0.724264 -0.3 16.8642
      vertex -0.724264 -0.3 14.8642
      vertex -2.56533 -0.3 7.5
    endloop
  endfacet
  facet normal 0 1 0
    outer loop
      vertex -0.724264 -0.3 16.8642
      vertex -2.56533 -0.3 7.5
      vertex -3.06533 -0.3 7.5
    endloop
  endfacet
  facet normal 1 0 0
    outer loop
      vertex -0.3 -2.56533 7.5
      vertex -0.3 -0.724264 14.8642
      vertex -0.3 -0.3 18.3029
    endloop
  endfacet
  facet normal 1 0 0
    outer loop
      vertex -0.3 -0.3 18.3029
      vertex -0.3 -0.724264 14.8642
      vertex -0.3 -0.3 16.3029
    endloop
  endfacet
  facet normal 1 0 0
    outer loop
      vertex -0.3 -2.56533 7.5
      vertex -0.3 -0.3 18.3029
      vertex -0.3 -0.724264 16.8642
    endloop
  endfacet
  facet normal 1 0 0
    outer loop
      vertex -0.3 -2.56533 7.5
      vertex -0.3 -0.724264 16.8642
      vertex -0.3 -3.06533 7.5
    endloop
  endfacet
  facet normal 0 0 1
    outer loop
      vertex 0 -3.125 7.5
      vertex 0.3 -3.06533 7.5
      vertex 0.3 -2.56533 7.5
    endloop
  endfacet
  facet normal 0 0 1
    outer loop
      vertex -0.3 -2.56533 7.5
      vertex 0 -3.125 7.5
      vertex 0 -2.625 7.5
    endloop
  endfacet
  facet normal 0 0 1
    outer loop
      vertex 0 -2.625 7.5
      vertex 0 -3.125 7.5
      vertex 0.3 -2.56533 7.5
    endloop
  endfacet
  facet normal 0 0 1
    outer loop
      vertex -0.3 -3.06533 7.5
      vertex 0 -3.125 7.5
      vertex -0.3 -2.56533 7.5
    endloop
  endfacet
  facet normal -1 0 0
    outer loop
      vertex 0.3 -0.3 18.3029
      vertex 0.3 -0.3 16.3029
      vertex 0.3 -0.724264 16.8642
    endloop
  endfacet
  facet normal -1 0 0
    outer loop
      vertex 0.3 -0.724264 16.8642
      vertex 0.3 -0.3 16.3029
      vertex 0.3 -0.724264 14.8642
    endloop
  endfacet
  facet normal -1 0 0
    outer loop
      vertex 0.3 -0.724264 16.8642
      vertex 0.3 -0.724264 14.8642
      vertex 0.3 -2.56533 7.5
    endloop
  endfacet
  facet normal -1 0 0
    outer loop
      vertex 0.3 -0.724264 16.8642
      vertex 0.3 -2.56533 7.5
      vertex 0.3 -3.06533 7.5
    endloop
  endfacet
  facet normal 0 1 0
    outer loop
      vertex 0.724264 -0.3 16.8642
      vertex 3.06533 -0.3 7.5
      vertex 0.3 -0.3 18.3029
    endloop
  endfacet
  facet normal 0 1 0
    outer loop
      vertex 0.3 -0.3 18.3029
      vertex 3.06533 -0.3 7.5
      vertex 2.56533 -0.3 7.5
    endloop
  endfacet
  facet normal 0 1 0
    outer loop
      vertex 0.3 -0.3 18.3029
      vertex 2.56533 -0.3 7.5
      vertex 0.724264 -0.3 14.8642
    endloop
  endfacet
  facet normal 0 1 0
    outer loop
      vertex 0.3 -0.3 18.3029
      vertex 0.724264 -0.3 14.8642
      vertex 0.3 -0.3 16.3029
    endloop
  endfacet
  facet normal 0 0 1
    outer loop
      vertex 3.06533 -0.3 7.5
      vertex 3.125 0 7.5
      vertex 3.06533 0.3 7.5
    endloop
  endfacet
  facet normal 0 0 1
    outer loop
      vertex 2.625 0 7.5
      vertex 3.06533 -0.3 7.5
      vertex 2.56533 0.3 7.5
    endloop
  endfacet
  facet normal 0 0 1
    outer loop
      vertex 2.56533 0.3 7.5
      vertex 3.06533 -0.3 7.5
      vertex 3.06533 0.3 7.5
    endloop
  endfacet
  facet normal 0 0 1
    outer loop
      vertex 2.56533 -0.3 7.5
      vertex 3.06533 -0.3 7.5
      vertex 2.625 0 7.5
    endloop
  endfacet
  facet normal 0 -1 0
    outer loop
      vertex 0.724264 0.3 14.8642
      vertex 2.56533 0.3 7.5
      vertex 3.06533 0.3 7.5
    endloop
  endfacet
  facet normal 0 -1 0
    outer loop
      vertex 0.3 0.3 18.3029
      vertex 0.724264 0.3 14.8642
      vertex 0.724264 0.3 16.8642
    endloop
  endfacet
  facet normal 0 -1 0
    outer loop
      vertex 0.724264 0.3 16.8642
      vertex 0.724264 0.3 14.8642
      vertex 3.06533 0.3 7.5
    endloop
  endfacet
  facet normal 0 -1 0
    outer loop
      vertex 0.3 0.3 16.3029
      vertex 0.724264 0.3 14.8642
      vertex 0.3 0.3 18.3029
    endloop
  endfacet
  facet normal -1 0 0
    outer loop
      vertex 0.3 0.724264 16.8642
      vertex 0.3 3.06533 7.5
      vertex 0.3 0.3 18.3029
    endloop
  endfacet
  facet normal -1 0 0
    outer loop
      vertex 0.3 0.3 18.3029
      vertex 0.3 3.06533 7.5
      vertex 0.3 2.56533 7.5
    endloop
  endfacet
  facet normal -1 0 0
    outer loop
      vertex 0.3 0.3 18.3029
      vertex 0.3 2.56533 7.5
      vertex 0.3 0.724264 14.8642
    endloop
  endfacet
  facet normal -1 0 0
    outer loop
      vertex 0.3 0.3 18.3029
      vertex 0.3 0.724264 14.8642
      vertex 0.3 0.3 16.3029
    endloop
  endfacet
  facet normal 0 0 1
    outer loop
      vertex 0 2.625 7.5
      vertex 0.3 2.56533 7.5
      vertex 0.3 3.06533 7.5
    endloop
  endfacet
  facet normal 0 0 1
    outer loop
      vertex -0.3 3.06533 7.5
      vertex 0 2.625 7.5
      vertex 0 3.125 7.5
    endloop
  endfacet
  facet normal 0 0 1
    outer loop
      vertex 0 3.125 7.5
      vertex 0 2.625 7.5
      vertex 0.3 3.06533 7.5
    endloop
  endfacet
  facet normal 0 0 1
    outer loop
      vertex -0.3 2.56533 7.5
      vertex 0 2.625 7.5
      vertex -0.3 3.06533 7.5
    endloop
  endfacet
  facet normal 1 0 0
    outer loop
      vertex -0.3 0.724264 14.8642
      vertex -0.3 2.56533 7.5
      vertex -0.3 3.06533 7.5
    endloop
  endfacet
  facet normal 1 0 0
    outer loop
      vertex -0.3 0.3 18.3029
      vertex -0.3 0.724264 14.8642
      vertex -0.3 0.724264 16.8642
    endloop
  endfacet
  facet normal 1 0 0
    outer loop
      vertex -0.3 0.724264 16.8642
      vertex -0.3 0.724264 14.8642
      vertex -0.3 3.06533 7.5
    endloop
  endfacet
  facet normal 1 0 0
    outer loop
      vertex -0.3 0.3 16.3029
      vertex -0.3 0.724264 14.8642
      vertex -0.3 0.3 18.3029
    endloop
  endfacet
endsolid OpenSCAD_Model
