solid OpenSCAD_Model
  facet normal -1 0 0
    outer loop
      vertex -20 -17 4
      vertex -20 -14.75 0
      vertex -20 -17 2.01
    endloop
  endfacet
  facet normal -1 0 0
    outer loop
      vertex -20 -22 0
      vertex -20 -22 4
      vertex -20 -19 2.01
    endloop
  endfacet
  facet normal -1 0 0
    outer loop
      vertex -20 -22 0
      vertex -20 -19 2.01
      vertex -20 -14.75 0
    endloop
  endfacet
  facet normal -1 0 0
    outer loop
      vertex -20 -14.75 0
      vertex -20 -17 4
      vertex -20 -14.75 4
    endloop
  endfacet
  facet normal -1 0 0
    outer loop
      vertex -20 -19 2.01
      vertex -20 -22 4
      vertex -20 -19 4
    endloop
  endfacet
  facet normal -1 0 0
    outer loop
      vertex -20 -17 2.01
      vertex -20 -14.75 0
      vertex -20 -19 2.01
    endloop
  endfacet
  facet normal 0 -1 0
    outer loop
      vertex -6 -22 0
      vertex -6 -22 4
      vertex -20 -22 4
    endloop
  endfacet
  facet normal 0 -1 0
    outer loop
      vertex -20 -22 0
      vertex -6 -22 0
      vertex -20 -22 4
    endloop
  endfacet
  facet normal 0 0 -1
    outer loop
      vertex -20 -22 0
      vertex -20 -14.75 0
      vertex -6 -22 0
    endloop
  endfacet
  facet normal 0 0 -1
    outer loop
      vertex -6 -22 0
      vertex -20 -14.75 0
      vertex -17 -14.75 0
    endloop
  endfacet
  facet normal 0 0 -1
    outer loop
      vertex -6 -22 0
      vertex -17 -14.75 0
      vertex -17 10.75 0
    endloop
  endfacet
  facet normal 0 0 -1
    outer loop
      vertex -17 10.75 0
      vertex -20 10.75 0
      vertex -20 21 0
    endloop
  endfacet
  facet normal 0 0 -1
    outer loop
      vertex -17 10.75 0
      vertex -20 21 0
      vertex -6 -22 0
    endloop
  endfacet
  facet normal 0 0 -1
    outer loop
      vertex -6 -22 0
      vertex -20 21 0
      vertex -3 21 0
    endloop
  endfacet
  facet normal 0 0 -1
    outer loop
      vertex -3 21 0
      vertex -3 25 0
      vertex 3 25 0
    endloop
  endfacet
  facet normal 0 0 -1
    outer loop
      vertex -3 21 0
      vertex 3 25 0
      vertex -6 -22 0
    endloop
  endfacet
  facet normal 0 0 -1
    outer loop
      vertex -6 -22 0
      vertex 3 25 0
      vertex 3 21 0
    endloop
  endfacet
  facet normal 0 0 -1
    outer loop
      vertex -6 -22 0
      vertex 3 21 0
      vertex 20 21 0
    endloop
  endfacet
  facet normal 0 0 -1
    outer loop
      vertex 17 10.75 0
      vertex 20 21 0
      vertex 20 10.75 0
    endloop
  endfacet
  facet normal 0 0 -1
    outer loop
      vertex -6 -22 0
      vertex 20 21 0
      vertex 17 10.75 0
    endloop
  endfacet
  facet normal 0 0 -1
    outer loop
      vertex -6 -22 0
      vertex 17 -14.75 0
      vertex 20 -14.75 0
    endloop
  endfacet
  facet normal 0 0 -1
    outer loop
      vertex 6 -22 0
      vertex 20 -14.75 0
      vertex 20 -22 0
    endloop
  endfacet
  facet normal 0 0 -1
    outer loop
      vertex -6 -22 0
      vertex 20 -14.75 0
      vertex 6 -22 0
    endloop
  endfacet
  facet normal 0 0 -1
    outer loop
      vertex 17 -14.75 0
      vertex -6 -22 0
      vertex 17 10.75 0
    endloop
  endfacet
  facet normal 0 0 -1
    outer loop
      vertex 6 -22 0
      vertex 6 -25 0
      vertex -6 -22 0
    endloop
  endfacet
  facet normal 0 0 -1
    outer loop
      vertex -6 -22 0
      vertex 6 -25 0
      vertex -6 -25 0
    endloop
  endfacet
  facet normal 0 1 0
    outer loop
      vertex -17 -14.75 4
      vertex -17 -14.75 0
      vertex -20 -14.75 4
    endloop
  endfacet
  facet normal 0 1 0
    outer loop
      vertex -20 -14.75 4
      vertex -17 -14.75 0
      vertex -20 -14.75 0
    endloop
  endfacet
  facet normal 0 0 1
    outer loop
      vertex -20 -14.75 4
      vertex -20 -17 4
      vertex -5.25352 -17 4
    endloop
  endfacet
  facet normal 0 0 1
    outer loop
      vertex -17 -14.75 4
      vertex -20 -14.75 4
      vertex -5.04182 -16.1411 4
    endloop
  endfacet
  facet normal 0 0 1
    outer loop
      vertex -5.04182 -16.1411 4
      vertex -20 -14.75 4
      vertex -5.25352 -17 4
    endloop
  endfacet
  facet normal 0 0 1
    outer loop
      vertex -10.0392 12.6 4
      vertex -14.1355 4.06737 4
      vertex -13.0902 5.87785 4
    endloop
  endfacet
  facet normal 0 0 1
    outer loop
      vertex -10.0392 12.6 4
      vertex -13.0902 5.87785 4
      vertex -11.6913 7.43145 4
    endloop
  endfacet
  facet normal 0 0 1
    outer loop
      vertex -10.0392 12.6 4
      vertex -11.6913 7.43145 4
      vertex -10 8.66025 4
    endloop
  endfacet
  facet normal 0 0 1
    outer loop
      vertex -10.0392 12.6 4
      vertex -10 8.66025 4
      vertex -8.09017 9.51056 4
    endloop
  endfacet
  facet normal 0 0 1
    outer loop
      vertex -10.0392 12.6 4
      vertex -8.09017 9.51056 4
      vertex -6.04528 9.94522 4
    endloop
  endfacet
  facet normal 0 0 1
    outer loop
      vertex -10.0392 12.6 4
      vertex -6.04528 9.94522 4
      vertex -5.44101 9.94522 4
    endloop
  endfacet
  facet normal 0 0 1
    outer loop
      vertex -17 10.75 4
      vertex -14.1355 4.06737 4
      vertex -10.0392 12.6 4
    endloop
  endfacet
  facet normal 0 0 1
    outer loop
      vertex -17 10.75 4
      vertex -15 1.83691e-015 4
      vertex -14.7815 2.07912 4
    endloop
  endfacet
  facet normal 0 0 1
    outer loop
      vertex -20 12.6 4
      vertex -17 10.75 4
      vertex -10.0392 12.6 4
    endloop
  endfacet
  facet normal 0 0 1
    outer loop
      vertex -3.77226 -14.7081 4
      vertex -17 -14.75 4
      vertex -5.04182 -16.1411 4
    endloop
  endfacet
  facet normal 0 0 1
    outer loop
      vertex -17 10.75 4
      vertex -14.7815 2.07912 4
      vertex -14.1355 4.06737 4
    endloop
  endfacet
  facet normal 0 0 1
    outer loop
      vertex -20 10.75 4
      vertex -17 10.75 4
      vertex -20 12.6 4
    endloop
  endfacet
  facet normal 0 0 1
    outer loop
      vertex -17 10.75 4
      vertex -14.7815 -2.07912 4
      vertex -15 1.83691e-015 4
    endloop
  endfacet
  facet normal 0 0 1
    outer loop
      vertex -6.04529 -9.94522 4
      vertex -3.70906 -14.6841 4
      vertex -4.71634 -9.94522 4
    endloop
  endfacet
  facet normal 0 0 1
    outer loop
      vertex -8.09017 -9.51056 4
      vertex -3.70906 -14.6841 4
      vertex -6.04529 -9.94522 4
    endloop
  endfacet
  facet normal 0 0 1
    outer loop
      vertex -10 -8.66025 4
      vertex -3.70906 -14.6841 4
      vertex -8.09017 -9.51056 4
    endloop
  endfacet
  facet normal 0 0 1
    outer loop
      vertex -11.6913 -7.43145 4
      vertex -3.70906 -14.6841 4
      vertex -10 -8.66025 4
    endloop
  endfacet
  facet normal 0 0 1
    outer loop
      vertex -11.6913 -7.43145 4
      vertex -3.77226 -14.7081 4
      vertex -3.70906 -14.6841 4
    endloop
  endfacet
  facet normal 0 0 1
    outer loop
      vertex -11.6913 -7.43145 4
      vertex -17 -14.75 4
      vertex -3.77226 -14.7081 4
    endloop
  endfacet
  facet normal 0 0 1
    outer loop
      vertex -13.0902 -5.87785 4
      vertex -17 -14.75 4
      vertex -11.6913 -7.43145 4
    endloop
  endfacet
  facet normal 0 0 1
    outer loop
      vertex -14.1355 -4.06737 4
      vertex -17 -14.75 4
      vertex -13.0902 -5.87785 4
    endloop
  endfacet
  facet normal 0 0 1
    outer loop
      vertex -14.7815 -2.07912 4
      vertex -17 -14.75 4
      vertex -14.1355 -4.06737 4
    endloop
  endfacet
  facet normal 0 0 1
    outer loop
      vertex -17 10.75 4
      vertex -17 -14.75 4
      vertex -14.7815 -2.07912 4
    endloop
  endfacet
  facet normal 0 -1 0
    outer loop
      vertex -5.25352 -17 2.01
      vertex -5.25352 -17 4
      vertex -20 -17 4
    endloop
  endfacet
  facet normal 0 -1 0
    outer loop
      vertex -20 -17 2.01
      vertex -5.25352 -17 2.01
      vertex -20 -17 4
    endloop
  endfacet
  facet normal 0 0 1
    outer loop
      vertex 3 -21.5848 2.01
      vertex 3.77226 -21.2919 2.01
      vertex -5.25352 -19 2.01
    endloop
  endfacet
  facet normal 0 0 1
    outer loop
      vertex -5.25352 -19 2.01
      vertex -5.04182 -19.8589 2.01
      vertex -3.77226 -21.2919 2.01
    endloop
  endfacet
  facet normal 0 0 1
    outer loop
      vertex 3 -25 2.01
      vertex -5.25352 -19 2.01
      vertex -3 -21.5848 2.01
    endloop
  endfacet
  facet normal 0 0 1
    outer loop
      vertex -3 -21.5848 2.01
      vertex -5.25352 -19 2.01
      vertex -3.77226 -21.2919 2.01
    endloop
  endfacet
  facet normal 0 0 1
    outer loop
      vertex 8.3 18.5241 2.01
      vertex 1.5 14.5981 2.01
      vertex 1.22461e-016 6.80385 2.01
    endloop
  endfacet
  facet normal 0 0 1
    outer loop
      vertex -3 -25 2.01
      vertex 3 -25 2.01
      vertex -3 -21.5848 2.01
    endloop
  endfacet
  facet normal 0 0 1
    outer loop
      vertex 3 -25 2.01
      vertex 3 -21.5848 2.01
      vertex -5.25352 -19 2.01
    endloop
  endfacet
  facet normal 0 0 1
    outer loop
      vertex 5.25352 -19 2.01
      vertex 20 -17 2.01
      vertex -5.25352 -19 2.01
    endloop
  endfacet
  facet normal 0 0 1
    outer loop
      vertex 3.77226 -21.2919 2.01
      vertex 5.04182 -19.8589 2.01
      vertex -5.25352 -19 2.01
    endloop
  endfacet
  facet normal 0 0 1
    outer loop
      vertex 5.04182 -19.8589 2.01
      vertex 5.25352 -19 2.01
      vertex -5.25352 -19 2.01
    endloop
  endfacet
  facet normal 0 0 1
    outer loop
      vertex 20 -19 2.01
      vertex 20 -17 2.01
      vertex 5.25352 -19 2.01
    endloop
  endfacet
  facet normal 0 0 1
    outer loop
      vertex 20 -17 2.01
      vertex 5.25352 -17 2.01
      vertex -5.25352 -19 2.01
    endloop
  endfacet
  facet normal 0 0 1
    outer loop
      vertex -2.89488 -18.5145 2.01
      vertex -3.70906 -14.6841 2.01
      vertex -5.25352 -19 2.01
    endloop
  endfacet
  facet normal 0 0 1
    outer loop
      vertex 6.04528 -9.94522 2.01
      vertex 8.09017 -9.51056 2.01
      vertex 4.71634 -9.94522 2.01
    endloop
  endfacet
  facet normal 0 0 1
    outer loop
      vertex -1.5 14.5981 2.01
      vertex 1.22461e-016 13.7321 2.01
      vertex 0.75 19 2.01
    endloop
  endfacet
  facet normal 0 0 1
    outer loop
      vertex 8.09017 -9.51056 2.01
      vertex 10 -8.66025 2.01
      vertex 4.71634 -9.94522 2.01
    endloop
  endfacet
  facet normal 0 0 1
    outer loop
      vertex 10 -8.66025 2.01
      vertex 11.6913 -7.43145 2.01
      vertex 4.71634 -9.94522 2.01
    endloop
  endfacet
  facet normal 0 0 1
    outer loop
      vertex 11.6913 -7.43145 2.01
      vertex 13.0902 -5.87785 2.01
      vertex 4.71634 -9.94522 2.01
    endloop
  endfacet
  facet normal 0 0 1
    outer loop
      vertex 13.0902 -5.87785 2.01
      vertex 14.1355 -4.06737 2.01
      vertex 4.71634 -9.94522 2.01
    endloop
  endfacet
  facet normal 0 0 1
    outer loop
      vertex 14.1355 -4.06737 2.01
      vertex 14.7815 -2.07912 2.01
      vertex 4.71634 -9.94522 2.01
    endloop
  endfacet
  facet normal 0 0 1
    outer loop
      vertex 14.7815 -2.07912 2.01
      vertex 15 0 2.01
      vertex 4.71634 -9.94522 2.01
    endloop
  endfacet
  facet normal 0 0 1
    outer loop
      vertex -5.25352 -17 2.01
      vertex -20 -19 2.01
      vertex -5.25352 -19 2.01
    endloop
  endfacet
  facet normal 0 0 1
    outer loop
      vertex -5.25352 -17 2.01
      vertex -20 -17 2.01
      vertex -20 -19 2.01
    endloop
  endfacet
  facet normal 0 0 1
    outer loop
      vertex -5.04182 -16.1411 2.01
      vertex -5.25352 -17 2.01
      vertex -5.25352 -19 2.01
    endloop
  endfacet
  facet normal 0 0 1
    outer loop
      vertex 1.22461e-016 -7.67574 2.01
      vertex 10 8.66025 2.01
      vertex 8.09017 9.51056 2.01
    endloop
  endfacet
  facet normal 0 0 1
    outer loop
      vertex 10.0392 12.6 2.01
      vertex 20 18.6 2.01
      vertex 5.44101 9.94522 2.01
    endloop
  endfacet
  facet normal 0 0 1
    outer loop
      vertex 20 12.6 2.01
      vertex 20 18.6 2.01
      vertex 10.0392 12.6 2.01
    endloop
  endfacet
  facet normal 0 0 1
    outer loop
      vertex 1.22461e-016 -7.67574 2.01
      vertex 3.70906 -14.6841 2.01
      vertex 4.71634 -9.94522 2.01
    endloop
  endfacet
  facet normal 0 0 1
    outer loop
      vertex 20 18.6 2.01
      vertex 8.3 18.5241 2.01
      vertex 5.44101 9.94522 2.01
    endloop
  endfacet
  facet normal 0 0 1
    outer loop
      vertex 20 18.6 2.01
      vertex 8.3 18.6 2.01
      vertex 8.3 18.5241 2.01
    endloop
  endfacet
  facet normal 0 0 1
    outer loop
      vertex 1.22461e-016 13.7321 2.01
      vertex 1.5 14.5981 2.01
      vertex 1.5 19 2.01
    endloop
  endfacet
  facet normal 0 0 1
    outer loop
      vertex -6.04529 -9.94522 2.01
      vertex -4.71634 -9.94522 2.01
      vertex -4.974 -8.733 2.01
    endloop
  endfacet
  facet normal 0 0 1
    outer loop
      vertex -1.5 14.5981 2.01
      vertex 0.75 25 2.01
      vertex -0.75 19 2.01
    endloop
  endfacet
  facet normal 0 0 1
    outer loop
      vertex 1.22461e-016 13.7321 2.01
      vertex 1.22461e-016 6.80385 2.01
      vertex 1.5 14.5981 2.01
    endloop
  endfacet
  facet normal 0 0 1
    outer loop
      vertex 0.75 25 2.01
      vertex -0.75 25 2.01
      vertex -0.75 19 2.01
    endloop
  endfacet
  facet normal 0 0 1
    outer loop
      vertex -6.04529 -9.94522 2.01
      vertex -4.974 -8.733 2.01
      vertex -5.44101 9.94522 2.01
    endloop
  endfacet
  facet normal 0 0 1
    outer loop
      vertex 1.22461e-016 -7.67574 2.01
      vertex 4.71634 -9.94522 2.01
      vertex 15 0 2.01
    endloop
  endfacet
  facet normal 0 0 1
    outer loop
      vertex -1.5 14.5981 2.01
      vertex 0.75 19 2.01
      vertex 0.75 25 2.01
    endloop
  endfacet
  facet normal 0 0 1
    outer loop
      vertex 1.5 19 2.01
      vertex 0.75 19 2.01
      vertex 1.22461e-016 13.7321 2.01
    endloop
  endfacet
  facet normal 0 0 1
    outer loop
      vertex 1.22461e-016 -7.67574 2.01
      vertex 15 0 2.01
      vertex 14.7815 2.07912 2.01
    endloop
  endfacet
  facet normal 0 0 1
    outer loop
      vertex 1.22461e-016 -7.67574 2.01
      vertex 11.6913 7.43145 2.01
      vertex 10 8.66025 2.01
    endloop
  endfacet
  facet normal 0 0 1
    outer loop
      vertex 1.22461e-016 -7.67574 2.01
      vertex 14.1355 4.06737 2.01
      vertex 13.0902 5.87785 2.01
    endloop
  endfacet
  facet normal 0 0 1
    outer loop
      vertex 3.70906 -14.6841 2.01
      vertex 5.04182 -16.1411 2.01
      vertex 3.77226 -14.7081 2.01
    endloop
  endfacet
  facet normal 0 0 1
    outer loop
      vertex -4.974 -8.733 2.01
      vertex 8.3 18.5241 2.01
      vertex 1.22461e-016 6.80385 2.01
    endloop
  endfacet
  facet normal 0 0 1
    outer loop
      vertex -4.974 -8.733 2.01
      vertex 6.04528 9.94522 2.01
      vertex 5.44101 9.94522 2.01
    endloop
  endfacet
  facet normal 0 0 1
    outer loop
      vertex -4.974 -8.733 2.01
      vertex 5.44101 9.94522 2.01
      vertex 8.3 18.5241 2.01
    endloop
  endfacet
  facet normal 0 0 1
    outer loop
      vertex -14.7815 -2.07912 2.01
      vertex -14.1355 -4.06737 2.01
      vertex -13.0902 -5.87785 2.01
    endloop
  endfacet
  facet normal 0 0 1
    outer loop
      vertex -4.974 -8.733 2.01
      vertex 1.22461e-016 6.80385 2.01
      vertex -5.44101 9.94522 2.01
    endloop
  endfacet
  facet normal 0 0 1
    outer loop
      vertex -15 1.83691e-015 2.01
      vertex -14.7815 -2.07912 2.01
      vertex -11.6913 -7.43145 2.01
    endloop
  endfacet
  facet normal 0 0 1
    outer loop
      vertex 1.22461e-016 -7.67574 2.01
      vertex 13.0902 5.87785 2.01
      vertex 11.6913 7.43145 2.01
    endloop
  endfacet
  facet normal 0 0 1
    outer loop
      vertex -14.1355 4.06737 2.01
      vertex -14.7815 2.07912 2.01
      vertex -10 -8.66025 2.01
    endloop
  endfacet
  facet normal 0 0 1
    outer loop
      vertex -6.04529 -9.94522 2.01
      vertex -5.44101 9.94522 2.01
      vertex -6.04528 9.94522 2.01
    endloop
  endfacet
  facet normal 0 0 1
    outer loop
      vertex -11.6913 7.43145 2.01
      vertex -13.0902 5.87785 2.01
      vertex -8.09017 -9.51056 2.01
    endloop
  endfacet
  facet normal 0 0 1
    outer loop
      vertex -6.04528 9.94522 2.01
      vertex -8.09017 9.51056 2.01
      vertex -6.04529 -9.94522 2.01
    endloop
  endfacet
  facet normal 0 0 1
    outer loop
      vertex 3.70906 -14.6841 2.01
      vertex 1.22461e-016 -17.8991 2.01
      vertex 5.04182 -16.1411 2.01
    endloop
  endfacet
  facet normal 0 0 1
    outer loop
      vertex 8.09017 9.51056 2.01
      vertex 6.04528 9.94522 2.01
      vertex 1.22461e-016 -7.67574 2.01
    endloop
  endfacet
  facet normal 0 0 1
    outer loop
      vertex 5.25352 -17 2.01
      vertex 5.04182 -16.1411 2.01
      vertex 1.22461e-016 -17.8991 2.01
    endloop
  endfacet
  facet normal 0 0 1
    outer loop
      vertex 5.25352 -17 2.01
      vertex -2.89488 -18.5145 2.01
      vertex -5.25352 -19 2.01
    endloop
  endfacet
  facet normal 0 0 1
    outer loop
      vertex 5.25352 -17 2.01
      vertex 1.22461e-016 -17.8991 2.01
      vertex -2.89488 -18.5145 2.01
    endloop
  endfacet
  facet normal 0 0 1
    outer loop
      vertex -0.75 19 2.01
      vertex -1.5 19 2.01
      vertex -1.5 14.5981 2.01
    endloop
  endfacet
  facet normal 0 0 1
    outer loop
      vertex -8.09017 -9.51056 2.01
      vertex -6.04529 -9.94522 2.01
      vertex -8.09017 9.51056 2.01
    endloop
  endfacet
  facet normal 0 0 1
    outer loop
      vertex -3.70906 -14.6841 2.01
      vertex -3.77226 -14.7081 2.01
      vertex -5.25352 -19 2.01
    endloop
  endfacet
  facet normal 0 0 1
    outer loop
      vertex 1.22461e-016 -7.67574 2.01
      vertex 14.7815 2.07912 2.01
      vertex 14.1355 4.06737 2.01
    endloop
  endfacet
  facet normal 0 0 1
    outer loop
      vertex -8.09017 -9.51056 2.01
      vertex -8.09017 9.51056 2.01
      vertex -10 8.66025 2.01
    endloop
  endfacet
  facet normal 0 0 1
    outer loop
      vertex -10 -8.66025 2.01
      vertex -8.09017 -9.51056 2.01
      vertex -13.0902 5.87785 2.01
    endloop
  endfacet
  facet normal 0 0 1
    outer loop
      vertex -3.77226 -14.7081 2.01
      vertex -5.04182 -16.1411 2.01
      vertex -5.25352 -19 2.01
    endloop
  endfacet
  facet normal 0 0 1
    outer loop
      vertex -4.974 -8.733 2.01
      vertex 1.22461e-016 -7.67574 2.01
      vertex 6.04528 9.94522 2.01
    endloop
  endfacet
  facet normal 0 0 1
    outer loop
      vertex 1.22461e-016 -7.67574 2.01
      vertex 1.22461e-016 -17.8991 2.01
      vertex 3.70906 -14.6841 2.01
    endloop
  endfacet
  facet normal 0 0 1
    outer loop
      vertex -13.0902 -5.87785 2.01
      vertex -11.6913 -7.43145 2.01
      vertex -14.7815 -2.07912 2.01
    endloop
  endfacet
  facet normal 0 0 1
    outer loop
      vertex -11.6913 -7.43145 2.01
      vertex -14.7815 2.07912 2.01
      vertex -15 1.83691e-015 2.01
    endloop
  endfacet
  facet normal 0 0 1
    outer loop
      vertex -11.6913 -7.43145 2.01
      vertex -10 -8.66025 2.01
      vertex -14.7815 2.07912 2.01
    endloop
  endfacet
  facet normal 0 0 1
    outer loop
      vertex -10 -8.66025 2.01
      vertex -13.0902 5.87785 2.01
      vertex -14.1355 4.06737 2.01
    endloop
  endfacet
  facet normal 0 0 1
    outer loop
      vertex -8.09017 -9.51056 2.01
      vertex -10 8.66025 2.01
      vertex -11.6913 7.43145 2.01
    endloop
  endfacet
  facet normal 0 1 0
    outer loop
      vertex -5.25352 -19 4
      vertex -5.25352 -19 2.01
      vertex -20 -19 4
    endloop
  endfacet
  facet normal 0 1 0
    outer loop
      vertex -20 -19 4
      vertex -5.25352 -19 2.01
      vertex -20 -19 2.01
    endloop
  endfacet
  facet normal 0 0 1
    outer loop
      vertex -3.77226 -21.2919 4
      vertex -5.04182 -19.8589 4
      vertex -20 -19 4
    endloop
  endfacet
  facet normal 0 0 1
    outer loop
      vertex -20 -19 4
      vertex -20 -22 4
      vertex -6 -22 4
    endloop
  endfacet
  facet normal 0 0 1
    outer loop
      vertex -3 -21.5848 4
      vertex -20 -19 4
      vertex -6 -22 4
    endloop
  endfacet
  facet normal 0 0 1
    outer loop
      vertex -6 -25 4
      vertex -3 -25 4
      vertex -6 -22 4
    endloop
  endfacet
  facet normal 0 0 1
    outer loop
      vertex -3 -25 4
      vertex -3 -21.5848 4
      vertex -6 -22 4
    endloop
  endfacet
  facet normal 0 0 1
    outer loop
      vertex -3 -21.5848 4
      vertex -3.77226 -21.2919 4
      vertex -20 -19 4
    endloop
  endfacet
  facet normal 0 0 1
    outer loop
      vertex -5.04182 -19.8589 4
      vertex -5.25352 -19 4
      vertex -20 -19 4
    endloop
  endfacet
  facet normal -1 0 -1.22461e-016
    outer loop
      vertex -6 -22 0
      vertex -6 -25 0
      vertex -6 -22 4
    endloop
  endfacet
  facet normal -1 0 -1.22461e-016
    outer loop
      vertex -6 -22 4
      vertex -6 -25 0
      vertex -6 -25 4
    endloop
  endfacet
  facet normal 0 -1 0
    outer loop
      vertex -3 -25 4
      vertex -6 -25 4
      vertex -6 -25 0
    endloop
  endfacet
  facet normal 0 -1 0
    outer loop
      vertex -3 -25 2.01
      vertex -3 -25 4
      vertex -6 -25 0
    endloop
  endfacet
  facet normal 0 -1 0
    outer loop
      vertex 6 -25 4
      vertex 3 -25 4
      vertex 6 -25 0
    endloop
  endfacet
  facet normal 0 -1 0
    outer loop
      vertex 3 -25 4
      vertex 3 -25 2.01
      vertex 6 -25 0
    endloop
  endfacet
  facet normal 0 -1 0
    outer loop
      vertex 6 -25 0
      vertex -3 -25 2.01
      vertex -6 -25 0
    endloop
  endfacet
  facet normal 0 -1 0
    outer loop
      vertex 3 -25 2.01
      vertex -3 -25 2.01
      vertex 6 -25 0
    endloop
  endfacet
  facet normal 1 0 0
    outer loop
      vertex 6 -22 0
      vertex 6 -22 4
      vertex 6 -25 4
    endloop
  endfacet
  facet normal 1 0 0
    outer loop
      vertex 6 -25 0
      vertex 6 -22 0
      vertex 6 -25 4
    endloop
  endfacet
  facet normal 0 -1 0
    outer loop
      vertex 20 -22 0
      vertex 20 -22 4
      vertex 6 -22 4
    endloop
  endfacet
  facet normal 0 -1 0
    outer loop
      vertex 6 -22 0
      vertex 20 -22 0
      vertex 6 -22 4
    endloop
  endfacet
  facet normal 1 0 0
    outer loop
      vertex 20 -19 2.01
      vertex 20 -22 0
      vertex 20 -14.75 0
    endloop
  endfacet
  facet normal 1 0 0
    outer loop
      vertex 20 -19 2.01
      vertex 20 -19 4
      vertex 20 -22 4
    endloop
  endfacet
  facet normal 1 0 0
    outer loop
      vertex 20 -14.75 4
      vertex 20 -17 4
      vertex 20 -14.75 0
    endloop
  endfacet
  facet normal 1 0 0
    outer loop
      vertex 20 -17 4
      vertex 20 -17 2.01
      vertex 20 -14.75 0
    endloop
  endfacet
  facet normal 1 0 0
    outer loop
      vertex 20 -22 4
      vertex 20 -22 0
      vertex 20 -19 2.01
    endloop
  endfacet
  facet normal 1 0 0
    outer loop
      vertex 20 -17 2.01
      vertex 20 -19 2.01
      vertex 20 -14.75 0
    endloop
  endfacet
  facet normal 0 1 0
    outer loop
      vertex 20 -14.75 4
      vertex 20 -14.75 0
      vertex 17 -14.75 4
    endloop
  endfacet
  facet normal 0 1 0
    outer loop
      vertex 17 -14.75 4
      vertex 20 -14.75 0
      vertex 17 -14.75 0
    endloop
  endfacet
  facet normal 1 0 0
    outer loop
      vertex 17 10.75 0
      vertex 17 10.75 4
      vertex 17 -14.75 4
    endloop
  endfacet
  facet normal 1 0 0
    outer loop
      vertex 17 -14.75 0
      vertex 17 10.75 0
      vertex 17 -14.75 4
    endloop
  endfacet
  facet normal 0 -1 0
    outer loop
      vertex 20 10.75 0
      vertex 20 10.75 4
      vertex 17 10.75 4
    endloop
  endfacet
  facet normal 0 -1 0
    outer loop
      vertex 17 10.75 0
      vertex 20 10.75 0
      vertex 17 10.75 4
    endloop
  endfacet
  facet normal 1 0 0
    outer loop
      vertex 20 12.6 2.01
      vertex 20 10.75 0
      vertex 20 21 0
    endloop
  endfacet
  facet normal 1 0 0
    outer loop
      vertex 20 12.6 2.01
      vertex 20 12.6 4
      vertex 20 10.75 4
    endloop
  endfacet
  facet normal 1 0 0
    outer loop
      vertex 20 21 4
      vertex 20 18.6 4
      vertex 20 21 0
    endloop
  endfacet
  facet normal 1 0 0
    outer loop
      vertex 20 18.6 4
      vertex 20 18.6 2.01
      vertex 20 21 0
    endloop
  endfacet
  facet normal 1 0 0
    outer loop
      vertex 20 10.75 4
      vertex 20 10.75 0
      vertex 20 12.6 2.01
    endloop
  endfacet
  facet normal 1 0 0
    outer loop
      vertex 20 18.6 2.01
      vertex 20 12.6 2.01
      vertex 20 21 0
    endloop
  endfacet
  facet normal 0 1 0
    outer loop
      vertex 20 21 4
      vertex 20 21 0
      vertex 3 21 4
    endloop
  endfacet
  facet normal 0 1 0
    outer loop
      vertex 3 21 4
      vertex 20 21 0
      vertex 3 21 0
    endloop
  endfacet
  facet normal 1 0 0
    outer loop
      vertex 3 25 0
      vertex 3 25 4
      vertex 3 21 4
    endloop
  endfacet
  facet normal 1 0 0
    outer loop
      vertex 3 21 0
      vertex 3 25 0
      vertex 3 21 4
    endloop
  endfacet
  facet normal 0 1 0
    outer loop
      vertex -3 25 4
      vertex -0.75 25 4
      vertex -3 25 0
    endloop
  endfacet
  facet normal 0 1 0
    outer loop
      vertex -3 25 0
      vertex -0.75 25 4
      vertex -0.75 25 2.01
    endloop
  endfacet
  facet normal 0 1 0
    outer loop
      vertex -3 25 0
      vertex -0.75 25 2.01
      vertex 0.75 25 2.01
    endloop
  endfacet
  facet normal 0 1 0
    outer loop
      vertex 0.75 25 2.01
      vertex 0.75 25 4
      vertex 3 25 4
    endloop
  endfacet
  facet normal 0 1 0
    outer loop
      vertex 0.75 25 2.01
      vertex 3 25 4
      vertex 3 25 0
    endloop
  endfacet
  facet normal 0 1 0
    outer loop
      vertex 0.75 25 2.01
      vertex 3 25 0
      vertex -3 25 0
    endloop
  endfacet
  facet normal -1 0 -1.22461e-016
    outer loop
      vertex -3 25 0
      vertex -3 21 0
      vertex -3 25 4
    endloop
  endfacet
  facet normal -1 0 -1.22461e-016
    outer loop
      vertex -3 25 4
      vertex -3 21 0
      vertex -3 21 4
    endloop
  endfacet
  facet normal 0 1 0
    outer loop
      vertex -3 21 4
      vertex -3 21 0
      vertex -20 21 4
    endloop
  endfacet
  facet normal 0 1 0
    outer loop
      vertex -20 21 4
      vertex -3 21 0
      vertex -20 21 0
    endloop
  endfacet
  facet normal -1 0 0
    outer loop
      vertex -20 18.6 2.01
      vertex -20 21 0
      vertex -20 12.6 2.01
    endloop
  endfacet
  facet normal -1 0 0
    outer loop
      vertex -20 10.75 0
      vertex -20 10.75 4
      vertex -20 12.6 2.01
    endloop
  endfacet
  facet normal -1 0 0
    outer loop
      vertex -20 10.75 0
      vertex -20 12.6 2.01
      vertex -20 21 0
    endloop
  endfacet
  facet normal -1 0 0
    outer loop
      vertex -20 21 0
      vertex -20 18.6 2.01
      vertex -20 18.6 4
    endloop
  endfacet
  facet normal -1 0 0
    outer loop
      vertex -20 21 0
      vertex -20 18.6 4
      vertex -20 21 4
    endloop
  endfacet
  facet normal -1 0 0
    outer loop
      vertex -20 12.6 2.01
      vertex -20 10.75 4
      vertex -20 12.6 4
    endloop
  endfacet
  facet normal 0 -1 0
    outer loop
      vertex -17 10.75 0
      vertex -17 10.75 4
      vertex -20 10.75 4
    endloop
  endfacet
  facet normal 0 -1 0
    outer loop
      vertex -20 10.75 0
      vertex -17 10.75 0
      vertex -20 10.75 4
    endloop
  endfacet
  facet normal -1 0 -1.22461e-016
    outer loop
      vertex -17 10.75 0
      vertex -17 -14.75 0
      vertex -17 10.75 4
    endloop
  endfacet
  facet normal -1 0 -1.22461e-016
    outer loop
      vertex -17 10.75 4
      vertex -17 -14.75 0
      vertex -17 -14.75 4
    endloop
  endfacet
  facet normal 0 1 0
    outer loop
      vertex -10.0392 12.6 4
      vertex -10.0392 12.6 2.01
      vertex -20 12.6 4
    endloop
  endfacet
  facet normal 0 1 0
    outer loop
      vertex -20 12.6 4
      vertex -10.0392 12.6 2.01
      vertex -20 12.6 2.01
    endloop
  endfacet
  facet normal 0.5 0.866025 6.12303e-017
    outer loop
      vertex -5.44101 9.94522 2.01
      vertex 1.22461e-016 6.80385 2.01
      vertex -10.0392 12.6 2.01
    endloop
  endfacet
  facet normal 0.5 0.866025 6.12303e-017
    outer loop
      vertex -5.44101 9.94522 2.01
      vertex -10.0392 12.6 2.01
      vertex -5.44101 9.94522 4
    endloop
  endfacet
  facet normal 0.5 0.866025 6.12303e-017
    outer loop
      vertex -10.0392 12.6 2.01
      vertex -10.0392 12.6 4
      vertex -5.44101 9.94522 4
    endloop
  endfacet
  facet normal -1.22461e-016 -1 0
    outer loop
      vertex -5.44101 9.94522 2.01
      vertex -5.44101 9.94522 4
      vertex -6.04528 9.94522 4
    endloop
  endfacet
  facet normal -1.22461e-016 -1 0
    outer loop
      vertex -6.04528 9.94522 2.01
      vertex -5.44101 9.94522 2.01
      vertex -6.04528 9.94522 4
    endloop
  endfacet
  facet normal 0.207912 -0.978148 0
    outer loop
      vertex -6.04528 9.94522 2.01
      vertex -6.04528 9.94522 4
      vertex -8.09017 9.51056 4
    endloop
  endfacet
  facet normal 0.207912 -0.978148 0
    outer loop
      vertex -8.09017 9.51056 2.01
      vertex -6.04528 9.94522 2.01
      vertex -8.09017 9.51056 4
    endloop
  endfacet
  facet normal 0.406737 -0.913545 0
    outer loop
      vertex -8.09017 9.51056 2.01
      vertex -8.09017 9.51056 4
      vertex -10 8.66025 4
    endloop
  endfacet
  facet normal 0.406737 -0.913545 0
    outer loop
      vertex -10 8.66025 2.01
      vertex -8.09017 9.51056 2.01
      vertex -10 8.66025 4
    endloop
  endfacet
  facet normal 0.587785 -0.809017 0
    outer loop
      vertex -10 8.66025 2.01
      vertex -10 8.66025 4
      vertex -11.6913 7.43145 4
    endloop
  endfacet
  facet normal 0.587785 -0.809017 0
    outer loop
      vertex -11.6913 7.43145 2.01
      vertex -10 8.66025 2.01
      vertex -11.6913 7.43145 4
    endloop
  endfacet
  facet normal 0.743145 -0.669131 0
    outer loop
      vertex -11.6913 7.43145 2.01
      vertex -11.6913 7.43145 4
      vertex -13.0902 5.87785 4
    endloop
  endfacet
  facet normal 0.743145 -0.669131 0
    outer loop
      vertex -13.0902 5.87785 2.01
      vertex -11.6913 7.43145 2.01
      vertex -13.0902 5.87785 4
    endloop
  endfacet
  facet normal 0.866025 -0.5 0
    outer loop
      vertex -13.0902 5.87785 2.01
      vertex -13.0902 5.87785 4
      vertex -14.1355 4.06737 4
    endloop
  endfacet
  facet normal 0.866025 -0.5 0
    outer loop
      vertex -14.1355 4.06737 2.01
      vertex -13.0902 5.87785 2.01
      vertex -14.1355 4.06737 4
    endloop
  endfacet
  facet normal 0.951057 -0.309017 0
    outer loop
      vertex -14.1355 4.06737 2.01
      vertex -14.1355 4.06737 4
      vertex -14.7815 2.07912 4
    endloop
  endfacet
  facet normal 0.951057 -0.309017 0
    outer loop
      vertex -14.7815 2.07912 2.01
      vertex -14.1355 4.06737 2.01
      vertex -14.7815 2.07912 4
    endloop
  endfacet
  facet normal 0.994522 -0.104528 0
    outer loop
      vertex -14.7815 2.07912 2.01
      vertex -14.7815 2.07912 4
      vertex -15 1.83691e-015 4
    endloop
  endfacet
  facet normal 0.994522 -0.104528 0
    outer loop
      vertex -15 1.83691e-015 2.01
      vertex -14.7815 2.07912 2.01
      vertex -15 1.83691e-015 4
    endloop
  endfacet
  facet normal 0.994522 0.104528 0
    outer loop
      vertex -15 1.83691e-015 4
      vertex -14.7815 -2.07912 4
      vertex -14.7815 -2.07912 2.01
    endloop
  endfacet
  facet normal 0.994522 0.104528 0
    outer loop
      vertex -15 1.83691e-015 2.01
      vertex -15 1.83691e-015 4
      vertex -14.7815 -2.07912 2.01
    endloop
  endfacet
  facet normal 0.951057 0.309017 0
    outer loop
      vertex -14.7815 -2.07912 4
      vertex -14.1355 -4.06737 4
      vertex -14.1355 -4.06737 2.01
    endloop
  endfacet
  facet normal 0.951057 0.309017 0
    outer loop
      vertex -14.7815 -2.07912 2.01
      vertex -14.7815 -2.07912 4
      vertex -14.1355 -4.06737 2.01
    endloop
  endfacet
  facet normal 0.866025 0.5 0
    outer loop
      vertex -14.1355 -4.06737 4
      vertex -13.0902 -5.87785 4
      vertex -13.0902 -5.87785 2.01
    endloop
  endfacet
  facet normal 0.866025 0.5 0
    outer loop
      vertex -14.1355 -4.06737 2.01
      vertex -14.1355 -4.06737 4
      vertex -13.0902 -5.87785 2.01
    endloop
  endfacet
  facet normal 0.743145 0.669131 0
    outer loop
      vertex -13.0902 -5.87785 4
      vertex -11.6913 -7.43145 4
      vertex -11.6913 -7.43145 2.01
    endloop
  endfacet
  facet normal 0.743145 0.669131 0
    outer loop
      vertex -13.0902 -5.87785 2.01
      vertex -13.0902 -5.87785 4
      vertex -11.6913 -7.43145 2.01
    endloop
  endfacet
  facet normal 0.587785 0.809017 0
    outer loop
      vertex -10 -8.66025 4
      vertex -10 -8.66025 2.01
      vertex -11.6913 -7.43145 4
    endloop
  endfacet
  facet normal 0.587785 0.809017 0
    outer loop
      vertex -11.6913 -7.43145 4
      vertex -10 -8.66025 2.01
      vertex -11.6913 -7.43145 2.01
    endloop
  endfacet
  facet normal 0.406737 0.913545 0
    outer loop
      vertex -8.09017 -9.51056 4
      vertex -8.09017 -9.51056 2.01
      vertex -10 -8.66025 4
    endloop
  endfacet
  facet normal 0.406737 0.913545 0
    outer loop
      vertex -10 -8.66025 4
      vertex -8.09017 -9.51056 2.01
      vertex -10 -8.66025 2.01
    endloop
  endfacet
  facet normal 0.207912 0.978148 0
    outer loop
      vertex -6.04529 -9.94522 4
      vertex -6.04529 -9.94522 2.01
      vertex -8.09017 -9.51056 4
    endloop
  endfacet
  facet normal 0.207912 0.978148 0
    outer loop
      vertex -8.09017 -9.51056 4
      vertex -6.04529 -9.94522 2.01
      vertex -8.09017 -9.51056 2.01
    endloop
  endfacet
  facet normal 1.22461e-016 1 0
    outer loop
      vertex -4.71634 -9.94522 4
      vertex -4.71634 -9.94522 2.01
      vertex -6.04529 -9.94522 4
    endloop
  endfacet
  facet normal 1.22461e-016 1 0
    outer loop
      vertex -6.04529 -9.94522 4
      vertex -4.71634 -9.94522 2.01
      vertex -6.04529 -9.94522 2.01
    endloop
  endfacet
  facet normal 0.978148 0.207912 1.19785e-016
    outer loop
      vertex -4.71634 -9.94522 2.01
      vertex -4.71634 -9.94522 4
      vertex -3.70906 -14.6841 4
    endloop
  endfacet
  facet normal 0.978148 0.207912 1.19785e-016
    outer loop
      vertex -2.89488 -18.5145 2.01
      vertex -4.71634 -9.94522 2.01
      vertex -3.70906 -14.6841 2.01
    endloop
  endfacet
  facet normal 0.978148 0.207912 1.19785e-016
    outer loop
      vertex -3.70906 -14.6841 2.01
      vertex -4.71634 -9.94522 2.01
      vertex -3.70906 -14.6841 4
    endloop
  endfacet
  facet normal 0.978148 0.207912 1.19785e-016
    outer loop
      vertex -4.974 -8.733 2.01
      vertex -4.71634 -9.94522 2.01
      vertex -2.89488 -18.5145 2.01
    endloop
  endfacet
  facet normal 0.354605 -0.935016 0
    outer loop
      vertex -3.70906 -14.6841 2.01
      vertex -3.70906 -14.6841 4
      vertex -3.77226 -14.7081 4
    endloop
  endfacet
  facet normal 0.354605 -0.935016 0
    outer loop
      vertex -3.77226 -14.7081 2.01
      vertex -3.70906 -14.6841 2.01
      vertex -3.77226 -14.7081 4
    endloop
  endfacet
  facet normal 0.748511 -0.663123 0
    outer loop
      vertex -3.77226 -14.7081 2.01
      vertex -3.77226 -14.7081 4
      vertex -5.04182 -16.1411 4
    endloop
  endfacet
  facet normal 0.748511 -0.663123 0
    outer loop
      vertex -5.04182 -16.1411 2.01
      vertex -3.77226 -14.7081 2.01
      vertex -5.04182 -16.1411 4
    endloop
  endfacet
  facet normal 0.970942 -0.239316 0
    outer loop
      vertex -5.04182 -16.1411 2.01
      vertex -5.04182 -16.1411 4
      vertex -5.25352 -17 4
    endloop
  endfacet
  facet normal 0.970942 -0.239316 0
    outer loop
      vertex -5.25352 -17 2.01
      vertex -5.04182 -16.1411 2.01
      vertex -5.25352 -17 4
    endloop
  endfacet
  facet normal 0.970942 0.239316 0
    outer loop
      vertex -5.25352 -19 4
      vertex -5.04182 -19.8589 4
      vertex -5.04182 -19.8589 2.01
    endloop
  endfacet
  facet normal 0.970942 0.239316 0
    outer loop
      vertex -5.25352 -19 2.01
      vertex -5.25352 -19 4
      vertex -5.04182 -19.8589 2.01
    endloop
  endfacet
  facet normal -1.22461e-016 0 1
    outer loop
      vertex -2.89488 -18.5145 2.01
      vertex 1.22461e-016 -17.8991 2.01
      vertex 1.22461e-016 -7.67574 2.01
    endloop
  endfacet
  facet normal -1.22461e-016 0 1
    outer loop
      vertex -4.974 -8.733 2.01
      vertex -2.89488 -18.5145 2.01
      vertex 1.22461e-016 -7.67574 2.01
    endloop
  endfacet
  facet normal -1.22461e-016 0 1
    outer loop
      vertex -10.0392 12.6 2.01
      vertex 1.22461e-016 6.80385 2.01
      vertex 1.22461e-016 13.7321 2.01
    endloop
  endfacet
  facet normal -1.22461e-016 0 1
    outer loop
      vertex -8.3 18.6 2.01
      vertex -10.0392 12.6 2.01
      vertex -8.3 18.5241 2.01
    endloop
  endfacet
  facet normal -1.22461e-016 0 1
    outer loop
      vertex -8.3 18.5241 2.01
      vertex -10.0392 12.6 2.01
      vertex 1.22461e-016 13.7321 2.01
    endloop
  endfacet
  facet normal -1.22461e-016 0 1
    outer loop
      vertex -20 18.6 2.01
      vertex -10.0392 12.6 2.01
      vertex -8.3 18.6 2.01
    endloop
  endfacet
  facet normal -1.22461e-016 0 1
    outer loop
      vertex -20 12.6 2.01
      vertex -10.0392 12.6 2.01
      vertex -20 18.6 2.01
    endloop
  endfacet
  facet normal -0.5 -0.866025 -6.12303e-017
    outer loop
      vertex -8.3 18.5241 2.01
      vertex 1.22461e-016 13.7321 2.01
      vertex -1.5 14.5981 2.01
    endloop
  endfacet
  facet normal -0.5 -0.866025 -6.12303e-017
    outer loop
      vertex -1.5 14.5981 4
      vertex -8.3 18.5241 2.01
      vertex -1.5 14.5981 2.01
    endloop
  endfacet
  facet normal -0.5 -0.866025 -6.12303e-017
    outer loop
      vertex -1.5 14.5981 4
      vertex -8.3 18.5241 4
      vertex -8.3 18.5241 2.01
    endloop
  endfacet
  facet normal 1 0 0
    outer loop
      vertex -1.5 14.5981 2.01
      vertex -1.5 19 2.01
      vertex -1.5 19 4
    endloop
  endfacet
  facet normal 1 0 0
    outer loop
      vertex -1.5 14.5981 4
      vertex -1.5 14.5981 2.01
      vertex -1.5 19 4
    endloop
  endfacet
  facet normal 0 -1 0
    outer loop
      vertex -0.75 19 2.01
      vertex -0.75 19 4
      vertex -1.5 19 4
    endloop
  endfacet
  facet normal 0 -1 0
    outer loop
      vertex -1.5 19 2.01
      vertex -0.75 19 2.01
      vertex -1.5 19 4
    endloop
  endfacet
  facet normal 1 0 0
    outer loop
      vertex -0.75 25 2.01
      vertex -0.75 25 4
      vertex -0.75 19 4
    endloop
  endfacet
  facet normal 1 0 0
    outer loop
      vertex -0.75 19 2.01
      vertex -0.75 25 2.01
      vertex -0.75 19 4
    endloop
  endfacet
  facet normal -1 0 0
    outer loop
      vertex 0.75 25 4
      vertex 0.75 25 2.01
      vertex 0.75 19 4
    endloop
  endfacet
  facet normal -1 0 0
    outer loop
      vertex 0.75 19 4
      vertex 0.75 25 2.01
      vertex 0.75 19 2.01
    endloop
  endfacet
  facet normal 0 -1 0
    outer loop
      vertex 1.5 19 2.01
      vertex 1.5 19 4
      vertex 0.75 19 4
    endloop
  endfacet
  facet normal 0 -1 0
    outer loop
      vertex 0.75 19 2.01
      vertex 1.5 19 2.01
      vertex 0.75 19 4
    endloop
  endfacet
  facet normal -1 0 0
    outer loop
      vertex 1.5 19 4
      vertex 1.5 19 2.01
      vertex 1.5 14.5981 4
    endloop
  endfacet
  facet normal -1 0 0
    outer loop
      vertex 1.5 14.5981 4
      vertex 1.5 19 2.01
      vertex 1.5 14.5981 2.01
    endloop
  endfacet
  facet normal 0.5 -0.866025 0
    outer loop
      vertex 8.3 18.5241 2.01
      vertex 8.3 18.5241 4
      vertex 1.5 14.5981 4
    endloop
  endfacet
  facet normal 0.5 -0.866025 0
    outer loop
      vertex 1.5 14.5981 2.01
      vertex 8.3 18.5241 2.01
      vertex 1.5 14.5981 4
    endloop
  endfacet
  facet normal 1 0 0
    outer loop
      vertex 8.3 18.6 2.01
      vertex 8.3 18.6 4
      vertex 8.3 18.5241 4
    endloop
  endfacet
  facet normal 1 0 0
    outer loop
      vertex 8.3 18.5241 2.01
      vertex 8.3 18.6 2.01
      vertex 8.3 18.5241 4
    endloop
  endfacet
  facet normal 0 -1 0
    outer loop
      vertex 20 18.6 2.01
      vertex 20 18.6 4
      vertex 8.3 18.6 4
    endloop
  endfacet
  facet normal 0 -1 0
    outer loop
      vertex 8.3 18.6 2.01
      vertex 20 18.6 2.01
      vertex 8.3 18.6 4
    endloop
  endfacet
  facet normal 0 1 0
    outer loop
      vertex 20 12.6 4
      vertex 20 12.6 2.01
      vertex 10.0392 12.6 4
    endloop
  endfacet
  facet normal 0 1 0
    outer loop
      vertex 10.0392 12.6 4
      vertex 20 12.6 2.01
      vertex 10.0392 12.6 2.01
    endloop
  endfacet
  facet normal -0.5 0.866025 0
    outer loop
      vertex 10.0392 12.6 4
      vertex 10.0392 12.6 2.01
      vertex 5.44101 9.94522 4
    endloop
  endfacet
  facet normal -0.5 0.866025 0
    outer loop
      vertex 5.44101 9.94522 4
      vertex 10.0392 12.6 2.01
      vertex 5.44101 9.94522 2.01
    endloop
  endfacet
  facet normal 0 -1 0
    outer loop
      vertex 6.04528 9.94522 2.01
      vertex 6.04528 9.94522 4
      vertex 5.44101 9.94522 4
    endloop
  endfacet
  facet normal 0 -1 0
    outer loop
      vertex 5.44101 9.94522 2.01
      vertex 6.04528 9.94522 2.01
      vertex 5.44101 9.94522 4
    endloop
  endfacet
  facet normal -0.207912 -0.978148 0
    outer loop
      vertex 8.09017 9.51056 2.01
      vertex 8.09017 9.51056 4
      vertex 6.04528 9.94522 4
    endloop
  endfacet
  facet normal -0.207912 -0.978148 0
    outer loop
      vertex 6.04528 9.94522 2.01
      vertex 8.09017 9.51056 2.01
      vertex 6.04528 9.94522 4
    endloop
  endfacet
  facet normal -0.406737 -0.913545 0
    outer loop
      vertex 10 8.66025 2.01
      vertex 10 8.66025 4
      vertex 8.09017 9.51056 4
    endloop
  endfacet
  facet normal -0.406737 -0.913545 0
    outer loop
      vertex 8.09017 9.51056 2.01
      vertex 10 8.66025 2.01
      vertex 8.09017 9.51056 4
    endloop
  endfacet
  facet normal -0.587785 -0.809017 0
    outer loop
      vertex 11.6913 7.43145 2.01
      vertex 11.6913 7.43145 4
      vertex 10 8.66025 4
    endloop
  endfacet
  facet normal -0.587785 -0.809017 0
    outer loop
      vertex 10 8.66025 2.01
      vertex 11.6913 7.43145 2.01
      vertex 10 8.66025 4
    endloop
  endfacet
  facet normal -0.743145 -0.669131 0
    outer loop
      vertex 13.0902 5.87785 4
      vertex 11.6913 7.43145 4
      vertex 13.0902 5.87785 2.01
    endloop
  endfacet
  facet normal -0.743145 -0.669131 0
    outer loop
      vertex 13.0902 5.87785 2.01
      vertex 11.6913 7.43145 4
      vertex 11.6913 7.43145 2.01
    endloop
  endfacet
  facet normal -0.866025 -0.5 0
    outer loop
      vertex 14.1355 4.06737 4
      vertex 13.0902 5.87785 4
      vertex 14.1355 4.06737 2.01
    endloop
  endfacet
  facet normal -0.866025 -0.5 0
    outer loop
      vertex 14.1355 4.06737 2.01
      vertex 13.0902 5.87785 4
      vertex 13.0902 5.87785 2.01
    endloop
  endfacet
  facet normal -0.951057 -0.309017 0
    outer loop
      vertex 14.7815 2.07912 4
      vertex 14.1355 4.06737 4
      vertex 14.7815 2.07912 2.01
    endloop
  endfacet
  facet normal -0.951057 -0.309017 0
    outer loop
      vertex 14.7815 2.07912 2.01
      vertex 14.1355 4.06737 4
      vertex 14.1355 4.06737 2.01
    endloop
  endfacet
  facet normal -0.994522 -0.104528 0
    outer loop
      vertex 15 0 4
      vertex 14.7815 2.07912 4
      vertex 15 0 2.01
    endloop
  endfacet
  facet normal -0.994522 -0.104528 0
    outer loop
      vertex 15 0 2.01
      vertex 14.7815 2.07912 4
      vertex 14.7815 2.07912 2.01
    endloop
  endfacet
  facet normal -0.994522 0.104528 0
    outer loop
      vertex 15 0 4
      vertex 15 0 2.01
      vertex 14.7815 -2.07912 4
    endloop
  endfacet
  facet normal -0.994522 0.104528 0
    outer loop
      vertex 14.7815 -2.07912 4
      vertex 15 0 2.01
      vertex 14.7815 -2.07912 2.01
    endloop
  endfacet
  facet normal -0.951057 0.309017 0
    outer loop
      vertex 14.7815 -2.07912 4
      vertex 14.7815 -2.07912 2.01
      vertex 14.1355 -4.06737 4
    endloop
  endfacet
  facet normal -0.951057 0.309017 0
    outer loop
      vertex 14.1355 -4.06737 4
      vertex 14.7815 -2.07912 2.01
      vertex 14.1355 -4.06737 2.01
    endloop
  endfacet
  facet normal -0.866025 0.5 0
    outer loop
      vertex 14.1355 -4.06737 4
      vertex 14.1355 -4.06737 2.01
      vertex 13.0902 -5.87785 4
    endloop
  endfacet
  facet normal -0.866025 0.5 0
    outer loop
      vertex 13.0902 -5.87785 4
      vertex 14.1355 -4.06737 2.01
      vertex 13.0902 -5.87785 2.01
    endloop
  endfacet
  facet normal -0.743145 0.669131 0
    outer loop
      vertex 13.0902 -5.87785 4
      vertex 13.0902 -5.87785 2.01
      vertex 11.6913 -7.43145 4
    endloop
  endfacet
  facet normal -0.743145 0.669131 0
    outer loop
      vertex 11.6913 -7.43145 4
      vertex 13.0902 -5.87785 2.01
      vertex 11.6913 -7.43145 2.01
    endloop
  endfacet
  facet normal -0.587785 0.809017 0
    outer loop
      vertex 11.6913 -7.43145 4
      vertex 11.6913 -7.43145 2.01
      vertex 10 -8.66025 4
    endloop
  endfacet
  facet normal -0.587785 0.809017 0
    outer loop
      vertex 10 -8.66025 4
      vertex 11.6913 -7.43145 2.01
      vertex 10 -8.66025 2.01
    endloop
  endfacet
  facet normal -0.406737 0.913545 0
    outer loop
      vertex 10 -8.66025 4
      vertex 10 -8.66025 2.01
      vertex 8.09017 -9.51056 4
    endloop
  endfacet
  facet normal -0.406737 0.913545 0
    outer loop
      vertex 8.09017 -9.51056 4
      vertex 10 -8.66025 2.01
      vertex 8.09017 -9.51056 2.01
    endloop
  endfacet
  facet normal -0.207912 0.978148 0
    outer loop
      vertex 8.09017 -9.51056 4
      vertex 8.09017 -9.51056 2.01
      vertex 6.04528 -9.94522 4
    endloop
  endfacet
  facet normal -0.207912 0.978148 0
    outer loop
      vertex 6.04528 -9.94522 4
      vertex 8.09017 -9.51056 2.01
      vertex 6.04528 -9.94522 2.01
    endloop
  endfacet
  facet normal 0 1 0
    outer loop
      vertex 6.04528 -9.94522 4
      vertex 6.04528 -9.94522 2.01
      vertex 4.71634 -9.94522 4
    endloop
  endfacet
  facet normal 0 1 0
    outer loop
      vertex 4.71634 -9.94522 4
      vertex 6.04528 -9.94522 2.01
      vertex 4.71634 -9.94522 2.01
    endloop
  endfacet
  facet normal -0.978148 0.207912 0
    outer loop
      vertex 4.71634 -9.94522 4
      vertex 4.71634 -9.94522 2.01
      vertex 3.70906 -14.6841 4
    endloop
  endfacet
  facet normal -0.978148 0.207912 0
    outer loop
      vertex 3.70906 -14.6841 4
      vertex 4.71634 -9.94522 2.01
      vertex 3.70906 -14.6841 2.01
    endloop
  endfacet
  facet normal -0.354605 -0.935016 0
    outer loop
      vertex 3.77226 -14.7081 2.01
      vertex 3.77226 -14.7081 4
      vertex 3.70906 -14.6841 4
    endloop
  endfacet
  facet normal -0.354605 -0.935016 0
    outer loop
      vertex 3.70906 -14.6841 2.01
      vertex 3.77226 -14.7081 2.01
      vertex 3.70906 -14.6841 4
    endloop
  endfacet
  facet normal -0.748511 -0.663123 0
    outer loop
      vertex 5.04182 -16.1411 4
      vertex 3.77226 -14.7081 4
      vertex 5.04182 -16.1411 2.01
    endloop
  endfacet
  facet normal -0.748511 -0.663123 0
    outer loop
      vertex 5.04182 -16.1411 2.01
      vertex 3.77226 -14.7081 4
      vertex 3.77226 -14.7081 2.01
    endloop
  endfacet
  facet normal -0.970942 -0.239316 0
    outer loop
      vertex 5.25352 -17 4
      vertex 5.04182 -16.1411 4
      vertex 5.25352 -17 2.01
    endloop
  endfacet
  facet normal -0.970942 -0.239316 0
    outer loop
      vertex 5.25352 -17 2.01
      vertex 5.04182 -16.1411 4
      vertex 5.04182 -16.1411 2.01
    endloop
  endfacet
  facet normal 0 -1 0
    outer loop
      vertex 20 -17 2.01
      vertex 20 -17 4
      vertex 5.25352 -17 4
    endloop
  endfacet
  facet normal 0 -1 0
    outer loop
      vertex 5.25352 -17 2.01
      vertex 20 -17 2.01
      vertex 5.25352 -17 4
    endloop
  endfacet
  facet normal 0 1 0
    outer loop
      vertex 20 -19 4
      vertex 20 -19 2.01
      vertex 5.25352 -19 4
    endloop
  endfacet
  facet normal 0 1 0
    outer loop
      vertex 5.25352 -19 4
      vertex 20 -19 2.01
      vertex 5.25352 -19 2.01
    endloop
  endfacet
  facet normal -0.970942 0.239316 0
    outer loop
      vertex 5.25352 -19 4
      vertex 5.25352 -19 2.01
      vertex 5.04182 -19.8589 4
    endloop
  endfacet
  facet normal -0.970942 0.239316 0
    outer loop
      vertex 5.04182 -19.8589 4
      vertex 5.25352 -19 2.01
      vertex 5.04182 -19.8589 2.01
    endloop
  endfacet
  facet normal -0.748511 0.663123 0
    outer loop
      vertex 5.04182 -19.8589 4
      vertex 5.04182 -19.8589 2.01
      vertex 3.77226 -21.2919 4
    endloop
  endfacet
  facet normal -0.748511 0.663123 0
    outer loop
      vertex 3.77226 -21.2919 4
      vertex 5.04182 -19.8589 2.01
      vertex 3.77226 -21.2919 2.01
    endloop
  endfacet
  facet normal -0.354605 0.935016 0
    outer loop
      vertex 3.77226 -21.2919 4
      vertex 3.77226 -21.2919 2.01
      vertex 3 -21.5848 4
    endloop
  endfacet
  facet normal -0.354605 0.935016 0
    outer loop
      vertex 3 -21.5848 4
      vertex 3.77226 -21.2919 2.01
      vertex 3 -21.5848 2.01
    endloop
  endfacet
  facet normal -1 0 0
    outer loop
      vertex 3 -21.5848 4
      vertex 3 -21.5848 2.01
      vertex 3 -25 4
    endloop
  endfacet
  facet normal -1 0 0
    outer loop
      vertex 3 -25 4
      vertex 3 -21.5848 2.01
      vertex 3 -25 2.01
    endloop
  endfacet
  facet normal 1 0 0
    outer loop
      vertex -3 -21.5848 2.01
      vertex -3 -21.5848 4
      vertex -3 -25 4
    endloop
  endfacet
  facet normal 1 0 0
    outer loop
      vertex -3 -25 2.01
      vertex -3 -21.5848 2.01
      vertex -3 -25 4
    endloop
  endfacet
  facet normal 0.354605 0.935016 0
    outer loop
      vertex -3 -21.5848 4
      vertex -3 -21.5848 2.01
      vertex -3.77226 -21.2919 4
    endloop
  endfacet
  facet normal 0.354605 0.935016 0
    outer loop
      vertex -3.77226 -21.2919 4
      vertex -3 -21.5848 2.01
      vertex -3.77226 -21.2919 2.01
    endloop
  endfacet
  facet normal 0.748511 0.663123 0
    outer loop
      vertex -5.04182 -19.8589 4
      vertex -3.77226 -21.2919 4
      vertex -3.77226 -21.2919 2.01
    endloop
  endfacet
  facet normal 0.748511 0.663123 0
    outer loop
      vertex -5.04182 -19.8589 2.01
      vertex -5.04182 -19.8589 4
      vertex -3.77226 -21.2919 2.01
    endloop
  endfacet
  facet normal 0 0 1
    outer loop
      vertex 3 -21.5848 4
      vertex 3 -25 4
      vertex 6 -25 4
    endloop
  endfacet
  facet normal 0 0 1
    outer loop
      vertex 20 -22 4
      vertex 3 -21.5848 4
      vertex 6 -22 4
    endloop
  endfacet
  facet normal 0 0 1
    outer loop
      vertex 6 -22 4
      vertex 3 -21.5848 4
      vertex 6 -25 4
    endloop
  endfacet
  facet normal 0 0 1
    outer loop
      vertex 20 -19 4
      vertex 3 -21.5848 4
      vertex 20 -22 4
    endloop
  endfacet
  facet normal 0 0 1
    outer loop
      vertex 3.77226 -21.2919 4
      vertex 3 -21.5848 4
      vertex 20 -19 4
    endloop
  endfacet
  facet normal 0 0 1
    outer loop
      vertex 5.25352 -19 4
      vertex 5.04182 -19.8589 4
      vertex 20 -19 4
    endloop
  endfacet
  facet normal 0 0 1
    outer loop
      vertex 5.04182 -19.8589 4
      vertex 3.77226 -21.2919 4
      vertex 20 -19 4
    endloop
  endfacet
  facet normal 0 0 1
    outer loop
      vertex 4.71634 -9.94522 4
      vertex 3.70906 -14.6841 4
      vertex 3.77226 -14.7081 4
    endloop
  endfacet
  facet normal 0 0 1
    outer loop
      vertex 5.04182 -16.1411 4
      vertex 4.71634 -9.94522 4
      vertex 3.77226 -14.7081 4
    endloop
  endfacet
  facet normal 0 0 1
    outer loop
      vertex 5.04182 -16.1411 4
      vertex 5.25352 -17 4
      vertex 4.71634 -9.94522 4
    endloop
  endfacet
  facet normal 0 0 1
    outer loop
      vertex 5.25352 -17 4
      vertex 20 -17 4
      vertex 4.71634 -9.94522 4
    endloop
  endfacet
  facet normal 0 0 1
    outer loop
      vertex 20 -17 4
      vertex 17 -14.75 4
      vertex 4.71634 -9.94522 4
    endloop
  endfacet
  facet normal 0 0 1
    outer loop
      vertex 20 -17 4
      vertex 20 -14.75 4
      vertex 17 -14.75 4
    endloop
  endfacet
  facet normal 0 0 1
    outer loop
      vertex 20 10.75 4
      vertex 20 12.6 4
      vertex 17 10.75 4
    endloop
  endfacet
  facet normal 0 0 1
    outer loop
      vertex 20 12.6 4
      vertex 10.0392 12.6 4
      vertex 17 10.75 4
    endloop
  endfacet
  facet normal 0 0 1
    outer loop
      vertex 10.0392 12.6 4
      vertex 5.44101 9.94522 4
      vertex 6.04528 9.94522 4
    endloop
  endfacet
  facet normal 0 0 1
    outer loop
      vertex 13.0902 5.87785 4
      vertex 14.1355 4.06737 4
      vertex 17 10.75 4
    endloop
  endfacet
  facet normal 0 0 1
    outer loop
      vertex 10.0392 12.6 4
      vertex 6.04528 9.94522 4
      vertex 8.09017 9.51056 4
    endloop
  endfacet
  facet normal 0 0 1
    outer loop
      vertex 17 10.75 4
      vertex 10.0392 12.6 4
      vertex 10 8.66025 4
    endloop
  endfacet
  facet normal 0 0 1
    outer loop
      vertex 17 10.75 4
      vertex 10 8.66025 4
      vertex 11.6913 7.43145 4
    endloop
  endfacet
  facet normal 0 0 1
    outer loop
      vertex 17 10.75 4
      vertex 11.6913 7.43145 4
      vertex 13.0902 5.87785 4
    endloop
  endfacet
  facet normal 0 0 1
    outer loop
      vertex 14.7815 2.07912 4
      vertex 17 10.75 4
      vertex 14.1355 4.06737 4
    endloop
  endfacet
  facet normal 0 0 1
    outer loop
      vertex 8.09017 9.51056 4
      vertex 10 8.66025 4
      vertex 10.0392 12.6 4
    endloop
  endfacet
  facet normal 0 0 1
    outer loop
      vertex 17 -14.75 4
      vertex 6.04528 -9.94522 4
      vertex 4.71634 -9.94522 4
    endloop
  endfacet
  facet normal 0 0 1
    outer loop
      vertex 17 -14.75 4
      vertex 8.09017 -9.51056 4
      vertex 6.04528 -9.94522 4
    endloop
  endfacet
  facet normal 0 0 1
    outer loop
      vertex 17 -14.75 4
      vertex 10 -8.66025 4
      vertex 8.09017 -9.51056 4
    endloop
  endfacet
  facet normal 0 0 1
    outer loop
      vertex 17 -14.75 4
      vertex 11.6913 -7.43145 4
      vertex 10 -8.66025 4
    endloop
  endfacet
  facet normal 0 0 1
    outer loop
      vertex 17 -14.75 4
      vertex 13.0902 -5.87785 4
      vertex 11.6913 -7.43145 4
    endloop
  endfacet
  facet normal 0 0 1
    outer loop
      vertex 17 -14.75 4
      vertex 14.1355 -4.06737 4
      vertex 13.0902 -5.87785 4
    endloop
  endfacet
  facet normal 0 0 1
    outer loop
      vertex 17 -14.75 4
      vertex 14.7815 -2.07912 4
      vertex 14.1355 -4.06737 4
    endloop
  endfacet
  facet normal 0 0 1
    outer loop
      vertex 17 -14.75 4
      vertex 15 0 4
      vertex 14.7815 -2.07912 4
    endloop
  endfacet
  facet normal 0 0 1
    outer loop
      vertex 17 -14.75 4
      vertex 14.7815 2.07912 4
      vertex 15 0 4
    endloop
  endfacet
  facet normal 0 0 1
    outer loop
      vertex 17 -14.75 4
      vertex 17 10.75 4
      vertex 14.7815 2.07912 4
    endloop
  endfacet
  facet normal 0 0 1
    outer loop
      vertex 0.75 25 4
      vertex 0.75 19 4
      vertex 1.5 19 4
    endloop
  endfacet
  facet normal 0 0 1
    outer loop
      vertex 3 21 4
      vertex 0.75 25 4
      vertex 1.5 19 4
    endloop
  endfacet
  facet normal 0 0 1
    outer loop
      vertex 1.5 14.5981 4
      vertex 8.3 18.5241 4
      vertex 1.5 19 4
    endloop
  endfacet
  facet normal 0 0 1
    outer loop
      vertex 3 21 4
      vertex 3 25 4
      vertex 0.75 25 4
    endloop
  endfacet
  facet normal 0 0 1
    outer loop
      vertex 8.3 18.5241 4
      vertex 3 21 4
      vertex 1.5 19 4
    endloop
  endfacet
  facet normal 0 0 1
    outer loop
      vertex 20 21 4
      vertex 8.3 18.6 4
      vertex 20 18.6 4
    endloop
  endfacet
  facet normal 0 0 1
    outer loop
      vertex 8.3 18.6 4
      vertex 3 21 4
      vertex 8.3 18.5241 4
    endloop
  endfacet
  facet normal 0 0 1
    outer loop
      vertex 20 21 4
      vertex 3 21 4
      vertex 8.3 18.6 4
    endloop
  endfacet
  facet normal 0 0 1
    outer loop
      vertex -8.3 18.5241 4
      vertex -1.5 14.5981 4
      vertex -8.3 18.6 4
    endloop
  endfacet
  facet normal 0 0 1
    outer loop
      vertex -20 21 4
      vertex -20 18.6 4
      vertex -8.3 18.6 4
    endloop
  endfacet
  facet normal 0 0 1
    outer loop
      vertex -1.5 19 4
      vertex -20 21 4
      vertex -8.3 18.6 4
    endloop
  endfacet
  facet normal 0 0 1
    outer loop
      vertex -1.5 14.5981 4
      vertex -1.5 19 4
      vertex -8.3 18.6 4
    endloop
  endfacet
  facet normal 0 0 1
    outer loop
      vertex -1.5 19 4
      vertex -0.75 19 4
      vertex -20 21 4
    endloop
  endfacet
  facet normal 0 0 1
    outer loop
      vertex -0.75 19 4
      vertex -3 21 4
      vertex -20 21 4
    endloop
  endfacet
  facet normal 0 0 1
    outer loop
      vertex -0.75 19 4
      vertex -0.75 25 4
      vertex -3 21 4
    endloop
  endfacet
  facet normal 0 0 1
    outer loop
      vertex -3 25 4
      vertex -3 21 4
      vertex -0.75 25 4
    endloop
  endfacet
  facet normal 0 -1 0
    outer loop
      vertex -8.3 18.6 2.01
      vertex -8.3 18.6 4
      vertex -20 18.6 4
    endloop
  endfacet
  facet normal 0 -1 0
    outer loop
      vertex -20 18.6 2.01
      vertex -8.3 18.6 2.01
      vertex -20 18.6 4
    endloop
  endfacet
  facet normal -1 0 -1.22461e-016
    outer loop
      vertex -8.3 18.6 2.01
      vertex -8.3 18.5241 2.01
      vertex -8.3 18.6 4
    endloop
  endfacet
  facet normal -1 0 -1.22461e-016
    outer loop
      vertex -8.3 18.6 4
      vertex -8.3 18.5241 2.01
      vertex -8.3 18.5241 4
    endloop
  endfacet
endsolid OpenSCAD_Model
